<svg viewBox="0 0 1705.9000244140625 400" xmlns="http://www.w3.org/2000/svg"><g><g><g><g><g><line x1="61.91500186920166" y1="376.57899951934814" x2="56.91500186920166" y2="376.57899951934814" style="visibility: inherit;" fill="rgb(0, 0, 0)" stroke="rgb(204, 204, 204)" stroke-width="1px"></line><line x1="61.91500186920166" y1="351.47373288472494" x2="56.91500186920166" y2="351.47373288472494" style="visibility: inherit;" fill="rgb(0, 0, 0)" stroke="rgb(204, 204, 204)" stroke-width="1px"></line><line x1="61.91500186920166" y1="326.36846625010173" x2="56.91500186920166" y2="326.36846625010173" style="visibility: inherit;" fill="rgb(0, 0, 0)" stroke="rgb(204, 204, 204)" stroke-width="1px"></line><line x1="61.91500186920166" y1="301.2631996154785" x2="56.91500186920166" y2="301.2631996154785" style="visibility: inherit;" fill="rgb(0, 0, 0)" stroke="rgb(204, 204, 204)" stroke-width="1px"></line><line x1="61.91500186920166" y1="276.1579329808553" x2="56.91500186920166" y2="276.1579329808553" style="visibility: inherit;" fill="rgb(0, 0, 0)" stroke="rgb(204, 204, 204)" stroke-width="1px"></line><line x1="61.91500186920166" y1="251.0526663462321" x2="56.91500186920166" y2="251.0526663462321" style="visibility: inherit;" fill="rgb(0, 0, 0)" stroke="rgb(204, 204, 204)" stroke-width="1px"></line><line x1="61.91500186920166" y1="225.94739971160888" x2="56.91500186920166" y2="225.94739971160888" style="visibility: inherit;" fill="rgb(0, 0, 0)" stroke="rgb(204, 204, 204)" stroke-width="1px"></line><line x1="61.91500186920166" y1="200.84213307698562" x2="56.91500186920166" y2="200.84213307698562" style="visibility: inherit;" fill="rgb(0, 0, 0)" stroke="rgb(204, 204, 204)" stroke-width="1px"></line><line x1="61.91500186920166" y1="175.73686644236247" x2="56.91500186920166" y2="175.73686644236247" style="visibility: inherit;" fill="rgb(0, 0, 0)" stroke="rgb(204, 204, 204)" stroke-width="1px"></line><line x1="61.91500186920166" y1="150.63159980773924" x2="56.91500186920166" y2="150.63159980773924" style="visibility: inherit;" fill="rgb(0, 0, 0)" stroke="rgb(204, 204, 204)" stroke-width="1px"></line><line x1="61.91500186920166" y1="125.52633317311602" x2="56.91500186920166" y2="125.52633317311602" style="visibility: inherit;" fill="rgb(0, 0, 0)" stroke="rgb(204, 204, 204)" stroke-width="1px"></line><line x1="61.91500186920166" y1="100.42106653849281" x2="56.91500186920166" y2="100.42106653849281" style="visibility: inherit;" fill="rgb(0, 0, 0)" stroke="rgb(204, 204, 204)" stroke-width="1px"></line><line x1="61.91500186920166" y1="75.31579990386962" x2="56.91500186920166" y2="75.31579990386962" style="visibility: inherit;" fill="rgb(0, 0, 0)" stroke="rgb(204, 204, 204)" stroke-width="1px"></line><line x1="61.91500186920166" y1="50.210533269246405" x2="56.91500186920166" y2="50.210533269246405" style="visibility: inherit;" fill="rgb(0, 0, 0)" stroke="rgb(204, 204, 204)" stroke-width="1px"></line><line x1="61.91500186920166" y1="25.105266634623245" x2="56.91500186920166" y2="25.105266634623245" style="visibility: inherit;" fill="rgb(0, 0, 0)" stroke="rgb(204, 204, 204)" stroke-width="1px"></line><line x1="61.91500186920166" y1="0" x2="56.91500186920166" y2="0" style="visibility: inherit;" fill="rgb(0, 0, 0)" stroke="rgb(204, 204, 204)" stroke-width="1px"></line></g><g transform="translate(51.91500186920166, 0)"><text style="text-anchor: end; visibility: hidden; font-family: Roboto, sans-serif; font-size: 12px; font-weight: 200;" x="0" y="376.57899951934814" dx="0em" dy="0.3em" fill="rgb(255, 255, 255)" stroke="none" stroke-width="1px">-0.04</text><text style="text-anchor: end; visibility: inherit; font-family: Roboto, sans-serif; font-size: 12px; font-weight: 200;" x="0" y="351.47373288472494" dx="0em" dy="0.3em" fill="rgb(255, 255, 255)" stroke="none" stroke-width="1px">-0.02</text><text style="text-anchor: end; visibility: inherit; font-family: Roboto, sans-serif; font-size: 12px; font-weight: 200;" x="0" y="326.36846625010173" dx="0em" dy="0.3em" fill="rgb(255, 255, 255)" stroke="none" stroke-width="1px">0</text><text style="text-anchor: end; visibility: inherit; font-family: Roboto, sans-serif; font-size: 12px; font-weight: 200;" x="0" y="301.2631996154785" dx="0em" dy="0.3em" fill="rgb(255, 255, 255)" stroke="none" stroke-width="1px">0.02</text><text style="text-anchor: end; visibility: inherit; font-family: Roboto, sans-serif; font-size: 12px; font-weight: 200;" x="0" y="276.1579329808553" dx="0em" dy="0.3em" fill="rgb(255, 255, 255)" stroke="none" stroke-width="1px">0.04</text><text style="text-anchor: end; visibility: inherit; font-family: Roboto, sans-serif; font-size: 12px; font-weight: 200;" x="0" y="251.0526663462321" dx="0em" dy="0.3em" fill="rgb(255, 255, 255)" stroke="none" stroke-width="1px">0.06</text><text style="text-anchor: end; visibility: inherit; font-family: Roboto, sans-serif; font-size: 12px; font-weight: 200;" x="0" y="225.94739971160888" dx="0em" dy="0.3em" fill="rgb(255, 255, 255)" stroke="none" stroke-width="1px">0.08</text><text style="text-anchor: end; visibility: inherit; font-family: Roboto, sans-serif; font-size: 12px; font-weight: 200;" x="0" y="200.84213307698562" dx="0em" dy="0.3em" fill="rgb(255, 255, 255)" stroke="none" stroke-width="1px">0.1</text><text style="text-anchor: end; visibility: inherit; font-family: Roboto, sans-serif; font-size: 12px; font-weight: 200;" x="0" y="175.73686644236247" dx="0em" dy="0.3em" fill="rgb(255, 255, 255)" stroke="none" stroke-width="1px">0.12</text><text style="text-anchor: end; visibility: inherit; font-family: Roboto, sans-serif; font-size: 12px; font-weight: 200;" x="0" y="150.63159980773924" dx="0em" dy="0.3em" fill="rgb(255, 255, 255)" stroke="none" stroke-width="1px">0.14</text><text style="text-anchor: end; visibility: inherit; font-family: Roboto, sans-serif; font-size: 12px; font-weight: 200;" x="0" y="125.52633317311602" dx="0em" dy="0.3em" fill="rgb(255, 255, 255)" stroke="none" stroke-width="1px">0.16</text><text style="text-anchor: end; visibility: inherit; font-family: Roboto, sans-serif; font-size: 12px; font-weight: 200;" x="0" y="100.42106653849281" dx="0em" dy="0.3em" fill="rgb(255, 255, 255)" stroke="none" stroke-width="1px">0.18</text><text style="text-anchor: end; visibility: inherit; font-family: Roboto, sans-serif; font-size: 12px; font-weight: 200;" x="0" y="75.31579990386962" dx="0em" dy="0.3em" fill="rgb(255, 255, 255)" stroke="none" stroke-width="1px">0.2</text><text style="text-anchor: end; visibility: inherit; font-family: Roboto, sans-serif; font-size: 12px; font-weight: 200;" x="0" y="50.210533269246405" dx="0em" dy="0.3em" fill="rgb(255, 255, 255)" stroke="none" stroke-width="1px">0.22</text><text style="text-anchor: end; visibility: inherit; font-family: Roboto, sans-serif; font-size: 12px; font-weight: 200;" x="0" y="25.105266634623245" dx="0em" dy="0.3em" fill="rgb(255, 255, 255)" stroke="none" stroke-width="1px">0.24</text><text style="text-anchor: end; visibility: hidden; font-family: Roboto, sans-serif; font-size: 12px; font-weight: 200;" x="0" y="0" dx="0em" dy="0.3em" fill="rgb(255, 255, 255)" stroke="none" stroke-width="1px">0.26</text></g><line x1="61.91500186920166" y1="0" x2="61.91500186920166" y2="376.57899951934814" fill="rgb(0, 0, 0)" stroke="rgb(204, 204, 204)" stroke-width="1px"></line></g></g><g transform="translate(61, 0)" clip-path="url(#clip_0)"><clipPath id="clip_0"><rect width="1643" height="376"></rect></clipPath><g><g><g><line x1="0" y1="0" x2="0" y2="376.57899951934814" fill="rgb(0, 0, 0)" stroke="rgb(189, 189, 189)" stroke-width="1px" opacity="0.25"></line><line x1="136.9987498442332" y1="0" x2="136.9987498442332" y2="376.57899951934814" fill="rgb(0, 0, 0)" stroke="rgb(189, 189, 189)" stroke-width="1px" opacity="0.25"></line><line x1="273.9974996884664" y1="0" x2="273.9974996884664" y2="376.57899951934814" fill="rgb(0, 0, 0)" stroke="rgb(189, 189, 189)" stroke-width="1px" opacity="0.25"></line><line x1="410.9962495326996" y1="0" x2="410.9962495326996" y2="376.57899951934814" fill="rgb(0, 0, 0)" stroke="rgb(189, 189, 189)" stroke-width="1px" opacity="0.25"></line><line x1="547.9949993769328" y1="0" x2="547.9949993769328" y2="376.57899951934814" fill="rgb(0, 0, 0)" stroke="rgb(189, 189, 189)" stroke-width="1px" opacity="0.25"></line><line x1="684.993749221166" y1="0" x2="684.993749221166" y2="376.57899951934814" fill="rgb(0, 0, 0)" stroke="rgb(189, 189, 189)" stroke-width="1px" opacity="0.25"></line><line x1="821.9924990653992" y1="0" x2="821.9924990653992" y2="376.57899951934814" fill="rgb(0, 0, 0)" stroke="rgb(189, 189, 189)" stroke-width="1px" opacity="0.25"></line><line x1="958.9912489096325" y1="0" x2="958.9912489096325" y2="376.57899951934814" fill="rgb(0, 0, 0)" stroke="rgb(189, 189, 189)" stroke-width="1px" opacity="0.25"></line><line x1="1095.9899987538656" y1="0" x2="1095.9899987538656" y2="376.57899951934814" fill="rgb(0, 0, 0)" stroke="rgb(189, 189, 189)" stroke-width="1px" opacity="0.25"></line><line x1="1232.988748598099" y1="0" x2="1232.988748598099" y2="376.57899951934814" fill="rgb(0, 0, 0)" stroke="rgb(189, 189, 189)" stroke-width="1px" opacity="0.25"></line><line x1="1369.987498442332" y1="0" x2="1369.987498442332" y2="376.57899951934814" fill="rgb(0, 0, 0)" stroke="rgb(189, 189, 189)" stroke-width="1px" opacity="0.25"></line><line x1="1506.9862482865651" y1="0" x2="1506.9862482865651" y2="376.57899951934814" fill="rgb(0, 0, 0)" stroke="rgb(189, 189, 189)" stroke-width="1px" opacity="0.25"></line><line x1="1643.9849981307984" y1="0" x2="1643.9849981307984" y2="376.57899951934814" fill="rgb(0, 0, 0)" stroke="rgb(189, 189, 189)" stroke-width="1px" opacity="0.25"></line></g><g><line x1="0" y1="376.57899951934814" x2="1643.9849981307984" y2="376.57899951934814" fill="rgb(0, 0, 0)" stroke="rgb(189, 189, 189)" stroke-width="1px" opacity="0.25"></line><line x1="0" y1="351.47373288472494" x2="1643.9849981307984" y2="351.47373288472494" fill="rgb(0, 0, 0)" stroke="rgb(189, 189, 189)" stroke-width="1px" opacity="0.25"></line><line x1="0" y1="326.36846625010173" x2="1643.9849981307984" y2="326.36846625010173" fill="rgb(0, 0, 0)" stroke="rgb(189, 189, 189)" stroke-width="1px" opacity="0.25"></line><line x1="0" y1="301.2631996154785" x2="1643.9849981307984" y2="301.2631996154785" fill="rgb(0, 0, 0)" stroke="rgb(189, 189, 189)" stroke-width="1px" opacity="0.25"></line><line x1="0" y1="276.1579329808553" x2="1643.9849981307984" y2="276.1579329808553" fill="rgb(0, 0, 0)" stroke="rgb(189, 189, 189)" stroke-width="1px" opacity="0.25"></line><line x1="0" y1="251.0526663462321" x2="1643.9849981307984" y2="251.0526663462321" fill="rgb(0, 0, 0)" stroke="rgb(189, 189, 189)" stroke-width="1px" opacity="0.25"></line><line x1="0" y1="225.94739971160888" x2="1643.9849981307984" y2="225.94739971160888" fill="rgb(0, 0, 0)" stroke="rgb(189, 189, 189)" stroke-width="1px" opacity="0.25"></line><line x1="0" y1="200.84213307698562" x2="1643.9849981307984" y2="200.84213307698562" fill="rgb(0, 0, 0)" stroke="rgb(189, 189, 189)" stroke-width="1px" opacity="0.25"></line><line x1="0" y1="175.73686644236247" x2="1643.9849981307984" y2="175.73686644236247" fill="rgb(0, 0, 0)" stroke="rgb(189, 189, 189)" stroke-width="1px" opacity="0.25"></line><line x1="0" y1="150.63159980773924" x2="1643.9849981307984" y2="150.63159980773924" fill="rgb(0, 0, 0)" stroke="rgb(189, 189, 189)" stroke-width="1px" opacity="0.25"></line><line x1="0" y1="125.52633317311602" x2="1643.9849981307984" y2="125.52633317311602" fill="rgb(0, 0, 0)" stroke="rgb(189, 189, 189)" stroke-width="1px" opacity="0.25"></line><line x1="0" y1="100.42106653849281" x2="1643.9849981307984" y2="100.42106653849281" fill="rgb(0, 0, 0)" stroke="rgb(189, 189, 189)" stroke-width="1px" opacity="0.25"></line><line x1="0" y1="75.31579990386962" x2="1643.9849981307984" y2="75.31579990386962" fill="rgb(0, 0, 0)" stroke="rgb(189, 189, 189)" stroke-width="1px" opacity="0.25"></line><line x1="0" y1="50.210533269246405" x2="1643.9849981307984" y2="50.210533269246405" fill="rgb(0, 0, 0)" stroke="rgb(189, 189, 189)" stroke-width="1px" opacity="0.25"></line><line x1="0" y1="25.105266634623245" x2="1643.9849981307984" y2="25.105266634623245" fill="rgb(0, 0, 0)" stroke="rgb(189, 189, 189)" stroke-width="1px" opacity="0.25"></line><line x1="0" y1="0" x2="1643.9849981307984" y2="0" fill="rgb(0, 0, 0)" stroke="rgb(189, 189, 189)" stroke-width="1px" opacity="0.25"></line></g></g></g><g><g><line x1="0" y1="326.36846625010173" x2="1643.9849981307984" y2="326.36846625010173" fill="rgb(0, 0, 0)" stroke="rgb(153, 153, 153)" stroke-width="1.5px"></line></g></g><g><g><line x1="136.9987498442332" y1="0" x2="136.9987498442332" y2="376.57899951934814" fill="rgb(0, 0, 0)" stroke="rgb(153, 153, 153)" stroke-width="1.5px"></line></g></g><g><g><g><g><g><path style="fill: none;" stroke="rgb(51, 187, 238)" stroke-width="2px" d="M138.36873734267553,39.732303454606416L139.7387248411179,205.5367693964358L141.10871233956019,274.0889522360728L142.47869983800254,305.0150283001002L143.84868733644484,319.6558040589921L145.2186748348872,323.9684289512332L146.58866233332952,328.83781700583205L147.95864983177185,330.61930011249433L149.3286373302142,331.57780661910215L150.6986248286565,331.3791132299617L152.06861232709886,332.4545190796292L153.4385998255412,334.83034831718055L154.80858732398352,334.6909946953714L156.17857482242584,336.02712804517125L157.5485623208682,334.22138303812073L158.9185498193105,336.8280306585495L160.28853731775285,339.3251591496408L161.65852481619518,340.4065282725314L163.0285123146375,342.06558089928797L164.39849981307987,343.7196600396179L165.76848731152216,344.32798839006887L167.13847480996452,341.9621297275759L168.50846230840682,340.28058588880526L169.87844980684918,340.46628576991753L171.2484373052915,340.9353710714307L172.61842480373383,342.65537465106206L173.98841230217616,343.88446284502265L175.3583998006185,345.01502306107983L176.72838729906084,344.2724896163824L178.09837479750317,345.2176751470824L179.4683622959455,344.4865042009404L180.83834979438782,345.0692145506434L182.20833729283018,346.6496243137099L183.57832479127248,346.0506635606677L184.94831228971483,346.2539837339375L186.31829978815713,347.37257846548243L187.6882872865995,345.8251759730621L189.05827478504182,347.0397017653464L190.42826228348414,345.1632168034921L191.7982497819265,346.3087666473418L193.1682372803688,346.7189538089673L194.53822477881116,344.6787231104919L195.90821227725348,345.0870489947272L197.2781997756958,343.87590833250175L198.64818727413814,345.39394576316744L200.0181747725805,345.12757090865745L201.3881622710228,345.15798679642256L202.75814976946515,346.3881732825388L204.12813726790748,345.1587823124042L205.4981247663498,348.8996985980428L206.86811226479213,348.5700807417142L208.2380997632345,349.52457560444253L209.60808726167681,349.41346602016256L210.9780747601191,351.30967554373643L212.3480622585615,351.76910708446854L213.7180497570038,350.8802234835797L215.08803725544612,350.78708277538135L216.45802475388845,350.2212546549819L217.8280122523308,350.835228816616L219.1979997507731,350.8135333028779L220.56798724921543,353.74796758491794L221.9379747476578,354.31136237431707L223.30796224610012,351.8961286413617L224.67794974454245,352.46942188810635L226.0479372429848,355.15995792211294L227.41792474142713,355.15376158032643L228.78791223986943,354.45789770203663L230.1578997383118,357.03730537624347L231.5278872367541,356.87635821473816L232.89787473519644,356.60623574194204L234.26786223363877,355.3860196441774L235.63784973208112,355.60155689474135L237.00783723052345,353.116060298986L238.37782472896575,353.2590807651071L239.74781222740813,353.98272949529746L241.11779972585043,353.7486840451357L242.48778722429276,354.7866072437025L243.85777472273512,355.78435288110325L245.22776222117744,356.96889887030324L246.59774971961974,356.3324158092152L247.96773721806213,355.4082518250909L249.33772471650443,356.0996416179982L250.70771221494675,355.56517658363106L252.07769971338908,355.71230009628607L253.44768721183144,355.18218521839384L254.81767471027376,354.4599066136462L256.18766220871606,354.81309654162084L257.5576497071584,356.23626939989117L258.9276372056008,354.02353028028944L260.2976247040431,354.3544336647818L261.66761220248543,355.4686058193444L263.03759970092773,355.3238171344926L264.4075871993701,354.9804485632637L265.7775746978124,355.34757116876364L267.14756219625474,355.4281800600137L268.5175496946971,354.7574194008354L269.8875371931394,355.0524549336066L271.25752469158175,357.4741181175354L272.62751219002405,357.52751861237664L273.9974996884664,356.8367396365508L275.36748718690876,356.52800813901155L276.73747468535106,357.5660011364597L278.1074621837934,357.5301672031728L279.4774496822358,357.02814124970126L280.84743718067807,357.5235310306474L282.21742467912037,357.70112660827215L283.5874121775627,357.6703265298988L284.9573996760051,357.8994027804447L286.3273871744474,355.46534634867L287.6973746728897,353.88445211913137L289.0673621713321,354.38327965216433L290.4373496697744,353.47383214178217L291.8073371682167,353.8252282295385L293.17732466665905,354.62611416685644L294.5473121651014,354.8486605251381L295.9172996635437,355.1131795587229L297.28728716198606,354.4831014604737L298.6572746604284,354.91376388320805L300.0272621588707,354.7106558018451L301.397249657313,355.3133553911782L302.76723715575537,354.63783063037886L304.1372246541977,355.7937476797337L305.50721215264,354.4828482309036L306.8771996510824,354.0015563244051L308.24718714952473,353.73053304805336L309.61717464796703,354.5941960606371L310.9871621464094,354.21485978168243L312.3571496448517,352.6106096175954L313.72713714329404,354.14663791597235L315.0971246417364,354.260210571843L316.4671121401787,352.89576133932985L317.837099638621,353.79882748590353L319.20708713706335,350.3807507571048L320.5770746355057,352.0953558386856L321.947062133948,353.15715264316003L323.31704963239036,352.2926337224015L324.6870371308327,350.1586342925525L326.057024629275,351.37498275884235L327.4270121277173,352.60514273574927L328.79699962615973,352.81515596782384L330.16698712460203,354.1658267264556L331.53697462304433,354.4369431389423L332.9069621214867,353.3708753086677L334.27694961992904,352.83124961052977L335.64693711837134,353.6366626209298L337.01692461681364,354.0479284326676L338.386912115256,354.019507318271L339.75689961369835,354.5634336783514L341.12688711214065,353.3922551911632L342.496874610583,353.142458740921L343.86686210902536,353.1104141406783L345.23684960746766,350.34990099135274L346.60683710591,350.6256997814901L347.9768246043523,351.0786207066691L349.3468121027947,351.59131083711725L350.716799601237,353.0741909491324L352.0867870996793,353.96735042680626L353.4567745981217,353.15440532840194L354.826762096564,353.01730896577874L356.19674959500634,354.22531759758897L357.56673709344864,353.45843000785203L358.936724591891,353.0796543349931L360.30671209033335,350.58137505494176L361.67669958877565,351.03565816440505L363.04668708721795,350.9624561420622L364.41667458566036,352.9220381401083L365.78666208410266,352.1614860895838L367.15664958254496,352.80184355738544L368.5266370809873,353.04589394568717L369.89662457942967,353.2102892818618L371.26661207787197,353.3945574299146L372.63659957631427,353.24830591069144L374.0065870747567,353.6626884714733L375.376574573199,352.4258492883543L376.7465620716413,352.52038986506494L378.11654957008363,352.15544913789944L379.486537068526,350.3833145995831L380.8565245669683,350.1710723045388L382.22651206541065,349.06076764835296L383.596499563853,348.2875134381641L384.9664870622953,346.39115279671773L386.3364745607376,349.18598485271104L387.70646205917996,349.85862275313974L389.0764495576223,350.72754272332395L390.4464370560646,351.0568021217378L391.81642455450697,350.422798596171L393.18641205294927,350.2098996276406L394.5563995513916,350.08791573848197L395.926387049834,350.828119324179L397.2963745482763,351.32755742090853L398.66636204671863,350.98095914991495L400.036349545161,352.42958022530917L401.4063370436033,351.68419054254423L402.7763245420456,352.81341067107843L404.14631204048794,351.8378810983712L405.5162995389303,350.922799104097L406.8862870373726,348.72511944407216L408.25627453581495,350.094629412293L409.6262620342573,349.04350822314035L410.9962495326996,349.7329259569369L412.36623703114196,348.8786578047004L413.73622452958426,349.07073223578493L415.1062120280266,350.1590478381238L416.476199526469,349.29786583966563L417.8461870249112,351.11312224295773L419.21617452335363,350.3795134647491L420.586162021796,351.0001216534582L421.9561495202382,349.9962197495468L423.3261370186806,349.9732239588147L424.696124517123,348.56717354048095L426.06611201556524,349.1420709800626L427.4360995140076,349.128850248185L428.8060870124499,349.52076363827587L430.17607451089225,350.35921330060194L431.5460620093346,349.39119656160017L432.9160495077769,348.3198388493276L434.28603700621926,347.1404265383289L435.6560245046616,346.6014621089239L437.02601200310386,345.31505375546817L438.3959995015462,346.31692669732735L439.7659869999886,347.3947368790664L441.13597449843087,347.3745986478798L442.5059619968732,347.7601094706832L443.8759494953156,347.50387510515407L445.2459369937579,347.1339107348433L446.61592449220024,348.386614662474L447.9859119906426,347.90440600212224L449.3558994890849,347.17222123177856L450.72588698752725,346.6569213218849L452.0958744859696,347.7418634051018L453.4658619844119,347.2170014748483L454.83584948285426,347.7890389223678L456.2058369812966,347.44313615598304L457.57582447973886,347.95798823283434L458.94581197818127,346.2843924966928L460.3157994766236,345.30269213543284L461.68578697506587,345.4584441752828L463.0557744735082,346.48876959193603L464.4257619719505,346.663950952525L465.7957494703929,346.89090430056444L467.16573696883523,345.03424750604177L468.53572446727753,344.6316374729085L469.9057119657199,345.3686645452827L471.27569946416224,345.1477487920354L472.6456869626045,343.5946127097019L474.0156744610469,343.60387230407946L475.38566195948925,343.75778021485104L476.7556494579315,343.625534984561L478.12563695637385,343.26375068626794L479.49562445481627,345.0532635450634L480.8656119532585,345.2811571057273L482.23559945170086,343.792240322411L483.6055869501432,343.8739359639469L484.9755744485855,344.1835834231859L486.3455619470279,340.0100609080291L487.71554944547023,341.1563737858115L489.08553694391253,339.561101225L490.4555244423549,339.72138553145925L491.82551194079724,342.13261531078683L493.1954994392395,342.7917018520071L494.5654869376819,341.49585420580064L495.93547443612425,341.2743369902107L497.3054619345665,341.5701065321382L498.67544943300885,340.02128915555835L500.04543693145115,339.8063905180952L501.4154244298935,338.93029233616426L502.78541192833586,339.28599854653885L504.15539942677816,338.86295735766333L505.5253869252205,338.7102301893671L506.8953744236629,338.49404322800893L508.26536192210517,339.88182439796486L509.6353494205475,339.29895959322215L511.0053369189899,339.17804723498455L512.3753244174321,338.99711625614526L513.7453119158745,337.4892090282462L515.1152994143168,336.24882851101154L516.4852869127592,339.6405239384821L517.8552744112015,340.83650849504716L519.2252619096439,339.17226033412874L520.5952494080861,339.68711636493003L521.9652369065285,338.9168242701739L523.3352244049709,338.03563255131286L524.7052119034131,336.8001131327782L526.0751994018555,335.49042630908303L527.4451869002979,336.277047071213L528.8151743987402,333.6569721918396L530.1851618971825,332.2721187014036L531.5551493956248,334.45641148589914L532.9251368940671,334.082892238292L534.2951243925095,332.55446769286584L535.6651118909518,332.54585258240945L537.0350993893942,332.6260712990275L538.4050868878365,334.42507527622007L539.7750743862788,335.37144059753354L541.1450618847211,337.02047300493837L542.5150493831635,335.8182539056714L543.8850368816057,334.91812482438274L545.2550243800481,335.559286111749L546.6250118784905,335.58801286108104L547.9949993769328,336.1402517693781L549.3649868753752,336.18398231359635L550.7349743738175,335.91219763770926L552.1049618722598,334.02517987841566L553.4749493707021,335.0650304194978L554.8449368691445,334.3781487271378L556.2149243675868,333.8066337819402L557.5849118660292,332.47389710326854L558.9548993644715,331.84357156420657L560.3248868629138,333.3245461587176L561.6948743613561,331.92237450455434L563.0648618597985,332.8160832214138L564.4348493582407,334.0838612671252L565.8048368566831,333.0941428432978L567.1748243551255,329.49286902679233L568.5448118535678,330.963271350526L569.9147993520102,331.2349038208245L571.2847868504524,329.53374373191906L572.6547743488948,328.2214370272861L574.0247618473371,329.0603170221899L575.3947493457794,330.96431457506026L576.7647368442218,331.7233072315039L578.1347243426642,332.2719337987798L579.5047118411064,331.3039003885589L580.8746993395488,328.238811647373L582.2446868379911,327.6309827628712L583.6146743364334,328.4642275249706L584.9846618348757,327.17596353559117L586.3546493333181,326.29862079858276L587.7246368317604,327.7562982586861L589.0946243302028,328.4035851312937L590.4646118286452,328.8157977950624L591.8345993270874,330.28652165843926L593.2045868255298,330.27792464192595L594.5745743239721,330.24463101726843L595.9445618224144,329.34055197130664L597.3145493208568,328.5650061256666L598.6845368192992,327.689150516096L600.0545243177414,326.56119036734964L601.4245118161838,327.7608581538816L602.794499314626,329.0464400989683L604.1644868130684,326.2721476238887L605.5344743115107,325.46753875732213L606.9044618099531,327.45192272368536L608.2744493083954,325.69061187409926L609.6444368068378,325.8043336069641L611.01442430528,326.0385974955741L612.3844118037224,325.75061334061013L613.7543993021648,325.0172697641309L615.124386800607,326.315565574665L616.4943742990495,324.3771928991678L617.8643617974918,324.07714552774326L619.2343492959341,323.3600647757336L620.6043367943764,325.3376575762395L621.9743242928188,325.25587208442903L623.344311791261,324.3609292341251L624.7142992897034,325.61812515319235L626.0842867881457,325.83631343214086L627.4542742865881,325.2128230287764L628.8242617850304,324.5286989457092L630.1942492834728,325.80909233476723L631.564236781915,323.72079559419586L632.9342242803574,322.45377883504426L634.3042117787996,322.3922816689549L635.674199277242,320.80216206267187L637.0441867756845,318.2997455886246L638.4141742741267,320.1295246954613L639.7841617725691,320.40887053098834L641.1541492710114,321.4027681487778L642.5241367694537,319.2208119043862L643.894124267896,322.1253594970285L645.2641117663384,322.1597253958068L646.6340992647807,323.7021782819159L648.0040867632231,323.0437331784873L649.3740742616654,324.16972110640137L650.7440617601077,322.3633134856642L652.11404925855,322.3420106815671L653.4840367569924,322.83046639070744L654.8540242554346,324.45918876450304L656.224011753877,324.89249089112275L657.5939992523195,322.56144162134854L658.9639867507617,322.0264685665077L660.3339742492041,324.04401145301034L661.7039617476464,324.31163999118075L663.0739492460887,323.5590609445718L664.443936744531,322.78381572656696L665.8139242429734,323.85816180551893L667.1839117414157,321.67403049573966L668.5538992398581,321.52267028726004L669.9238867383003,321.2856661627875L671.2938742367427,322.71027368178994L672.663861735185,321.99666587429925L674.0338492336273,322.5989355618678L675.4038367320696,322.2812894928733L676.773824230512,321.68798306940516L678.1438117289543,321.7034239127312L679.5137992273967,321.519454603463L680.8837867258391,317.537018572218L682.2537742242813,318.9619465883812L683.6237617227237,313.00822655311015L684.993749221166,316.15668875937365L686.3637367196084,319.0642981885407L687.7337242180507,318.46297070600315L689.1037117164931,316.99247112961467L690.4736992149353,316.76507182983875L691.8436867133777,315.2920875862742L693.21367421182,318.7537004255538L694.5836617102623,318.78010162441717L695.9536492087046,319.21040884337924L697.323636707147,315.9872710725243L698.6936242055893,315.0789008263852L700.0636117040317,317.5039021506181L701.433599202474,319.06088149009366L702.8035867009163,318.7945161648861L704.1735741993587,319.92901173997507L705.5435616978009,315.38422355957226L706.9135491962434,318.48015189234286L708.2835366946857,320.47402141552465L709.653524193128,319.6966931422628L711.0235116915703,320.51680890874013L712.3934991900127,319.6959358748013L713.7634866884549,320.0490889619852L715.1334741868973,316.17405661720943L716.5034616853396,316.8415168274413L717.873449183782,317.0296581812093L719.2434366822243,312.125349063398L720.6134241806667,312.40579793938014L721.9834116791089,309.9580203434218L723.3533991775513,307.86105214854473L724.7233866759937,310.61049117462716L726.0933741744359,312.41517316409806L727.4633616728784,314.2481745875388L728.8333491713207,314.99281533987363L730.203336669763,314.56048627182145L731.5733241682053,313.8934860875197L732.9433116666477,315.6567086749097L734.3132991650899,314.2857612575834L735.6832866635323,312.8135582528235L737.0532741619746,313.78804827663186L738.423261660417,314.9847220488429L739.7932491588593,315.47968603482786L741.1632366573016,314.14826375964896L742.5332241557439,310.0741263002198L743.9032116541863,309.13587730044463L745.2731991526285,310.85589933987455L746.6431866510709,309.06161529481784L748.0131741495134,312.4167516984838L749.3831616479556,313.4879992810554L750.753149146398,315.2561599781685L752.1231366448403,312.8752976899625L753.4931241432826,313.1255798834623L754.8631116417249,312.9441116550555L756.2330991401673,311.17833877612634L757.6030866386096,312.3572241233614L758.973074137052,314.5199636704498L760.3430616354943,313.84928456171093L761.7130491339366,312.1015986560925L763.0830366323789,312.38615694822147L764.4530241308213,312.5654662410624L765.8230116292635,313.28848356052714L767.192999127706,312.38245535891946L768.5629866261484,312.70196208967394L769.9329741245906,311.33894585907626L771.302961623033,310.11673612053863L772.6729491214752,312.10055754972495L774.0429366199176,310.17113761597716L775.4129241183599,312.23048346959695L776.7829116168023,313.34899795754154L778.1528991152446,312.5804106456193L779.522886613687,312.4811004452101L780.8928741121292,314.33279896470424L782.2628616105716,311.78282273018675L783.6328491090139,310.67294160795007L785.0028366074562,312.8963278834874L786.3728241058985,312.48532095404903L787.742811604341,312.57599620069874L789.1127991027832,312.2650454500023L790.4827866012256,311.6989623115263L791.852774099668,313.1555594765911L793.2227615981102,312.33920114620093L794.5927490965526,313.1149986286235L795.9627365949949,311.46279790862826L797.3327240934373,310.32396330116586L798.7027115918796,310.301284805919L800.072699090322,309.1662602224022L801.4426865887642,306.5845293242678L802.8126740872066,306.0651187432574L804.1826615856489,304.97630515421383L805.5526490840912,305.9250699718332L806.9226365825335,303.91128436570716L808.2926240809759,306.02946523424816L809.6626115794182,304.71509215487794L811.0325990778606,304.90662933618063L812.4025865763028,304.9118232001038L813.7725740747452,305.2195915307895L815.1425615731875,302.34878399069396L816.5125490716299,301.926906909618L817.8825365700723,302.5768252054927L819.2525240685146,302.14680188660265L820.6225115669569,301.34069746497335L821.9924990653992,301.7102476823863L823.3624865638416,303.475320370244L824.7324740622839,304.0868599868124L826.1024615607262,305.9993629503385L827.4724490591685,301.5302841017554L828.8424365576109,303.3389126728584L830.2124240560532,305.07194085945736L831.5824115544956,303.5793749779542L832.952399052938,302.8277947618365L834.3223865513801,302.8434651464583L835.6923740498224,303.13646423998773L837.0623615482649,303.76767611604276L838.4323490467073,303.24948735149616L839.8023365451496,302.6144409466177L841.172324043592,301.33772705945296L842.5423115420341,299.6761931850204L843.9122990404765,299.7092627576832L845.2822865389188,298.16065718750536L846.6522740373612,299.6656647893866L848.0222615358035,301.04887509054544L849.392249034246,301.8879096131639L850.7622365326881,302.6599548672973L852.1322240311305,300.19446243281925L853.5022115295728,299.5967298957847L854.8721990280152,298.2670227226574L856.2421865264575,298.8801487619698L857.6121740248998,296.8074217681526L858.9821615233421,296.4468804252887L860.3521490217845,296.89517933052167L861.7221365202269,297.70888877204067L863.0921240186692,299.7530528613937L864.4621115171116,301.0885427875428L865.8320990155538,299.5544266369837L867.2020865139962,296.5646546391903L868.5720740124385,295.26240996383706L869.9420615108809,297.23311888318295L871.3120490093232,296.6496388421326L872.6820365077656,293.8611338654715L874.0520240062077,295.81626906859435L875.4220115046501,297.06382835137265L876.7919990030924,299.4268177607299L878.1619865015349,296.8702721232939L879.5319739999773,296.4120138286476L880.9019614984196,294.3189659052792L882.2719489968617,294.4447582406519L883.6419364953041,296.0281846934783L885.0119239937464,295.4866890182045L886.3819114921888,295.84245101868447L887.7518989906312,295.8392738958358L889.1218864890736,294.78631602852033L890.4918739875158,294.2328296533457L891.8618614859581,294.2525551338807L893.2318489844005,295.6764340656995L894.6018364828428,297.0624579619172L895.9718239812852,297.9704246896534L897.3418114797274,293.950311191543L898.7117989781698,294.0331927425441L900.0817864766121,296.2237785685685L901.4517739750545,296.4968919865231L902.8217614734968,298.0311853200193L904.1917489719392,294.9163047728367L905.5617364703814,295.4973904229312L906.9317239688238,297.3950210863615L908.3017114672662,297.62627806880243L909.6716989657085,299.00010995553225L911.0416864641509,298.41060905572334L912.4116739625932,299.2680102963211L913.7816614610354,299.8639425968079L915.1516489594777,294.68816041005994L916.5216364579201,292.9932346100328L917.8916239563625,293.48415068587406L919.2616114548049,295.18572358474984L920.6315989532472,292.61857916255224L922.0015864516894,293.653411280125L923.3715739501317,291.15758165559004L924.7415614485741,290.43262072795375L926.1115489470164,287.0728498037435L927.4815364454588,285.4427660724931L928.851523943901,285.8077599760531L930.2215114423434,286.94532497890015L931.5914989407858,290.9993767393707L932.9614864392281,288.663343426827L934.3314739376705,289.7434870831332L935.7014614361128,289.6417637957912L937.0714489345551,289.1669600805684L938.4414364329974,291.5330570739549L939.8114239314398,294.2602893459886L941.1814114298821,295.21142962888604L942.5513989283245,293.8882109035945L943.9213864267668,289.1634067884107L945.291373925209,287.25892007642386L946.6613614236514,286.63741524882965L948.0313489220938,289.356520876296L949.4013364205362,291.33284240734775L950.7713239189785,287.44094840708823L952.1413114174209,289.4568423467047L953.511298915863,290.20186823629876L954.8812864143054,290.00733440061L956.2512739127477,291.16748878885215L957.6212614111901,290.13223423248724L958.9912489096325,288.98411355552105L960.3612364080747,289.4521904281266L961.731223906517,290.9648156431474L963.1012114049594,293.5230030177883L964.4711989034017,292.00541910969594L965.8411864018441,292.52260580370427L967.2111739002864,291.5843473567566L968.5811613987287,290.2675949267805L969.951148897171,287.2297077460559L971.3211363956134,289.2969725406412L972.6911238940557,287.2425255061353L974.0611113924981,285.7442273963571L975.4310988909405,287.43028930563884L976.8010863893827,286.6200579243477L978.1710738878251,288.32147927373796L979.5410613862674,289.96965545538495L980.9110488847098,290.062313038454L982.2810363831521,288.75080803345764L983.6510238815945,288.7388108507545L985.0210113800366,287.9045425480167L986.390998878479,290.1770129447621L987.7609863769214,292.05602415583013L989.1309738753638,290.77231651035197L990.5009613738061,292.4449784064699L991.8709488722485,292.07268375987286L993.2409363706906,293.2513986833449L994.610923869133,291.6437975767714L995.9809113675753,292.17270664536886L997.3508988660177,290.7920351251109L998.7208863644601,288.7240943367575L1000.0908738629023,290.7807899976515L1001.4608613613447,289.5625694054036L1002.830848859787,289.9453434491297L1004.2008363582294,289.46283635628464L1005.5708238566717,290.58445920489413L1006.9408113551141,287.838327455453L1008.3107988535563,288.3649786214475L1009.6807863519987,288.1794362754164L1011.050773850441,285.275837778071L1012.4207613488834,283.1072429265099L1013.7907488473257,283.16342068715613L1015.1607363457681,283.80786229162294L1016.5307238442103,283.5341420694423L1017.9007113426527,285.9212267456386L1019.270698841095,287.0648434640803L1020.6406863395374,286.5973693688763L1022.0106738379798,286.70320804707393L1023.3806613364221,284.06550942532454L1024.7506488348643,284.085386061384L1026.1206363333067,283.34975275910796L1027.490623831749,287.08460787275084L1028.8606113301914,285.0175118280321L1030.2305988286337,286.41958054565623L1031.600586327076,288.38423039720817L1032.9705738255184,289.3451177940542L1034.3405613239606,290.23036213896825L1035.710548822403,290.52218166085134L1037.0805363208453,290.22499195689136L1038.4505238192878,290.1295968730826L1039.8205113177298,291.6557495309568L1041.1904988161723,290.74890389931653L1042.5604863146148,290.0457040233754L1043.930473813057,286.7509762066316L1045.3004613114995,288.3853469113295L1046.6704488099417,288.6220341209782L1048.040436308384,289.3937322452817L1049.4104238068262,288.48856013520526L1050.7804113052687,286.53494983165615L1052.150398803711,288.1610451069846L1053.5203863021534,288.91242606981154L1054.8903738005959,286.90264903009773L1056.2603612990379,287.6116856714753L1057.6303487974803,282.9954313747878L1059.0003362959226,283.7521998416743L1060.370323794365,284.2203644022664L1061.7403112928073,282.31919471359066L1063.1102987912495,282.16035326777137L1064.480286289692,283.05633041634974L1065.8502737881342,281.53910694002883L1067.2202612865767,282.45249503482813L1068.590248785019,280.09243885352083L1069.9602362834614,280.6710113794233L1071.3302237819037,279.7383276398046L1072.700211280346,280.7990165111131L1074.0701987787884,279.6114495259452L1075.4401862772306,277.7399249649795L1076.810173775673,278.4972772650012L1078.1801612741153,277.1348891409717L1079.5501487725576,275.4466168513207L1080.9201362709998,277.3259144452058L1082.2901237694423,277.9931864494212L1083.6601112678848,274.26782147728477L1085.030098766327,273.6617939096274L1086.4000862647695,276.3023440297444L1087.7700737632115,275.62423267255406L1089.140061261654,273.8330381725297L1090.5100487600962,271.68072391144324L1091.8800362585387,273.89303270359306L1093.250023756981,272.8221996871397L1094.6200112554234,271.24776283792943L1095.9899987538656,270.6688466238636L1097.3599862523079,272.4299410373793L1098.7299737507503,275.8243954698284L1100.0999612491926,276.7481314360865L1101.469948747635,278.05584117173885L1102.8399362460773,280.5843698539774L1104.2099237445195,279.06319521726255L1105.579911242962,280.2353495924246L1106.9498987414042,277.04991237020624L1108.3198862398467,276.9981677487092L1109.689873738289,275.2110113294621L1111.0598612367312,273.75914493423585L1112.4298487351737,275.55460980204447L1113.799836233616,275.27500296829675L1115.1698237320584,278.0605619205542L1116.5398112305006,276.60945405560915L1117.909798728943,274.16042282434154L1119.279786227385,273.085430175457L1120.6497737258276,275.545162429397L1122.0197612242698,278.3484011613964L1123.3897487227123,280.69269920945203L1124.7597362211548,279.47699958555046L1126.129723719597,276.90239003841066L1127.4997112180392,278.9383539713673L1128.8696987164815,278.60487397136234L1130.239686214924,279.15545961799864L1131.6096737133662,280.37230453632947L1132.9796612118087,280.1169092795631L1134.349648710251,277.6829560272646L1135.7196362086931,278.3932911560471L1137.0896237071356,278.3423961797937L1138.4596112055779,274.50253343810715L1139.8295987040203,275.5323082172205L1141.1995862024626,277.6645763850773L1142.5695737009048,276.7963138995766L1143.9395611993473,275.7625003627856L1145.3095486977895,276.77760619495706L1146.679536196232,278.1419597055909L1148.0495236946742,278.57191430747173L1149.4195111931167,277.3338557025719L1150.7894986915587,275.3537038680815L1152.1594861900012,276.517212883599L1153.5294736884437,277.76387821572405L1154.899461186886,275.8327454757144L1156.2694486853284,277.608822419089L1157.6394361837706,274.98488960843343L1159.0094236822129,277.13116648354276L1160.379411180655,276.89117402300917L1161.7493986790976,278.16452595926427L1163.1193861775398,278.09668054879046L1164.4893736759823,277.5267392629958L1165.8593611744245,275.6145576959777L1167.2293486728668,274.4377268416948L1168.5993361713092,274.88428857864056L1169.9693236697515,278.2329588424152L1171.339311168194,277.39522944221784L1172.7092986666362,276.8652995098721L1174.0792861650784,276.0900782825279L1175.449273663521,274.27116293148725L1176.8192611619631,275.7758099449579L1178.1892486604056,274.3634407569618L1179.5592361588479,272.0698176817775L1180.9292236572903,271.6849277232251L1182.2992111557326,270.6695989415425L1183.6691986541748,272.1507525828581L1185.0391861526173,270.6487795069516L1186.4091736510595,269.9993222122516L1187.779161149502,272.82245435303474L1189.1491486479442,273.32937424724685L1190.5191361463865,276.5375431693135L1191.8891236448287,273.594901333007L1193.2591111432712,274.6822258697318L1194.6290986417137,275.1225895399048L1195.999086140156,279.4734558082853L1197.3690736385984,277.37033240168995L1198.7390611370404,276.3260092200505L1200.1090486354828,274.25909082236797L1201.479036133925,274.22074897923807L1202.8490236323676,275.71791575912556L1204.2190111308098,276.62215836783014L1205.588998629252,277.9013152499709L1206.9589861276945,275.74988273287397L1208.3289736261368,278.48910585751395L1209.6989611245792,278.1307161480673L1211.0689486230215,277.5973140206491L1212.438936121464,276.8526345301322L1213.8089236199062,277.672209022342L1215.1789111183484,275.5942920958803L1216.548898616791,277.57618401007L1217.9188861152331,277.542399634129L1219.2888736136756,276.17781667530556L1220.6588611121178,274.5737836116012L1222.02884861056,278.11318912478663L1223.3988361090026,276.1164501130925L1224.7688236074448,278.6793448047132L1226.1388111058873,281.6323565314186L1227.5087986043295,280.6586442636358L1228.878786102772,279.50694634521096L1230.248773601214,280.0429023368652L1231.6187610996565,280.57727388385075L1232.988748598099,280.82636186420154L1234.3587360965412,279.30366560651595L1235.7287235949836,278.73843374707974L1237.0987110934257,277.03730244440465L1238.4686985918681,277.60214666266535L1239.8386860903104,278.37862209209374L1241.2086735887528,276.79727306118775L1242.578661087195,277.2420783018934L1243.9486485856376,278.5297204847438L1245.3186360840798,279.8657622846936L1246.688623582522,280.6218877410305L1248.0586110809645,280.25096954799386L1249.4285985794068,277.0359163354061L1250.7985860778492,276.77667663871244L1252.1685735762915,277.45802661744295L1253.5385610747337,275.2658386953408L1254.9085485731762,276.4542584689363L1256.2785360716184,277.06429694060284L1257.648523570061,276.02718457979887L1259.0185110685031,277.7653366310361L1260.3884985669456,275.97279793479504L1261.7584860653878,276.3244309693515L1263.12847356383,276.52835343839087L1264.4984610622726,275.29753595479724L1265.8684485607148,276.63569130847657L1267.2384360591573,274.6668203980006L1268.6084235575993,275.4043885976028L1269.9784110560418,274.5703195017783L1271.348398554484,272.8043244840028L1272.7183860529265,275.1513352655392L1274.088373551369,274.9744377239353L1275.4583610498112,273.27607236966844L1276.8283485482534,270.35450299547784L1278.1983360466957,269.48848137260484L1279.5683235451381,268.07338156162865L1280.9383110435804,268.00886986162027L1282.3082985420228,269.83265088859116L1283.678286040465,272.6922226002554L1285.0482735389073,271.69770315411006L1286.4182610373498,270.1912159903859L1287.788248535792,271.33379108058335L1289.1582360342345,271.5467834968338L1290.5282235326767,267.64638363420374L1291.8982110311192,268.3496055918605L1293.2681985295615,267.23695289920033L1294.6381860280037,265.12281929237884L1296.0081735264462,264.7903781480816L1297.3781610248884,264.4407749911991L1298.7481485233309,264.74836392552385L1300.1181360217731,266.5761747724409L1301.4881235202154,265.310694776963L1302.8581110186578,266.2690068165141L1304.2280985171,267.40663686815003L1305.5980860155425,267.00442905219666L1306.9680735139848,266.7775426604591L1308.338061012427,267.0134396904877L1309.7080485108693,268.061577315706L1311.0780360093117,264.04980316983864L1312.448023507754,266.1062526959564L1313.8180110061965,265.37441334797853L1315.187998504639,264.55156226601946L1316.557986003081,261.5142664700027L1317.9279735015234,265.6464831899931L1319.2979609999657,263.3347281050255L1320.6679484984081,263.0271337508007L1322.0379359968504,264.5379352008131L1323.4079234952928,265.15678924139957L1324.777910993735,259.9042920700728L1326.1478984921773,258.83533913065753L1327.5178859906198,260.3944937688537L1328.887873489062,260.2015584759113L1330.2578609875045,262.37400470332386L1331.6278484859467,264.0018001166869L1332.997835984389,262.949774001993L1334.3678234828315,264.6204988601661L1335.7378109812737,265.3012621912916L1337.1077984797162,266.04107529076686L1338.4777859781584,266.14921240255904L1339.8477734766007,262.575941022966L1341.217760975043,266.84196330213456L1342.5877484734854,266.0109334935782L1343.9577359719278,265.0504846085071L1345.32772347037,262.8735226189076L1346.6977109688125,262.6078306313377L1348.0676984672546,264.8269786413249L1349.437685965697,263.0925728080032L1350.8076734641393,261.76392089901174L1352.1776609625817,260.7866765667347L1353.547648461024,259.5051892426629L1354.9176359594665,258.8318825323675L1356.2876234579087,257.53105743553556L1357.657610956351,259.83048941866184L1359.0275984547934,263.9181870713013L1360.3975859532356,264.45346742214076L1361.7675734516781,261.555553627383L1363.1375609501204,260.5830508108057L1364.5075484485626,260.97859627410577L1365.877535947005,260.6388087575598L1367.2475234454473,260.39554563821446L1368.6175109438898,261.186244047484L1369.987498442332,262.0107848012006L1371.3574859407743,260.8309416663892L1372.7274734392167,263.10885108722243L1374.097460937659,260.4810664726102L1375.4674484361014,260.9725663659854L1376.8374359345437,259.5107693223906L1378.2074234329862,259.69941479868993L1379.5774109314282,260.45255218656814L1380.9473984298706,261.48949711786287L1382.317385928313,261.7525397091407L1383.6873734267554,260.3396958102399L1385.0573609251978,260.9063104336889L1386.42734842364,258.8206900632864L1387.7973359220823,257.65975033040917L1389.1673234205246,259.3611597484818L1390.537310918967,259.33157480777646L1391.9072984174093,262.36445529956984L1393.2772859158517,260.35384290463054L1394.647273414294,261.8334421705593L1396.0172609127362,260.7699253528381L1397.3872484111787,263.6090975777101L1398.757235909621,264.53390361291L1400.1272234080634,263.328504528675L1401.4972109065056,263.7688919995243L1402.867198404948,264.3085538583939L1404.2371859033904,259.50663179027134L1405.6071734018326,258.0739976465709L1406.977160900275,260.87647377476435L1408.3471483987173,260.36937050504685L1409.7171358971598,261.91733883331653L1411.0871233956018,259.31658729949856L1412.4571108940443,263.17909108956957L1413.8270983924867,260.5381089119316L1415.197085890929,260.01684721251735L1416.5670733893714,259.35966973251806L1417.9370608878137,255.26832663168497L1419.307048386256,257.9108983185642L1420.6770358846982,256.53709343593596L1422.0470233831406,257.5380085020813L1423.4170108815829,254.17739304182447L1424.7869983800254,254.0077136699452L1426.1569858784678,251.57202693509913L1427.5269733769098,252.3416321229573L1428.8969608753523,254.2589342747773L1430.2669483737945,255.9618970381519L1431.636935872237,255.96810439180757L1433.0069233706793,259.16991832103906L1434.3769108691217,258.7710664443646L1435.746898367564,259.1004809736467L1437.1168858660062,257.66225876249814L1438.4868733644487,254.3447007041777L1439.856860862891,254.79075348383037L1441.2268483613334,256.40739053958566L1442.5968358597756,260.37235533705785L1443.9668233582179,258.03423438586316L1445.3368108566603,261.9558820879466L1446.7067983551026,259.9316460537263L1448.076785853545,260.63451188199906L1449.4467733519873,259.6796101043262L1450.8167608504295,259.7379999305425L1452.1867483488718,260.44490567870673L1453.5567358473143,260.3841437861618L1454.9267233457567,259.5214209674127L1456.296710844199,262.0757516494419L1457.6666983426414,263.9188230300353L1459.0366858410835,260.76671474867976L1460.406673339526,259.7571361557349L1461.7766608379682,262.6432686047979L1463.1466483364106,261.3281193203765L1464.5166358348529,262.06106651214947L1465.8866233332953,263.9225236427258L1467.2566108317376,265.0943640851037L1468.6265983301798,263.9757120529576L1469.9965858286223,263.1970463270017L1471.3665733270645,262.50458587706055L1472.736560825507,263.39808093772683L1474.1065483239493,262.7391174998008L1475.4765358223915,261.61134794133653L1476.846523320834,260.0309579983282L1478.2165108192762,262.01068887752297L1479.5864983177187,262.17336710805546L1480.956485816161,264.43807108445594L1482.3264733146032,260.44590579053164L1483.6964608130456,261.61404174221684L1485.0664483114879,261.88828180638035L1486.4364358099303,263.44599906893023L1487.8064233083726,264.3609088701616L1489.176410806815,261.37732195716865L1490.546398305257,264.86776166856487L1491.9163858036995,264.3419916284173L1493.2863733021418,265.17455291378303L1494.6563608005843,265.22115285609806L1496.0263482990267,266.05669232834373L1497.396335797469,268.47160392374525L1498.7663232959112,266.35007149466895L1500.1363107943534,267.8087661323104L1501.506298292796,266.75015445084375L1502.8762857912382,264.3208133622776L1504.2462732896806,265.2131010696919L1505.616260788123,263.6826448831299L1506.9862482865651,262.9743259812362" fill="none"></path></g></g></g></g><g opacity="0.2"><g><g><g><path style="fill: none;" stroke="rgb(51, 187, 238)" stroke-width="2px" d="M138.36873734267553,39.7323034546065L139.7387248411179,305.01944896153344L141.10871233956019,339.8990477621243L142.47869983800254,341.38409375139634L143.84868733644484,338.77080088980136L145.2186748348872,329.9343417221638L146.58866233332952,335.8011198341173L147.95864983177185,333.21671958424577L149.3286373302142,332.9914175360448L150.6986248286565,331.0840767036105L152.06861232709886,334.0578740022239L153.4385998255412,338.3811630157134L154.80858732398352,334.4824192764113L156.17857482242584,338.0287104455442L157.5485623208682,331.51488811301556L158.9185498193105,340.73616367933585L160.28853731775285,343.0697951851888L161.65852481619518,342.0283073973641L163.0285123146375,344.55390709945357L164.39849981307987,346.2006275607276L165.76848731152216,345.2404475535728L167.13847480996452,338.41341958342355L168.50846230840682,337.75830332979905L169.87844980684918,340.74483339179375L171.2484373052915,341.6389956896429L172.61842480373383,345.2353726854795L173.98841230217616,345.72809199106376L175.3583998006185,346.7108616494894L176.72838729906084,343.1586901333145L178.09837479750317,346.6354529207427L179.4683622959455,343.38974802419165L180.83834979438782,345.943279959258L182.20833729283018,349.02023876964057L183.57832479127248,345.15222247400675L184.94831228971483,346.558963985104L186.31829978815713,349.05047053395583L187.6882872865995,343.5040722583724L189.05827478504182,348.86149044249856L190.42826228348414,342.3484893711622L191.7982497819265,348.02709140928823L193.1682372803688,347.3342345505829L194.53822477881116,341.61837706523346L195.90821227725348,345.69953782078534L197.2781997756958,342.0591973396882L198.64818727413814,347.6710019087716L200.0181747725805,344.728008626934L201.3881622710228,345.2036106280672L202.75814976946515,348.2334530116441L204.12813726790748,343.31469585724375L205.4981247663498,354.51107302642515L206.86811226479213,348.0756539572253L208.2380997632345,350.9563178985281L209.60808726167681,349.2468016437431L210.9780747601191,354.1539898290923L212.3480622585615,352.458254395566L213.7180497570038,349.54689808224725L215.08803725544612,350.647371713084L216.45802475388845,349.37251247438286L217.8280122523308,351.7561900590669L219.1979997507731,350.78099003227084L220.56798724921543,358.1496190079777L221.9379747476578,355.15645455841576L223.30796224610012,348.2732780419288L224.67794974454245,353.32936175822323L226.0479372429848,359.1957619731227L227.41792474142713,355.1444670676467L228.78791223986943,353.41410188460196L230.1578997383118,360.90641688755363L231.5278872367541,356.63493747248026L232.89787473519644,356.20105203274784L234.26786223363877,353.5556954975305L235.63784973208112,355.92486277058725L237.00783723052345,349.38781540535297L238.37782472896575,353.4736114642888L239.74781222740813,355.068202590583L241.11779972585043,353.397615869893L242.48778722429276,356.34349204155274L243.85777472273512,357.2809713372044L245.22776222117744,358.7457178541032L246.59774971961974,355.3776912175832L247.96773721806213,354.0220058489043L249.33772471650443,357.1367263073591L250.70771221494675,354.7634790320804L252.07769971338908,355.93298536526873L253.44768721183144,354.38701290155547L254.81767471027376,353.3764887065247L256.18766220871606,355.3428814335828L257.5576497071584,358.3710286872967L258.9276372056008,350.70442160088686L260.2976247040431,354.8507887415204L261.66761220248543,357.1398640511883L263.03759970092773,355.1066341072148L264.4075871993701,354.46539570642034L265.7775746978124,355.8982550770136L267.14756219625474,355.5490933968888L268.5175496946971,353.7512784120679L269.8875371931394,355.4950082327635L271.25752469158175,361.1066128934285L272.62751219002405,357.6076193546384L273.9974996884664,355.80057117281206L275.36748718690876,356.06491089270276L276.73747468535106,359.1229906326319L278.1074621837934,357.47641630324256L279.4774496822358,356.27510231949395L280.84743718067807,358.2666157020666L282.21742467912037,357.96751997470915L283.5874121775627,357.6241264123388L284.9573996760051,358.24301715626353L286.3273871744474,351.8142617010079L287.6973746728897,351.5131107748234L289.0673621713321,355.13152095171375L290.4373496697744,352.109660876209L291.8073371682167,354.352322361173L293.17732466665905,355.8274430728333L294.5473121651014,355.1824800625606L295.9172996635437,355.50995810910007L297.28728716198606,353.53798431309986L298.6572746604284,355.5597575173096L300.0272621588707,354.4059936798007L301.397249657313,356.2174047751779L302.76723715575537,353.6245434891798L304.1372246541977,357.52762325376597L305.50721215264,352.51649905765845L306.8771996510824,353.2796184646574L308.24718714952473,353.3239981335257L309.61717464796703,355.8896905795127L310.9871621464094,353.64585536325046L312.3571496448517,350.2042343714648L313.72713714329404,356.45068036353786L315.0971246417364,354.43056955564884L316.4671121401787,350.8490874905602L317.837099638621,355.153426705764L319.20708713706335,345.2536356639069L320.5770746355057,354.66726346105673L321.947062133948,354.7498478498717L323.31704963239036,350.99585534126356L324.6870371308327,346.9576351477791L326.057024629275,353.19950545827714L327.4270121277173,354.4503827011096L328.79699962615973,353.1301758159357L330.16698712460203,356.19183286440324L331.53697462304433,354.84361775767235L332.9069621214867,351.7717735632557L334.27694961992904,352.02181106332296L335.64693711837134,354.84478213652994L337.01692461681364,354.6648271502743L338.386912115256,353.976875646676L339.75689961369835,355.37932321847205L341.12688711214065,351.635487460381L342.496874610583,352.7677640655576L343.86686210902536,353.0623472403143L345.23684960746766,346.20913126736446L346.60683710591,351.03939796669613L347.9768246043523,351.7580020944377L349.3468121027947,352.36034603278944L350.716799601237,355.29851111715516L352.0867870996793,355.307089643317L353.4567745981217,351.9349876807954L354.826762096564,352.811664421844L356.19674959500634,356.03733054530426L357.56673709344864,352.3080986232467L358.936724591891,352.51149082570464L360.30671209033335,346.83395613486476L361.67669958877565,351.71708282860004L363.04668708721795,350.8526531085479L364.41667458566036,355.86141113717764L365.78666208410266,351.0206580137969L367.15664958254496,353.7623797590879L368.5266370809873,353.4119695281398L369.89662457942967,353.45688228612363L371.26661207787197,353.6709596519939L372.63659957631427,353.0289286318566L374.0065870747567,354.28426231264615L375.376574573199,350.57059051367577L376.7465620716413,352.66220073013085L378.11654957008363,351.6080380471512L379.486537068526,347.7251127921085L380.8565245669683,349.85270886197236L382.22651206541065,347.3953106640742L383.596499563853,347.127632122881L384.9664870622953,343.546611834548L386.3364745607376,353.378232936701L387.70646205917996,350.8675796037829L389.0764495576223,352.03092267860035L390.4464370560646,351.55069121935855L391.81642455450697,349.47179330782086L393.18641205294927,349.8905511748449L394.5563995513916,349.9049399047441L395.926387049834,351.9384247027245L397.2963745482763,352.0767145660028L398.66636204671863,350.4610617434247L400.036349545161,354.6025118384004L401.4063370436033,350.56610601839685L402.7763245420456,354.5072408638797L404.14631204048794,350.37458673931036L405.5162995389303,349.5501761126858L406.8862870373726,345.42859995403484L408.25627453581495,352.14889436462425L409.6262620342573,347.46682643941136L410.9962495326996,350.7670525576318L412.36623703114196,347.5972555763457L413.73622452958426,349.35884388241175L415.1062120280266,351.79152124163204L416.476199526469,348.00609284197844L417.8461870249112,353.8360068478958L419.21617452335363,349.2791002974361L420.586162021796,351.9310339365218L421.9561495202382,348.4903668936798L423.3261370186806,349.9387302727165L424.696124517123,346.45809791298035L426.06611201556524,350.00441713943513L427.4360995140076,349.1090191503686L428.8060870124499,350.1086337234121L430.17607451089225,351.6168877940911L431.5460620093346,347.9391714530975L432.9160495077769,346.71280228091877L434.28603700621926,345.3713080718308L435.6560245046616,345.7930154648165L437.02601200310386,343.3854412252845L438.3959995015462,347.8197361101161L439.7659869999886,349.01145215167486L441.13597449843087,347.34439130109996L442.5059619968732,348.33837570488816L443.8759494953156,347.11952355686043L445.2459369937579,346.5789641793772L446.61592449220024,350.2656705539201L447.9859119906426,347.1810930115946L449.3558994890849,346.073944076263L450.72588698752725,345.88397145704454L452.0958744859696,349.36927652992716L453.4658619844119,346.42970857946796L454.83584948285426,348.6470950936472L456.2058369812966,346.9242820064058L457.57582447973886,348.7302663481113L458.94581197818127,343.77399889248045L460.3157994766236,343.8301415935429L461.68578697506587,345.6920722350577L463.0557744735082,348.0342577169159L464.4257619719505,346.92672299340853L465.7957494703929,347.23133432262364L467.16573696883523,342.24926231425775L468.53572446727753,344.0277224232085L469.9057119657199,346.474205153844L471.27569946416224,344.81637516216443L472.6456869626045,341.26490858620156L474.0156744610469,343.6177616956458L475.38566195948925,343.98864208100844L476.7556494579315,343.42716713912597L478.12563695637385,342.72107423882835L479.49562445481627,347.73753283325647L480.8656119532585,345.6229974467232L482.23559945170086,341.55886514743645L483.6055869501432,343.99647942625086L484.9755744485855,344.6480546120443L486.3455619470279,333.7497771352939L487.71554944547023,342.87584310248513L489.08553694391253,337.16819238378275L490.4555244423549,339.9618119911482L491.82551194079724,345.7494599797781L493.1954994392395,343.7803316638376L494.5654869376819,339.55208273649095L495.93547443612425,340.9420611668258L497.3054619345665,342.0137608450294L498.67544943300885,337.6980630906885L500.04543693145115,339.4840425619005L501.4154244298935,337.61614506326794L502.78541192833586,339.8195578621006L504.15539942677816,338.22839557435003L505.5253869252205,338.4811394369227L506.8953744236629,338.1697627859716L508.26536192210517,341.9634961528988L509.6353494205475,338.424662386108L511.0053369189899,338.99667869762817L512.3753244174321,338.72571978788625L513.7453119158745,335.22734818639765L515.1152994143168,334.3882577351595L516.4852869127592,344.7280670796879L517.8552744112015,342.6304853298948L519.2252619096439,336.67588809275117L520.5952494080861,340.45940041113204L521.9652369065285,337.7613861280396L523.3352244049709,336.7138449730213L524.7052119034131,334.94683400497627L526.0751994018555,333.52589607354025L527.4451869002979,337.45697821440797L528.8151743987402,329.7268598727795L530.1851618971825,330.1948384657496L531.5551493956248,337.7328506626424L532.9251368940671,333.5226133668814L534.2951243925095,330.2618308747265L535.6651118909518,332.5329299167249L537.0350993893942,332.7463993739546L538.4050868878365,337.12358124200904L539.7750743862788,336.7909885795037L541.1450618847211,339.49402161604564L542.5150493831635,334.014925256771L543.8850368816057,333.56793120244976L545.2550243800481,336.5210280427983L546.6250118784905,335.6311029850791L547.9949993769328,336.96861013182377L549.3649868753752,336.2495781299237L550.7349743738175,335.5045206238787L552.1049618722598,331.1946532394752L553.4749493707021,336.62480623112106L554.8449368691445,333.3478261885977L556.2149243675868,332.94936136414384L557.5849118660292,330.47479208526113L558.9548993644715,330.8980832556136L560.3248868629138,335.54600805048426L561.6948743613561,329.81911702330933L563.0648618597985,334.156646296703L564.4348493582407,335.9855283356923L565.8048368566831,331.60956520755667L567.1748243551255,324.09095830203427L568.5448118535678,333.16887483612646L569.9147993520102,331.64235252627225L571.2847868504524,326.9820035985609L572.6547743488948,326.25297697033665L574.0247618473371,330.3186370145457L575.3947493457794,333.82031090436567L576.7647368442218,332.86179621616935L578.1347243426642,333.09487364969357L579.5047118411064,329.85185027322757L580.8746993395488,323.6411785355942L582.2446868379911,326.7192394361185L583.6146743364334,329.71409466811986L584.9846618348757,325.2435675515219L586.3546493333181,324.9826066930702L587.7246368317604,329.94281444884115L589.0946243302028,329.3745154402051L590.4646118286452,329.4341167907155L591.8345993270874,332.4926074535045L593.2045868255298,330.26502911715596L594.5745743239721,330.19469058028227L595.9445618224144,327.98443340236395L597.3145493208568,327.40168735720664L598.6845368192992,326.37536710174004L600.0545243177414,324.8692501442302L601.4245118161838,329.5603598336795L602.794499314626,330.9748130165983L604.1644868130684,322.11070891126934L605.5344743115107,324.26062545747226L606.9044618099531,330.4284986732302L608.2744493083954,323.04864559972015L609.6444368068378,325.9749162062614L611.01442430528,326.389993328489L612.3844118037224,325.3186371081641L613.7543993021648,323.9172543994122L615.124386800607,328.2630092904661L616.4943742990495,321.469633885922L617.8643617974918,323.6270744706065L619.2343492959341,322.28444364771906L620.6043367943764,328.30404677699846L621.9743242928188,325.1331938467132L623.344311791261,323.0185149586692L624.7142992897034,327.5039190317932L626.0842867881457,326.1635958505637L627.4542742865881,324.2775874237298L628.8242617850304,323.5025128211083L630.1942492834728,327.7296824183543L631.564236781915,320.58835048333884L632.9342242803574,320.55325369631686L634.3042117787996,322.3000359198209L635.674199277242,318.41698265324726L637.0441867756845,314.54612087755373L638.4141742741267,322.87419335571633L639.7841617725691,320.82788928427885L641.1541492710114,322.89361457546215L642.5241367694537,315.9478775377987L643.894124267896,326.482180885992L645.2641117663384,322.2112742439742L646.6340992647807,326.01585761107964L648.0040867632231,322.05606552334433L649.3740742616654,325.8587029982726L650.7440617601077,319.6537020545585L652.11404925855,322.3100564754214L653.4840367569924,323.56314995441784L654.8540242554346,326.9022723251965L656.224011753877,325.5424440810522L657.5939992523195,319.0648677166872L658.9639867507617,321.2240089842464L660.3339742492041,327.0703257827643L661.7039617476464,324.71308279843646L663.0739492460887,322.4301923746583L664.443936744531,321.6209478995597L665.8139242429734,325.4696809239469L667.1839117414157,318.3978335310708L668.5538992398581,321.29562997454053L669.9238867383003,320.93015997607864L671.2938742367427,324.8471849602937L672.663861735185,320.9262541630633L674.0338492336273,323.50234009322054L675.4038367320696,321.8048203893815L676.773824230512,320.798023434203L678.1438117289543,321.72658517772015L679.5137992273967,321.24350063956064L680.8837867258391,311.5633645253506L682.2537742242813,321.0993386126259L683.6237617227237,304.0776465002037L684.993749221166,320.8793820687688L686.3637367196084,323.42571233229137L687.7337242180507,317.56097948219673L689.1037117164931,314.786721765032L690.4736992149353,316.42397288017486L691.8436867133777,313.08261122092733L693.21367421182,323.94611968447316L694.5836617102623,318.8197034227123L695.9536492087046,319.8558696718223L697.323636707147,311.152564416242L698.6936242055893,313.71634545717654L700.0636117040317,321.1414041369675L701.433599202474,321.396350499307L702.8035867009163,318.3949681770748L704.1735741993587,321.6307551026085L705.5435616978009,308.5670412889681L706.9135491962434,323.12404439149867L708.2835366946857,323.46482570029735L709.653524193128,318.5307007323701L711.0235116915703,321.7469825584561L712.3934991900127,318.4646263238931L713.7634866884549,320.578818592761L715.1334741868973,310.36150810004585L716.5034616853396,317.84270714278904L717.873449183782,317.31187021186133L719.2434366822243,304.76888538668106L720.6134241806667,312.82647125335325L721.9834116791089,306.28635394948435L723.3533991775513,304.7155998562291L724.7233866759937,314.7346497137509L726.0933741744359,315.12219614830445L727.4633616728784,316.99767672269996L728.8333491713207,316.10977646837574L730.203336669763,313.91199266974326L731.5733241682053,312.8929858110671L732.9433116666477,318.3015425559946L734.3132991650899,312.22934013159403L735.6832866635323,310.6052537456837L737.0532741619746,315.2497833123443L738.423261660417,316.7797327071595L739.7932491588593,316.22213201380526L741.1632366573016,312.1511303468806L742.5332241557439,303.96292011107613L743.9032116541863,307.7285038007819L745.2731991526285,313.43593239901946L746.6431866510709,306.37018922723274L748.0131741495134,317.44945630398274L749.3831616479556,315.09487065491294L750.753149146398,317.9084010238381L752.1231366448403,309.30400425765345L753.4931241432826,313.50100317371204L754.8631116417249,312.6719093124453L756.2330991401673,308.5296794577326L757.6030866386096,314.12555214421394L758.973074137052,317.76407299108234L760.3430616354943,312.8432658986028L761.7130491339366,309.48006979766484L763.0830366323789,312.8129943864149L764.4530241308213,312.8344301803238L765.8230116292635,314.37300953972425L767.192999127706,311.0234130565078L768.5629866261484,313.18122218580567L769.9329741245906,309.2944215131797L771.302961623033,308.2834215127323L772.6729491214752,315.07628969350435L774.0429366199176,307.2770077153555L775.4129241183599,315.3195022500267L776.7829116168023,315.0267696894584L778.1528991152446,311.42752967773595L779.522886613687,312.33213514459624L780.8928741121292,317.11034674394546L782.2628616105716,307.9578583784105L783.6328491090139,309.00811992459506L785.0028366074562,316.2314072967936L786.3728241058985,311.8688105598914L787.742811604341,312.71200907067333L789.1127991027832,311.7986193239575L790.4827866012256,310.8498376038125L791.852774099668,315.3404552241884L793.2227615981102,311.11466365061557L794.5927490965526,314.27869485225733L795.9627365949949,308.9844968286354L797.3327240934373,308.61571138997243L798.7027115918796,310.2672670630488L800.072699090322,307.46372334712686L801.4426865887642,302.7119329770663L802.8126740872066,305.28600287174174L804.1826615856489,303.3430847706484L805.5526490840912,307.34821719826226L806.9226365825335,300.89060595651813L808.2926240809759,309.20673653705967L809.6626115794182,302.7435325358227L811.0325990778606,305.1939351081346L812.4025865763028,304.9196139959885L813.7725740747452,305.6812440268182L815.1425615731875,298.04257268055056L816.5125490716299,301.2940912880041L817.8825365700723,303.5517026493047L819.2525240685146,301.50176690826765L820.6225115669569,300.1315408325294L821.9924990653992,302.26457300850564L823.3624865638416,306.1229294020306L824.7324740622839,305.004169411665L826.1024615607262,308.8681173956276L827.4724490591685,294.8266658288808L828.8424365576109,306.05185552951286L830.2124240560532,307.6714831393559L831.5824115544956,301.3405261556994L832.952399052938,301.70042443765993L834.3223865513801,302.866970723391L835.6923740498224,303.57596288028185L837.0623615482649,304.7144939301254L838.4323490467073,302.4722042046762L839.8023365451496,301.66187133930003L841.172324043592,299.4226562287058L842.5423115420341,297.1838923733716L843.9122990404765,299.7588671166773L845.2822865389188,295.83774883223873L846.6522740373612,301.9231761922084L848.0222615358035,303.1236905422837L849.392249034246,303.1464613970916L850.7622365326881,303.81802274849736L852.1322240311305,296.4962237811022L853.5022115295728,298.70013109023284L854.8721990280152,296.27246196296636L856.2421865264575,299.7998378209384L857.6121740248998,293.6983312774269L858.9821615233421,295.9060684109929L860.3521490217845,297.5676276883711L861.7221365202269,298.9294529343192L863.0921240186692,302.81929899542325L864.4621115171116,303.09177767676647L865.8320990155538,297.25325241114507L867.2020865139962,292.0799966425L868.5720740124385,293.3090429508073L869.9420615108809,300.1891822622018L871.3120490093232,295.77441878055726L872.6820365077656,289.67837640048L874.0520240062077,298.74897187327855L875.4220115046501,298.93516727554015L876.7919990030924,302.97130187476563L878.1619865015349,293.03545366714L879.5319739999773,295.7246263866781L880.9019614984196,291.1793940202266L882.2719489968617,294.633446743711L883.6419364953041,298.4033243727179L885.0119239937464,294.6744455052939L886.3819114921888,296.37609401940443L887.7518989906312,295.8345082115627L889.1218864890736,293.2068792275471L890.4918739875158,293.4026000905837L891.8618614859581,294.28214335468334L893.2318489844005,297.81225246342757L894.6018364828428,299.1414938062437L895.9718239812852,299.3323747812577L897.3418114797274,287.92014094437735L898.7117989781698,294.1575150690457L900.0817864766121,299.5096573076052L901.4517739750545,296.906562113455L902.8217614734968,300.3326253202636L904.1917489719392,290.24398395206293L905.5617364703814,296.3690188980728L906.9317239688238,300.24146708150704L908.3017114672662,297.97316354246374L909.6716989657085,301.060857785627L911.0416864641509,297.52635770601006L912.4116739625932,300.55411215721773L913.7816614610354,300.75784104753814L915.1516489594777,286.9244871299379L916.5216364579201,290.45084590999215L917.8916239563625,294.2205247996359L919.2616114548049,297.7380829330635L920.6315989532472,288.7678625292558L922.0015864516894,295.20565945648417L923.3715739501317,287.4138372187876L924.7415614485741,289.3451793364993L926.1115489470164,282.03319341742815L927.4815364454588,282.9976404756175L928.851523943901,286.35525083139305L930.2215114423434,288.65167248317067L931.5914989407858,297.0804543800765L932.9614864392281,285.1592934580115L934.3314739376705,291.36370256759244L935.7014614361128,289.4891788647782L937.0714489345551,288.4547545077343L938.4414364329974,295.0822025640347L939.8114239314398,298.3511377540392L941.1814114298821,296.6381400532322L942.5513989283245,291.90338281565704L943.9213864267668,282.07620061563506L945.291373925209,284.40219000844365L946.6613614236514,285.70515800743846L948.0313489220938,293.4351793174954L949.4013364205362,294.2973247039253L950.7713239189785,281.60310740669905L952.1413114174209,292.48068325612945L953.511298915863,291.31940707068975L954.8812864143054,289.7155336470768L956.2512739127477,292.9077203712154L957.6212614111901,288.5793523979399L958.9912489096325,287.26193254007177L960.3612364080747,290.15430573703503L961.731223906517,293.2337534656785L963.1012114049594,297.3602840797497L964.4711989034017,289.72904324755734L965.8411864018441,293.29838584471685L967.2111739002864,290.17695968633507L968.5811613987287,288.2924662818163L969.951148897171,282.67287697496903L971.3211363956134,292.39786973251915L972.6911238940557,284.1608549543764L974.0611113924981,283.49678023168974L975.4310988909405,289.95938216956154L976.8010863893827,285.40471085241086L978.1710738878251,290.87361129782335L979.5410613862674,292.4419197278555L980.9110488847098,290.20129941305754L982.2810363831521,286.78355052596316L983.6510238815945,288.7208150766997L985.0210113800366,286.6531400939101L986.390998878479,293.58571853988025L987.7609863769214,294.87454097243204L989.1309738753638,288.8467550421347L990.5009613738061,294.9539712506468L991.8709488722485,291.51424178997723L993.2409363706906,295.019471068553L994.610923869133,289.23239591691123L995.9809113675753,292.966070248265L997.3508988660177,288.7210278447239L998.7208863644601,285.62218315422734L1000.0908738629023,293.86583348899245L1001.4608613613447,287.735238517032L1002.830848859787,290.51950451471885L1004.2008363582294,288.73907571701693L1005.5708238566717,292.26689347780837L1006.9408113551141,283.71912983129135L1008.3107988535563,289.1549553704391L1009.6807863519987,287.90112275636966L1011.050773850441,280.9204400320529L1012.4207613488834,279.85435064916834L1013.7907488473257,283.24768732812544L1015.1607363457681,284.77452469832315L1016.5307238442103,283.1235617361713L1017.9007113426527,289.5018537599331L1019.270698841095,288.7802685417428L1020.6406863395374,285.8961582260703L1022.0106738379798,286.8619660643703L1023.3806613364221,280.1089614927005L1024.7506488348643,284.1152010154732L1026.1206363333067,282.24630280569386L1027.490623831749,292.68689054321504L1028.8606113301914,281.916867760954L1030.2305988286337,288.5226836220924L1031.600586327076,291.3312051745362L1032.9705738255184,290.78644888932314L1034.3405613239606,291.5582286563394L1035.710548822403,290.959910943676L1037.0805363208453,289.7792074009513L1038.4505238192878,289.9865042473695L1039.8205113177298,293.9449785177682L1041.1904988161723,289.3886354518561L1042.5604863146148,288.9909042094636L1043.930473813057,281.808884481516L1045.3004613114995,290.83690296837636L1046.6704488099417,288.9770649354511L1048.040436308384,290.55127943173693L1049.4104238068262,287.1308019700907L1050.7804113052687,283.60453437633254L1052.150398803711,290.60018801997717L1053.5203863021534,290.039497514052L1054.8903738005959,283.88798347052705L1056.2603612990379,288.6752406335417L1057.6303487974803,276.07104992975655L1059.0003362959226,284.8873525420042L1060.370323794365,284.9226112431545L1061.7403112928073,279.46744018057717L1063.1102987912495,281.92209109904223L1064.480286289692,284.4002961392174L1065.8502737881342,279.26327172554744L1067.2202612865767,283.8225771770271L1068.590248785019,276.55235458155994L1069.9602362834614,281.53887016827707L1071.3302237819037,278.3393020303764L1072.700211280346,282.39004981807597L1074.0701987787884,277.83009904819335L1075.4401862772306,274.9326381235309L1076.810173775673,279.63330571503366L1078.1801612741153,275.09130695492763L1079.5501487725576,272.914208416844L1080.9201362709998,280.1448608360335L1082.2901237694423,278.9940944557443L1083.6601112678848,268.67977401908L1085.030098766327,272.75275255814154L1086.4000862647695,280.2631692099198L1087.7700737632115,274.6070656367685L1089.140061261654,271.1462464224931L1090.5100487600962,268.45225251981367L1091.8800362585387,277.2114958918177L1093.250023756981,271.21595016245954L1094.6200112554234,268.88610756411407L1095.9899987538656,269.80047230276494L1097.3599862523079,275.0715826576528L1098.7299737507503,280.91607711850213L1100.0999612491926,278.1337353854735L1101.469948747635,280.01740577521747L1102.8399362460773,284.37716287733537L1104.2099237445195,276.7814332621901L1105.579911242962,281.9935811551677L1106.9498987414042,272.2717565368787L1108.3198862398467,276.9205508164636L1109.689873738289,272.5302767005914L1111.0598612367312,271.58134534139646L1112.4298487351737,278.2478071037574L1113.799836233616,274.85559271767517L1115.1698237320584,282.2389003489405L1116.5398112305006,274.4327922581916L1117.909798728943,270.48687597744L1119.279786227385,271.47294120213036L1120.6497737258276,279.23476081030697L1122.0197612242698,282.55325925939536L1123.3897487227123,284.2091462815355L1124.7597362211548,277.6534501496981L1126.129723719597,273.04047571770093L1127.4997112180392,281.99229987080224L1128.8696987164815,278.104653971355L1130.239686214924,279.9813380879532L1131.6096737133662,282.1975719138256L1132.9796612118087,279.7338163944136L1134.349648710251,274.03202614881684L1135.7196362086931,279.4587938492208L1137.0896237071356,278.26605371541376L1138.4596112055779,268.7427393255773L1139.8295987040203,277.07697038589043L1141.1995862024626,280.8629786368626L1142.5695737009048,275.49392017132556L1143.9395611993473,274.21178005759907L1145.3095486977895,278.3002649432142L1146.679536196232,280.18848997154174L1148.0495236946742,279.21684621029283L1149.4195111931167,275.47676779522214L1150.7894986915587,272.38347611634583L1152.1594861900012,278.2624764068753L1153.5294736884437,279.63387621391166L1154.899461186886,272.9360463656998L1156.2694486853284,280.27293783415104L1157.6394361837706,271.0489903924501L1159.0094236822129,280.35058179620665L1160.379411180655,276.5311853322088L1161.7493986790976,280.0745538636468L1163.1193861775398,277.99491243307966L1164.4893736759823,276.6718273343039L1165.8593611744245,272.7462853454504L1167.2293486728668,272.6724805602706L1168.5993361713092,275.5541311840592L1169.9693236697515,283.2559642380771L1171.339311168194,276.13863534192177L1172.7092986666362,276.0704046113535L1174.0792861650784,274.92724644151156L1175.449273663521,271.5427899049264L1176.8192611619631,278.03278046516385L1178.1892486604056,272.2448869749676L1179.5592361588479,268.629383069001L1180.9292236572903,271.1075927853965L1182.2992111557326,269.14660576901866L1183.6691986541748,274.3724830448315L1185.0391861526173,268.39581989309187L1186.4091736510595,269.02513627020164L1187.779161149502,277.05715256420933L1189.1491486479442,274.089754088565L1190.5191361463865,281.3497965524135L1191.8891236448287,269.1809385785473L1193.2591111432712,276.3132126748189L1194.6290986417137,275.7831350451644L1195.999086140156,285.99975521085605L1197.3690736385984,274.21564729179687L1198.7390611370404,274.75952444759133L1200.1090486354828,271.15871322584417L1201.479036133925,274.1632362145432L1202.8490236323676,277.9636659289568L1204.2190111308098,277.97852228088715L1205.588998629252,279.8200505731819L1206.9589861276945,272.5227339572287L1208.3289736261368,282.5979405444738L1209.6989611245792,277.5931315838973L1211.0689486230215,276.7972108295219L1212.438936121464,275.7356152943567L1213.8089236199062,278.9015707606568L1215.1789111183484,272.4774167061878L1216.548898616791,280.5490218813546L1217.9188861152331,277.4917230702174L1219.2888736136756,274.13094223707054L1220.6588611121178,272.1677340160446L1222.02884861056,283.4222973945648L1223.3988361090026,273.12134159555137L1224.7688236074448,282.5236868421441L1226.1388111058873,286.0618741214768L1227.5087986043295,279.19807586196157L1228.878786102772,277.77939946757374L1230.248773601214,280.8468363243466L1231.6187610996565,281.378831204329L1232.988748598099,281.1999938347278L1234.3587360965412,277.0196212199876L1235.7287235949836,277.8905859579253L1237.0987110934257,274.48560549039206L1238.4686985918681,278.4494129900563L1239.8386860903104,279.5433352362363L1241.2086735887528,274.4252495148288L1242.578661087195,277.90928616295184L1243.9486485856376,280.46118375901926L1245.3186360840798,281.8698249846182L1246.688623582522,281.7560759255358L1248.0586110809645,279.69459225843895L1249.4285985794068,272.21333651652446L1250.7985860778492,276.38781709367197L1252.1685735762915,278.48005158553866L1253.5385610747337,271.9775568121876L1254.9085485731762,278.2368881293296L1256.2785360716184,277.97935464810257L1257.648523570061,274.4715160385929L1259.0185110685031,280.372564707892L1260.3884985669456,273.28398989043336L1261.7584860653878,276.8518805211861L1263.12847356383,276.83423714195L1264.4984610622726,273.4513097294068L1265.8684485607148,278.6429243389956L1267.2384360591573,271.7135140322867L1268.6084235575993,276.510740897006L1269.9784110560418,273.3192158580415L1271.348398554484,270.15533195733957L1272.7183860529265,278.6718514378439L1274.088373551369,274.70909141152947L1275.4583610498112,270.72852433826813L1276.8283485482534,265.972148934192L1278.1983360466957,268.1894489382954L1279.5683235451381,265.9507318451643L1280.9383110435804,267.9121023116077L1282.3082985420228,272.5683224290475L1283.678286040465,276.98158016775176L1285.0482735389073,270.20592398489197L1286.4182610373498,267.9314852447997L1287.788248535792,273.04765371587933L1289.1582360342345,271.8662721212094L1290.5282235326767,261.79578384025876L1291.8982110311192,269.40443852834557L1293.2681985295615,265.56797386021L1294.6381860280037,261.9516188821467L1296.0081735264462,264.2917164316357L1297.3781610248884,263.9163702558754L1298.7481485233309,265.2097473270109L1300.1181360217731,269.3178910428164L1301.4881235202154,263.4124747837461L1302.8581110186578,267.70647487584074L1304.2280985171,269.11308194560405L1305.5980860155425,266.40111732826665L1306.9680735139848,266.4372130728528L1308.338061012427,267.36728523553063L1309.7080485108693,269.6337837535336L1311.0780360093117,258.0321419510375L1312.448023507754,269.1909269851331L1313.8180110061965,264.2766543260116L1315.187998504639,263.3172856430809L1316.557986003081,256.95832277597754L1317.9279735015234,271.84480826997867L1319.2979609999657,259.86709547757397L1320.6679484984081,262.56574221946363L1322.0379359968504,266.8041373758316L1323.4079234952928,266.0850703022792L1324.777910993735,252.02554631308269L1326.1478984921773,257.23190972153463L1327.5178859906198,262.73322572614796L1328.887873489062,259.91215553649766L1330.2578609875045,265.6326740444428L1331.6278484859467,266.44349323673134L1332.997835984389,261.37173482995206L1334.3678234828315,267.1265861474258L1335.7378109812737,266.3224071879799L1337.1077984797162,267.15079493997956L1338.4777859781584,266.3114180702474L1339.8477734766007,257.2160339535764L1341.217760975043,273.24099672088744L1342.5877484734854,264.7643887807436L1343.9577359719278,263.60981128090043L1345.32772347037,259.6080796345082L1346.6977109688125,262.20929264998296L1348.0676984672546,268.1557006563057L1349.437685965697,260.49096405802055L1350.8076734641393,259.7709430355245L1352.1776609625817,259.3208100683191L1353.547648461024,257.5829582565553L1354.9176359594665,257.82192246692443L1356.2876234579087,255.57981979028767L1357.657610956351,263.27963739335127L1359.0275984547934,270.0497335502605L1360.3975859532356,265.2563879483999L1361.7675734516781,257.20868293524643L1363.1375609501204,259.12429658593965L1364.5075484485626,261.57191446905586L1365.877535947005,260.1291274827409L1367.2475234454473,260.03065095919646L1368.6175109438898,262.3722916613883L1369.987498442332,263.24759593177544L1371.3574859407743,259.0611769641721L1372.7274734392167,266.5257152184722L1374.097460937659,256.53938955069185L1375.4674484361014,261.70981620604823L1376.8374359345437,257.3180737569983L1378.2074234329862,259.98238301313893L1379.5774109314282,261.58225826838543L1380.9473984298706,263.0449145148049L1382.317385928313,262.1471035960575L1383.6873734267554,258.22042996188867L1385.0573609251978,261.75623236886236L1386.42734842364,255.69225950768282L1387.7973359220823,255.91834073109322L1389.1673234205246,261.91327387559056L1390.537310918967,259.2871973967185L1391.9072984174093,266.91377603726L1393.2772859158517,257.33792431222145L1394.647273414294,264.0528410694524L1396.0172609127362,259.17465012625615L1397.3872484111787,267.86785591501825L1398.757235909621,265.9211126657099L1400.1272234080634,261.52040590232235L1401.4972109065056,264.42947320579844L1402.867198404948,265.1180466466982L1404.2371859033904,252.3037486880874L1405.6071734018326,255.92504643102023L1406.977160900275,265.08018796705454L1408.3471483987173,259.6087156004706L1409.7171358971598,264.23929132572107L1411.0871233956018,255.41545999877158L1412.4571108940443,268.972846774676L1413.8270983924867,256.57663564547465L1415.197085890929,259.234954663396L1416.5670733893714,258.37390351251906L1417.9370608878137,249.13131198043533L1419.307048386256,261.87475584888307L1420.6770358846982,254.47638611199363L1422.0470233831406,259.0393811012993L1423.4170108815829,249.13646985143916L1424.7869983800254,253.7531946121263L1426.1569858784678,247.9184968328301L1427.5269733769098,253.4960399047446L1428.8969608753523,257.1348875025072L1430.2669483737945,258.5163411832138L1431.636935872237,255.9774154222911L1433.0069233706793,263.9726392148862L1434.3769108691217,258.1727886293529L1435.746898367564,259.5946027675698L1437.1168858660062,255.50492544577526L1438.4868733644487,249.36836361669702L1439.856860862891,255.45983265330943L1441.2268483613334,258.8323461232185L1442.5968358597756,266.3198025332662L1443.9668233582179,254.52705295907109L1445.3368108566603,267.83835364107165L1446.7067983551026,256.89529200239593L1448.076785853545,261.68881062440806L1449.4467733519873,258.2472574378169L1450.8167608504295,259.8255846698669L1452.1867483488718,261.505264300953L1453.5567358473143,260.2930009473445L1454.9267233457567,258.227336739289L1456.296710844199,265.90724767248565L1457.6666983426414,266.6834301009254L1459.0366858410835,256.0385523266464L1460.406673339526,258.2427682663177L1461.7766608379682,266.97246727839234L1463.1466483364106,259.3553953937445L1464.5166358348529,263.16048729980884L1465.8866233332953,266.7147093385904L1467.2566108317376,266.85212474867046L1468.6265983301798,262.29773400473846L1469.9965858286223,262.029047738068L1471.3665733270645,261.4658952021487L1472.736560825507,264.7383235287261L1474.1065483239493,261.75067234291174L1475.4765358223915,259.9196936036402L1476.846523320834,257.66037308381567L1478.2165108192762,264.9802851963151L1479.5864983177187,262.41738445385425L1480.956485816161,267.8351270490566L1482.3264733146032,254.45765784964524L1483.6964608130456,263.36624566974456L1485.0664483114879,262.29964190262564L1486.4364358099303,265.78257496275506L1487.8064233083726,265.7332735720087L1489.176410806815,256.90194158767923L1490.546398305257,270.10342123565925L1491.9163858036995,263.55333656819585L1493.2863733021418,266.4233948418317L1494.6563608005843,265.29105276957057L1496.0263482990267,267.3100015367121L1497.396335797469,272.09397131684767L1498.7663232959112,263.16777285105445L1500.1363107943534,269.99680808877247L1501.506298292796,265.1622369286439L1502.8762857912382,260.67680172942835L1504.2462732896806,266.5515326308132L1505.616260788123,261.386960603287L1506.9862482865651,261.91184762839555" fill="none"></path></g></g></g></g></g></g><g transform="translate(61, 376)" clip-path="url(#clip_1)"><clipPath id="clip_1"><rect width="1643" height="23"></rect></clipPath><g><g><line x1="0" y1="0" x2="0" y2="5" style="visibility: inherit;" fill="rgb(0, 0, 0)" stroke="rgb(204, 204, 204)" stroke-width="1px"></line><line x1="136.9987498442332" y1="0" x2="136.9987498442332" y2="5" style="visibility: inherit;" fill="rgb(0, 0, 0)" stroke="rgb(204, 204, 204)" stroke-width="1px"></line><line x1="273.9974996884664" y1="0" x2="273.9974996884664" y2="5" style="visibility: inherit;" fill="rgb(0, 0, 0)" stroke="rgb(204, 204, 204)" stroke-width="1px"></line><line x1="410.9962495326996" y1="0" x2="410.9962495326996" y2="5" style="visibility: inherit;" fill="rgb(0, 0, 0)" stroke="rgb(204, 204, 204)" stroke-width="1px"></line><line x1="547.9949993769328" y1="0" x2="547.9949993769328" y2="5" style="visibility: inherit;" fill="rgb(0, 0, 0)" stroke="rgb(204, 204, 204)" stroke-width="1px"></line><line x1="684.993749221166" y1="0" x2="684.993749221166" y2="5" style="visibility: inherit;" fill="rgb(0, 0, 0)" stroke="rgb(204, 204, 204)" stroke-width="1px"></line><line x1="821.9924990653992" y1="0" x2="821.9924990653992" y2="5" style="visibility: inherit;" fill="rgb(0, 0, 0)" stroke="rgb(204, 204, 204)" stroke-width="1px"></line><line x1="958.9912489096325" y1="0" x2="958.9912489096325" y2="5" style="visibility: inherit;" fill="rgb(0, 0, 0)" stroke="rgb(204, 204, 204)" stroke-width="1px"></line><line x1="1095.9899987538656" y1="0" x2="1095.9899987538656" y2="5" style="visibility: inherit;" fill="rgb(0, 0, 0)" stroke="rgb(204, 204, 204)" stroke-width="1px"></line><line x1="1232.988748598099" y1="0" x2="1232.988748598099" y2="5" style="visibility: inherit;" fill="rgb(0, 0, 0)" stroke="rgb(204, 204, 204)" stroke-width="1px"></line><line x1="1369.987498442332" y1="0" x2="1369.987498442332" y2="5" style="visibility: inherit;" fill="rgb(0, 0, 0)" stroke="rgb(204, 204, 204)" stroke-width="1px"></line><line x1="1506.9862482865651" y1="0" x2="1506.9862482865651" y2="5" style="visibility: inherit;" fill="rgb(0, 0, 0)" stroke="rgb(204, 204, 204)" stroke-width="1px"></line><line x1="1643.9849981307984" y1="0" x2="1643.9849981307984" y2="5" style="visibility: inherit;" fill="rgb(0, 0, 0)" stroke="rgb(204, 204, 204)" stroke-width="1px"></line></g><g transform="translate(0, 8)"><text style="text-anchor: middle; visibility: hidden; font-family: Roboto, sans-serif; font-size: 12px; font-weight: 200;" x="0" y="0" dx="0em" dy="0.95em" fill="rgb(255, 255, 255)" stroke="none" stroke-width="1px">-100</text><text style="text-anchor: middle; visibility: inherit; font-family: Roboto, sans-serif; font-size: 12px; font-weight: 200;" x="136.9987498442332" y="0" dx="0em" dy="0.95em" fill="rgb(255, 255, 255)" stroke="none" stroke-width="1px">0</text><text style="text-anchor: middle; visibility: inherit; font-family: Roboto, sans-serif; font-size: 12px; font-weight: 200;" x="273.9974996884664" y="0" dx="0em" dy="0.95em" fill="rgb(255, 255, 255)" stroke="none" stroke-width="1px">100</text><text style="text-anchor: middle; visibility: inherit; font-family: Roboto, sans-serif; font-size: 12px; font-weight: 200;" x="410.9962495326996" y="0" dx="0em" dy="0.95em" fill="rgb(255, 255, 255)" stroke="none" stroke-width="1px">200</text><text style="text-anchor: middle; visibility: inherit; font-family: Roboto, sans-serif; font-size: 12px; font-weight: 200;" x="547.9949993769328" y="0" dx="0em" dy="0.95em" fill="rgb(255, 255, 255)" stroke="none" stroke-width="1px">300</text><text style="text-anchor: middle; visibility: inherit; font-family: Roboto, sans-serif; font-size: 12px; font-weight: 200;" x="684.993749221166" y="0" dx="0em" dy="0.95em" fill="rgb(255, 255, 255)" stroke="none" stroke-width="1px">400</text><text style="text-anchor: middle; visibility: inherit; font-family: Roboto, sans-serif; font-size: 12px; font-weight: 200;" x="821.9924990653992" y="0" dx="0em" dy="0.95em" fill="rgb(255, 255, 255)" stroke="none" stroke-width="1px">500</text><text style="text-anchor: middle; visibility: inherit; font-family: Roboto, sans-serif; font-size: 12px; font-weight: 200;" x="958.9912489096325" y="0" dx="0em" dy="0.95em" fill="rgb(255, 255, 255)" stroke="none" stroke-width="1px">600</text><text style="text-anchor: middle; visibility: inherit; font-family: Roboto, sans-serif; font-size: 12px; font-weight: 200;" x="1095.9899987538656" y="0" dx="0em" dy="0.95em" fill="rgb(255, 255, 255)" stroke="none" stroke-width="1px">700</text><text style="text-anchor: middle; visibility: inherit; font-family: Roboto, sans-serif; font-size: 12px; font-weight: 200;" x="1232.988748598099" y="0" dx="0em" dy="0.95em" fill="rgb(255, 255, 255)" stroke="none" stroke-width="1px">800</text><text style="text-anchor: middle; visibility: inherit; font-family: Roboto, sans-serif; font-size: 12px; font-weight: 200;" x="1369.987498442332" y="0" dx="0em" dy="0.95em" fill="rgb(255, 255, 255)" stroke="none" stroke-width="1px">900</text><text style="text-anchor: middle; visibility: inherit; font-family: Roboto, sans-serif; font-size: 12px; font-weight: 200;" x="1506.9862482865651" y="0" dx="0em" dy="0.95em" fill="rgb(255, 255, 255)" stroke="none" stroke-width="1px">1k</text><text style="text-anchor: middle; visibility: hidden; font-family: Roboto, sans-serif; font-size: 12px; font-weight: 200;" x="1643.9849981307984" y="0" dx="0em" dy="0.95em" fill="rgb(255, 255, 255)" stroke="none" stroke-width="1px">1.1k</text></g><line x1="0" y1="0" x2="1643.9849981307984" y2="0" fill="rgb(0, 0, 0)" stroke="rgb(204, 204, 204)" stroke-width="1px"></line></g></g></g></g></svg>