<svg viewBox="0 0 1705.9000244140625 400" xmlns="http://www.w3.org/2000/svg"><g><g><g><g><g><line x1="39.98800086975098" y1="377.6019992828369" x2="34.98800086975098" y2="377.6019992828369" style="visibility: inherit;" fill="rgb(0, 0, 0)" stroke="rgb(204, 204, 204)" stroke-width="1px"></line><line x1="39.98800086975098" y1="330.4017493724823" x2="34.98800086975098" y2="330.4017493724823" style="visibility: inherit;" fill="rgb(0, 0, 0)" stroke="rgb(204, 204, 204)" stroke-width="1px"></line><line x1="39.98800086975098" y1="283.2014994621277" x2="34.98800086975098" y2="283.2014994621277" style="visibility: inherit;" fill="rgb(0, 0, 0)" stroke="rgb(204, 204, 204)" stroke-width="1px"></line><line x1="39.98800086975098" y1="236.00124955177307" x2="34.98800086975098" y2="236.00124955177307" style="visibility: inherit;" fill="rgb(0, 0, 0)" stroke="rgb(204, 204, 204)" stroke-width="1px"></line><line x1="39.98800086975098" y1="188.80099964141846" x2="34.98800086975098" y2="188.80099964141846" style="visibility: inherit;" fill="rgb(0, 0, 0)" stroke="rgb(204, 204, 204)" stroke-width="1px"></line><line x1="39.98800086975098" y1="141.60074973106384" x2="34.98800086975098" y2="141.60074973106384" style="visibility: inherit;" fill="rgb(0, 0, 0)" stroke="rgb(204, 204, 204)" stroke-width="1px"></line><line x1="39.98800086975098" y1="94.40049982070923" x2="34.98800086975098" y2="94.40049982070923" style="visibility: inherit;" fill="rgb(0, 0, 0)" stroke="rgb(204, 204, 204)" stroke-width="1px"></line><line x1="39.98800086975098" y1="47.200249910354614" x2="34.98800086975098" y2="47.200249910354614" style="visibility: inherit;" fill="rgb(0, 0, 0)" stroke="rgb(204, 204, 204)" stroke-width="1px"></line><line x1="39.98800086975098" y1="0" x2="34.98800086975098" y2="0" style="visibility: inherit;" fill="rgb(0, 0, 0)" stroke="rgb(204, 204, 204)" stroke-width="1px"></line></g><g transform="translate(29.988000869750977, 0)"><text style="text-anchor: end; visibility: hidden; font-family: Roboto, sans-serif; font-size: 12px; font-weight: 200;" x="0" y="377.6019992828369" dx="0em" dy="0.3em" fill="rgb(255, 255, 255)" stroke="none" stroke-width="1px">-20</text><text style="text-anchor: end; visibility: inherit; font-family: Roboto, sans-serif; font-size: 12px; font-weight: 200;" x="0" y="330.4017493724823" dx="0em" dy="0.3em" fill="rgb(255, 255, 255)" stroke="none" stroke-width="1px">-15</text><text style="text-anchor: end; visibility: inherit; font-family: Roboto, sans-serif; font-size: 12px; font-weight: 200;" x="0" y="283.2014994621277" dx="0em" dy="0.3em" fill="rgb(255, 255, 255)" stroke="none" stroke-width="1px">-10</text><text style="text-anchor: end; visibility: inherit; font-family: Roboto, sans-serif; font-size: 12px; font-weight: 200;" x="0" y="236.00124955177307" dx="0em" dy="0.3em" fill="rgb(255, 255, 255)" stroke="none" stroke-width="1px">-5</text><text style="text-anchor: end; visibility: inherit; font-family: Roboto, sans-serif; font-size: 12px; font-weight: 200;" x="0" y="188.80099964141846" dx="0em" dy="0.3em" fill="rgb(255, 255, 255)" stroke="none" stroke-width="1px">0</text><text style="text-anchor: end; visibility: inherit; font-family: Roboto, sans-serif; font-size: 12px; font-weight: 200;" x="0" y="141.60074973106384" dx="0em" dy="0.3em" fill="rgb(255, 255, 255)" stroke="none" stroke-width="1px">5</text><text style="text-anchor: end; visibility: inherit; font-family: Roboto, sans-serif; font-size: 12px; font-weight: 200;" x="0" y="94.40049982070923" dx="0em" dy="0.3em" fill="rgb(255, 255, 255)" stroke="none" stroke-width="1px">10</text><text style="text-anchor: end; visibility: inherit; font-family: Roboto, sans-serif; font-size: 12px; font-weight: 200;" x="0" y="47.200249910354614" dx="0em" dy="0.3em" fill="rgb(255, 255, 255)" stroke="none" stroke-width="1px">15</text><text style="text-anchor: end; visibility: hidden; font-family: Roboto, sans-serif; font-size: 12px; font-weight: 200;" x="0" y="0" dx="0em" dy="0.3em" fill="rgb(255, 255, 255)" stroke="none" stroke-width="1px">20</text></g><line x1="39.98800086975098" y1="0" x2="39.98800086975098" y2="377.6019992828369" fill="rgb(0, 0, 0)" stroke="rgb(204, 204, 204)" stroke-width="1px"></line></g></g><g transform="translate(39, 0)" clip-path="url(#clip_0)"><clipPath id="clip_0"><rect width="1665" height="377"></rect></clipPath><g><g><g><line x1="0" y1="0" x2="0" y2="377.6019992828369" fill="rgb(0, 0, 0)" stroke="rgb(189, 189, 189)" stroke-width="1px" opacity="0.25"></line><line x1="138.82599992752074" y1="0" x2="138.82599992752074" y2="377.6019992828369" fill="rgb(0, 0, 0)" stroke="rgb(189, 189, 189)" stroke-width="1px" opacity="0.25"></line><line x1="277.6519998550415" y1="0" x2="277.6519998550415" y2="377.6019992828369" fill="rgb(0, 0, 0)" stroke="rgb(189, 189, 189)" stroke-width="1px" opacity="0.25"></line><line x1="416.4779997825623" y1="0" x2="416.4779997825623" y2="377.6019992828369" fill="rgb(0, 0, 0)" stroke="rgb(189, 189, 189)" stroke-width="1px" opacity="0.25"></line><line x1="555.303999710083" y1="0" x2="555.303999710083" y2="377.6019992828369" fill="rgb(0, 0, 0)" stroke="rgb(189, 189, 189)" stroke-width="1px" opacity="0.25"></line><line x1="694.1299996376039" y1="0" x2="694.1299996376039" y2="377.6019992828369" fill="rgb(0, 0, 0)" stroke="rgb(189, 189, 189)" stroke-width="1px" opacity="0.25"></line><line x1="832.9559995651246" y1="0" x2="832.9559995651246" y2="377.6019992828369" fill="rgb(0, 0, 0)" stroke="rgb(189, 189, 189)" stroke-width="1px" opacity="0.25"></line><line x1="971.7819994926454" y1="0" x2="971.7819994926454" y2="377.6019992828369" fill="rgb(0, 0, 0)" stroke="rgb(189, 189, 189)" stroke-width="1px" opacity="0.25"></line><line x1="1110.607999420166" y1="0" x2="1110.607999420166" y2="377.6019992828369" fill="rgb(0, 0, 0)" stroke="rgb(189, 189, 189)" stroke-width="1px" opacity="0.25"></line><line x1="1249.433999347687" y1="0" x2="1249.433999347687" y2="377.6019992828369" fill="rgb(0, 0, 0)" stroke="rgb(189, 189, 189)" stroke-width="1px" opacity="0.25"></line><line x1="1388.2599992752077" y1="0" x2="1388.2599992752077" y2="377.6019992828369" fill="rgb(0, 0, 0)" stroke="rgb(189, 189, 189)" stroke-width="1px" opacity="0.25"></line><line x1="1527.0859992027283" y1="0" x2="1527.0859992027283" y2="377.6019992828369" fill="rgb(0, 0, 0)" stroke="rgb(189, 189, 189)" stroke-width="1px" opacity="0.25"></line><line x1="1665.9119991302491" y1="0" x2="1665.9119991302491" y2="377.6019992828369" fill="rgb(0, 0, 0)" stroke="rgb(189, 189, 189)" stroke-width="1px" opacity="0.25"></line></g><g><line x1="0" y1="377.6019992828369" x2="1665.9119991302491" y2="377.6019992828369" fill="rgb(0, 0, 0)" stroke="rgb(189, 189, 189)" stroke-width="1px" opacity="0.25"></line><line x1="0" y1="330.4017493724823" x2="1665.9119991302491" y2="330.4017493724823" fill="rgb(0, 0, 0)" stroke="rgb(189, 189, 189)" stroke-width="1px" opacity="0.25"></line><line x1="0" y1="283.2014994621277" x2="1665.9119991302491" y2="283.2014994621277" fill="rgb(0, 0, 0)" stroke="rgb(189, 189, 189)" stroke-width="1px" opacity="0.25"></line><line x1="0" y1="236.00124955177307" x2="1665.9119991302491" y2="236.00124955177307" fill="rgb(0, 0, 0)" stroke="rgb(189, 189, 189)" stroke-width="1px" opacity="0.25"></line><line x1="0" y1="188.80099964141846" x2="1665.9119991302491" y2="188.80099964141846" fill="rgb(0, 0, 0)" stroke="rgb(189, 189, 189)" stroke-width="1px" opacity="0.25"></line><line x1="0" y1="141.60074973106384" x2="1665.9119991302491" y2="141.60074973106384" fill="rgb(0, 0, 0)" stroke="rgb(189, 189, 189)" stroke-width="1px" opacity="0.25"></line><line x1="0" y1="94.40049982070923" x2="1665.9119991302491" y2="94.40049982070923" fill="rgb(0, 0, 0)" stroke="rgb(189, 189, 189)" stroke-width="1px" opacity="0.25"></line><line x1="0" y1="47.200249910354614" x2="1665.9119991302491" y2="47.200249910354614" fill="rgb(0, 0, 0)" stroke="rgb(189, 189, 189)" stroke-width="1px" opacity="0.25"></line><line x1="0" y1="0" x2="1665.9119991302491" y2="0" fill="rgb(0, 0, 0)" stroke="rgb(189, 189, 189)" stroke-width="1px" opacity="0.25"></line></g></g></g><g><g><line x1="0" y1="188.80099964141846" x2="1665.9119991302491" y2="188.80099964141846" fill="rgb(0, 0, 0)" stroke="rgb(153, 153, 153)" stroke-width="1.5px"></line></g></g><g><g><line x1="138.82599992752074" y1="0" x2="138.82599992752074" y2="377.6019992828369" fill="rgb(0, 0, 0)" stroke="rgb(153, 153, 153)" stroke-width="1.5px"></line></g></g><g><g><g><g><g><path style="fill: none;" stroke="rgb(51, 187, 238)" stroke-width="2px" d="M140.21425992679596,41.32896439871095L141.60251992607118,41.33761264930416L142.99077992534637,41.37391467818746L144.3790399246216,41.42137364884482L145.7672999238968,41.46194929385005L147.155559923172,41.50503873802L148.54381992244723,41.52784597161133L149.93207992172242,41.557937091923066L151.32033992099764,41.6108166170342L152.70859992027283,41.705545734070384L154.09685991954805,41.826087918806806L155.48511991882324,41.988569389585436L156.87337991809846,42.14403287808213L158.26163991737366,42.2877763170528L159.64989991664888,42.42020644043757L161.03815991592407,42.57090679706447L162.4264199151993,42.76207904710817L163.81467991447448,42.95928911933996L165.2029399137497,43.13134833481977L166.59119991302492,43.2787749875554L167.97945991230011,43.474844961962994L169.36771991157534,43.70654672384986L170.75597991085053,43.91940683012163L172.14423991012575,44.10605038777471L173.53249990940097,44.27843006354793L174.92075990867616,44.445791474608406L176.30901990795138,44.57934183176318L177.69727990722657,44.67916634984797L179.08553990650177,44.77464343732939L180.47379990577699,44.87885552427968L181.86205990505218,44.95513173769255L183.2503199043274,45.03974245562606L184.63857990360262,45.09783710726221L186.0268399028778,45.13614374393471L187.41509990215303,45.18409770650606L188.80335990142822,45.274106675471025L190.19161990070344,45.38815668606807L191.57987989997866,45.493602329992704L192.96813989925386,45.56633699036521L194.35639989852908,45.62099353085982L195.74465989780427,45.680593993547824L197.1329198970795,45.795247022864444L198.52117989635468,45.89934756009263L199.90943989562987,46.008204368307396L201.2976998949051,46.11480858883884L202.68595989418031,46.24621239620379L204.0742198934555,46.38274419505168L205.46247989273073,46.52134088157725L206.85073989200592,46.670532141065884L208.23899989128114,46.826152166198284L209.62725989055633,46.985953549113L211.01551988983158,47.15430278013682L212.40377988910677,47.30812595287451L213.79203988838196,47.46313649717558L215.18029988765718,47.616223464129625L216.5685598869324,47.78035678872658L217.9568198862076,47.95903313095046L219.3450798854828,48.1113606351508L220.733339884758,48.267983740349436L222.1215998840332,48.41296348876299L223.5098598833084,48.54718327734237L224.89811988258364,48.687532911053644L226.28637988185884,48.85242878743315L227.67463988113403,48.99752872808624L229.06289988040928,49.14773746433084L230.45115987968447,49.30051092596371L231.83941987895966,49.451513818100196L233.2276798782349,49.613247949048464L234.6159398775101,49.76756381632163L236.0041998767853,49.887103918833525L237.39245987606049,49.94886375521996L238.7807198753357,50.094679876457356L240.1689798746109,50.227784597845876L241.55723987388612,50.37240229013703L242.94549987316134,50.52161586308057L244.33375987243653,50.661346848338354L245.72201987171172,50.782874481817984L247.11027987098697,50.89563355801541L248.49853987026216,51.069265578029835L249.88679986953736,51.207968471365525L251.2750598688126,51.40901077747866L252.6633198680878,51.63401745111692L254.051579867363,51.81079053631732L255.43983986663818,51.952573631735376L256.82809986591343,52.11112019638141L258.2163598651886,52.323899453896274L259.6046198644638,52.57987396216388L260.99287986373906,52.784345716340354L262.38113986301425,52.95634214029647L263.76939986228945,53.06329593496686L265.1576598615647,53.1515019083558L266.5459198608399,53.251628623174135L267.9341798601151,53.37362185001425L269.3224398593903,53.49289017361165L270.71069985866546,53.60497787160403L272.09895985794066,53.74692436732515L273.4872198572159,53.909209677464546L274.8754798564911,54.061339088045976L276.2637398557663,54.1905542521565L277.6519998550415,54.305523917510996L279.04025985431673,54.44572813972236L280.4285198535919,54.63219734531344L281.8167798528671,54.793240994200275L283.20503985214236,54.96050262832548L284.59329985141756,55.181496233861346L285.98155985069275,55.38399321894576L287.36981984996794,55.564851831712915L288.7580798492432,55.760275784722914L290.1463398485184,55.95242929577188L291.5345998477936,56.12580703709473L292.9228598470688,56.307390427976074L294.311119846344,56.43489329511123L295.6993798456192,56.59561738515115L297.08763984489445,56.785215723561635L298.47589984416965,56.96026893541865L299.86415984344484,57.12483053563377L301.2524198427201,57.312240816822424L302.6406798419953,57.481955172053375L304.02893984127047,57.65089015856524L305.41719984054566,57.89903531387837L306.8054598398209,58.134849197882545L308.1937198390961,58.34780122453368L309.5819798383713,58.591235955758094L310.9702398376465,58.828199192296005L312.35849983692174,59.00563903966927L313.74675983619693,59.19869123614066L315.1350198354721,59.38777239254176L316.5232798347473,59.58098530265399L317.9115398340225,59.76927701829132L319.29979983329775,59.943092518730566L320.68805983257295,60.08282377910894L322.07631983184814,60.2451483634912L323.46457983112333,60.38988308645045L324.8528398303986,60.5714866900311L326.2410998296738,60.818266293305015L327.62935982894896,61.05376860023875L329.0176198282242,61.21930894330299L330.4058798274994,61.406456612185806L331.7941398267746,61.64112476772644L333.18239982604985,61.878748256215246L334.57065982532504,62.1253291255774L335.95891982460023,62.41882663560383L337.3471798238755,62.71462548242634L338.73543982315067,62.95448292840949L340.12369982242586,63.180340273708524L341.51195982170105,63.35050440048009L342.9002198209763,63.46166322724908L344.2884798202515,63.59849701723018L345.6767398195267,63.809213939L347.06499981880194,64.06242418226763L348.45325981807713,64.30242226670914L349.8415198173523,64.5175751196002L351.2297798166275,64.6904813333383L352.61803981590276,64.84862677784356L354.00629981517795,65.08320765527392L355.39455981445315,65.36991569477584L356.78281981372834,65.67846876820623L358.17107981300353,65.98657074577423L359.5593398122787,66.29453530627629L360.94759981155397,66.53309997188819L362.33585981082916,66.81275621770476L363.72411981010436,67.12238622642661L365.1123798093796,67.3811439881816L366.5006398086548,67.59124689706447L367.88889980793,67.76429210648872L369.27715980720524,67.98221627179788L370.66541980648043,68.15630992867308L372.0536798057556,68.36669228178809L373.4419398050308,68.60560710474375L374.83019980430606,68.84524563187544L376.21845980358125,69.12854590531056L377.60671980285645,69.37436869505537L378.9949798021317,69.62038828119067L380.3832398014069,69.86314451856539L381.7714998006821,70.12210306012197L383.1597597999573,70.40497129173207L384.5480197992325,70.66061431648772L385.9362797985077,70.8905557734954L387.32453979778296,71.11886847713724L388.71279979705815,71.33908456733447L390.10105979633335,71.58742510286582L391.48931979560854,71.84331347398857L392.8775797948838,72.07380186017109L394.265839794159,72.30887067283237L395.65409979343417,72.5611749396681L397.04235979270936,72.82319748987005L398.43061979198455,73.05190352498622L399.81887979125975,73.2746098984646L401.207139790535,73.53179443536021L402.5953997898102,73.76301370679387L403.9836597890854,73.8919935090371L405.37191978836063,74.06086356420535L406.7601797876358,74.24982540459288L408.148439786911,74.43402521046941L409.5366997861862,74.67634870933415L410.92495978546145,74.96809123977143L412.31321978473665,75.281026221025L413.70147978401184,75.54874948617937L415.0897397832871,75.77359093855063L416.4779997825623,75.99621484131238L417.8662597818375,76.22921536857922L419.25451978111266,76.49246836494932L420.6427797803879,76.75322057278956L422.03103977966316,76.99547874829815L423.4192997789383,77.24328115647958L424.80755977821354,77.45274905604595L426.1958197774888,77.63800988419263L427.58407977676393,77.83669095338222L428.9723397760392,78.09934554482649L430.36059977531437,78.33679254329674L431.74885977458956,78.59684724142696L433.1371197738648,78.8714316523536L434.52537977313995,79.19978716905175L435.9136397724152,79.56488510925982L437.3018997716904,79.88696755118659L438.6901597709656,80.17333048542316L440.07841977024077,80.4540705145685L441.466679769516,80.75019849667605L442.8549397687912,81.04396373018189L444.2431997680664,81.3165557167631L445.63145976734165,81.55462833206653L447.0197197666168,81.77333973458528L448.40797976589204,81.98193966642658L449.7962397651673,82.21929888902449L451.1844997644424,82.48639507540354L452.57275976371767,82.75232326859766L453.9610197629929,82.99852609005404L455.34927976226805,83.20983948925473L456.7375397615433,83.49221636526397L458.12579976081855,83.82930579314434L459.5140597600937,84.14913514564074L460.90231975936894,84.46152173737468L462.2905797586442,84.76476125138014L463.6788397579193,85.06442109818977L465.06709975719457,85.35660352661948L466.4553597564698,85.64823910007551L467.84361975574495,85.91178933350344L469.2318797550202,86.19819401747931L470.62013975429534,86.47880064836373L472.0083997535706,86.76718186391003L473.39665975284584,87.04088275712438L474.78491975212097,87.28656362426199L476.1731797513962,87.53215235187757L477.5614397506714,87.82991605279142L478.9496997499466,88.13245548345063L480.3379597492218,88.42298423559515L481.72621974849704,88.75239697359059L483.11447974777224,89.00961030042163L484.5027397470474,89.22902805765379L485.8909997463227,89.49311611975017L487.2792597455978,89.82738513448088L488.66751974487306,90.15363550225955L490.0557797441483,90.47040766496909L491.44403974342345,90.7348407411248L492.8322997426987,90.94348016052624L494.22055974197394,91.18688050254013L495.6088197412491,91.40248662783576L496.9970797405243,91.58877638566871L498.3853397397996,91.82745636883914L499.7735997390747,92.07959382953138L501.16185973834996,92.33230469942322L502.5501197376252,92.61541794048797L503.93837973690034,92.88379739304219L505.3266397361756,93.16394923045569L506.71489973545073,93.42574798237632L508.103159734726,93.67528170253799L509.4914197340012,93.9258109400664L510.87967973327636,94.17218404487811L512.2679397325516,94.44649991050798L513.6561997318269,94.71745132116342L515.0444597311019,95.0125424004593L516.4327197303772,95.27277510074289L517.8209797296524,95.50719528675103L519.2092397289276,95.80039331101862L520.5974997282028,96.08196820257268L521.9857597274781,96.41977920493724L523.3740197267532,96.7854728950128L524.7622797260285,97.14811899339146L526.1505397253037,97.43000417302943L527.5387997245789,97.71020019992041L528.9270597238541,97.91596004416729L530.3153197231294,98.1492781046663L531.7035797224045,98.40309589862377L533.0918397216798,98.63850340911857L534.480099720955,98.96583801203161L535.8683597202302,99.32654585711221L537.2566197195054,99.65912022698775L538.6448797187805,99.99268313662246L540.0331397180557,100.34531998085323L541.4213997173309,100.69224557743006L542.8096597166061,101.02427134220726L544.1979197158813,101.36208928053516L545.5861797151566,101.70593929922624L546.9744397144318,102.00459214555832L548.362699713707,102.28564437802827L549.7509597129822,102.55049693009609L551.1392197122574,102.79813939988895L552.5274797115326,103.07668833843464L553.9157397108079,103.33087413173651L555.303999710083,103.64181930790193L556.6922597093583,103.98682011378554L558.0805197086335,104.35618309027437L559.4687797079087,104.70990338224917L560.8570397071838,105.0073374245666L562.2452997064592,105.31196575430415L563.6335597057342,105.55934996678006L565.0218197050095,105.73504077043603L566.4100797042847,105.9387578971344L567.7983397035599,106.2437796683201L569.1865997028351,106.52804467093705L570.5748597021104,106.79381657897314L571.9631197013855,107.07273879135127L573.3513797006608,107.38872364303961L574.7396396999359,107.69478831527546L576.1278996992112,108.02197750025279L577.5161596984864,108.36906158491216L578.9044196977616,108.67106289829984L580.2926796970368,108.92047919643773L581.680939696312,109.19174509775483L583.0691996955871,109.45895434928808L584.4574596948623,109.7310398303203L585.8457196941376,110.04648052336708L587.2339796934128,110.3721435495661L588.622239692688,110.63945519819491L590.0104996919632,110.86382641286713L591.3987596912384,111.09675538726852L592.7870196905136,111.32999355250496L594.1752796897889,111.57038894884296L595.563539689064,111.83120437957396L596.9517996883393,112.1135446461506L598.3400596876145,112.45815639880426L599.7283196868897,112.83336999046087L601.1165796861649,113.22270079708234L602.5048396854402,113.66541296759155L603.8930996847153,114.1233332496974L605.2813596839906,114.53803110621799L606.6696196832658,114.90293466327837L608.0578796825409,115.20411136377993L609.4461396818161,115.47222312030402L610.8343996810913,115.74806768118127L612.2226596803665,116.01135490368598L613.6109196796418,116.22397382779477L614.9991796789169,116.48402580313648L616.3874396781922,116.73086755826601L617.7756996774674,116.99263571925731L619.1639596767426,117.25462167090873L620.5522196760178,117.54251672323974L621.940479675293,117.86880797342094L623.3287396745682,118.18645092249402L624.7169996738435,118.44477505718287L626.1052596731187,118.6779042595561L627.4935196723939,118.95531113464257L628.881779671669,119.28279615141741L630.2700396709442,119.55990663740913L631.6582996702194,119.82192960055619L633.0465596694946,120.12582671123846L634.4348196687699,120.45858084363226L635.823079668045,120.74126373094995L637.2113396673203,120.98515501508503L638.5995996665955,121.18090038653506L639.9878596658707,121.38278964585432L641.3761196651459,121.6052507643104L642.7643796644211,121.84011081519441L644.1526396636963,122.07749833429399L645.5408996629716,122.32012406423334L646.9291596622467,122.56350519582831L648.317419661522,122.83728626017808L649.7056796607972,123.11981480228035L651.0939396600724,123.40329572674464L652.4821996593475,123.6971988713084L653.8704596586228,123.9921805768807L655.2587196578979,124.2601962357457L656.6469796571732,124.50471484503043L658.0352396564484,124.78661105253501L659.4234996557236,125.08311764599564L660.8117596549988,125.38232082829731L662.200019654274,125.65354097709765L663.5882796535492,125.97446909440538L664.9765396528245,126.27788382103431L666.3647996520997,126.57275130854984L667.7530596513749,126.90111217808325L669.1413196506501,127.2857618648923L670.5295796499253,127.68429960494468L671.9178396492005,128.05052823812414L673.3060996484757,128.3985885767103L674.694359647751,128.71051687843635L676.082619647026,129.0214668427974L677.4708796463013,129.34349914753082L678.8591396455764,129.65025379947286L680.2473996448517,129.9288244860999L681.6356596441269,130.22891386053303L683.0239196434021,130.55509985071438L684.4121796426773,130.84968846370694L685.8004396419526,131.14250126699756L687.1886996412277,131.42264586190137L688.576959640503,131.7048674699777L689.9652196397782,131.9710104261615L691.3534796390534,132.2732166688279L692.7417396383286,132.56261822665573L694.1299996376039,132.84736729358002L695.518259636879,133.12196423128694L696.9065196361543,133.41684970032554L698.2947796354294,133.68080320153695L699.6830396347046,133.95671138600588L701.0712996339798,134.2363983500078L702.459559633255,134.5612362011187L703.8478196325302,134.9031931571877L705.2360796318055,135.28808889397004L706.6243396310807,135.61679961983126L708.0125996303559,135.93777942664732L709.4008596296311,136.2268514031326L710.7891196289063,136.529510818837L712.1773796281815,136.86687355886613L713.5656396274567,137.16305827039542L714.9538996267319,137.42588633875326L716.3421596260071,137.72997482400592L717.7304196252824,138.07713652039166L719.1186796245574,138.49049419426674L720.5069396238327,138.8809842538819L721.8951996231079,139.30427626909508L723.2834596223831,139.72812945286833L724.6717196216583,140.0801840376312L726.0599796209336,140.40684263156567L727.4482396202087,140.76902644250083L728.836499619484,141.11732469677162L730.2247596187592,141.40852381122622L731.6130196180344,141.69381124813384L733.0012796173096,141.99051602166068L734.3895396165849,142.2909292432676L735.77779961586,142.58904816164937L737.1660596151353,142.91910601262586L738.5543196144105,143.27958964240932L739.9425796136857,143.6391115051594L741.3308396129609,143.93987884511725L742.719099612236,144.25656140589194L744.1073596115112,144.58957755890646L745.4956196107865,144.90699715686958L746.8838796100616,145.19818589921317L748.2721396093369,145.51687985690265L749.6603996086121,145.84170399459114L751.0486596078873,146.18645797427607L752.4369196071625,146.5335297324338L753.8251796064377,146.8485343999606L755.2134396057129,147.19681175594314L756.6016996049881,147.53305341006512L757.9899596042634,147.89469594714313L759.3782196035385,148.29971795692686L760.7664796028138,148.6636504736808L762.154739602089,149.01414129856093L763.5429996013642,149.33809890140267L764.9312596006394,149.64475555174636L766.3195195999147,149.95380650902118L767.7077795991897,150.27481464448803L769.096039598465,150.56529364017192L770.4842995977402,150.88524526097655L771.8725595970154,151.21758594945078L773.2608195962906,151.55289472285287L774.6490795955659,151.84460066880916L776.037339594841,152.14533390160955L777.4255995941163,152.40784095671728L778.8138595933915,152.70156644630865L780.2021195926667,152.9664192441771L781.5903795919419,153.2500871986775L782.9786395912171,153.54748578840454L784.3668995904923,153.86441668808388L785.7551595897676,154.17834930547716L787.1434195890427,154.51459947523117L788.531679588318,154.8326963997681L789.9199395875931,155.18369157179856L791.3081995868683,155.5697753524542L792.6964595861435,155.94402171276272L794.0847195854187,156.2945789851904L795.4729795846939,156.63768115671306L796.8612395839691,156.97786413944524L798.2494995832444,157.25863040185084L799.6377595825195,157.534876282966L801.0260195817948,157.79702327833857L802.41427958107,158.0785951078477L803.8025395803452,158.3645296239358L805.1907995796204,158.68723272014338L806.5790595788957,158.95662248086603L807.9673195781708,159.24124717709572L809.3555795774461,159.57369667897473L810.7438395767213,159.9049780979008L812.1320995759964,160.2308583400444L813.5203595752716,160.56021931673573L814.908619574547,160.88534431407317L816.296879573822,161.17461851118165L817.6851395730973,161.4410606269171L819.0733995723724,161.68348636156603L820.4616595716477,161.9321014214288L821.8499195709229,162.20960261875817L823.2381795701981,162.51398739850697L824.6264395694733,162.8527004526252L826.0146995687486,163.20146376940554L827.4029595680237,163.54212115209123L828.791219567299,163.8431167096301L830.1794795665742,164.16091749887366L831.5677395658494,164.47824662272055L832.9559995651246,164.79415390157794L834.3442595643997,165.13836702604686L835.732519563675,165.49324463944006L837.1207795629501,165.89126560179875L838.5090395622253,166.29883711412086L839.8972995615005,166.6761442284868L841.2855595607758,167.0237521003727L842.673819560051,167.36946086018528L844.0620795593263,167.738487878075L845.4503395586014,168.13339305974606L846.8385995578766,168.5196239922614L848.2268595571518,168.90215653255L849.6151195564271,169.30754084895545L851.0033795557023,169.6882422746954L852.3916395549776,170.01359690905906L853.7798995542526,170.3047108550973L855.1681595535279,170.60564615713278L856.556419552803,170.94175071104016L857.9446795520784,171.2509119297303L859.3329395513535,171.574763115106L860.7211995506287,171.94211581156458L862.1094595499038,172.32149139061036L863.4977195491791,172.70529075218556L864.8859795484543,173.05241414268866L866.2742395477296,173.3487488620549L867.6624995470048,173.6364915218145L869.0507595462799,173.90623654688105L870.4390195455551,174.2074040093564L871.8272795448304,174.51854778919184L873.2155395441056,174.83091401330012L874.6037995433808,175.21861755356565L875.9920595426561,175.6251171166004L877.3803195419312,175.9846821702015L878.7685795412063,176.31148297051377L880.1568395404815,176.62790838720582L881.5450995397568,176.90801423713964L882.933359539032,177.21037692008557L884.3216195383073,177.50330823521205L885.7098795375824,177.8112757626213L887.0981395368576,178.13430675165986L888.4863995361328,178.48554848846413L889.8746595354081,178.84496376656094L891.2629195346833,179.17193510562885L892.6511795339586,179.52080043820877L894.0394395332336,179.83773831059088L895.4276995325089,180.1493962947611L896.8159595317841,180.46432262504695L898.2042195310594,180.79342329594792L899.5924795303346,181.09773353790615L900.9807395296098,181.42011682524017L902.3689995288848,181.79214459460815L903.7572595281601,182.16339184804843L905.1455195274353,182.537274934344L906.5337795267106,182.87038301099344L907.9220395259858,183.2293169250639L909.3102995252609,183.5605723840518L910.6985595245361,183.85489372373564L912.0868195238114,184.17822083831686L913.4750795230866,184.53421285118L914.8633395223618,184.87815289385364L916.2515995216371,185.21559120087218L917.6398595209122,185.58520196834746L919.0281195201874,185.94194055612593L920.4163795194626,186.27628695138947L921.8046395187379,186.60609982121142L923.1928995180131,186.95288774268542L924.5811595172884,187.29307248265474L925.9694195165634,187.6672624420351L927.3576795158386,188.041047684587L928.7459395151138,188.36068338164662L930.1341995143891,188.6878565196023L931.5224595136643,189.07095064436723L932.9107195129396,189.45731038020767L934.2989795122146,189.81144613281532L935.6872395114899,190.10591592589185L937.0754995107651,190.36491328006787L938.4637595100404,190.6494766630745L939.8520195093156,190.96242321712873L941.2402795085907,191.29906282173124L942.6285395078659,191.63230913556546L944.0167995071412,191.99919741919786L945.4050595064164,192.38931628428705L946.7933195056917,192.74293579795585L948.1815795049669,193.04758797055854L949.5698395042419,193.3266071262217L950.9580995035171,193.632489434108L952.3463595027924,193.97410906475204L953.7346195020676,194.32340771051386L955.1228795013428,194.6520755030557L956.5111395006181,194.95518208142104L957.8993994998932,195.27116222087324L959.2876594991684,195.6417061424091L960.6759194984436,196.00563738631894L962.0641794977189,196.36355335198382L963.4524394969941,196.67461732225726L964.8406994962694,196.98163710199557L966.2289594955445,197.3265893953405L967.6172194948197,197.69098256431852L969.0054794940949,198.05211192646192L970.3937394933702,198.44290285423355L971.7819994926454,198.80988503997258L973.1702594919204,199.21336999964274L974.5585194911956,199.5670120421466L975.9467794904709,199.91257185993345L977.3350394897461,200.21632522277542L978.7232994890214,200.48943777557446L980.1115594882966,200.80464890489594L981.4998194875717,201.14082532652466L982.8880794868469,201.45176719335777L984.2763394861222,201.77256486621746L985.6645994853974,202.09440869498124L987.0528594846727,202.37642733586588L988.4411194839479,202.61657555675242L989.829379483223,202.89567037682718L991.2176394824982,203.25681972355034L992.6058994817735,203.68220754198285L993.9941594810487,204.08315217092266L995.3824194803238,204.5054877329602L996.7706794795992,204.9240649172706L998.1589394788742,205.3225436577157L999.5471994781494,205.70127319713052L1000.9354594774246,206.08658406149854L1002.3237194766999,206.44366570165016L1003.7119794759751,206.8356614993517L1005.1002394752504,207.2000572023194L1006.4884994745255,207.56644298023332L1007.8767594738007,207.95437708263725L1009.2650194730759,208.36075345355516L1010.6532794723512,208.77833562821962L1012.0415394716264,209.20402950659346L1013.4297994709015,209.6315573863734L1014.8180594701766,210.06264341316418L1016.206319469452,210.4724716261796L1017.5945794687271,210.84177081869282L1018.9828394680025,211.18951913882123L1020.3710994672776,211.54043022141124L1021.7593594665527,211.9313169218779L1023.1476194658279,212.3593969029682L1024.535879465103,212.82380110531275L1025.9241394643784,213.23644751005568L1027.3123994636537,213.5938074795202L1028.7006594629288,213.9528487691804L1030.0889194622039,214.3199758995371L1031.4771794614792,214.71042994341244L1032.8654394607545,215.09121014923406L1034.2536994600298,215.46464928566388L1035.6419594593049,215.85328002984448L1037.0302194585802,216.24552957004866L1038.4184794578553,216.60766568629012L1039.8067394571306,216.99657816283693L1041.1949994564056,217.40787187291627L1042.583259455681,217.80993084252353L1043.9715194549563,218.24969449711173L1045.3597794542313,218.70879586533908L1046.7480394535064,219.1638783190777L1048.1362994527817,219.58335814731169L1049.524559452057,220.0023915500444L1050.912819451332,220.4514539955598L1052.3010794506074,220.8911853637888L1053.6893394498825,221.3174505970907L1055.0775994491578,221.7139728725047L1056.4658594484329,222.10027108712455L1057.8541194477082,222.50334322020294L1059.2423794469835,222.91663275082107L1060.6306394462588,223.32497665729045L1062.0188994455336,223.77404975546904L1063.407159444809,224.21337969148135L1064.7954194440842,224.6086867397288L1066.1836794433596,225.00166506748343L1067.5719394426346,225.45195838786742L1068.96019944191,225.89049089283003L1070.348459441185,226.30572057618278L1071.7367194404603,226.68249373605542L1073.1249794397354,227.01950191446213L1074.5132394390107,227.3567802295481L1075.901499438286,227.73241922366648L1077.289759437561,228.1176335445166L1078.6780194368362,228.4889544991738L1080.0662794361115,228.8542513360045L1081.4545394353868,229.21842745923942L1082.8427994346619,229.57726953905893L1084.2310594339372,229.9290328153608L1085.6193194332122,230.31952425682007L1087.0075794324875,230.6850267560957L1088.3958394317626,231.0141201882929L1089.784099431038,231.36660691464087L1091.1723594303132,231.75138535988955L1092.5606194295885,232.12868728439616L1093.9488794288636,232.53066494988266L1095.3371394281387,232.92988732855088L1096.725399427414,233.30583196994925L1098.1136594266893,233.67691353281123L1099.5019194259644,234.03503019828514L1100.8901794252397,234.35109632052905L1102.2784394245148,234.65191074632884L1103.66669942379,234.97638731627862L1105.0549594230652,235.33017676178392L1106.4432194223405,235.74629751669357L1107.8314794216158,236.20694182031096L1109.2197394208908,236.6256598140401L1110.607999420166,237.0010419023849L1111.9962594194412,237.36955685667112L1113.3845194187165,237.77835301073102L1114.7727794179918,238.18416384073674L1116.161039417267,238.5410325613775L1117.549299416542,238.8941902049645L1118.9375594158173,239.23375255081723L1120.3258194150926,239.57363289107658L1121.7140794143677,239.96972623622082L1123.102339413643,240.36341221372373L1124.4905994129183,240.7491826060079L1125.8788594121934,241.1549539613114L1127.2671194114685,241.56942549243044L1128.6553794107438,242.00391222080185L1130.043639410019,242.42341607280397L1131.4318994092941,242.8268810588784L1132.8201594085695,243.22508184881815L1134.2084194078445,243.66528183087595L1135.5966794071198,244.1155387309395L1136.984939406395,244.6140471989379L1138.3731994056702,245.04944825894927L1139.7614594049455,245.46573036526559L1141.1497194042208,245.94306351703946L1142.5379794034957,246.42831577932338L1143.926239402771,246.92756531492364L1145.3144994020463,247.39790588807693L1146.7027594013216,247.79087626033441L1148.0910194005967,248.19841082738932L1149.4792793998718,248.57903488834378L1150.867539399147,248.95911078120378L1152.2557993984224,249.34599333955205L1153.6440593976974,249.77849130605378L1155.0323193969728,250.22636327571394L1156.420579396248,250.6777195045722L1157.8088393955231,251.124808558754L1159.1970993947982,251.5632352555578L1160.5853593940735,251.9400264034194L1161.9736193933488,252.33500317050132L1163.361879392624,252.75527047460406L1164.7501393918992,253.143152461899L1166.1383993911743,253.56321952971558L1167.5266593904496,253.99041154616728L1168.9149193897247,254.41466014030948L1170.303179389,254.7918913428417L1171.6914393882753,255.16959121733288L1173.0796993875506,255.55439096513524L1174.4679593868257,255.92794793033076L1175.8562193861007,256.299199373983L1177.244479385376,256.7180567777639L1178.6327393846514,257.1524381988355L1180.0209993839264,257.60111434229526L1181.4092593832015,257.9852183112816L1182.7975193824768,258.350529032385L1184.1857793817521,258.69888848174094L1185.5740393810272,259.04371938461315L1186.9622993803025,259.42405558169446L1188.3505593795778,259.81110152476214L1189.738819378853,260.1956463338418L1191.127079378128,260.63559313807787L1192.5153393774033,261.0262944966125L1193.9035993766786,261.43142333838085L1195.291859375954,261.8494273508733L1196.680119375229,262.30675065773966L1198.068379374504,262.7692675556353L1199.4566393737794,263.18209957785126L1200.8448993730547,263.572818011557L1202.2331593723297,263.9764806501811L1203.621419371605,264.3453358863895L1205.0096793708803,264.69561858303774L1206.3979393701554,265.0692130165046L1207.7861993694305,265.49400458898054L1209.1744593687058,265.92822838245206L1210.5627193679811,266.3617015624729L1211.9509793672562,266.7544137361865L1213.3392393665315,267.1529508995528L1214.7274993658066,267.5674572438512L1216.1157593650819,267.9519582782226L1217.504019364357,268.2976634140079L1218.8922793636323,268.6518022381127L1220.2805393629076,268.9966761261199L1221.6687993621827,269.35658930606104L1223.0570593614577,269.7543600150987L1224.445319360733,270.14259024903697L1225.8335793600083,270.55529496620693L1227.2218393592836,270.9899477784726L1228.6100993585587,271.4125149805852L1229.9983593578338,271.7949348294438L1231.386619357109,272.15885156203564L1232.7748793563844,272.49438117709764L1234.1631393556595,272.8211754405711L1235.5513993549348,273.18827872205856L1236.93965935421,273.5683392054906L1238.3279193534852,273.98379079449495L1239.7161793527603,274.3956367053601L1241.1044393520356,274.76472408473546L1242.4926993513109,275.1127225315028L1243.880959350586,275.4834231525814L1245.2692193498613,275.8362463152793L1246.6574793491363,276.20753346512026L1248.0457393484116,276.5895424990118L1249.433999347687,277.00059592807276L1250.822259346962,277.4408587714651L1252.2105193462373,277.88373153506814L1253.5987793455124,278.3233519879818L1254.9870393447877,278.72691149888254L1256.3752993440628,279.13310941441244L1257.763559343338,279.5434039358329L1259.1518193426134,279.9418276706052L1260.5400793418885,280.3534787115444L1261.9283393411636,280.77858301109694L1263.3165993404389,281.17253255665963L1264.7048593397142,281.6033325126624L1266.0931193389893,282.0740321157591L1267.4813793382646,282.49963854883106L1268.8696393375399,282.90814610282234L1270.257899336815,283.33777785734736L1271.64615933609,283.75942826110764L1273.0344193353653,284.190622205685L1274.4226793346406,284.5943545990343L1275.810939333916,284.9790388810411L1277.199199333191,285.3991553231652L1278.587459332466,285.78029197288157L1279.9757193317414,286.1448216058097L1281.3639793310167,286.52965421772865L1282.7522393302918,286.92286226143943L1284.140499329567,287.3438364683226L1285.5287593288422,287.7981326317407L1286.9170193281175,288.24862234355663L1288.3052793273926,288.6746526519597L1289.6935393266679,289.0902133952725L1291.0817993259432,289.538178944696L1292.4700593252182,289.9580565475122L1293.8583193244933,290.36155312558424L1295.2465793237686,290.7509321867069L1296.634839323044,291.14868665204904L1298.023099322319,291.51585154733027L1299.4113593215943,291.8659158810383L1300.7996193208696,292.2101852334763L1302.1878793201447,292.5953070554955L1303.5761393194198,293.0198344810918L1304.964399318695,293.45983438816984L1306.3526593179704,293.88505887989714L1307.7409193172457,294.2845397981854L1309.1291793165208,294.6982259745222L1310.5174393157959,295.10281875733585L1311.9056993150712,295.4579933572076L1313.2939593143465,295.8349910747357L1314.6822193136215,296.20795586319207L1316.0704793128969,296.57767264275L1317.4587393121722,296.98079975193804L1318.8469993114472,297.390634609375L1320.2352593107223,297.81642093672264L1321.6235193099976,298.21603729515914L1323.011779309273,298.58503954495404L1324.400039308548,298.9611474634649L1325.788299307823,299.3081834626625L1327.1765593070984,299.69595557339085L1328.5648193063737,300.15053261244725L1329.953079305649,300.563436987642L1331.341339304924,300.9800780900305L1332.7295993041994,301.3968113760439L1334.1178593034745,301.81940133351503L1335.5061193027498,302.2704248593958L1336.8943793020248,302.73773069017255L1338.2826393013002,303.1767927631664L1339.6708993005755,303.6151387089277L1341.0591592998505,304.0526300493418L1342.4474192991256,304.4768535541308L1343.835679298401,304.87728235036866L1345.2239392976762,305.29254916068845L1346.6121992969513,305.68982941589525L1348.0004592962266,306.0896777941231L1349.388719295502,306.4886255049161L1350.776979294777,306.87908880346055L1352.165239294052,307.2883403042314L1353.5534992933274,307.7257898647794L1354.9417592926027,308.14111880888674L1356.330019291878,308.54337704435363L1357.7182792911528,308.92256383113244L1359.1065392904281,309.2933778093987L1360.4947992897035,309.6908469201892L1361.8830592889788,310.1111079746171L1363.2713192882538,310.5405752384602L1364.6595792875291,310.91915870272993L1366.0478392868042,311.233260779761L1367.4360992860795,311.5856978087302L1368.8243592853546,312.00040213004615L1370.21261928463,312.4077556525388L1371.6008792839052,312.8089449633075L1372.9891392831803,313.22734729575L1374.3773992824554,313.66327242558106L1375.7656592817307,314.05908706443915L1377.153919281006,314.42610357213647L1378.542179280281,314.81769310730016L1379.9304392795564,315.21589879139856L1381.3186992788317,315.6278223243813L1382.7069592781068,316.0592659941445L1384.0952192773818,316.4870666842069L1385.4834792766571,316.8918636661661L1386.8717392759324,317.2768734062229L1388.2599992752077,317.6679550489794L1389.6482592744828,318.09090880362004L1391.036519273758,318.55350485493125L1392.4247792730332,319.0128492758581L1393.8130392723085,319.4300797251424L1395.2012992715836,319.8414192744097L1396.589559270859,320.2995243546774L1397.977819270134,320.7877773876507L1399.3660792694093,321.2438443288901L1400.7543392686844,321.66344760777065L1402.1425992679597,322.1090204157191L1403.530859267235,322.54801021193657L1404.91911926651,322.9847103051201L1406.3073792657851,323.38863144194124L1407.6956392650604,323.77442287177786L1409.0838992643357,324.1847928419118L1410.472159263611,324.58379120662516L1411.8604192628861,325.0197450991567L1413.2486792621614,325.4633779079054L1414.6369392614365,325.8905048564522L1416.0251992607118,326.26110493411176L1417.413459259987,326.6394859483906L1418.8017192592622,327.0481573033666L1420.1899792585375,327.47610839839956L1421.5782392578126,327.89895067446196L1422.9664992570877,328.33506942047114L1424.354759256363,328.705371248124L1425.7430192556383,329.073418229334L1427.1312792549134,329.4813556240759L1428.5195392541887,329.9192915080296L1429.9077992534637,330.3423377005348L1431.296059252739,330.75120688634746L1432.6843192520141,331.1829678004999L1434.0725792512894,331.60728932313805L1435.4608392505647,332.060903859325L1436.84909924984,332.53442050990355L1438.237359249115,332.99097245331524L1439.6256192483902,333.43173867018135L1441.0138792476655,333.8313294258356L1442.4021392469408,334.2034960793321L1443.7903992462159,334.5625464850097L1445.1786592454912,334.95432946878867L1446.5669192447663,335.34613324320964L1447.9551792440416,335.7519073295901L1449.3434392433167,336.1464196392743L1450.731699242592,336.5370017411699L1452.1199592418673,336.94759210878783L1453.5082192411423,337.3665575338075L1454.8964792404174,337.7780954126873L1456.2847392396927,338.19307036036486L1457.672999238968,338.6184296759036L1459.061259238243,339.018564062311L1460.4495192375184,339.4014352451081L1461.8377792367935,339.7897140921423L1463.2260392360688,340.1814175923831L1464.6142992353439,340.5616933912874L1466.0025592346192,340.93424830700127L1467.3908192338945,341.28975412315276L1468.7790792331698,341.6565362086673L1470.1673392324449,342.05202911828087L1471.55559923172,342.46567760442144L1472.9438592309953,342.8702981884234L1474.3321192302706,343.2749612885629L1475.7203792295456,343.68001000771346L1477.108639228821,344.06671565910455L1478.496899228096,344.500861213862L1479.8851592273713,344.9342658440946L1481.2734192266464,345.33453519476757L1482.6616792259217,345.6939073972911L1484.049939225197,346.0859410766702L1485.438199224472,346.5037295116808L1486.8264592237472,346.91367172651366L1488.2147192230225,347.33862579607074L1489.6029792222978,347.79001626996364L1490.991239221573,348.2579960073018L1492.3794992208482,348.7333725264744L1493.7677592201233,349.1947495171264L1495.1560192193986,349.6449395444632L1496.5442792186739,350.0757271410731L1497.932539217949,350.5153779044139L1499.3207992172242,350.95624852363454L1500.7090592164996,351.35166343390455L1502.0973192157746,351.73182536819075L1503.4855792150497,352.1313849844534L1504.873839214325,352.5626701082478L1506.2620992136003,353.0151727990922L1507.6503592128754,353.47901600815857L1509.0386192121507,353.935936160554L1510.4268792114258,354.37337622592435L1511.815139210701,354.8153403610504L1513.2033992099762,355.24628436823946L1514.5916592092515,355.6282890481897L1515.9799192085268,356.0258429672521L1517.368179207802,356.4332305828419L1518.756439207077,356.8257977255838L1520.1446992063522,357.2085290981763L1521.5329592056275,357.60638219127924L1522.9212192049029,358.0172695193024L1524.309479204178,358.43390315854526L1525.6977392034532,358.8312544837026L1527.0859992027283,359.24137260883134" fill="none"></path></g></g></g></g><g opacity="0.2"><g><g><g><path style="fill: none;" stroke="rgb(51, 187, 238)" stroke-width="2px" d="M140.21425992679596,41.32896439871095L141.60251992607118,41.342801599660106L142.99077992534637,41.40876462591538L144.3790399246216,41.47718539833792L145.7672999238968,41.51492485596886L147.155559923172,41.564646951507L148.54381992244723,41.56046068056273L149.93207992172242,41.60181023421228L151.32033992099764,41.68880364525424L152.70859992027283,41.84620743275897L154.09685991954805,42.00580788716775L155.48511991882324,42.231407378764644L156.87337991809846,42.37672049556363L158.26163991737366,42.50310986714784L159.64989991664888,42.61869595887586L161.03815991592407,42.796851046437695L162.4264199151993,43.04875652448439L163.81467991447448,43.255054156071566L165.2029399137497,43.38941094654976L166.59119991302492,43.49990149127893L167.97945991230011,43.76893917063093L169.36771991157534,44.05409174243508L170.75597991085053,44.23869278697774L172.14423991012575,44.38601351328336L173.53249990940097,44.536998352006805L174.92075990867616,44.69683287747918L176.30901990795138,44.77966702577649L177.69727990722657,44.828902973721114L179.08553990650177,44.9178589806036L180.47379990577699,45.035173597108624L181.86205990505218,45.06954603251776L183.2503199043274,45.16665851569168L184.63857990360262,45.184979077781136L186.0268399028778,45.19360369619969L187.41509990215303,45.256028648302035L188.80335990142822,45.40912012659747L190.19161990070344,45.559231700199234L191.57987989997866,45.65177079490071L192.96813989925386,45.675438980518976L194.35639989852908,45.70297834141908L195.74465989780427,45.76999468746031L197.1329198970795,45.967226566701484L198.52117989635468,46.055498365859776L199.90943989562987,46.1714895805824L201.2976998949051,46.274714919608314L202.68595989418031,46.443318107230624L204.0742198934555,46.58754189331077L205.46247989273073,46.72923591135792L206.85073989200592,46.8943190302937L208.23899989128114,47.0595822038938L209.62725989055633,47.22565562348311L211.01551988983158,47.40682662667142L212.40377988910677,47.538860711980504L213.79203988838196,47.69565231362665L215.18029988765718,47.84585391456059L216.5685598869324,48.026556775621785L217.9568198862076,48.22704764428626L219.3450798854828,48.33985189145132L220.733339884758,48.50291839814733L222.1215998840332,48.630433111383226L223.5098598833084,48.7485129602114L224.89811988258364,48.89805736162069L226.28637988185884,49.099772602002204L227.67463988113403,49.215178639065954L229.06289988040928,49.373050568697764L230.45115987968447,49.52967111841291L231.83941987895966,49.678018156304816L233.2276798782349,49.855849145470955L234.6159398775101,49.99903761723155L236.0041998767853,50.06641407260132L237.39245987606049,50.04150350979957L238.7807198753357,50.31340405831348L240.1689798746109,50.42744167992876L241.55723987388612,50.5893288285738L242.94549987316134,50.745436222495755L244.33375987243653,50.87094332622506L245.72201987171172,50.96516593203748L247.11027987098697,51.06477217231155L248.49853987026216,51.32971360805141L249.88679986953736,51.416022811369174L251.2750598688126,51.7105742366482L252.6633198680878,51.971527461574496L254.051579867363,52.075950164117785L255.43983986663818,52.16524827486241L256.82809986591343,52.348940043350495L258.2163598651886,52.64306834016851L259.6046198644638,52.96383572456524L260.99287986373906,53.09105334760511L262.38113986301425,53.21433677623067L263.76939986228945,53.223726626972365L265.1576598615647,53.283810868439204L266.5459198608399,53.401818695401644L267.9341798601151,53.55661169027442L269.3224398593903,53.67179265900788L270.71069985866546,53.77310941859251L272.09895985794066,53.959844110906744L273.4872198572159,54.15263764267368L274.8754798564911,54.289533203918054L276.2637398557663,54.384376998322196L277.6519998550415,54.47797841554289L279.04025985431673,54.65603447303933L280.4285198535919,54.9119011537L281.8167798528671,55.034806467530615L283.20503985214236,55.21139507951327L284.59329985141756,55.51298664216526L285.98155985069275,55.687738696572325L287.36981984996794,55.836139750863566L288.7580798492432,56.05341171423798L290.1463398485184,56.2406595623454L291.5345998477936,56.38587364907903L292.9228598470688,56.57976551429803L294.311119846344,56.62614759581392L295.6993798456192,56.8367035202111L297.08763984489445,57.06961323117733L298.47589984416965,57.22284875320419L299.86415984344484,57.37167293595644L301.2524198427201,57.593356238605466L302.6406798419953,57.73652670489966L304.02893984127047,57.90429263833309L305.41719984054566,58.271253046848216L306.8054598398209,58.48857002388874L308.1937198390961,58.667229264510496L309.5819798383713,58.95638805259465L310.9702398376465,59.18364404710282L312.35849983692174,59.27179881072935L313.74675983619693,59.488269530847774L315.1350198354721,59.67139412714343L316.5232798347473,59.870804667822284L317.9115398340225,60.05171459174741L319.29979983329775,60.203815769389365L320.68805983257295,60.29242066967653L322.07631983184814,60.488635240064596L323.46457983112333,60.606985170889175L324.8528398303986,60.843892095402225L326.2410998296738,61.1884356982158L327.62935982894896,61.40702206063939L329.0176198282242,61.46761945789942L330.4058798274994,61.68717811551005L331.7941398267746,61.993127001037365L333.18239982604985,62.23518348894855L334.57065982532504,62.49520042962061L335.95891982460023,62.85907290064357L337.3471798238755,63.15832375266005L338.73543982315067,63.31426909738414L340.12369982242586,63.51912629165716L341.51195982170105,63.6057505906374L342.9002198209763,63.628401467402554L344.2884798202515,63.80374770220172L345.6767398195267,64.12528932165482L347.06499981880194,64.44223954716904L348.45325981807713,64.66241939337144L349.8415198173523,64.84030439893682L351.2297798166275,64.94984065394536L352.61803981590276,65.0858449446016L354.00629981517795,65.43507897141941L355.39455981445315,65.79997775402866L356.78281981372834,66.14129837835182L358.17107981300353,66.44872371212614L359.5593398122787,66.75648214702937L360.94759981155397,66.8909469703061L362.33585981082916,67.2322405864296L363.72411981010436,67.5868312395094L365.1123798093796,67.76928063081404L366.5006398086548,67.90640126038875L367.88889980793,68.0238599206252L369.27715980720524,68.30910251976148L370.66541980648043,68.41745041398586L372.0536798057556,68.68226581146074L373.4419398050308,68.96397933917731L374.83019980430606,69.20470342257292L376.21845980358125,69.55349631546324L377.60671980285645,69.7431028796726L378.9949798021317,69.98941766039376L380.3832398014069,70.22727887462744L381.7714998006821,70.51054087245676L383.1597597999573,70.82927363914723L384.5480197992325,71.04407885362116L385.9362797985077,71.23546795900678L387.32453979778296,71.46133753260008L388.71279979705815,71.66940870263034L390.10105979633335,71.95993590616295L391.48931979560854,72.22714603067263L392.8775797948838,72.41953443944496L394.265839794159,72.66147389182434L395.65409979343417,72.93963133992159L397.04235979270936,73.21623131517296L398.43061979198455,73.39496257766041L399.81887979125975,73.60866945868227L401.207139790535,73.91757124070364L402.5953997898102,74.10984261394421L403.9836597890854,74.08546321240205L405.37191978836063,74.3141686469576L406.7601797876358,74.53326816517438L408.148439786911,74.71032491928415L409.5366997861862,75.03983395763115L410.92495978546145,75.40570503542747L412.31321978473665,75.75042869290532L413.70147978401184,75.95033438391091L415.0897397832871,76.11085311710748L416.4779997825623,76.33015069545493L417.8662597818375,76.57871615947946L419.25451978111266,76.88734785950442L420.6427797803879,77.14434888455L422.03103977966316,77.35886601156108L423.4192997789383,77.61498476875171L424.80755977821354,77.76695090539546L426.1958197774888,77.91590112641269L427.58407977676393,78.13471255716662L428.9723397760392,78.49332743199287L430.36059977531437,78.69296304100206L431.74885977458956,78.98692928862225L433.1371197738648,79.28330826874364L434.52537977313995,79.692320444099L435.9136397724152,80.11253201957197L437.3018997716904,80.37009121407677L438.6901597709656,80.60287488677805L440.07841977024077,80.87518055828653L441.466679769516,81.19439046983734L442.8549397687912,81.48461158044071L444.2431997680664,81.72544369663481L445.63145976734165,81.91173725502163L447.0197197666168,82.10140683836347L448.40797976589204,82.29483956418858L449.7962397651673,82.57533772292138L451.1844997644424,82.8870393549721L452.57275976371767,83.15121555838881L453.9610197629929,83.36783032223866L455.34927976226805,83.52680958805571L456.7375397615433,83.91578167927787L458.12579976081855,84.33493993496485L459.5140597600937,84.62887917438537L460.90231975936894,84.9301016249756L462.2905797586442,85.21962052238834L463.6788397579193,85.51391086840418L465.06709975719457,85.79487716926405L466.4553597564698,86.08569246025948L467.84361975574495,86.30711468364532L469.2318797550202,86.62780104344314L470.62013975429534,86.89971059469028L472.0083997535706,87.19975368722953L473.39665975284584,87.45143409694593L474.78491975212097,87.65508492496835L476.1731797513962,87.900535443301L477.5614397506714,88.27656160416213L478.9496997499466,88.58626462943948L480.3379597492218,88.8587773638119L481.72621974849704,89.24651608058379L483.11447974777224,89.39543029066817L484.5027397470474,89.55815469350205L485.8909997463227,89.88924821289467L487.2792597455978,90.32878865657699L488.66751974487306,90.6430110539275L490.0557797441483,90.94556590903335L491.44403974342345,91.13149035535841L492.8322997426987,91.25643928962846L494.22055974197394,91.55198101556097L495.6088197412491,91.72589581577924L496.9970797405243,91.86821102241811L498.3853397397996,92.1854763435948L499.7735997390747,92.45780002056972L501.16185973834996,92.71137100426095L502.5501197376252,93.04008780208518L503.93837973690034,93.28636657187349L505.3266397361756,93.58417698657581L506.71489973545073,93.81844611025733L508.103159734726,94.04958228278052L509.4914197340012,94.30160479635902L510.87967973327636,94.5417437020957L512.2679397325516,94.85797370895284L513.6561997318269,95.12387843714656L515.0444597311019,95.45517901940308L516.4327197303772,95.6631241511683L517.8209797296524,95.85882556576323L519.2092397289276,96.24019034741994L520.5974997282028,96.5043305399038L521.9857597274781,96.92649570848413L523.3740197267532,97.33401343012608L524.7622797260285,97.69208814095951L526.1505397253037,97.85283194248642L527.5387997245789,98.13049424025692L528.9270597238541,98.22459981053758L530.3153197231294,98.49925519541479L531.7035797224045,98.78382258956006L533.0918397216798,98.99161467486068L534.480099720955,99.45683991640112L535.8683597202302,99.86760762473315L537.2566197195054,100.15798178180113L538.6448797187805,100.49302750107447L540.0331397180557,100.87427524719942L541.4213997173309,101.21263397229531L542.8096597166061,101.52230998937304L544.1979197158813,101.86881618802714L545.5861797151566,102.22171432726282L546.9744397144318,102.45257141505638L548.362699713707,102.70722272673324L549.7509597129822,102.94777575819775L551.1392197122574,103.1696031045782L552.5274797115326,103.49451174625314L553.9157397108079,103.71215282168932L555.303999710083,104.10823707215013L556.6922597093583,104.50432132261095L558.0805197086335,104.91022755500765L559.4687797079087,105.24048382021144L560.8570397071838,105.45348848804267L562.2452997064592,105.76890824891055L563.6335597057342,105.93042628549382L565.0218197050095,105.99857697591996L566.4100797042847,106.2443335871819L567.7983397035599,106.70131232509877L569.1865997028351,106.9544421748625L570.5748597021104,107.19247444102724L571.9631197013855,107.49112210991845L573.3513797006608,107.86270092057212L574.7396396999359,108.15388532362931L576.1278996992112,108.51276127771874L577.5161596984864,108.88968771190126L578.9044196977616,109.12406486838131L580.2926796970368,109.29460364364448L581.680939696312,109.59864394973056L583.0691996955871,109.8597682265879L584.4574596948623,110.13916805186864L585.8457196941376,110.51964156293727L587.2339796934128,110.86063808886469L588.622239692688,111.04042267113813L590.0104996919632,111.20038323487549L591.3987596912384,111.4461488488706L592.7870196905136,111.67985080035965L594.1752796897889,111.93098204335001L595.563539689064,112.22242752567038L596.9517996883393,112.53705504601554L598.3400596876145,112.97507402778479L599.7283196868897,113.3961903779457L601.1165796861649,113.80669700701455L602.5048396854402,114.32948122335542L603.8930996847153,114.8102136728561L605.2813596839906,115.16007789099885L606.6696196832658,115.45028999886895L608.0578796825409,115.65587641453227L609.4461396818161,115.87439075509018L610.8343996810913,116.16183452249717L612.2226596803665,116.40628573744311L613.6109196796418,116.54290221395786L614.9991796789169,116.87410376614902L616.3874396781922,117.10113019096026L617.7756996774674,117.38528796074434L619.1639596767426,117.64760059838588L620.5522196760178,117.97435930173617L621.940479675293,118.3582448486927L623.3287396745682,118.66291534610369L624.7169996738435,118.83226125921611L626.1052596731187,119.02759806311586L627.4935196723939,119.37142144727235L628.881779671669,119.77402367657973L630.2700396709442,119.97557236639679L631.6582996702194,120.21496404527673L633.0465596694946,120.58167237726194L634.4348196687699,120.95771204222288L635.823079668045,121.16528806192639L637.2113396673203,121.3509919412877L638.5995996665955,121.47451844371004L639.9878596658707,121.68562353483321L641.3761196651459,121.93894244199444L642.7643796644211,122.1924008915205L644.1526396636963,122.43357961294338L645.5408996629716,122.68406265914236L646.9291596622467,122.92857689322081L648.317419661522,123.24795785670267L649.7056796607972,123.54360761543376L651.0939396600724,123.82851711344117L652.4821996593475,124.13805358815407L653.8704596586228,124.43465313523916L655.2587196578979,124.66221972404321L656.6469796571732,124.87149275895743L658.0352396564484,125.20945536379193L659.4234996557236,125.52787753618657L660.8117596549988,125.83112560174983L662.200019654274,126.06037120029819L663.5882796535492,126.45586127036691L664.9765396528245,126.73300591097768L666.3647996520997,127.01505253982317L667.7530596513749,127.39365348238337L669.1413196506501,127.8627363951058L670.5295796499253,128.2821062150233L671.9178396492005,128.59987118789334L673.3060996484757,128.92067908458952L674.694359647751,129.1784093310254L676.082619647026,129.487891789339L677.4708796463013,129.82654760463095L678.8591396455764,130.11038577738591L680.2473996448517,130.34668051604046L681.6356596441269,130.67904792218278L683.0239196434021,131.0443788359863L684.4121796426773,131.29157138319576L685.8004396419526,131.5817204719334L687.1886996412277,131.8428627542572L688.576959640503,132.12819988209222L689.9652196397782,132.37022486043713L691.3534796390534,132.72652603282754L692.7417396383286,132.99672056339747L694.1299996376039,133.27449089396654L695.518259636879,133.53385963784726L696.9065196361543,133.85917790388342L698.2947796354294,134.07673345335408L699.6830396347046,134.37057366270923L701.0712996339798,134.6559287960107L702.459559633255,135.04849297778503L703.8478196325302,135.4161285912912L705.2360796318055,135.86543249914357L706.6243396310807,136.10986570862312L708.0125996303559,136.41924913687137L709.4008596296311,136.66045936786045L710.7891196289063,136.9834999423936L712.1773796281815,137.37291766890982L713.5656396274567,137.60733533768936L714.9538996267319,137.82012844129005L716.3421596260071,138.18610755188493L717.7304196252824,138.59787906497027L719.1186796245574,139.11053070507936L720.5069396238327,139.4667193433046L721.8951996231079,139.9392142919149L723.2834596223831,140.3639092285282L724.6717196216583,140.60826591477542L726.0599796209336,140.89683052246747L727.4482396202087,141.31230215890355L728.836499619484,141.63977207817774L730.2247596187592,141.8453224829082L731.6130196180344,142.12174240349523L733.0012796173096,142.43557318195099L734.3895396165849,142.74154907567797L735.77779961586,143.03622653922199L737.1660596151353,143.41419278909063L738.5543196144105,143.82031508708448L739.9425796136857,144.17839429928452L741.3308396129609,144.39102985505403L742.719099612236,144.731585247054L744.1073596115112,145.08910178842822L745.4956196107865,145.38312655381426L746.8838796100616,145.63496901272848L748.2721396093369,145.99492079343693L749.6603996086121,146.32894020112394L751.0486596078873,146.70358894380342L752.4369196071625,147.05413736967037L753.8251796064377,147.3210414012508L755.2134396057129,147.71922778991697L756.6016996049881,148.037415891248L757.9899596042634,148.4371597527601L759.3782196035385,148.90725097160245L760.7664796028138,149.20954924881167L762.154739602089,149.53987753588115L763.5429996013642,149.8240353056652L764.9312596006394,150.1047405272619L766.3195195999147,150.41738294493345L767.7077795991897,150.75632684768823L769.096039598465,151.00101213369774L770.4842995977402,151.3651726921835L771.8725595970154,151.71609698216213L773.2608195962906,152.05585788295602L774.6490795955659,152.28215958774356L776.037339594841,152.59643375081006L777.4255995941163,152.80160153937896L778.8138595933915,153.14215468069565L780.2021195926667,153.36369844097987L781.5903795919419,153.6755891304281L782.9786395912171,153.99358367299507L784.3668995904923,154.33981303760285L785.7551595897676,154.6492482315671L787.1434195890427,155.01897472986212L788.531679588318,155.30984178657354L789.9199395875931,155.71018432984434L791.3081995868683,156.14890102343762L792.6964595861435,156.5053912532255L794.0847195854187,156.820414893832L795.4729795846939,157.15233441399695L796.8612395839691,157.48813861354355L798.2494995832444,157.67977979545915L799.6377595825195,157.94924510463878L801.0260195817948,158.19024377139738L802.41427958107,158.50095285211134L803.8025395803452,158.79343139806795L805.1907995796204,159.17128736445474L806.5790595788957,159.36070712194996L807.9673195781708,159.66818422144027L809.3555795774461,160.0723709317932L810.7438395767213,160.40190022628997L812.1320995759964,160.7196787032598L813.5203595752716,161.05426078177265L814.908619574547,161.3730318100793L816.296879573822,161.60852980684442L817.6851395730973,161.84072380052024L819.0733995723724,162.04712496353935L820.4616595716477,162.30502401122297L821.8499195709229,162.62585441475218L823.2381795701981,162.9705645681302L824.6264395694733,163.3607700338026L826.0146995687486,163.724608744576L827.4029595680237,164.0531072261198L828.791219567299,164.29461004593836L830.1794795665742,164.637618682739L831.5677395658494,164.95424030849094L832.9559995651246,165.26801481986408L834.3442595643997,165.6546867127502L835.732519563675,166.0255610595299L837.1207795629501,166.4882970453368L838.5090395622253,166.91019438260398L839.8972995615005,167.24210490003574L841.2855595607758,167.54516390820152L842.673819560051,167.88802399990416L844.0620795593263,168.29202840490953L845.4503395586014,168.72575083225266L846.8385995578766,169.0989703910345L848.2268595571518,169.47595534298287L849.6151195564271,169.9156173235636L851.0033795557023,170.25929441330535L852.3916395549776,170.5016288606045L853.7798995542526,170.74138177415466L855.1681595535279,171.05704911018594L856.556419552803,171.44590754190128L857.9446795520784,171.7146537577655L859.3329395513535,172.0605398931695L860.7211995506287,172.4931448562525L862.1094595499038,172.89055475917903L863.4977195491791,173.28098979454833L864.8859795484543,173.57309922844323L866.2742395477296,173.7932509411043L867.6624995470048,174.0681055114539L869.0507595462799,174.31085408448087L870.4390195455551,174.6591552030694L871.8272795448304,174.985263458945L873.2155395441056,175.2994633494625L874.6037995433808,175.80017286396392L875.9920595426561,176.23486646115245L877.3803195419312,176.52402975060323L878.7685795412063,176.80168417098218L880.1568395404815,177.1025465122439L881.5450995397568,177.32817301204042L882.933359539032,177.6639209445044L884.3216195383073,177.94270520790167L885.7098795375824,178.27322705373524L887.0981395368576,178.61885323521773L888.4863995361328,179.01241109367047L889.8746595354081,179.38408668370622L891.2629195346833,179.66239211423067L892.6511795339586,180.04409843707873L894.0394395332336,180.31314511916395L895.4276995325089,180.61688327101652L896.8159595317841,180.93671212047573L898.2042195310594,181.28707430229935L899.5924795303346,181.5541989008435L900.9807395296098,181.9036917562412L902.3689995288848,182.3501862486601L903.7572595281601,182.72026272820878L905.1455195274353,183.09809956378749L906.5337795267106,183.37004512596747L907.9220395259858,183.76771779616962L909.3102995252609,184.05745557253357L910.6985595245361,184.2963757332615L912.0868195238114,184.66321151018872L913.4750795230866,185.06820087047473L914.8633395223618,185.39406295786407L916.2515995216371,185.72174866139994L917.6398595209122,186.13961811956034L919.0281195201874,186.4770484377936L920.4163795194626,186.7778065442848L921.8046395187379,187.10081912594438L923.1928995180131,187.47306962489643L924.5811595172884,187.8033495926087L925.9694195165634,188.22854738110567L927.3576795158386,188.60172554841486L928.7459395151138,188.84013692723613L930.1341995143891,189.17861622653575L931.5224595136643,189.64559183151465L932.9107195129396,190.03684998396832L934.2989795122146,190.3426497617268L935.6872395114899,190.54762061550664L937.0754995107651,190.7534093113318L938.4637595100404,191.07632173758438L939.8520195093156,191.43184304821017L941.2402795085907,191.804022228635L942.6285395078659,192.1321786063167L944.0167995071412,192.5495298446465L945.4050595064164,192.9744945819208L946.7933195056917,193.273365068459L948.1815795049669,193.5045662294626L949.5698395042419,193.74513585971647L950.9580995035171,194.09131289593745L952.3463595027924,194.48653851071802L953.7346195020676,194.84735567915664L955.1228795013428,195.14507719186847L956.5111395006181,195.40984194896902L957.8993994998932,195.7451324300516L959.2876594991684,196.1975220247129L960.6759194984436,196.55153425218373L962.0641794977189,196.90042730048108L963.4524394969941,197.14121327766748L964.8406994962694,197.44216677160298L966.2289594955445,197.84401783535785L967.6172194948197,198.23757231778566L969.0054794940949,198.59380596967694L970.3937394933702,199.02908924589096L971.7819994926454,199.36035831858123L973.1702594919204,199.818597439148L974.5585194911956,200.09747510590233L975.9467794904709,200.43091158661377L977.3350394897461,200.6719552670384L978.7232994890214,200.89910660477298L980.1115594882966,201.27746559887808L981.4998194875717,201.64508995896773L982.8880794868469,201.91817999360748L984.2763394861222,202.253761375507L985.6645994853974,202.57717443812686L987.0528594846727,202.7994552971929L988.4411194839479,202.9767978880822L989.829379483223,203.31431260693935L991.2176394824982,203.7985437436351L992.6058994817735,204.3202892696315L993.9941594810487,204.68456911433233L995.3824194803238,205.13899107601657L996.7706794795992,205.55193069373635L998.1589394788742,205.92026176838326L999.5471994781494,206.26936750625273L1000.9354594774246,206.66455035805058L1002.3237194766999,206.97928816187755L1003.7119794759751,207.423655195904L1005.1002394752504,207.74665075677106L1006.4884994745255,208.11602164710413L1007.8767594738007,208.53627823624313L1009.2650194730759,208.97031800993204L1010.6532794723512,209.40470889021626L1012.0415394716264,209.84257032415428L1013.4297994709015,210.27284920604322L1014.8180594701766,210.7092724533504L1016.206319469452,211.0872139457027L1017.5945794687271,211.39571960746267L1018.9828394680025,211.7111416190139L1020.3710994672776,212.0667968452962L1021.7593594665527,212.51764697257798L1023.1476194658279,213.00151687460357L1024.535879465103,213.52040740882964L1025.9241394643784,213.8554171171701L1027.3123994636537,214.129847433717L1028.7006594629288,214.49141070367065L1030.0889194622039,214.87066659507215L1031.4771794614792,215.29611100922546L1032.8654394607545,215.66238045796646L1034.2536994600298,216.02480799030863L1035.6419594593049,216.43622614611533L1037.0302194585802,216.83390388035494L1038.4184794578553,217.15086986065225L1039.8067394571306,217.57994687765722L1041.1949994564056,218.02481243803535L1042.583259455681,218.41301929693432L1043.9715194549563,218.90933997899415L1045.3597794542313,219.39744791768L1046.7480394535064,219.84650199968567L1048.1362994527817,220.21257788966264L1049.524559452057,220.63094165414353L1050.912819451332,221.12504766383282L1052.3010794506074,221.55078241613228L1053.6893394498825,221.95684844704354L1055.0775994491578,222.30875628562575L1056.4658594484329,222.6797184090543L1057.8541194477082,223.1079514198205L1059.2423794469835,223.53656704674827L1060.6306394462588,223.93749251699464L1062.0188994455336,224.4476594027368L1063.407159444809,224.87237459549982L1064.7954194440842,225.2016473121L1066.1836794433596,225.59113255911532L1067.5719394426346,226.1273983684434L1068.96019944191,226.548289650274L1070.348459441185,226.92856510121192L1071.7367194404603,227.24765347586433L1073.1249794397354,227.52501418207223L1074.5132394390107,227.8626977021771L1075.901499438286,228.2958777148441L1077.289759437561,228.69545502579174L1078.6780194368362,229.04593593115962L1080.0662794361115,229.40219659125054L1081.4545394353868,229.7646916440918L1082.8427994346619,230.1155326587882L1084.2310594339372,230.45667772981366L1085.6193194332122,230.90526141900895L1087.0075794324875,231.23328050500916L1088.3958394317626,231.50776033658872L1089.784099431038,231.89533700416277L1091.1723594303132,232.32855302776264L1092.5606194295885,232.69464017115607L1093.9488794288636,233.1336314481124L1095.3371394281387,233.5287208965531L1096.725399427414,233.8697489320468L1098.1136594266893,234.23353587710423L1099.5019194259644,234.57220519649596L1100.8901794252397,234.82519550389495L1102.2784394245148,235.1031323850285L1103.66669942379,235.46310217120336L1105.0549594230652,235.86086093004187L1106.4432194223405,236.37047864905801L1107.8314794216158,236.89790827573708L1109.2197394208908,237.25373680463375L1110.607999420166,237.56411503490213L1111.9962594194412,237.92232928810037L1113.3845194187165,238.39154724182097L1114.7727794179918,238.79288008574528L1116.161039417267,239.07633564233868L1117.549299416542,239.42392667034503L1118.9375594158173,239.74309606959636L1120.3258194150926,240.08345340146562L1121.7140794143677,240.56386625393722L1123.102339413643,240.95394117997805L1124.4905994129183,241.32783819443418L1125.8788594121934,241.76361099426666L1127.2671194114685,242.191132789109L1128.6553794107438,242.65564231335895L1130.043639410019,243.05267185080717L1131.4318994092941,243.43207853799L1132.8201594085695,243.82238303372773L1134.2084194078445,244.32558180396268L1135.5966794071198,244.7909240810349L1136.984939406395,245.36180990093547L1138.3731994056702,245.70254984896633L1139.7614594049455,246.09015352474003L1141.1497194042208,246.65906324470026L1142.5379794034957,247.1561941727493L1143.926239402771,247.676439618324L1145.3144994020463,248.1034167478069L1146.7027594013216,248.3803318187207L1148.0910194005967,248.8097126779716L1149.4792793998718,249.14997097977553L1150.867539399147,249.52922462049375L1152.2557993984224,249.92631717707445L1153.6440593976974,250.42723825580637L1155.0323193969728,250.89817123020416L1156.420579396248,251.35475384785966L1157.8088393955231,251.7954421400267L1159.1970993947982,252.22087530076348L1160.5853593940735,252.50521312521184L1161.9736193933488,252.92746832112425L1163.361879392624,253.38567143075815L1164.7501393918992,253.72497544284147L1166.1383993911743,254.19332013144037L1167.5266593904496,254.6311995708448L1168.9149193897247,255.05103303152282L1170.303179389,255.35773814664006L1171.6914393882753,255.73614102906959L1173.0796993875506,256.13159058683885L1174.4679593868257,256.48828337812404L1175.8562193861007,256.8560765394614L1177.244479385376,257.34634288343517L1178.6327393846514,257.8040103304429L1180.0209993839264,258.27412855748486L1181.4092593832015,258.5613742647611L1182.7975193824768,258.8984951140402L1184.1857793817521,259.22142765577473L1185.5740393810272,259.5609657389216L1186.9622993803025,259.9945598773164L1188.3505593795778,260.39167043936357L1189.738819378853,260.77246354746126L1191.127079378128,261.295513344432L1192.5153393774033,261.6123465344144L1193.9035993766786,262.0391166010334L1195.291859375954,262.476433369612L1196.680119375229,262.9927356180392L1198.068379374504,263.4630429024786L1199.4566393737794,263.80134761117523L1200.8448993730547,264.1588956621157L1202.2331593723297,264.58197460811715L1203.621419371605,264.8986187407021L1205.0096793708803,265.22104262801014L1206.3979393701554,265.62960466670484L1207.7861993694305,266.13119194769456L1209.1744593687058,266.5795640726593L1210.5627193679811,267.0119113325041L1211.9509793672562,267.343481996757L1213.3392393665315,267.7507566446022L1214.7274993658066,268.1892167602989L1216.1157593650819,268.5287098297797L1217.504019364357,268.8162211176858L1218.8922793636323,269.1830104742699L1220.2805393629076,269.5139869581307L1221.6687993621827,269.89645907597276L1223.0570593614577,270.35101607865516L1224.445319360733,270.7249355999444L1225.8335793600083,271.1743520419619L1227.2218393592836,271.64192699687106L1228.6100993585587,272.04636578375397L1229.9983593578338,272.3685646027317L1231.386619357109,272.7047266609235L1232.7748793563844,272.9976755996905L1234.1631393556595,273.3113668357814L1235.5513993549348,273.73893364428983L1236.93965935421,274.13842993063855L1238.3279193534852,274.6069681780015L1239.7161793527603,275.01340557165787L1241.1044393520356,275.3183551537985L1242.4926993513109,275.6347202016538L1243.880959350586,276.03947408419924L1245.2692193498613,276.3654810593262L1246.6574793491363,276.7644641898818L1248.0457393484116,277.1625560498492L1249.433999347687,277.6171760716641L1250.822259346962,278.1012530365536L1252.2105193462373,278.5480406804728L1253.5987793455124,278.98278266735235L1254.9870393447877,279.33225076523365L1256.3752993440628,279.7424062877072L1257.763559343338,280.1588457179637L1259.1518193426134,280.5394632727637L1260.5400793418885,280.9709552729532L1261.9283393411636,281.41623946042574L1263.3165993404389,281.7634568750037L1264.7048593397142,282.2495324466666L1266.0931193389893,282.7800815204041L1267.4813793382646,283.138048198439L1268.8696393375399,283.52090743380916L1270.257899336815,283.982225489135L1271.64615933609,284.3919038667481L1273.0344193353653,284.837413122551L1274.4226793346406,285.19995318905836L1275.810939333916,285.55606530405123L1277.199199333191,286.02932998635134L1278.587459332466,286.3519969474561L1279.9757193317414,286.6916160552019L1281.3639793310167,287.10690313560707L1282.7522393302918,287.5126743270056L1284.140499329567,287.97529777864736L1285.5287593288422,288.4795768768679L1286.9170193281175,288.9243569112805L1288.3052793273926,289.3136981145644L1289.6935393266679,289.71355451024164L1291.0817993259432,290.21012726883146L1292.4700593252182,290.58787295173636L1293.8583193244933,290.96679799269225L1295.2465793237686,291.3350007783909L1296.634839323044,291.74531835006223L1298.023099322319,292.0665988902521L1299.4113593215943,292.3910123816003L1300.7996193208696,292.72658926213325L1302.1878793201447,293.17298978852426L1303.5761393194198,293.6566256194863L1304.964399318695,294.1198342487869L1306.3526593179704,294.5228956174882L1307.7409193172457,294.8837611756178L1309.1291793165208,295.3187552390273L1310.5174393157959,295.7097079315564L1311.9056993150712,295.9907552570152L1313.2939593143465,296.4004876510277L1314.6822193136215,296.7674030458768L1316.0704793128969,297.1322478120868L1317.4587393121722,297.5854904157201L1318.8469993114472,298.00538689553053L1320.2352593107223,298.4551004277441L1321.6235193099976,298.8154618328138L1323.011779309273,299.1385429196464L1324.400039308548,299.52530934123126L1325.788299307823,299.8287374614588L1327.1765593070984,300.2776137394835L1328.5648193063737,300.83239817103174L1329.953079305649,301.1827935504341L1331.341339304924,301.6050397436133L1332.7295993041994,302.02191130506407L1334.1178593034745,302.4532862697218L1335.5061193027498,302.9469601482168L1336.8943793020248,303.43868943633777L1338.2826393013002,303.8353858726571L1339.6708993005755,304.27265762756963L1341.0591592998505,304.708867059963L1342.4474192991256,305.11318881131416L1343.835679298401,305.47792554472557L1345.2239392976762,305.9154493761681L1346.6121992969513,306.28574979870547L1348.0004592962266,306.6894503614649L1349.388719295502,307.08704707110553L1350.776979294777,307.46478375127725L1352.165239294052,307.90221755538767L1353.5534992933274,308.38196420560143L1354.9417592926027,308.76411222504777L1356.330019291878,309.146764397554L1357.7182792911528,309.49134401130044L1359.1065392904281,309.8495987767982L1360.4947992897035,310.28705058637496L1361.8830592889788,310.7414995562589L1363.2713192882538,311.18477613422476L1364.6595792875291,311.4870338991346L1366.0478392868042,311.70441389530754L1367.4360992860795,312.1143533521839L1368.8243592853546,312.62245861202024L1370.21261928463,313.0187859362778L1371.6008792839052,313.4107289294604L1372.9891392831803,313.85495079441375L1374.3773992824554,314.3171601203277L1375.7656592817307,314.6528090227263L1377.153919281006,314.9766283336824L1378.542179280281,315.4050774100457L1379.9304392795564,315.8132073175462L1381.3186992788317,316.24570762385554L1382.7069592781068,316.70643149878924L1384.0952192773818,317.1287677193006L1385.4834792766571,317.49905913910476L1386.8717392759324,317.85438801630806L1388.2599992752077,318.2545775131142L1389.6482592744828,318.72533943558096L1391.036519273758,319.24739893189815L1392.4247792730332,319.7018659072485L1393.8130392723085,320.0559253990687L1395.2012992715836,320.4584285983107L1396.589559270859,320.9866819750788L1397.977819270134,321.52015693711076L1399.3660792694093,321.92794474074907L1400.7543392686844,322.29285252609156L1402.1425992679597,322.7773796276417L1403.530859267235,323.20649490626283L1404.91911926651,323.6397604448954L1406.3073792657851,323.99451314717305L1407.6956392650604,324.35311001653287L1409.0838992643357,324.80034779711275L1410.472159263611,325.18228875369516L1411.8604192628861,325.673675937954L1413.2486792621614,326.1288271210285L1414.6369392614365,326.5311952792723L1416.0251992607118,326.8170050506011L1417.413459259987,327.20705746980883L1418.8017192592622,327.6611643358306L1420.1899792585375,328.11803504094894L1421.5782392578126,328.53321408855555L1422.9664992570877,328.989247539485L1424.354759256363,329.2608239896032L1425.7430192556383,329.6254887011489L1427.1312792549134,330.09326171618875L1428.5195392541887,330.57619533396013L1429.9077992534637,330.9769069892927L1431.296059252739,331.3645106650664L1432.6843192520141,331.8306091717285L1434.0725792512894,332.2437716070953L1435.4608392505647,332.7413256636054L1436.84909924984,333.2446954857714L1438.237359249115,333.6758003684327L1439.6256192483902,334.09288799548057L1441.0138792476655,334.43071555931687L1442.4021392469408,334.761746059577L1443.7903992462159,335.101122093526L1445.1786592454912,335.5420039444572L1446.5669192447663,335.9338389048412L1447.9551792440416,336.36056845916073L1449.3434392433167,336.73818810380067L1450.731699242592,337.1228748940132L1452.1199592418673,337.56347766021474L1453.5082192411423,337.995005671337L1454.8964792404174,338.3954022310071L1456.2847392396927,338.8155327818812L1457.672999238968,339.25646864921157L1459.061259238243,339.61876564192215L1460.4495192375184,339.97574201930354L1461.8377792367935,340.3721323626936L1463.2260392360688,340.76897284274435L1464.6142992353439,341.1321070896438L1466.0025592346192,341.493080680572L1467.3908192338945,341.82301284738L1468.7790792331698,342.20670933693907L1470.1673392324449,342.64526848270117L1471.55559923172,343.0861503336323L1472.9438592309953,343.4772290644264L1474.3321192302706,343.8819559387722L1475.7203792295456,344.28758308643927L1477.108639228821,344.6467741361912L1478.496899228096,345.1520795459981L1479.8851592273713,345.5843727894436L1481.2734192266464,345.934939220777L1482.6616792259217,346.2329657010764L1484.049939225197,346.673991595739L1485.438199224472,347.1304121641966L1486.8264592237472,347.5285850487629L1488.2147192230225,347.9760569004064L1489.6029792222978,348.4671019808031L1490.991239221573,348.95996561330895L1492.3794992208482,349.4464373052332L1493.7677592201233,349.8868150031044L1495.1560192193986,350.32022458546834L1496.5442792186739,350.72190853598795L1497.932539217949,351.17485404942516L1499.3207992172242,351.61755445246547L1500.7090592164996,351.94478579930944L1502.0973192157746,352.3020682696201L1503.4855792150497,352.7307244088473L1504.873839214325,353.20959779393945L1506.2620992136003,353.69392683535887L1507.6503592128754,354.17478082175796L1509.0386192121507,354.6213163891472L1510.4268792114258,355.02953632397976L1511.815139210701,355.4782865637395L1513.2033992099762,355.892700379023L1514.5916592092515,356.2012960681151L1515.9799192085268,356.62217384584585L1517.368179207802,357.0443120062265L1518.756439207077,357.4146484396967L1520.1446992063522,357.782626157065L1521.5329592056275,358.20316183093365L1522.9212192049029,358.63360051133714L1524.309479204178,359.0588536174097L1525.6977392034532,359.4272814714386L1527.0859992027283,359.85654979652435" fill="none"></path></g></g></g></g></g></g><g transform="translate(39, 377)" clip-path="url(#clip_1)"><clipPath id="clip_1"><rect width="1665" height="22"></rect></clipPath><g><g><line x1="0" y1="0" x2="0" y2="5" style="visibility: inherit;" fill="rgb(0, 0, 0)" stroke="rgb(204, 204, 204)" stroke-width="1px"></line><line x1="138.82599992752074" y1="0" x2="138.82599992752074" y2="5" style="visibility: inherit;" fill="rgb(0, 0, 0)" stroke="rgb(204, 204, 204)" stroke-width="1px"></line><line x1="277.6519998550415" y1="0" x2="277.6519998550415" y2="5" style="visibility: inherit;" fill="rgb(0, 0, 0)" stroke="rgb(204, 204, 204)" stroke-width="1px"></line><line x1="416.4779997825623" y1="0" x2="416.4779997825623" y2="5" style="visibility: inherit;" fill="rgb(0, 0, 0)" stroke="rgb(204, 204, 204)" stroke-width="1px"></line><line x1="555.303999710083" y1="0" x2="555.303999710083" y2="5" style="visibility: inherit;" fill="rgb(0, 0, 0)" stroke="rgb(204, 204, 204)" stroke-width="1px"></line><line x1="694.1299996376039" y1="0" x2="694.1299996376039" y2="5" style="visibility: inherit;" fill="rgb(0, 0, 0)" stroke="rgb(204, 204, 204)" stroke-width="1px"></line><line x1="832.9559995651246" y1="0" x2="832.9559995651246" y2="5" style="visibility: inherit;" fill="rgb(0, 0, 0)" stroke="rgb(204, 204, 204)" stroke-width="1px"></line><line x1="971.7819994926454" y1="0" x2="971.7819994926454" y2="5" style="visibility: inherit;" fill="rgb(0, 0, 0)" stroke="rgb(204, 204, 204)" stroke-width="1px"></line><line x1="1110.607999420166" y1="0" x2="1110.607999420166" y2="5" style="visibility: inherit;" fill="rgb(0, 0, 0)" stroke="rgb(204, 204, 204)" stroke-width="1px"></line><line x1="1249.433999347687" y1="0" x2="1249.433999347687" y2="5" style="visibility: inherit;" fill="rgb(0, 0, 0)" stroke="rgb(204, 204, 204)" stroke-width="1px"></line><line x1="1388.2599992752077" y1="0" x2="1388.2599992752077" y2="5" style="visibility: inherit;" fill="rgb(0, 0, 0)" stroke="rgb(204, 204, 204)" stroke-width="1px"></line><line x1="1527.0859992027283" y1="0" x2="1527.0859992027283" y2="5" style="visibility: inherit;" fill="rgb(0, 0, 0)" stroke="rgb(204, 204, 204)" stroke-width="1px"></line><line x1="1665.9119991302491" y1="0" x2="1665.9119991302491" y2="5" style="visibility: inherit;" fill="rgb(0, 0, 0)" stroke="rgb(204, 204, 204)" stroke-width="1px"></line></g><g transform="translate(0, 8)"><text style="text-anchor: middle; visibility: hidden; font-family: Roboto, sans-serif; font-size: 12px; font-weight: 200;" x="0" y="0" dx="0em" dy="0.95em" fill="rgb(255, 255, 255)" stroke="none" stroke-width="1px">-100</text><text style="text-anchor: middle; visibility: inherit; font-family: Roboto, sans-serif; font-size: 12px; font-weight: 200;" x="138.82599992752074" y="0" dx="0em" dy="0.95em" fill="rgb(255, 255, 255)" stroke="none" stroke-width="1px">0</text><text style="text-anchor: middle; visibility: inherit; font-family: Roboto, sans-serif; font-size: 12px; font-weight: 200;" x="277.6519998550415" y="0" dx="0em" dy="0.95em" fill="rgb(255, 255, 255)" stroke="none" stroke-width="1px">100</text><text style="text-anchor: middle; visibility: inherit; font-family: Roboto, sans-serif; font-size: 12px; font-weight: 200;" x="416.4779997825623" y="0" dx="0em" dy="0.95em" fill="rgb(255, 255, 255)" stroke="none" stroke-width="1px">200</text><text style="text-anchor: middle; visibility: inherit; font-family: Roboto, sans-serif; font-size: 12px; font-weight: 200;" x="555.303999710083" y="0" dx="0em" dy="0.95em" fill="rgb(255, 255, 255)" stroke="none" stroke-width="1px">300</text><text style="text-anchor: middle; visibility: inherit; font-family: Roboto, sans-serif; font-size: 12px; font-weight: 200;" x="694.1299996376039" y="0" dx="0em" dy="0.95em" fill="rgb(255, 255, 255)" stroke="none" stroke-width="1px">400</text><text style="text-anchor: middle; visibility: inherit; font-family: Roboto, sans-serif; font-size: 12px; font-weight: 200;" x="832.9559995651246" y="0" dx="0em" dy="0.95em" fill="rgb(255, 255, 255)" stroke="none" stroke-width="1px">500</text><text style="text-anchor: middle; visibility: inherit; font-family: Roboto, sans-serif; font-size: 12px; font-weight: 200;" x="971.7819994926454" y="0" dx="0em" dy="0.95em" fill="rgb(255, 255, 255)" stroke="none" stroke-width="1px">600</text><text style="text-anchor: middle; visibility: inherit; font-family: Roboto, sans-serif; font-size: 12px; font-weight: 200;" x="1110.607999420166" y="0" dx="0em" dy="0.95em" fill="rgb(255, 255, 255)" stroke="none" stroke-width="1px">700</text><text style="text-anchor: middle; visibility: inherit; font-family: Roboto, sans-serif; font-size: 12px; font-weight: 200;" x="1249.433999347687" y="0" dx="0em" dy="0.95em" fill="rgb(255, 255, 255)" stroke="none" stroke-width="1px">800</text><text style="text-anchor: middle; visibility: inherit; font-family: Roboto, sans-serif; font-size: 12px; font-weight: 200;" x="1388.2599992752077" y="0" dx="0em" dy="0.95em" fill="rgb(255, 255, 255)" stroke="none" stroke-width="1px">900</text><text style="text-anchor: middle; visibility: inherit; font-family: Roboto, sans-serif; font-size: 12px; font-weight: 200;" x="1527.0859992027283" y="0" dx="0em" dy="0.95em" fill="rgb(255, 255, 255)" stroke="none" stroke-width="1px">1k</text><text style="text-anchor: middle; visibility: hidden; font-family: Roboto, sans-serif; font-size: 12px; font-weight: 200;" x="1665.9119991302491" y="0" dx="0em" dy="0.95em" fill="rgb(255, 255, 255)" stroke="none" stroke-width="1px">1.1k</text></g><line x1="0" y1="0" x2="1665.9119991302491" y2="0" fill="rgb(0, 0, 0)" stroke="rgb(204, 204, 204)" stroke-width="1px"></line></g></g></g></g></svg>