<svg viewBox="0 0 1705.9000244140625 400" xmlns="http://www.w3.org/2000/svg"><g><g><g><g><g><line x1="51.53200149536133" y1="376.57899951934814" x2="46.53200149536133" y2="376.57899951934814" style="visibility: inherit;" fill="rgb(0, 0, 0)" stroke="rgb(204, 204, 204)" stroke-width="1px"></line><line x1="51.53200149536133" y1="347.611384171706" x2="46.53200149536133" y2="347.611384171706" style="visibility: inherit;" fill="rgb(0, 0, 0)" stroke="rgb(204, 204, 204)" stroke-width="1px"></line><line x1="51.53200149536133" y1="318.6437688240638" x2="46.53200149536133" y2="318.6437688240638" style="visibility: inherit;" fill="rgb(0, 0, 0)" stroke="rgb(204, 204, 204)" stroke-width="1px"></line><line x1="51.53200149536133" y1="289.6761534764217" x2="46.53200149536133" y2="289.6761534764217" style="visibility: inherit;" fill="rgb(0, 0, 0)" stroke="rgb(204, 204, 204)" stroke-width="1px"></line><line x1="51.53200149536133" y1="260.7085381287795" x2="46.53200149536133" y2="260.7085381287795" style="visibility: inherit;" fill="rgb(0, 0, 0)" stroke="rgb(204, 204, 204)" stroke-width="1px"></line><line x1="51.53200149536133" y1="231.74092278113733" x2="46.53200149536133" y2="231.74092278113733" style="visibility: inherit;" fill="rgb(0, 0, 0)" stroke="rgb(204, 204, 204)" stroke-width="1px"></line><line x1="51.53200149536133" y1="202.77330743349518" x2="46.53200149536133" y2="202.77330743349518" style="visibility: inherit;" fill="rgb(0, 0, 0)" stroke="rgb(204, 204, 204)" stroke-width="1px"></line><line x1="51.53200149536133" y1="173.80569208585297" x2="46.53200149536133" y2="173.80569208585297" style="visibility: inherit;" fill="rgb(0, 0, 0)" stroke="rgb(204, 204, 204)" stroke-width="1px"></line><line x1="51.53200149536133" y1="144.83807673821082" x2="46.53200149536133" y2="144.83807673821082" style="visibility: inherit;" fill="rgb(0, 0, 0)" stroke="rgb(204, 204, 204)" stroke-width="1px"></line><line x1="51.53200149536133" y1="115.87046139056866" x2="46.53200149536133" y2="115.87046139056866" style="visibility: inherit;" fill="rgb(0, 0, 0)" stroke="rgb(204, 204, 204)" stroke-width="1px"></line><line x1="51.53200149536133" y1="86.90284604292648" x2="46.53200149536133" y2="86.90284604292648" style="visibility: inherit;" fill="rgb(0, 0, 0)" stroke="rgb(204, 204, 204)" stroke-width="1px"></line><line x1="51.53200149536133" y1="57.93523069528433" x2="46.53200149536133" y2="57.93523069528433" style="visibility: inherit;" fill="rgb(0, 0, 0)" stroke="rgb(204, 204, 204)" stroke-width="1px"></line><line x1="51.53200149536133" y1="28.967615347642187" x2="46.53200149536133" y2="28.967615347642187" style="visibility: inherit;" fill="rgb(0, 0, 0)" stroke="rgb(204, 204, 204)" stroke-width="1px"></line><line x1="51.53200149536133" y1="0" x2="46.53200149536133" y2="0" style="visibility: inherit;" fill="rgb(0, 0, 0)" stroke="rgb(204, 204, 204)" stroke-width="1px"></line></g><g transform="translate(41.53200149536133, 0)"><text style="text-anchor: end; visibility: hidden; font-family: Roboto, sans-serif; font-size: 12px; font-weight: 200;" x="0" y="376.57899951934814" dx="0em" dy="0.3em" fill="rgb(255, 255, 255)" stroke="none" stroke-width="1px">0</text><text style="text-anchor: end; visibility: inherit; font-family: Roboto, sans-serif; font-size: 12px; font-weight: 200;" x="0" y="347.611384171706" dx="0em" dy="0.3em" fill="rgb(255, 255, 255)" stroke="none" stroke-width="1px">0.02</text><text style="text-anchor: end; visibility: inherit; font-family: Roboto, sans-serif; font-size: 12px; font-weight: 200;" x="0" y="318.6437688240638" dx="0em" dy="0.3em" fill="rgb(255, 255, 255)" stroke="none" stroke-width="1px">0.04</text><text style="text-anchor: end; visibility: inherit; font-family: Roboto, sans-serif; font-size: 12px; font-weight: 200;" x="0" y="289.6761534764217" dx="0em" dy="0.3em" fill="rgb(255, 255, 255)" stroke="none" stroke-width="1px">0.06</text><text style="text-anchor: end; visibility: inherit; font-family: Roboto, sans-serif; font-size: 12px; font-weight: 200;" x="0" y="260.7085381287795" dx="0em" dy="0.3em" fill="rgb(255, 255, 255)" stroke="none" stroke-width="1px">0.08</text><text style="text-anchor: end; visibility: inherit; font-family: Roboto, sans-serif; font-size: 12px; font-weight: 200;" x="0" y="231.74092278113733" dx="0em" dy="0.3em" fill="rgb(255, 255, 255)" stroke="none" stroke-width="1px">0.1</text><text style="text-anchor: end; visibility: inherit; font-family: Roboto, sans-serif; font-size: 12px; font-weight: 200;" x="0" y="202.77330743349518" dx="0em" dy="0.3em" fill="rgb(255, 255, 255)" stroke="none" stroke-width="1px">0.12</text><text style="text-anchor: end; visibility: inherit; font-family: Roboto, sans-serif; font-size: 12px; font-weight: 200;" x="0" y="173.80569208585297" dx="0em" dy="0.3em" fill="rgb(255, 255, 255)" stroke="none" stroke-width="1px">0.14</text><text style="text-anchor: end; visibility: inherit; font-family: Roboto, sans-serif; font-size: 12px; font-weight: 200;" x="0" y="144.83807673821082" dx="0em" dy="0.3em" fill="rgb(255, 255, 255)" stroke="none" stroke-width="1px">0.16</text><text style="text-anchor: end; visibility: inherit; font-family: Roboto, sans-serif; font-size: 12px; font-weight: 200;" x="0" y="115.87046139056866" dx="0em" dy="0.3em" fill="rgb(255, 255, 255)" stroke="none" stroke-width="1px">0.18</text><text style="text-anchor: end; visibility: inherit; font-family: Roboto, sans-serif; font-size: 12px; font-weight: 200;" x="0" y="86.90284604292648" dx="0em" dy="0.3em" fill="rgb(255, 255, 255)" stroke="none" stroke-width="1px">0.2</text><text style="text-anchor: end; visibility: inherit; font-family: Roboto, sans-serif; font-size: 12px; font-weight: 200;" x="0" y="57.93523069528433" dx="0em" dy="0.3em" fill="rgb(255, 255, 255)" stroke="none" stroke-width="1px">0.22</text><text style="text-anchor: end; visibility: inherit; font-family: Roboto, sans-serif; font-size: 12px; font-weight: 200;" x="0" y="28.967615347642187" dx="0em" dy="0.3em" fill="rgb(255, 255, 255)" stroke="none" stroke-width="1px">0.24</text><text style="text-anchor: end; visibility: hidden; font-family: Roboto, sans-serif; font-size: 12px; font-weight: 200;" x="0" y="0" dx="0em" dy="0.3em" fill="rgb(255, 255, 255)" stroke="none" stroke-width="1px">0.26</text></g><line x1="51.53200149536133" y1="0" x2="51.53200149536133" y2="376.57899951934814" fill="rgb(0, 0, 0)" stroke="rgb(204, 204, 204)" stroke-width="1px"></line></g></g><g transform="translate(51, 0)" clip-path="url(#clip_0)"><clipPath id="clip_0"><rect width="1654" height="376"></rect></clipPath><g><g><g><line x1="0" y1="0" x2="0" y2="376.57899951934814" fill="rgb(0, 0, 0)" stroke="rgb(189, 189, 189)" stroke-width="1px" opacity="0.25"></line><line x1="137.86399987538655" y1="0" x2="137.86399987538655" y2="376.57899951934814" fill="rgb(0, 0, 0)" stroke="rgb(189, 189, 189)" stroke-width="1px" opacity="0.25"></line><line x1="275.7279997507731" y1="0" x2="275.7279997507731" y2="376.57899951934814" fill="rgb(0, 0, 0)" stroke="rgb(189, 189, 189)" stroke-width="1px" opacity="0.25"></line><line x1="413.5919996261597" y1="0" x2="413.5919996261597" y2="376.57899951934814" fill="rgb(0, 0, 0)" stroke="rgb(189, 189, 189)" stroke-width="1px" opacity="0.25"></line><line x1="551.4559995015462" y1="0" x2="551.4559995015462" y2="376.57899951934814" fill="rgb(0, 0, 0)" stroke="rgb(189, 189, 189)" stroke-width="1px" opacity="0.25"></line><line x1="689.3199993769329" y1="0" x2="689.3199993769329" y2="376.57899951934814" fill="rgb(0, 0, 0)" stroke="rgb(189, 189, 189)" stroke-width="1px" opacity="0.25"></line><line x1="827.1839992523194" y1="0" x2="827.1839992523194" y2="376.57899951934814" fill="rgb(0, 0, 0)" stroke="rgb(189, 189, 189)" stroke-width="1px" opacity="0.25"></line><line x1="965.047999127706" y1="0" x2="965.047999127706" y2="376.57899951934814" fill="rgb(0, 0, 0)" stroke="rgb(189, 189, 189)" stroke-width="1px" opacity="0.25"></line><line x1="1102.9119990030924" y1="0" x2="1102.9119990030924" y2="376.57899951934814" fill="rgb(0, 0, 0)" stroke="rgb(189, 189, 189)" stroke-width="1px" opacity="0.25"></line><line x1="1240.7759988784792" y1="0" x2="1240.7759988784792" y2="376.57899951934814" fill="rgb(0, 0, 0)" stroke="rgb(189, 189, 189)" stroke-width="1px" opacity="0.25"></line><line x1="1378.6399987538657" y1="0" x2="1378.6399987538657" y2="376.57899951934814" fill="rgb(0, 0, 0)" stroke="rgb(189, 189, 189)" stroke-width="1px" opacity="0.25"></line><line x1="1516.5039986292522" y1="0" x2="1516.5039986292522" y2="376.57899951934814" fill="rgb(0, 0, 0)" stroke="rgb(189, 189, 189)" stroke-width="1px" opacity="0.25"></line><line x1="1654.3679985046388" y1="0" x2="1654.3679985046388" y2="376.57899951934814" fill="rgb(0, 0, 0)" stroke="rgb(189, 189, 189)" stroke-width="1px" opacity="0.25"></line></g><g><line x1="0" y1="376.57899951934814" x2="1654.3679985046388" y2="376.57899951934814" fill="rgb(0, 0, 0)" stroke="rgb(189, 189, 189)" stroke-width="1px" opacity="0.25"></line><line x1="0" y1="347.611384171706" x2="1654.3679985046388" y2="347.611384171706" fill="rgb(0, 0, 0)" stroke="rgb(189, 189, 189)" stroke-width="1px" opacity="0.25"></line><line x1="0" y1="318.6437688240638" x2="1654.3679985046388" y2="318.6437688240638" fill="rgb(0, 0, 0)" stroke="rgb(189, 189, 189)" stroke-width="1px" opacity="0.25"></line><line x1="0" y1="289.6761534764217" x2="1654.3679985046388" y2="289.6761534764217" fill="rgb(0, 0, 0)" stroke="rgb(189, 189, 189)" stroke-width="1px" opacity="0.25"></line><line x1="0" y1="260.7085381287795" x2="1654.3679985046388" y2="260.7085381287795" fill="rgb(0, 0, 0)" stroke="rgb(189, 189, 189)" stroke-width="1px" opacity="0.25"></line><line x1="0" y1="231.74092278113733" x2="1654.3679985046388" y2="231.74092278113733" fill="rgb(0, 0, 0)" stroke="rgb(189, 189, 189)" stroke-width="1px" opacity="0.25"></line><line x1="0" y1="202.77330743349518" x2="1654.3679985046388" y2="202.77330743349518" fill="rgb(0, 0, 0)" stroke="rgb(189, 189, 189)" stroke-width="1px" opacity="0.25"></line><line x1="0" y1="173.80569208585297" x2="1654.3679985046388" y2="173.80569208585297" fill="rgb(0, 0, 0)" stroke="rgb(189, 189, 189)" stroke-width="1px" opacity="0.25"></line><line x1="0" y1="144.83807673821082" x2="1654.3679985046388" y2="144.83807673821082" fill="rgb(0, 0, 0)" stroke="rgb(189, 189, 189)" stroke-width="1px" opacity="0.25"></line><line x1="0" y1="115.87046139056866" x2="1654.3679985046388" y2="115.87046139056866" fill="rgb(0, 0, 0)" stroke="rgb(189, 189, 189)" stroke-width="1px" opacity="0.25"></line><line x1="0" y1="86.90284604292648" x2="1654.3679985046388" y2="86.90284604292648" fill="rgb(0, 0, 0)" stroke="rgb(189, 189, 189)" stroke-width="1px" opacity="0.25"></line><line x1="0" y1="57.93523069528433" x2="1654.3679985046388" y2="57.93523069528433" fill="rgb(0, 0, 0)" stroke="rgb(189, 189, 189)" stroke-width="1px" opacity="0.25"></line><line x1="0" y1="28.967615347642187" x2="1654.3679985046388" y2="28.967615347642187" fill="rgb(0, 0, 0)" stroke="rgb(189, 189, 189)" stroke-width="1px" opacity="0.25"></line><line x1="0" y1="0" x2="1654.3679985046388" y2="0" fill="rgb(0, 0, 0)" stroke="rgb(189, 189, 189)" stroke-width="1px" opacity="0.25"></line></g></g></g><g><g><line x1="0" y1="376.57899951934814" x2="1654.3679985046388" y2="376.57899951934814" fill="rgb(0, 0, 0)" stroke="rgb(153, 153, 153)" stroke-width="1.5px"></line></g></g><g><g><line x1="137.86399987538655" y1="0" x2="137.86399987538655" y2="376.57899951934814" fill="rgb(0, 0, 0)" stroke="rgb(153, 153, 153)" stroke-width="1.5px"></line></g></g><g><g><g><g><g><path style="fill: none;" stroke="rgb(51, 187, 238)" stroke-width="2px" d="M139.24263987414042,43.584818752563315L140.6212798728943,212.37523234214027L141.99991987164816,280.23653210005745L143.37855987040203,311.3384183732747L144.75719986915587,327.8913971732797L146.13583986790977,336.03828583873684L147.51447986666363,339.33001740749717L148.89311986541748,339.5958209974707L150.27175986417134,338.33008780976894L151.6503998629252,336.2226911647676L153.02903986167908,333.8431758427697L154.40767986043295,332.5425579432263L155.78631985918682,329.88888596186115L157.1649598579407,327.3823545960208L158.54359985669456,324.33190226010174L159.92223985544842,325.5463322090791L161.3008798542023,325.2792170692785L162.67951985295613,325.4681965537697L164.05815985171,325.7293610385747L165.4367998504639,327.85597433787666L166.81543984921774,327.09685035698965L168.1940798479716,323.4631084934268L169.57271984672548,322.5079683467547L170.95135984547935,322.7794379007032L172.3299998442332,324.65317498951856L173.70863984298705,325.0095418969258L175.08727984174095,324.93054866681973L176.46591984049482,325.69136601584705L177.84455983924866,324.61070928214536L179.22319983800253,324.5461000054598L180.6018398367564,323.66175140292364L181.98047983551027,324.53008697103235L183.35911983426413,326.23610226297967L184.737759833018,327.43034307298075L186.11639983177187,328.0068448081988L187.4950398305257,329.0591989993898L188.87367982927958,328.6198340269291L190.25231982803348,329.35559527136786L191.63095982678732,327.829642386778L193.0095998255412,326.91132967367514L194.38823982429506,327.6207848587993L195.76687982304892,327.8901117806955L197.1455198218028,327.7271408342612L198.52415982055663,326.0466857463092L199.90279981931053,325.51252747699306L201.2814398180644,324.751372851139L202.66007981681824,325.28647402997547L204.0387198155721,326.49517775452784L205.41735981432598,326.3632919712039L206.79599981307985,329.6378554217755L208.17463981183369,328.87276823112495L209.55327981058758,330.2757325287691L210.93191980934145,330.47251320528136L212.3105598080953,331.9993893821739L213.6891998068492,332.35240571749927L215.06783980560306,331.85922458769846L216.4464798043569,331.6824731975456L217.82511980311074,331.3653449727683L219.20375980186463,331.6901745683739L220.5823998006185,332.27153063979523L221.96103979937234,334.1860658635747L223.33967979812624,334.5755461558827L224.7183197968801,333.4599350608428L226.09695979563395,335.01817299894304L227.47559979438785,336.8841818011519L228.8542397931417,336.0999467156918L230.23287979189556,335.5094973037643L231.61151979064945,337.41236582038374L232.9901597894033,337.6607806506052L234.36879978815716,336.9453575628485L235.747439786911,336.80829266015155L237.1260797856649,336.92733586650303L238.50471978441874,337.0759787774842L239.8833597831726,336.61831760867125L241.2619997819265,335.1271942796878L242.64063978068035,335.21307943742556L244.0192797794342,335.8366766633202L245.3979197781881,335.62649918492554L246.77655977694195,336.8456473974532L248.1551997756958,337.1905301704081L249.5338397744497,336.43353651266676L250.91247977320356,337.0299575267321L252.2911197719574,336.5565504644818L253.66975977071127,336.32021878209974L255.04839976946516,335.2682197477712L256.427039768219,335.69204901018446L257.80567976697284,335.1731644740866L259.18431976572674,336.88191560372184L260.5629597644806,336.77040122424563L261.9415997632345,336.41157127028833L263.3202397619884,335.8611512498565L264.6988797607422,336.59685948485964L266.07751975949606,337.3752399119904L267.4561597582499,336.7291360090483L268.8347997570038,336.4545306457594L270.21343975575763,336.75119922239236L271.59207975451153,337.16534589702115L272.9707197532654,338.3293410770423L274.34935975201927,337.95759200119534L275.7279997507731,338.1396298523391L277.106639749527,338.8176554119183L278.48527974828085,338.6339159204291L279.8639197470347,337.6921168738386L281.2425597457886,337.21900826784736L282.6211997445425,337.2440714840886L283.9998397432963,336.8675198472564L285.37847974205016,337.1027551943335L286.75711974080406,337.909400969554L288.1357597395579,334.75528291711623L289.51439973831174,334.02376147523535L290.89303973706564,335.14151415083603L292.27167973581953,335.1122089562209L293.6503197345734,333.5876174419221L295.02895973332727,334.58276436077983L296.4075997320811,334.4492959652362L297.78623973083495,335.003343855139L299.16487972958885,334.79752416370457L300.5435197283427,334.79399142850025L301.9221597270966,334.29699134859095L303.3007997258504,335.0074013028769L304.6794397246043,334.64762032412483L306.05807972335816,335.0855574797558L307.436719722112,333.6669858391857L308.8153597208659,333.70604448401605L310.1939997196198,333.58680926833165L311.57263971837364,333.81242539310466L312.95127971712753,332.58224629166983L314.3299197158814,331.43658896459885L315.7085597146352,332.23065893257876L317.0871997133891,332.14660519000296L318.46583971214295,331.62049558423536L319.84447971089685,332.28088793399803L321.2231197096507,329.7033666474244L322.6017597084046,331.4795864622062L323.9803997071584,333.14939680745346L325.35903970591227,332.1350504120429L326.73767970466616,331.4485554492847L328.11631970342,331.65435444126484L329.4949597021739,332.0656285781541L330.8735997009278,331.58147932213933L332.25223969968164,333.26572235465994L333.6308796984355,334.1295898910733L335.0095196971894,332.00305351385884L336.3881596959432,332.20475327778416L337.76679969469706,333.2341386438395L339.14543969345095,333.3326684020175L340.52407969220485,334.59798779017177L341.9027196909587,334.18538803683526L343.28135968971253,332.91098631902486L344.6599996884664,332.1957024340195L346.03863968722027,332.0667778208612L347.4172796859741,330.00898403921946L348.795919684728,330.6111515689046L350.1745596834819,330.2875491190514L351.55319968223574,331.0073991533021L352.93183968098964,331.582254754015L354.3104796797435,332.0915689128139L355.6891196784973,333.4454782329212L357.06775967725116,332.6325354706005L358.44639967600506,333.3167381763905L359.82503967475895,332.5932486766616L361.2036796735128,332.16372616203347L362.5823196722667,331.3139038820394L363.96095967102053,330.8915191427009L365.3395996697744,332.60599216473514L366.71823966852827,332.8101371149818L368.0968796672821,331.4757616756765L369.475519666036,331.5446263420867L370.85415966478985,333.3201800771401L372.23279966354374,333.1103502042786L373.6114396622976,332.60912516939186L374.9900796610514,332.47826967849005L376.3687196598053,332.1404948594622L377.74735965855916,330.313793401867L379.12599965731306,329.9335989801862L380.50463965606696,328.98789473779016L381.8832796548208,328.765544877524L383.26191965357464,329.00417504936416L384.64055965232853,327.7080449143559L386.0191996510824,328.81006711205026L387.3978396498362,327.4141693892708L388.7764796485901,329.4416513011261L390.155119647344,330.1844065971206L391.53375964609785,330.2304199150192L392.9123996448517,330.5144545616084L394.2910396436056,329.5902621019036L395.6696796423594,328.4531536034886L397.04831964111327,327.89352921659014L398.42695963986716,329.2713760211058L399.80559963862106,330.0544085658131L401.1842396373749,329.4546743499203L402.5628796361288,331.09748344177507L403.94151963488264,330.7982622592832L405.3201596336365,332.43700695527457L406.6987996323903,331.1078696632031L408.0774396311442,329.1381545384755L409.4560796298981,327.3824129447824L410.83471962865195,329.25345818604916L412.21335962740585,329.57699985441053L413.5919996261597,328.9581164726144L414.9706396249136,329.20663527306147L416.34927962366737,328.8810296168178L417.72791962242127,329.2802569881465L419.10655962117517,328.5879557952436L420.485199619929,329.73330785277443L421.8638396186829,329.9860244799376L423.2424796174368,330.6867243748314L424.6211196161906,330.97143428326444L425.9997596149445,330.43207329714375L427.3783996136984,329.30804390192264L428.7570396124522,327.15462339099776L430.1356796112061,326.90280708406107L431.5143196099599,328.0942644679029L432.8929596087138,328.1897044537447L434.2715996074677,326.5651586159571L435.6502396062215,325.97479268209656L437.0288796049754,324.6042916002726L438.40751960372927,324.86129569237306L439.7861596024831,323.83929204972065L441.164799601237,325.4580196033325L442.5434395999909,326.49892678221454L443.9220795987447,326.85332224504356L445.3007195974986,327.7392899242616L446.6793595962525,327.44331119020643L448.0579995950063,326.9879737293018L449.4366395937602,327.095686087492L450.8152795925141,325.49445318146894L452.1939195912679,324.7067451000847L453.5725595900218,324.71776373263185L454.9511995887757,324.7737406908631L456.3298395875295,324.8824017843602L457.7084795862834,325.3442987561267L459.08711958503727,325.18603478538154L460.4657595837911,326.92427922452816L461.844399582545,326.0899126399313L463.2230395812989,323.7494424405518L464.6016795800527,323.34597146680346L465.9803195788066,325.51798833789485L467.3589595775604,325.8688876329064L468.7375995763143,326.00307460408214L470.1162395750682,323.6930662730959L471.494879573822,321.8971826505789L472.8735195725759,323.88339547950454L474.2521595713298,322.38629074227686L475.6307995700836,322.00858402562164L477.0094395688375,321.15986658035405L478.3880795675914,320.99970157109277L479.7667195663452,321.40448619207524L481.1453595650991,321.33875232315796L482.523999563853,323.11275815229357L483.9026395626068,323.7819116818217L485.2812795613607,321.4522566070641L486.6599195601146,320.30694276869804L488.0385595588684,321.48509802860224L489.4171995576223,319.1450955247642L490.7958395563762,318.8946816024356L492.17447955513,316.92269508081205L493.5531195538839,315.77075039137924L494.9317595526378,318.03208793196194L496.3103995513916,319.0709729421994L497.6890395501455,320.2619273105884L499.0676795488994,319.34189762550363L500.4463195476532,319.56313097217554L501.8249595464071,317.8922729496692L503.2035995451609,316.80202289067705L504.5822395439148,316.8320549655995L505.9608795426687,319.1949433033063L507.33951954142253,318.33145201045653L508.71815954017643,316.42483490747503L510.0967995389303,316.5959048469795L511.4754395376841,317.4164430306105L512.854079536438,317.6235891630439L514.2327195351919,318.11667307244466L515.6113595339457,317.04240669396034L516.9899995326996,315.3668999990461L518.3686395314535,314.68106744019025L519.7472795302073,316.80084984413605L521.1259195289612,317.0701750614348L522.5045595277151,315.6300704912275L523.883199526469,316.04314898331637L525.2618395252229,315.7287165570117L526.6404795239768,314.7606872890828L528.0191195227305,312.4047347717257L529.3977595214844,311.75710009104813L530.7763995202383,312.23393226794167L532.1550395189921,311.47540352445907L533.533679517746,310.5255752626417L534.9123195164998,311.3842276398542L536.2909595152537,311.38836142308116L537.6695995140076,310.18261787433966L539.0482395127614,309.2855746199167L540.4268795115153,310.11578195207545L541.8055195102692,312.2567985169738L543.1841595090231,313.1469505677386L544.562799507777,314.3155905061267L545.9414395065309,314.3693496087474L547.3200795052846,311.836192478133L548.6987195040385,311.63449377064035L550.0773595027924,312.55346882114384L551.4559995015462,312.5669216105047L552.8346395003001,311.5463773322683L554.213279499054,311.69567540051736L555.5919194978078,308.78295029916023L556.9705594965617,309.45102475231056L558.3491994953156,310.57233180995235L559.7278394940694,310.82352888437015L561.1064794928233,309.21767532822156L562.4851194915772,307.2769698389011L563.8637594903311,308.0483938415816L565.242399489085,308.73680321196065L566.6210394878389,308.6371832907188L567.9996794865926,310.6943902294744L569.3783194853465,310.091333188431L570.7569594841003,307.29468673015765L572.1355994828542,307.24422208317844L573.5142394816081,306.94640378142464L574.8928794803619,306.622688820136L576.2715194791158,304.8423341146698L577.6501594778697,305.54533038118365L579.0287994766235,306.7395289461365L580.4074394753774,308.0650214650249L581.7860794741313,307.15584114750516L583.1647194728852,305.9239580590586L584.5433594716391,301.4613388623304L585.921999470393,301.3394677866022L587.3006394691467,301.92837923324976L588.6792794679006,302.5274240688563L590.0579194666545,301.3236523900064L591.4365594654083,303.2045369145432L592.8151994641622,303.15010403329296L594.1938394629161,304.3169574039076L595.5724794616699,306.14359032366775L596.9511194604238,306.94017902686824L598.3297594591777,306.3806998231018L599.7083994579315,305.33003404238826L601.0870394566854,304.7280998061253L602.4656794554393,304.5901374181011L603.8443194541932,303.33142798582605L605.2229594529471,302.7558080350303L606.6015994517008,304.91055495223645L607.9802394504547,302.191784487592L609.3588794492086,301.49950149204915L610.7375194479624,302.4511340561206L612.1161594467163,300.20431460087593L613.4947994454702,299.41632045294784L614.873439444224,299.3944914568675L616.2520794429779,300.8300583350476L617.6307194417318,300.6464229331969L619.0093594404856,300.3350340039326L620.3879994392396,299.5751449549623L621.7666394379935,298.94361153927167L623.1452794367473,299.37116035841893L624.5239194355012,300.0645680504939L625.9025594342551,299.69861409835914L627.2811994330089,299.34219106052825L628.6598394317627,300.1177549527743L630.0384794305166,300.11884604917867L631.4171194292704,301.31038510078304L632.7957594280243,301.1802759534012L634.1743994267782,301.94150640012185L635.553039425532,298.8109002414864L636.9316794242859,296.26461689139444L638.3103194230398,296.98529375010196L639.6889594217937,295.0989823548119L641.0675994205476,292.3878834016483L642.4462394193014,296.13604647638533L643.8248794180553,296.00292733431803L645.2035194168092,297.14904426901035L646.582159415563,295.79456441575303L647.9607994143169,299.259167741301L649.3394394130707,299.46567328124814L650.7180794118245,300.99342902150687L652.0967194105784,299.2815495322893L653.4753594093323,299.5391558159212L654.8539994080861,297.51210309977705L656.23263940684,297.40134937607934L657.6112794055939,298.82302727828284L658.9899194043478,301.087701479164L660.3685594031017,299.96872505672894L661.7471994018556,295.9948650820599L663.1258394006094,297.223088998966L664.5044793993633,299.16882342201336L665.8831193981172,298.52816824081106L667.261759396871,297.5694439116605L668.6403993956249,297.1586360116077L670.0190393943788,297.87682674514207L671.3976793931325,296.6119458601454L672.7763193918864,297.64487660783743L674.1549593906402,297.7547363965709L675.5335993893941,299.40847654560486L676.912239388148,298.2944207918794L678.2908793869019,299.17717522784204L679.6695193856558,299.8392713981805L681.0481593844097,297.4828454036806L682.4267993831635,296.83393815568536L683.8054393819174,296.3916841726074L685.1840793806713,294.89494556575136L686.5627193794251,296.28873452303395L687.941359378179,291.2072115249127L689.3199993769329,292.90965626514003L690.6986393756866,294.6263792287109L692.0772793744405,293.47336128060374L693.4559193731944,292.04569113104765L694.8345593719482,291.0774122672482L696.2131993707021,289.8089326503702L697.591839369456,293.16933380940014L698.9704793682099,294.1054992663996L700.3491193669638,294.4947172335295L701.7277593657177,292.2673942689535L703.1063993644715,292.4436203521118L704.4850393632254,293.6642028952446L705.8636793619793,296.51501835068416L707.2423193607331,295.7829688355087L708.620959359487,296.4249409742078L709.9995993582407,292.7809784493123L711.3782393569946,294.4447043386135L712.7568793557485,294.39739456397604L714.1355193545023,295.1784127952739L715.5141593532562,296.9995787329421L716.8927993520101,297.0216799571501L718.271439350764,296.19223471279L719.6500793495179,291.4463307645961L721.0287193482718,291.9847071503854L722.4073593470256,290.6482718885638L723.7859993457795,287.07795161741984L725.1646393445334,286.2551269583615L726.5432793432872,284.80872637452137L727.9219193420411,283.7820341008099L729.300559340795,286.12029501861423L730.6791993395487,287.55355563517224L732.0578393383026,290.28701161567307L733.4364793370565,290.8379280262912L734.8151193358103,290.68086751762297L736.1937593345642,288.7130236890796L737.5723993333181,289.1697426963031L738.951039332072,288.7455374303179L740.3296793308259,289.2932637497302L741.7083193295797,290.54519478169607L743.0869593283336,291.3266056686183L744.4655993270875,291.38653400055654L745.8442393258413,288.79578610877934L747.2228793245952,287.2456150361704L748.6015193233491,287.61807787694386L749.9801593221028,288.79980592826564L751.3587993208567,286.2782881868264L752.7374393196106,288.3495406999818L754.1160793183644,290.35503050291857L755.4947193171183,290.12532688573356L756.8733593158722,289.1540317536885L758.2519993146261,290.11384838914495L759.63063931338,289.00366598645735L761.0092793121339,286.52066797679095L762.3879193108877,287.2483752884974L763.7665593096416,290.0245616179301L765.1451993083955,289.72805871152536L766.5238393071493,289.6717768249681L767.9024793059032,291.16235983199044L769.2811193046571,290.3655545604728L770.6597593034109,289.7903952221466L772.0383993021647,288.98299481018324L773.4170393009186,288.77320552853786L774.7956792996724,287.8438544331514L776.1743192984263,284.9809160827037L777.5529592971802,286.6738874492072L778.9315992959341,284.92148309525504L780.310239294688,287.2583656925036L781.6888792934418,287.7464610850071L783.0675192921957,288.1533972329782L784.4461592909496,287.60992299094073L785.8247992897034,288.26952885336516L787.2034392884573,286.0217012886248L788.5820792872112,286.06676947973085L789.960719285965,288.04541511428073L791.3393592847189,289.0852260162482L792.7179992834727,290.0945144054054L794.0966392822265,289.8354535838455L795.4752792809804,289.0688271825651L796.8539192797343,289.8813264275574L798.2325592784882,288.09012036328073L799.6111992772421,289.18592409413264L800.989839275996,289.7320943037623L802.3684792747498,288.2899405659629L803.7471192735037,288.5857358412189L805.1257592722576,286.6558750423175L806.5043992710114,283.71420785030716L807.8830392697653,281.725681326527L809.2616792685192,280.87526185809355L810.640319267273,281.48412178319563L812.0189592660269,279.0373689129974L813.3975992647806,279.96378083742076L814.7762392635345,277.6669666968355L816.1548792622884,278.67671169804316L817.5335192610423,278.5251318705798L818.9121592597962,278.77704013084553L820.2907992585501,278.15513680530194L821.6694392573039,276.4850170492002L823.0480792560578,277.1045807024423L824.4267192548117,277.2647666874857L825.8053592535655,275.2868162981948L827.1839992523194,276.94847717902366L828.5626392510733,278.29022049610774L829.9412792498272,279.458746932932L831.3199192485808,281.0529359831797L832.6985592473347,278.03962325841366L834.0771992460886,280.55474662592604L835.4558392448425,281.6757922014786L836.8344792435964,280.43283826994974L838.2131192423503,279.2724304919225L839.5917592411041,278.858287088723L840.970399239858,277.18773511210804L842.3490392386119,277.45302941172724L843.7276792373658,277.283525257066L845.1063192361197,277.2002585829936L846.4849592348736,277.1318541268037L847.8635992336273,274.1969274772566L849.2422392323812,275.13868582167066L850.6208792311351,273.1745934037774L851.999519229889,273.95988286027534L853.3781592286429,275.78779639053334L854.7567992273968,278.75053339001494L856.1354392261505,279.62091834621765L857.5140792249044,273.82978571593253L858.8927192236583,274.46637141047967L860.2713592224122,272.7986318683187L861.6499992211661,273.3171669434771L863.0286392199198,270.9893242062302L864.4072792186737,272.67612687044766L865.7859192174276,271.5917265302315L867.1645592161815,271.4337469990775L868.5431992149354,275.6246806639818L869.9218392136893,276.1248330654147L871.300479212443,275.42612269629205L872.6791192111968,274.48424468301897L874.0577592099507,272.7896639084004L875.4363992087046,272.36970331283226L876.8150392074585,273.0988828682729L878.1936792062124,269.92149388479265L879.5723192049662,270.175551975915L880.9509592037201,272.4944998447234L882.329599202474,274.83480172374965L883.7082392012279,271.68494282375684L885.0868791999818,270.5318213890967L886.4655191987357,267.8211724216014L887.8441591974894,268.07777034297345L889.2227991962433,270.2572821248553L890.6014391949972,270.90909102236736L891.9800791937511,270.92312480353763L893.358719192505,270.2860410592479L894.7373591912589,268.7686735835127L896.1159991900126,267.9707586422603L897.4946391887665,270.49977616455806L898.8732791875204,271.44846044711505L900.2519191862743,273.29055832921586L901.6305591850282,274.36055547965196L903.0091991837819,269.31298212828216L904.3878391825358,268.49340833435156L905.7664791812897,271.5598720350265L907.1451191800436,273.1198978940753L908.5237591787975,274.6500466244075L909.9023991775514,271.4047703014309L911.2810391763051,271.5110378816206L912.659679175059,272.19809399333815L914.0383191738129,272.2355940694693L915.4169591725667,274.0052494470765L916.7955991713206,273.6078720098999L918.1742391700745,273.4943006299166L919.5528791688283,274.5352248868593L920.9315191675822,268.69564873882035L922.3101591663361,268.64815071935385L923.68879916509,268.037566075131L925.0674391638439,268.8257266019377L926.4460791625978,266.60777035626387L927.8247191613515,268.69062736455106L929.2033591601054,265.5641202151064L930.5819991588593,265.97476247904666L931.9606391576132,261.3464126210249L933.3392791563671,259.30037363813165L934.7179191551209,260.1451546884666L936.0965591538748,262.50757487625873L937.4751991526286,265.7284998406228L938.8538391513825,264.25196503318176L940.2324791501364,265.25423284641L941.6111191488903,264.5237469972533L942.989759147644,264.8130034264108L944.3683991463979,267.0402928136549L945.7470391451518,270.9461646159036L947.1256791439057,271.60590738066264L948.5043191426596,272.059948241588L949.8829591414135,265.77511764639576L951.2615991401672,262.79983429078936L952.6402391389211,262.4526495048989L954.018879137675,264.98447280185974L955.3975191364289,267.6982000636511L956.7761591351828,261.72809064017093L958.1547991339366,263.6419277261214L959.5334391326904,265.280132400102L960.9120791314443,265.11107336662945L962.2907191301982,266.1303596113323L963.6693591289521,266.0324350687427L965.047999127706,265.45937236726246L966.4266391264597,266.87214323751766L967.8052791252136,267.01368498190595L969.1839191239675,268.41182218739965L970.5625591227214,267.8521247126615L971.9411991214753,266.33368147796426L973.3198391202292,265.1058915383411L974.698479118983,264.0288779437696L976.0771191177369,262.1959702507346L977.4557591164908,263.4457328187976L978.8343991152447,260.57655410878715L980.2130391139985,258.828759330444L981.5916791127524,262.49855997956183L982.9703191115061,261.688478233236L984.34895911026,263.85652665554824L985.7275991090139,264.4564665425718L987.1062391077678,266.294624002755L988.4848791065217,264.22509436103667L989.8635191052756,265.01621587572856L991.2421591040293,265.41696421618207L992.6207991027832,267.3696522944429L993.9994391015371,267.06551907519975L995.378079100291,265.27533733444267L996.7567190990449,269.02634521177447L998.1353590977988,268.434337480675L999.5139990965525,269.1856143368248L1000.8926390953064,267.2364003028416L1002.2712790940603,269.1529398800742L1003.6499190928142,265.7386452659328L1005.0285590915681,265.9681719554276L1006.4071990903218,269.0494161386238L1007.7858390890757,267.2545309176908L1009.1644790878296,267.79256196593997L1010.5431190865835,266.3325708816303L1011.9217590853374,266.06360286447466L1013.3003990840913,263.33335409489337L1014.6790390828451,264.13086526121447L1016.057679081599,263.6418303240993L1017.4363190803529,260.7428855906465L1018.8149590791068,257.1289874938663L1020.1935990778607,257.56444148604794L1021.5722390766146,257.6357226471846L1022.9508790753682,258.58639174750033L1024.3295190741221,261.082289510448L1025.708159072876,262.68184890704794L1027.08679907163,262.9827079807615L1028.4654390703838,261.111369894061L1029.8440790691377,261.0486805750762L1031.2227190678914,261.6971462006127L1032.6013590666453,260.3517866855798L1033.9799990653992,264.0636558974294L1035.358639064153,263.65007840475226L1036.737279062907,265.8478958491089L1038.1159190616606,266.57095958799425L1039.4945590604145,265.82926079262666L1040.8731990591684,266.78489755525885L1042.2518390579223,266.3621972048217L1043.6304790566762,267.66793819644363L1045.0091190554301,267.54914133377866L1046.387759054184,269.16853268441685L1047.766399052938,269.7301550590317L1049.1450390516918,268.30523226661256L1050.5236790504457,264.3553444798275L1051.9023190491996,267.2591480402041L1053.2809590479535,268.1365092733906L1054.6595990467072,268.25568909414403L1056.038239045461,268.0273678120682L1057.416879044215,265.08767304655686L1058.7955190429689,264.98197484560654L1060.1741590417228,268.3143508570404L1061.5527990404767,265.7161828399273L1062.9314390392303,265.8547543193224L1064.3100790379842,259.0810460122811L1065.6887190367381,259.5935918026909L1067.067359035492,260.21435985131876L1068.445999034246,259.50834039291243L1069.8246390329996,260.0130980169346L1071.2032790317535,261.930470171518L1072.5819190305074,258.84952990441184L1073.9605590292613,258.8623920732878L1075.3391990280152,256.18789415148063L1076.717839026769,257.31696271308243L1078.0964790255227,256.44414185346733L1079.4751190242766,256.7238772242203L1080.8537590230305,255.78202546763626L1082.2323990217844,253.96473340465948L1083.6110390205383,252.10198757740633L1084.9896790192922,253.40579918774694L1086.3683190180461,252.6200617143757L1087.7469590168,253.38085364178508L1089.125599015554,254.52301089614076L1090.5042390143078,249.93400786986913L1091.8828790130617,248.51473170903793L1093.2615190118156,251.06400262945778L1094.6401590105693,249.8340628281019L1096.0187990093232,249.54526645485421L1097.397439008077,248.44488838609035L1098.776079006831,251.76211065827334L1100.1547190055849,249.7743344819502L1101.5333590043388,246.46864596703924L1102.9119990030924,245.18926012799488L1104.2906390018463,248.38094839157029L1105.6692790006002,253.98730347727894L1107.0479189993541,255.21732266838094L1108.426558998108,256.7005668674942L1109.8051989968617,257.8904979558881L1111.1838389956156,255.73352352238112L1112.5624789943695,257.4171617121239L1113.9411189931234,253.56409564550626L1115.3197589918773,253.47033837726818L1116.6983989906312,252.612076261941L1118.0770389893848,252.68599901369132L1119.4556789881387,253.9792747079198L1120.8343189868926,253.94925254687814L1122.2129589856465,256.1846436319647L1123.5915989844004,254.26522899569525L1124.9702389831543,251.4722441505665L1126.3488789819082,252.06700712363022L1127.7275189806621,252.89693725326768L1129.106158979416,257.02008261015453L1130.48479897817,259.179766667939L1131.8634389769238,259.36022949408925L1133.2420789756777,257.06329543070535L1134.6207189744314,258.3132039011091L1135.9993589731853,260.342558544125L1137.3779989719392,258.9791610250435L1138.756638970693,260.04729108411266L1140.135278969447,259.00081904831984L1141.5139189682006,255.90247568663298L1142.8925589669545,256.15086806483066L1144.2711989657084,253.98997439774664L1145.6498389644623,249.51040409549006L1147.0284789632162,252.75793799815222L1148.4071189619701,254.89922940704255L1149.7857589607238,256.5636155007706L1151.1643989594777,257.01298839105266L1152.5430389582316,256.4899970988976L1153.9216789569855,258.70584183040677L1155.3003189557394,258.74850607649853L1156.6789589544933,256.3544066539724L1158.057598953247,254.85286696325076L1159.4362389520008,255.3783817092138L1160.8148789507547,257.8663848147601L1162.1935189495086,254.41742467800944L1163.5721589482625,256.40843946935985L1164.9507989470164,254.17722776125387L1166.3294389457703,256.0474382212493L1167.7080789445242,256.76074341853024L1169.0867189432781,259.0329731520317L1170.465358942032,258.4639212212164L1171.843998940786,257.6104439385947L1173.2226389395396,255.99414224251706L1174.6012789382935,251.93218536410242L1175.9799189370474,252.84356195553914L1177.3585589358013,258.77292180403964L1178.7371989345552,258.5155318603055L1180.115838933309,259.3487933210978L1181.4944789320627,258.81222639746403L1182.8731189308166,256.0937031898125L1184.2517589295705,257.284581749401L1185.6303989283244,255.3712860178502L1187.0090389270783,254.00224278164825L1188.3876789258322,252.40595562358013L1189.766318924586,248.92944301235582L1191.1449589233398,248.15474042684053L1192.5235989220937,246.79533922501943L1193.9022389208476,247.56957312247266L1195.2808789196015,251.20157359105724L1196.6595189183554,251.71121645955043L1198.038158917109,255.61177532284336L1199.416798915863,255.44935004836867L1200.7954389146169,257.4271395880303L1202.1740789133707,256.03831519155585L1203.5527189121246,260.65915673272264L1204.9313589108785,259.37936855876467L1206.3099989096324,258.69625034899343L1207.6886389083863,253.86545196369678L1209.0672789071402,254.29413533871707L1210.4459189058941,256.580848000405L1211.824558904648,258.07198972003476L1213.2031989034017,258.3836738189256L1214.5818389021556,256.72468084312703L1215.9604789009095,256.026325766033L1217.3391188996634,259.11956712009754L1218.7177588984173,259.54258565602163L1220.0963988971712,256.2065660405393L1221.4750388959249,260.62641626165635L1222.8536788946788,257.6278752924043L1224.2323188934326,257.9297347706323L1225.6109588921865,257.9967866528887L1226.9895988909404,258.84349744208185L1228.3682388896943,258.81330246841577L1229.746878888448,261.2260545850128L1231.125518887202,262.6464729867126L1232.5041588859558,263.45062946153575L1233.8827988847097,264.4740814616218L1235.2614388834636,266.24061794877275L1236.6400788822175,266.0164943474145L1238.0187188809712,264.1901636778218L1239.397358879725,265.98938881081835L1240.7759988784792,265.4996821949227L1242.154638877233,266.1853911300094L1243.533278875987,264.4037180853266L1244.9119188747406,261.7566237151566L1246.2905588734945,259.8287137875151L1247.6691988722484,260.29796301400074L1249.0478388710023,258.75688302213257L1250.4264788697562,260.80269822550645L1251.8051188685101,262.4007080236387L1253.1837588672638,261.15505443968124L1254.5623988660177,263.95994369665897L1255.9410388647716,265.2159786238228L1257.3196788635255,261.0522086014702L1258.6983188622794,260.6440962050848L1260.0769588610333,260.8077735892622L1261.455598859787,259.5847823154525L1262.8342388585409,260.2371444303792L1264.2128788572948,259.33462276234377L1265.5915188560487,258.2298396006769L1266.9701588548025,260.951869761773L1268.3487988535564,258.00529552605616L1269.7274388523101,259.249723188973L1271.106078851064,259.87638077933946L1272.484718849818,259.4634336581445L1273.8633588485718,259.35494193119155L1275.2419988473257,260.59806485058766L1276.6206388460796,261.73709937882694L1277.9992788448335,259.30493147902945L1279.3779188435874,257.8005016160503L1280.7565588423413,260.31613196938474L1282.1351988410952,257.9511911501172L1283.513838839849,257.09883348244927L1284.8924788386028,252.4396359255884L1286.2711188373567,251.83103023686198L1287.6497588361105,250.9664551273573L1289.0283988348644,251.58737257695887L1290.4070388336183,251.84803044710114L1291.7856788323722,254.80209843007097L1293.164318831126,255.72463977529156L1294.5429588298798,255.78371687387062L1295.9215988286337,256.2483106623016L1297.3002388273876,253.04314179710605L1298.6788788261415,250.68480666811487L1300.0575188248954,251.77728844626697L1301.436158823649,247.86941813837763L1302.814798822403,247.0992814900261L1304.1934388211569,248.00021556445122L1305.5720788199108,248.94876831769963L1306.9507188186647,250.1471091534005L1308.3293588174186,253.41727528575322L1309.7079988161722,250.02756599722994L1311.0866388149261,253.25732422255757L1312.46527881368,253.68022622162403L1313.843918812434,251.5086018718648L1315.2225588111878,254.19702733918663L1316.6011988099417,256.6348599697895L1317.9798388086956,255.01472461731038L1319.3584788074495,251.10341448133627L1320.7371188062034,251.23673594217533L1322.1157588049573,252.22932126983147L1323.4943988037112,252.05484574246188L1324.8730388024649,248.6335216737988L1326.2516788012188,251.90281702190867L1327.6303187999727,248.39949267314717L1329.0089587987266,247.7808109739728L1330.3875987974805,249.99353885385597L1331.7662387962343,250.93301764149928L1333.144878794988,245.90643892583034L1334.523518793742,246.22320945235757L1335.9021587924958,247.6112848800463L1337.2807987912497,243.6860227325218L1338.6594387900036,246.80232809844117L1340.0380787887575,247.8517886071938L1341.4167187875112,248.63180899255948L1342.795358786265,250.06014565419952L1344.173998785019,251.45461802544168L1345.5526387837729,251.6793410426188L1346.9312787825268,252.4627349557452L1348.3099187812804,251.07161691467806L1349.6885587800343,252.09530337981587L1351.0671987787882,249.07479280686937L1352.4458387775421,248.4491083021946L1353.824478776296,249.8041005519062L1355.20311877505,246.65820778583685L1356.5817587738038,247.27475357102918L1357.9603987725577,245.637701960164L1359.3390387713116,244.52369654409785L1360.7176787700655,244.78835464104296L1362.0963187688194,242.61592273965238L1363.4749587675733,244.81526915643528L1364.853598766327,242.69392273582298L1366.2322387650809,244.73070477314099L1367.6108787638348,247.3385121731717L1368.9895187625887,247.83673349238973L1370.3681587613426,245.86151675006914L1371.7467987600965,244.99992215792957L1373.1254387588501,244.38817050332375L1374.504078757604,244.73577403068475L1375.882718756358,245.33023655210516L1377.2613587551118,246.82194928040872L1378.6399987538657,247.51674691899134L1380.0186387526194,246.89033772920544L1381.3972787513733,250.51103325718006L1382.7759187501272,246.72418763800522L1384.154558748881,247.27510439682234L1385.533198747635,246.30766662774985L1386.9118387463889,249.37606299204705L1388.2904787451425,250.71765889877912L1389.6691187438964,248.27577135785714L1391.0477587426503,248.5169686036557L1392.4263987414042,247.9735789740107L1393.8050387401581,249.18369651815468L1395.183678738912,247.83248926358675L1396.562318737666,246.11146884357566L1397.9409587364198,248.09559710510553L1399.3195987351737,247.40012131705814L1400.6982387339276,250.52401086863236L1402.0768787326815,248.75703515167473L1403.4555187314354,249.757953535624L1404.834158730189,247.5471652311027L1406.212798728943,249.8631196726558L1407.5914387276969,253.60734480265154L1408.9700787264508,251.93665472947455L1410.3487187252047,249.4342833088501L1411.7273587239586,250.1884101441824L1413.1059987227122,248.50831827419879L1414.4846387214661,248.59099369817122L1415.86327872022,250.07540291137911L1417.241918718974,250.97289874235125L1418.6205587177278,253.16022576749648L1419.9991987164815,248.8607993381102L1421.3778387152354,252.5455923811877L1422.7564787139893,248.52071115532058L1424.1351187127432,246.73746064787676L1425.513758711497,247.11434873506164L1426.892398710251,247.03659057594007L1428.2710387090046,248.44790635413426L1429.6496787077585,245.59299838346172L1431.0283187065124,243.24763293307998L1432.4069587052663,242.65097242563905L1433.7855987040202,240.81820558647362L1435.1642387027741,238.37924433128538L1436.542878701528,242.2114798886567L1437.921518700282,243.11928597109014L1439.3001586990358,245.22567468793832L1440.6787986977897,246.28234128637925L1442.0574386965436,249.09770737412572L1443.4360786952975,248.75802006862372L1444.8147186940512,248.89446530240997L1446.193358692805,246.16475569968273L1447.571998691559,244.4139150455529L1448.9506386903129,243.99043999874303L1450.3292786890668,246.14228758707773L1451.7079186878204,248.1045186461935L1453.0865586865743,247.5437364073766L1454.4651986853282,248.88746899301046L1455.8438386840821,247.03889884995868L1457.222478682836,247.91508854315745L1458.60111868159,249.26369339395458L1459.9797586803436,249.97080966653513L1461.3583986790975,251.57055172111643L1462.7370386778514,253.18494405752136L1464.1156786766053,255.27501334847517L1465.4943186753592,254.95148667752494L1466.872958674113,255.1689586372586L1468.2515986728667,254.49755492102412L1469.6302386716206,254.05283390100877L1471.0088786703745,256.9110689640217L1472.3875186691284,255.57577767900196L1473.7661586678823,258.1157162779245L1475.1447986666362,260.58315220853217L1476.5234386653901,261.9702217336683L1477.902078664144,260.65275892867083L1479.280718662898,261.0590555187715L1480.6593586616518,258.74951358637117L1482.0379986604057,258.4329018855202L1483.4166386591594,257.06971147623744L1484.7952786579133,256.03740907600144L1486.1739186566672,254.11495927798296L1487.552558655421,254.71648783169098L1488.931198654175,254.9444305242949L1490.3098386529289,256.6564680014974L1491.6884786516825,254.33771672643442L1493.0671186504364,255.50853109925873L1494.4457586491903,256.72770609647216L1495.8243986479442,256.18034109790864L1497.2030386466981,257.20123323960075L1498.581678645452,255.8287389013601L1499.9603186442057,257.90461255980233L1501.3389586429596,258.66343286715056L1502.7175986417135,258.7861724067087L1504.0962386404674,260.05206238344397L1505.4748786392213,262.19931150918904L1506.8535186379752,264.03791686464496L1508.2321586367289,263.75375342420966L1509.6107986354828,265.31373169315293L1510.9894386342366,267.46409565970833L1512.3680786329905,266.703997186649L1513.7467186317444,265.16113126540165L1515.1253586304983,263.037869100586L1516.5039986292522,262.38381890412063" fill="none"></path></g></g></g></g><g opacity="0.2"><g><g><g><path style="fill: none;" stroke="rgb(51, 187, 238)" stroke-width="2px" d="M139.24263987414042,43.584818752563315L140.6212798728943,313.64948049588645L141.99991987164816,345.38337986765794L143.37855987040203,347.9142366305782L144.75719986915587,349.50296629456625L146.13583986790977,347.3083657429836L147.51447986666363,344.0372462185296L148.89311986541748,339.9833651833666L150.27175986417134,336.46337721392314L151.6503998629252,333.0934527513752L153.02903986167908,330.29548488861104L154.40767986043295,330.59870899908526L155.78631985918682,325.9170426892553L157.1649598579407,323.6274681031418L158.54359985669456,319.7598094484345L159.92223985544842,327.36712062245476L161.3008798542023,324.8786573937528L162.67951985295613,325.7516177986359L164.05815985171,326.1210679800016L165.4367998504639,331.0456999059505L166.81543984921774,325.9582060178223L168.1940798479716,318.01261526790637L169.57271984672548,321.0752769843225L170.95135984547935,323.18663901581033L172.3299998442332,327.46376730502027L173.70863984298705,325.5440907382946L175.08727984174095,324.81205902378264L176.46591984049482,326.8325908713542L177.84455983924866,322.9897251770304L179.22319983800253,324.44918612614L180.6018398367564,322.3352287923791L181.98047983551027,325.83259015042574L183.35911983426413,328.7951249972367L184.737759833018,329.22170420244134L186.11639983177187,328.8715973862497L187.4950398305257,330.6377302590402L188.87367982927958,327.9607865750358L190.25231982803348,330.4592371311959L191.63095982678732,325.54071306839256L193.0095998255412,325.53386060708965L194.38823982429506,328.68496763506295L195.76687982304892,328.2941021632159L197.1455198218028,327.48268441472743L198.52415982055663,323.526003115109L199.90279981931053,324.7112900731577L201.2814398180644,323.60964091247655L202.66007981681824,326.0891257981801L204.0387198155721,328.3082333412886L205.41735981432598,326.1654632962225L206.79599981307985,334.5497005975667L208.17463981183369,327.7251374451584L209.55327981058758,332.3801789752251L210.93191980934145,330.767684220049L212.3105598080953,334.2897036475086L213.6891998068492,332.88193022048677L215.06783980560306,331.11945289299763L216.4464798043569,331.41734611231647L217.82511980311074,330.8896526356024L219.20375980186463,332.17741896178234L220.5823998006185,333.1435647469271L221.96103979937234,337.0578686992437L223.33967979812624,335.1597665943448L224.7183197968801,331.78651841828287L226.09695979563395,337.3555299060933L227.47559979438785,339.6831950044651L228.8542397931417,334.92359408750167L230.23287979189556,334.62382318587305L231.61151979064945,340.26666859531286L232.9901597894033,338.0334028959375L234.36879978815716,335.8722229312134L235.747439786911,336.6026953061061L237.1260797856649,337.10590067603016L238.50471978441874,337.2989431439559L239.8833597831726,335.9318258554519L241.2619997819265,332.8905092862125L242.64063978068035,335.34190717403226L244.0192797794342,336.772072502162L245.3979197781881,335.31123296733364L246.77655977694195,338.6743697162446L248.1551997756958,337.70785432984053L249.5338397744497,335.29804602605464L250.91247977320356,337.9245890478302L252.2911197719574,335.8464398711063L253.66975977071127,335.9657212585267L255.04839976946516,333.69022119627834L256.427039768219,336.32779290380444L257.80567976697284,334.3948376699398L259.18431976572674,339.44504229817466L260.5629597644806,336.60312965503124L261.9415997632345,335.87332633935233L263.3202397619884,335.0355212192088L264.6988797607422,337.7004218373643L266.07751975949606,338.5428105526865L267.4561597582499,335.7599801546353L268.8347997570038,336.042622600826L270.21343975575763,337.1962020873419L271.59207975451153,337.7865659089643L272.9707197532654,340.07533384707403L274.34935975201927,337.3999683874248L275.7279997507731,338.4126866290548L277.106639749527,339.834693751287L278.48527974828085,338.35830668319534L279.8639197470347,336.27941830395287L281.2425597457886,336.50934535886046L282.6211997445425,337.2816663084504L283.9998397432963,336.30269239200817L285.37847974205016,337.45560821494905L286.75711974080406,339.11936963238486L288.1357597395579,330.0241058384596L289.51439973831174,332.9264793124141L290.89303973706564,336.8181431642369L292.27167973581953,335.06825116429826L293.6503197345734,331.30073017047374L295.02895973332727,336.07548473906655L296.4075997320811,334.24909337192076L297.78623973083495,335.8344156899932L299.16487972958885,334.48879462655293L300.5435197283427,334.78869232569383L301.9221597270966,333.5514912287269L303.3007997258504,336.07301623430584L304.6794397246043,334.1079488559968L306.05807972335816,335.7424632132022L307.436719722112,331.53912837833053L308.8153597208659,333.7646324512616L310.1939997196198,333.4079564448051L311.57263971837364,334.1508495802642L312.95127971712753,330.7369776395175L314.3299197158814,329.7181029739925L315.7085597146352,333.42176388454857L317.0871997133891,332.0205245761393L318.46583971214295,330.83133117558395L319.84447971089685,333.2714764586421L321.2231197096507,325.8370847175638L322.6017597084046,334.14391618437895L323.9803997071584,335.6541123253243L325.35903970591227,330.6135308189271L326.73767970466616,330.4188130051474L328.11631970342,331.9630529292352L329.4949597021739,332.68253978348787L330.8735997009278,330.8552554381172L332.25223969968164,335.79208690344086L333.6308796984355,335.42539119569335L335.0095196971894,328.81324894803714L336.3881596959432,332.5073029236721L337.76679969469706,334.77821669292246L339.14543969345095,333.4804630392845L340.52407969220485,336.49596687240324L341.9027196909587,333.5664884068304L343.28135968971253,330.99938374230925L344.6599996884664,331.1227766065115L346.03863968722027,331.87339090112374L347.4172796859741,326.92229336675683L348.795919684728,331.51440286343234L350.1745596834819,329.80214544427156L351.55319968223574,332.0871742046782L352.93183968098964,332.44453815508444L354.3104796797435,332.85554015101224L355.6891196784973,335.47634221308203L357.06775967725116,331.4131213271194L358.44639967600506,334.3430422350756L359.82503967475895,331.508014427068L361.2036796735128,331.51944239009134L362.5823196722667,330.0391704620484L363.96095967102053,330.2579420336931L365.3395996697744,335.1777016977864L366.71823966852827,333.1163545403518L368.0968796672821,329.4741985167186L369.475519666036,331.647923341702L370.85415966478985,335.98351067972027L372.23279966354374,332.7956053949863L373.6114396622976,331.85728761706184L374.9900796610514,332.2819864421373L376.3687196598053,331.6338326309204L377.74735965855916,327.5737412154741L379.12599965731306,329.36330734766517L380.50463965606696,327.569338374196L381.8832796548208,328.4320200871247L383.26191965357464,329.3621203071245L384.64055965232853,325.7638497118436L386.0191996510824,330.4631004085918L387.3978396498362,325.3203228051015L388.7764796485901,332.4828741689091L390.155119647344,331.29853954111235L391.53375964609785,330.29943989186694L392.9123996448517,330.9405065314923L394.2910396436056,328.20397341234644L395.6696796423594,326.74749085586615L397.04831964111327,327.05409263624244L398.42695963986716,331.3381462278794L399.80559963862106,331.22895738287406L401.1842396373749,328.55507302608123L402.5628796361288,333.5616970795572L403.94151963488264,330.3494304855455L405.3201596336365,334.89512399926156L406.6987996323903,329.11416372509586L408.0774396311442,326.18358185138413L409.4560796298981,324.7488005542428L410.83471962865195,332.0600260479493L412.21335962740585,330.0623123569526L413.5919996261597,328.0297913999202L414.9706396249136,329.57941347373213L416.34927962366737,328.3926211324523L417.72791962242127,329.87909804513964L419.10655962117517,327.5495040058893L420.485199619929,331.45133593907065L421.8638396186829,330.36509942068227L423.2424796174368,331.7377742171721L424.6211196161906,331.398499145914L425.9997596149445,329.6230318179628L427.3783996136984,327.621999809091L428.7570396124522,323.9244926246105L430.1356796112061,326.525082623656L431.5143196099599,329.8814505436657L432.8929596087138,328.33286443250745L434.2715996074677,324.1283398592756L435.6502396062215,325.0892437813057L437.0288796049754,322.5485399775367L438.40751960372927,325.24680183052374L439.7861596024831,322.30628658574216L441.164799601237,327.8861109337503L442.5434395999909,328.0602875505377L443.9220795987447,327.38491543928717L445.3007195974986,329.0682414430886L446.6793595962525,326.99934308912367L448.0579995950063,326.30496753794483L449.4366395937602,327.2572546247774L450.8152795925141,323.09260382243434L452.1939195912679,323.52518297800816L453.5725595900218,324.73429168145253L454.9511995887757,324.85770612821L456.3298395875295,325.0453934246057L457.7084795862834,326.03714421377657L459.08711958503727,324.9486388292638L460.4657595837911,329.531645883248L461.844399582545,324.838362763036L463.2230395812989,320.2387371414825L464.6016795800527,322.74076500618105L465.9803195788066,328.776013644532L467.3589595775604,326.3952365754236L468.7375995763143,326.2043550608458L470.1162395750682,320.22805377661655L471.494879573822,319.2033572168034L472.8735195725759,326.86271472289303L474.2521595713298,320.1406336364353L475.6307995700836,321.4420239506388L477.0094395688375,319.8867904124528L478.3880795675914,320.7594540572008L479.7667195663452,322.01166312354894L481.1453595650991,321.24015151978216L482.523999563853,325.77376689599697L483.9026395626068,324.785641976114L485.2812795613607,317.95777399492766L486.6599195601146,318.58897201114894L488.0385595588684,323.25233091845854L489.4171995576223,315.6350917690072L490.7958395563762,318.51906071894257L492.17447955513,313.96471529837663L493.5531195538839,314.04283335723005L494.9317595526378,321.4240942428359L496.3103995513916,320.6293004575556L497.6890395501455,322.0483588631719L499.0676795488994,317.9618530978765L500.4463195476532,319.8949809921834L501.8249595464071,315.3859859159097L503.2035995451609,315.16664780218883L504.5822395439148,316.8771030779833L505.9608795426687,322.7392758098664L507.33951954142253,317.0362150711819L508.71815954017643,313.56490925300284L510.0967995389303,316.85250975623626L511.4754395376841,318.6472503060568L512.854079536438,317.9343083616942L514.2327195351919,318.85629893654567L515.6113595339457,315.43100712623385L516.9899995326996,312.85363995667484L518.3686395314535,313.65231860190636L519.7472795302073,319.9805234500548L521.1259195289612,317.4741628873828L522.5045595277151,313.46991363591667L523.883199526469,316.66276672144966L525.2618395252229,315.25706791755465L526.6404795239768,313.3086433871896L528.0191195227305,308.87080599569L529.3977595214844,310.7856480700318L530.7763995202383,312.9491805332819L532.1550395189921,310.33761040923525L533.533679517746,309.10083286991573L534.9123195164998,312.67220620567286L536.2909595152537,311.39456209792155L537.6695995140076,308.37400255122736L539.0482395127614,307.94000973828236L540.4268795115153,311.3610929503136L541.8055195102692,315.46832336432135L543.1841595090231,314.48217864388573L544.562799507777,316.0685504137089L545.9414395065309,314.4499882626784L547.3200795052846,308.0364567822114L548.6987195040385,311.33194570940145L550.0773595027924,313.931931396899L551.4559995015462,312.58710079454596L552.8346395003001,310.0155609149138L554.213279499054,311.9196225028909L555.5919194978078,304.4138626471245L556.9705594965617,310.4531364320361L558.3491994953156,312.2542923964151L559.7278394940694,311.20032449599694L561.1064794928233,306.80889499399854L562.4851194915772,304.3659116049205L563.8637594903311,309.2055298456024L565.242399489085,309.76941726752915L566.6210394878389,308.487753408856L567.9996794865926,313.78020063760783L569.3783194853465,309.1867476268658L570.7569594841003,303.0997170427477L572.1355994828542,307.16852511270963L573.5142394816081,306.49967632879395L574.8928794803619,306.1371163782029L576.2715194791158,302.17180205647054L577.6501594778697,306.59982478095435L579.0287994766235,308.5308267935657L580.4074394753774,310.0532602433576L581.7860794741313,305.79207067122553L583.1647194728852,304.0761334263887L584.5433594716391,294.76741006723825L585.921999470393,301.1566611730098L587.3006394691467,302.8117464032211L588.6792794679006,303.42599132226616L590.0579194666545,299.5179948717315L591.4365594654083,306.02586370134844L592.8151994641622,303.06845471141764L594.1938394629161,306.06723745982947L595.5724794616699,308.88353970330803L596.9511194604238,308.135062081669L598.3297594591777,305.5414810174522L599.7083994579315,303.7540353713179L601.0870394566854,303.8251984517308L602.4656794554393,304.3831938360648L603.8443194541932,301.4433638374135L605.2229594529471,301.89237810883674L606.6015994517008,308.1426753280457L607.9802394504547,298.1136287906252L609.3588794492086,300.461076998735L610.7375194479624,303.87858290222783L612.1161594467163,296.83408541800884L613.4947994454702,298.23432923105565L614.873439444224,299.36174796274696L616.2520794429779,302.98340865231773L617.6307194417318,300.37096983042085L619.0093594404856,299.8679506100362L620.3879994392396,298.43531138150684L621.7666394379935,297.9963114157357L623.1452794367473,300.01248358713985L624.5239194355012,301.1046795886063L625.9025594342551,299.14968317015706L627.2811994330089,298.8075565037819L628.6598394317627,301.2811007911433L630.0384794305166,300.1204826937851L631.4171194292704,303.0976936781897L632.7957594280243,300.98511223232833L634.1743994267782,303.083352070203L635.553039425532,294.11499100353313L636.9316794242859,292.44519186625644L638.3103194230398,298.0663090381633L639.6889594217937,292.26951526187673L641.0675994205476,288.3212349719029L642.4462394193014,301.75829108849086L643.8248794180553,295.80324862121716L645.2035194168092,298.86821967104873L646.582159415563,293.76284463586705L647.9607994143169,304.4560727296228L649.3394394130707,299.7754315911689L650.7180794118245,303.285062631895L652.0967194105784,296.713730298463L653.4753594093323,299.92556524136904L654.8539994080861,294.4715240255609L656.23263940684,297.2352187905327L657.6112794055939,300.9555441315881L658.9899194043478,304.4847127804858L660.3685594031017,298.2902604230763L661.7471994018556,290.03407512005646L663.1258394006094,299.06542487432506L664.5044793993633,302.08742505658455L665.8831193981172,297.5671854690075L667.261759396871,296.1313574179348L668.6403993956249,296.5424241615285L670.0190393943788,298.95411284544355L671.3976793931325,294.71462453265036L672.7763193918864,299.1942727293755L674.1549593906402,297.91952607967113L675.5335993893941,301.8890867691558L676.912239388148,296.6233371612913L678.2908793869019,300.5013068817859L679.6695193856558,300.83241565368814L681.0481593844097,293.9482064119308L682.4267993831635,295.8605772836925L683.8054393819174,295.7283031979906L685.1840793806713,292.6498376554672L686.5627193794251,298.3794179589579L687.941359378179,283.5849270277306L689.3199993769329,295.46332337548114L690.6986393756866,297.2014636740672L692.0772793744405,291.743834358443L693.4559193731944,289.9041859067135L694.8345593719482,289.6249939715489L696.2131993707021,287.9062132250533L697.591839369456,298.20993554794495L698.9704793682099,295.50974745189876L700.3491193669638,295.0785441842243L701.7277593657177,288.92640982208957L703.1063993644715,292.7079594768493L704.4850393632254,295.49507670994393L705.8636793619793,300.7912415338435L707.2423193607331,294.6848945627455L708.620959359487,297.38789918225643L709.9995993582407,287.3150346619689L711.3782393569946,296.9402931725655L712.7568793557485,294.32642990201975L714.1355193545023,296.34994014222076L715.5141593532562,299.7313276394444L716.8927993520101,297.0548317934621L718.271439350764,294.9480668462499L719.6500793495179,284.3274748423052L721.0287193482718,292.79227172906945L722.4073593470256,288.6436189958313L723.7859993457795,281.72247121070393L725.1646393445334,285.02088996977386L726.5432793432872,282.6391254987612L727.9219193420411,282.2419956902427L729.300559340795,289.6276863953207L730.6791993395487,289.7034465600093L732.0578393383026,294.38719558642424L733.4364793370565,291.6643026422184L734.8151193358103,290.44527675462064L736.1937593345642,285.76125794626466L737.5723993333181,289.8548212071383L738.951039332072,288.1092295313401L740.3296793308259,290.1148532288487L741.7083193295797,292.42309132964476L743.0869593283336,292.49872199900165L744.4655993270875,291.4764264984639L745.8442393258413,284.9096642711135L747.2228793245952,284.9203584272571L748.6015193233491,288.17677213810396L749.9801593221028,290.57239800524826L751.3587993208567,282.4960115746675L752.7374393196106,291.4564194697149L754.1160793183644,293.3632652073237L755.4947193171183,289.78077145995604L756.8733593158722,287.69708905562095L758.2519993146261,291.55357334232957L759.63063931338,287.3383923824259L761.0092793121339,282.7961709622912L762.3879193108877,288.3399362560573L763.7665593096416,294.188841112079L765.1451993083955,289.28330435191833L766.5238393071493,289.5873539951322L767.9024793059032,293.39823434252395L769.2811193046571,289.17034665319636L770.6597593034109,288.9276562146573L772.0383993021647,287.77189419223816L773.4170393009186,288.4585216060697L774.7956792996724,286.4498277900718L776.1743192984263,280.6865085570321L777.5529592971802,289.21334449896256L778.9315992959341,282.29287656432666L780.310239294688,290.76368958837656L781.6888792934418,288.4786041737623L783.0675192921957,288.7638014549349L784.4461592909496,286.7947116278846L785.8247992897034,289.2589376470018L787.2034392884573,282.64995994151417L788.5820792872112,286.13437176638996L789.960719285965,291.0133835661055L791.3393592847189,290.6449423691994L792.7179992834727,291.6084469891412L794.0966392822265,289.4468623515056L795.4752792809804,287.91888758064437L796.8539192797343,291.1000752950459L798.2325592784882,285.4033112668657L799.6111992772421,290.8296296904105L800.989839275996,290.55134961820676L802.3684792747498,286.12670995926385L803.7471192735037,289.0294287541029L805.1257592722576,283.7610838439654L806.5043992710114,279.3017070622916L807.8830392697653,278.74289154085676L809.2616792685192,279.5996326554434L810.640319267273,282.3974116708488L812.0189592660269,275.3672396077001L813.3975992647806,281.3533987240557L814.7762392635345,274.22174548595774L816.1548792622884,280.1913291998546L817.5335192610423,278.2977621293848L818.9121592597962,279.1549025212442L820.2907992585501,277.2222818169865L821.6694392573039,273.97983741504777L823.0480792560578,278.0339261823054L824.4267192548117,277.50504566505066L825.8053592535655,272.3198907142586L827.1839992523194,279.44096850026693L828.5626392510733,280.3028354717337L829.9412792498272,281.21153658816854L831.3199192485808,283.4442195585512L832.6985592473347,273.5196541712646L834.0771992460886,284.3274316771946L835.4558392448425,283.35736056480744L836.8344792435964,278.56840737265657L838.2131192423503,277.5318188248815L839.5917592411041,278.2370719839239L840.970399239858,274.6819071471856L842.3490392386119,277.85097086115593L843.7276792373658,277.0292690250742L845.1063192361197,277.075358571885L846.4849592348736,277.02924744251897L847.8635992336273,269.79453750293595L849.2422392323812,276.5513233382917L850.6208792311351,270.22845477693744L851.999519229889,275.1378170450223L853.3781592286429,278.5296666859203L854.7567992273968,283.1946388892374L856.1354392261505,280.92649578052175L857.5140792249044,265.1430867705048L858.8927192236583,275.4212499523004L860.2713592224122,270.2970225550773L861.6499992211661,274.09496955621466L863.0286392199198,267.49756010035975L864.4072792186737,275.20633086677407L865.7859192174276,269.96512601990725L867.1645592161815,271.1967777023466L868.5431992149354,281.9110811613381L869.9218392136893,276.8750616675641L871.300479212443,274.3780571426081L872.6791192111968,273.07142766310926L874.0577592099507,270.24779274647267L875.4363992087046,271.73976241948L876.8150392074585,274.1926522014338L878.1936792062124,265.15541040957237L879.5723192049662,270.55663911259853L880.9509592037201,275.9729216479359L882.329599202474,278.34525454228907L883.7082392012279,266.9601544737675L885.0868791999818,268.8021392371066L886.4655191987357,263.75519897035855L887.8441591974894,268.46266722503145L889.2227991962433,273.52654979767806L890.6014391949972,271.8868043686355L891.9800791937511,270.944175475293L893.358719192505,269.3304154428133L894.7373591912589,266.49262236990984L896.1159991900126,266.7738862303818L897.4946391887665,274.2933024480046L898.8732791875204,272.8714868709506L900.2519191862743,276.053705152367L901.6305591850282,275.96555120530616L903.0091991837819,261.74162210122745L904.3878391825358,267.26404764345557L905.7664791812897,276.1595675860391L907.1451191800436,275.4599366826484L908.5237591787975,276.94526971990564L909.9023991775514,266.5368558169661L911.2810391763051,271.6704392519051L912.659679175059,273.2286781609145L914.0383191738129,272.29184418366594L915.4169591725667,276.6597325134874L916.7955991713206,273.0118058541349L918.1742391700745,273.32394355994177L919.5528791688283,276.09661127227326L920.9315191675822,259.936284516762L922.3101591663361,268.5769036901541L923.68879916509,267.12168910879683L925.0674391638439,270.00796739214763L926.4460791625978,263.2808359877533L927.8247191613515,271.81491287698174L929.2033591601054,260.87435949093947L930.5819991588593,266.59072587495706L931.9606391576132,254.4038878339923L933.3392791563671,256.2313151637917L934.7179191551209,261.41232626396913L936.0965591538748,266.05120515794687L937.4751991526286,270.5598872871689L938.8538391513825,262.03716282202026L940.2324791501364,266.7576345662523L941.6111191488903,263.4280182235181L942.989759147644,265.2468880701472L944.3683991463979,270.3812268945211L945.7470391451518,276.80497231927666L947.1256791439057,272.59552152780117L948.5043191426596,272.7410095329762L949.8829591414135,256.3478717536075L951.2615991401672,258.3369092573797L952.6402391389211,261.93187232606317L954.018879137675,268.782207747301L955.3975191364289,271.7687909563381L956.7761591351828,252.77292650495062L958.1547991339366,266.5126833550471L959.5334391326904,267.73743941107296L960.9120791314443,264.85748481642065L962.2907191301982,267.65928897838666L963.6693591289521,265.88554825485824L965.047999127706,264.5997783150421L966.4266391264597,268.99129954290044L967.8052791252136,267.22599759848833L969.1839191239675,270.5090279956402L970.5625591227214,267.01257850055435L971.9411991214753,264.05601662591846L973.3198391202292,263.26420662890627L974.698479118983,262.41335755191244L976.0771191177369,259.44660871118214L977.4557591164908,265.320376670892L978.8343991152447,256.27278604377153L980.2130391139985,256.20706716292926L981.5916791127524,268.00326095323857L982.9703191115061,260.47335561374734L984.34895911026,267.1085992890166L985.7275991090139,265.3563763731071L987.1062391077678,269.0518601930297L988.4848791065217,261.12079989845927L989.8635191052756,266.2028981477663L991.2421591040293,266.0180867268623L992.6207991027832,270.2986844118343L993.9994391015371,266.60931924633496L995.378079100291,262.590064723307L996.7567190990449,274.65285702777226L998.1353590977988,267.54632588402586L999.5139990965525,270.3125296210495L1000.8926390953064,264.3125792518669L1002.2712790940603,272.02774924592313L1003.6499190928142,260.6172033447207L1005.0285590915681,266.31246198966977L1006.4071990903218,273.67128241341817L1007.7858390890757,264.5622030862912L1009.1644790878296,268.5996085383137L1010.5431190865835,264.14258425516596L1011.9217590853374,265.66015083874106L1013.3003990840913,259.2379809405213L1014.6790390828451,265.3271320106962L1016.057679081599,262.90827791842656L1017.4363190803529,256.3944684904674L1018.8149590791068,251.70814034869593L1020.1935990778607,258.2176224743205L1021.5722390766146,257.7426443888896L1022.9508790753682,260.01239539797393L1024.3295190741221,264.8261361548694L1025.708159072876,265.0811880019479L1027.08679907163,263.43399659133206L1028.4654390703838,258.3043627640102L1029.8440790691377,260.95464659659905L1031.2227190678914,262.66984463891737L1032.6013590666453,258.33374741303044L1033.9799990653992,269.63145971520373L1035.358639064153,263.0297121657366L1036.737279062907,269.1446220156439L1038.1159190616606,267.6555551963223L1039.4945590604145,264.7167125995753L1040.8731990591684,268.2183526992072L1042.2518390579223,265.72814667916595L1043.6304790566762,269.6265496838765L1045.0091190554301,267.3709460397813L1046.387759054184,271.5976197103741L1047.766399052938,270.5725886209541L1049.1450390516918,266.16784807798376L1050.5236790504457,258.43051279965L1051.9023190491996,271.6148533807691L1053.2809590479535,269.45255112317017L1054.6595990467072,268.4344588252742L1056.038239045461,267.68488588895445L1057.416879044215,260.6781308982898L1058.7955190429689,264.8234275441812L1060.1741590417228,273.3129148741912L1061.5527990404767,261.81893081425767L1062.9314390392303,266.0626115384149L1064.3100790379842,248.92048355171914L1065.6887190367381,260.36241048830567L1067.067359035492,261.1455119242604L1068.445999034246,258.4493112053031L1069.8246390329996,260.7702344529678L1071.2032790317535,264.80652840339314L1072.5819190305074,254.22811950375262L1073.9605590292613,258.8816853266017L1075.3391990280152,252.1761472687698L1076.717839026769,259.0105655554851L1078.0964790255227,255.13491056404473L1079.4751190242766,257.14348028034976L1080.8537590230305,254.36924783276012L1082.2323990217844,251.23879531019435L1083.6110390205383,249.30786883652655L1084.9896790192922,255.36151660325783L1086.3683190180461,251.44145550431895L1087.7469590168,254.5220415328991L1089.125599015554,256.23624677767435L1090.5042390143078,243.05050333046174L1091.8828790130617,246.3858174677911L1093.2615190118156,254.88790901008753L1094.6401590105693,247.98915312606815L1096.0187990093232,249.1120718949826L1097.397439008077,246.79432128294474L1098.776079006831,256.7379440665478L1100.1547190055849,246.79267021746543L1101.5333590043388,241.51011319467293L1102.9119990030924,243.2701813694284L1104.2906390018463,253.16848078693334L1105.6692790006002,262.39683610584194L1107.0479189993541,257.0623514550341L1108.426558998108,258.9254331661641L1109.8051989968617,259.675394588479L1111.1838389956156,252.4980618721207L1112.5624789943695,259.94261899673813L1113.9411189931234,247.78449654557977L1115.3197589918773,253.32970247491102L1116.6983989906312,251.32468308895037L1118.0770389893848,252.7968831413168L1119.4556789881387,255.9191882492625L1120.8343189868926,253.90421930531556L1122.2129589856465,259.53773025959464L1123.5915989844004,251.38610704129098L1124.9702389831543,247.28276688287335L1126.3488789819082,252.9591515832258L1127.7275189806621,254.14183244772389L1129.106158979416,263.2048006454848L1130.48479897817,262.41929275461575L1131.8634389769238,259.63092373331455L1133.2420789756777,253.61789433562936L1134.6207189744314,260.1880666067148L1135.9993589731853,263.3865905086489L1137.3779989719392,256.9340647464211L1138.756638970693,261.6494861727165L1140.135278969447,257.43111099463067L1141.5139189682006,251.25496064410274L1142.8925589669545,256.5234566321272L1144.2711989657084,250.74863389712058L1145.6498389644623,242.79104864210518L1147.0284789632162,257.6292388521454L1148.4071189619701,258.111166520378L1149.7857589607238,259.0601946413625L1151.1643989594777,257.68704772647584L1152.5430389582316,255.70551016066509L1153.9216789569855,262.0296089276705L1155.3003189557394,258.8125024456362L1156.6789589544933,252.763257520183L1158.057598953247,252.60055742716833L1159.4362389520008,256.16665382815836L1160.8148789507547,261.5983894730797L1162.1935189495086,249.24398447288345L1163.5721589482625,259.39496165638553L1164.9507989470164,250.83041019909487L1166.3294389457703,258.8527539112424L1167.7080789445242,257.83070121445166L1169.0867189432781,262.4413177522839L1170.465358942032,257.61034332499355L1171.843998940786,256.3302280146621L1173.2226389395396,253.5696896984007L1174.6012789382935,245.83925004648046L1175.9799189370474,254.21062684269424L1177.3585589358013,267.66696157679036L1178.7371989345552,258.1294469447043L1180.115838933309,260.5986855122863L1181.4944789320627,258.0073760120133L1182.8731189308166,252.01591837833521L1184.2517589295705,259.0708995887838L1185.6303989283244,252.50134242052397L1187.0090389270783,251.94867792734536L1188.3876789258322,250.01152488647782L1189.766318924586,243.71467409551946L1191.1449589233398,246.9926865485676L1192.5235989220937,244.7562374222877L1193.9022389208476,248.7309239686525L1195.2808789196015,256.6495742939341L1196.6595189183554,252.47568076229032L1198.038158917109,261.4626136177828L1199.416798915863,255.20571213665664L1200.7954389146169,260.39382389752274L1202.1740789133707,253.95507859684426L1203.5527189121246,267.5904190444727L1204.9313589108785,257.45968629782783L1206.3099989096324,257.6715730343366L1207.6886389083863,246.61925438575182L1209.0672789071402,254.93716040124752L1210.4459189058941,260.0109169929369L1211.824558904648,260.30870229947936L1213.2031989034017,258.8511999672619L1214.5818389021556,254.23619137942916L1215.9604789009095,254.9787931503919L1217.3391188996634,263.75942915119435L1218.7177588984173,260.17711345990773L1220.0963988971712,251.20253661731584L1221.4750388959249,267.2561915933319L1222.8536788946788,253.13006383852635L1224.2323188934326,258.3825239879742L1225.6109588921865,258.09736447627336L1226.9895988909404,260.11356362587156L1228.3682388896943,258.76801000791653L1229.746878888448,264.8451827599083L1231.125518887202,264.77710058926226L1232.5041588859558,264.6568641737705L1233.8827988847097,266.0092594617508L1235.2614388834636,268.8904226794992L1236.6400788822175,265.68030894537713L1238.0187188809712,261.45066767343263L1239.397358879725,268.68822651031326L1240.7759988784792,264.7651222710792L1242.154638877233,267.2139545326395L1243.533278875987,261.7312085183025L1244.9119188747406,257.7859821599015L1246.2905588734945,256.9368488960528L1247.6691988722484,261.0018368537293L1249.0478388710023,256.44526303433025L1250.4264788697562,263.8714210305673L1251.8051188685101,264.79772272083693L1253.1837588672638,259.2865740637451L1254.5623988660177,268.1672775821256L1255.9410388647716,267.10003101456846L1257.3196788635255,254.80655356794136L1258.6983188622794,260.03192761050667L1260.0769588610333,261.0532896655283L1261.455598859787,257.75029540473804L1262.8342388585409,261.2156876027691L1264.2128788572948,257.98084026029056L1265.5915188560487,256.5726648581766L1266.9701588548025,265.0349150034172L1268.3487988535564,253.58543417248097L1269.7274388523101,261.1163646833483L1271.106078851064,260.81636716488913L1272.484718849818,258.844012976352L1273.8633588485718,259.1922043407622L1275.2419988473257,262.4627492296818L1276.6206388460796,263.44565117118583L1277.9992788448335,255.65667962933315L1279.3779188435874,255.5438568215817L1280.7565588423413,264.08957749938634L1282.1351988410952,254.40377992121586L1283.513838839849,255.82029698094746L1284.8924788386028,245.45083959029702L1286.2711188373567,250.9181217037724L1287.6497588361105,249.66959246310026L1289.0283988348644,252.51874875136122L1290.4070388336183,252.23901725231454L1291.7856788323722,259.23320040452575L1293.164318831126,257.10845179312247L1294.5429588298798,255.87233252173917L1295.9215988286337,256.94520134494803L1297.3002388273876,248.23538849931282L1298.6788788261415,247.14730397462807L1300.0575188248954,253.41601111349505L1301.436158823649,242.0076126765435L1302.814798822403,245.94407651749887L1304.1934388211569,249.35161667608887L1305.5720788199108,250.3715974475723L1306.9507188186647,251.9446204069518L1308.3293588174186,258.3225244842823L1309.7079988161722,244.94300206444498L1311.0866388149261,258.10196156054906L1312.46527881368,254.31457922022364L1313.843918812434,248.25116534722602L1315.2225588111878,258.2296655401694L1316.6011988099417,260.2916089156938L1317.9798388086956,252.5845215885917L1319.3584788074495,245.23644927737513L1320.7371188062034,251.4367181334339L1322.1157588049573,253.71819926131562L1323.4943988037112,251.7931324514076L1324.8730388024649,243.5015355708041L1326.2516788012188,256.80676004407354L1327.6303187999727,243.14450615000482L1329.0089587987266,246.85278842521134L1330.3875987974805,253.31263067368073L1331.7662387962343,252.34223582296423L1333.144878794988,238.36657085232693L1334.523518793742,246.69836524214838L1335.9021587924958,249.6933980215794L1337.2807987912497,237.7981295112351L1338.6594387900036,251.4767861473202L1340.0380787887575,249.42597937032275L1341.4167187875112,249.80183957060805L1342.795358786265,252.2026506466596L1344.173998785019,253.54632658230486L1345.5526387837729,252.01642556838445L1346.9312787825268,253.63782582543493L1348.3099187812804,248.9849398530773L1349.6885587800343,253.6308330775226L1351.0671987787882,244.54402694744962L1352.4458387775421,247.51058154518233L1353.824478776296,251.8365889264736L1355.20311877505,241.9393686367329L1356.5817587738038,248.19957224881762L1357.9603987725577,243.1821245438663L1359.3390387713116,242.85268841999866L1360.7176787700655,245.1853417864607L1362.0963187688194,239.35727488756646L1363.4749587675733,248.1142887816096L1364.853598766327,239.5119031049046L1366.2322387650809,247.785877829118L1367.6108787638348,251.2502232732177L1368.9895187625887,248.58406547121686L1370.3681587613426,242.89869163658824L1371.7467987600965,243.7075302697202L1373.1254387588501,243.47054302141512L1374.504078757604,245.25717932172623L1375.882718756358,246.22193033423576L1377.2613587551118,249.05951837286398L1378.6399987538657,248.5589433768653L1380.0186387526194,245.9507239445266L1381.3972787513733,255.9420765491421L1382.7759187501272,241.04391920924294L1384.154558748881,248.10147953504807L1385.533198747635,244.85650997414103L1386.9118387463889,253.97865753849294L1388.2904787451425,252.73005275887732L1389.6691187438964,244.61294004647408L1391.0477587426503,248.87876447235357L1392.4263987414042,247.15849452954328L1393.8050387401581,250.99887283437056L1395.183678738912,245.80567838173488L1396.562318737666,243.52993821355898L1397.9409587364198,251.07178949740035L1399.3195987351737,246.3569076349871L1400.6982387339276,255.20984519599367L1402.0768787326815,246.10657157623837L1403.4555187314354,251.2593311115479L1404.834158730189,244.2309827743208L1406.212798728943,253.33705133498555L1407.5914387276969,259.22368249764514L1408.9700787264508,249.430619619709L1410.3487187252047,245.68072617791339L1411.7273587239586,251.31960039718075L1413.1059987227122,245.9881804692234L1414.4846387214661,248.7150068341299L1415.86327872022,252.30201673119097L1417.241918718974,252.31914248880943L1418.6205587177278,256.44121630521437L1419.9991987164815,242.41165969403082L1421.3778387152354,258.07278194580397L1422.7564787139893,242.48338931651995L1424.1351187127432,244.0625848867109L1425.513758711497,247.67968086583898L1426.892398710251,246.91995333725774L1428.2710387090046,250.5648800214256L1429.6496787077585,241.31063642745286L1431.0283187065124,239.72958475750738L1432.4069587052663,241.75598166447764L1433.7855987040202,238.06905532772555L1435.1642387027741,234.72080244850295L1436.542878701528,247.95983322471372L1437.921518700282,244.48099509474028L1439.3001586990358,248.38525776321066L1440.6787986977897,247.8673411840406L1442.0574386965436,253.32075650574544L1443.4360786952975,248.24848911037066L1444.8147186940512,249.09913315308933L1446.193358692805,242.07019129559185L1447.571998691559,241.78765406435815L1448.9506386903129,243.35522742852828L1450.3292786890668,249.3700589695798L1451.7079186878204,251.04786523486712L1453.0865586865743,246.70256304915125L1454.4651986853282,250.90306787146122L1455.8438386840821,244.266043635381L1457.222478682836,249.2293730829556L1458.60111868159,251.28660067015025L1459.9797586803436,251.03148407540596L1461.3583986790975,253.97016480298836L1462.7370386778514,255.60653256212885L1464.1156786766053,258.4101172849058L1465.4943186753592,254.46619667109957L1466.872958674113,255.4951665768591L1468.2515986728667,253.49044934667245L1469.6302386716206,253.38575237098573L1471.0088786703745,261.1984215585412L1472.3875186691284,253.57284075147226L1473.7661586678823,261.9256241763082L1475.1447986666362,264.2843061044438L1476.5234386653901,264.0508260213725L1477.902078664144,258.6765647211747L1479.280718662898,261.6685004039224L1480.6593586616518,255.28520068777067L1482.0379986604057,257.957984334244L1483.4166386591594,255.02492586231324L1484.7952786579133,254.4889554756474L1486.1739186566672,251.23128458095528L1487.552558655421,255.61878066225296L1488.931198654175,255.28634456320071L1490.3098386529289,259.2245242173013L1491.6884786516825,250.85958981383996L1493.0671186504364,257.26475265849524L1494.4457586491903,258.5564685922923L1495.8243986479442,255.35929360006344L1497.2030386466981,258.73257145213887L1498.581678645452,253.76999739399918L1499.9603186442057,261.01842304746566L1501.3389586429596,259.8016633281729L1502.7175986417135,258.970281716046L1504.0962386404674,261.95089734854673L1505.4748786392213,265.4201851978067L1506.8535186379752,266.7958248978288L1508.2321586367289,263.3275082635567L1509.6107986354828,267.65369909656783L1510.9894386342366,270.6896416095413L1512.3680786329905,265.56384947706016L1513.7467186317444,262.8468323835306L1515.1253586304983,259.8529758533626L1516.5039986292522,261.40274360942266" fill="none"></path></g></g></g></g></g><g><g><span fill="rgb(0, 0, 0)" stroke="none" stroke-width="1px">Alt + Scroll to Zoom</span></g></g></g><g transform="translate(51, 376)" clip-path="url(#clip_1)"><clipPath id="clip_1"><rect width="1654" height="23"></rect></clipPath><g><g><line x1="0" y1="0" x2="0" y2="5" style="visibility: inherit;" fill="rgb(0, 0, 0)" stroke="rgb(204, 204, 204)" stroke-width="1px"></line><line x1="137.86399987538655" y1="0" x2="137.86399987538655" y2="5" style="visibility: inherit;" fill="rgb(0, 0, 0)" stroke="rgb(204, 204, 204)" stroke-width="1px"></line><line x1="275.7279997507731" y1="0" x2="275.7279997507731" y2="5" style="visibility: inherit;" fill="rgb(0, 0, 0)" stroke="rgb(204, 204, 204)" stroke-width="1px"></line><line x1="413.5919996261597" y1="0" x2="413.5919996261597" y2="5" style="visibility: inherit;" fill="rgb(0, 0, 0)" stroke="rgb(204, 204, 204)" stroke-width="1px"></line><line x1="551.4559995015462" y1="0" x2="551.4559995015462" y2="5" style="visibility: inherit;" fill="rgb(0, 0, 0)" stroke="rgb(204, 204, 204)" stroke-width="1px"></line><line x1="689.3199993769329" y1="0" x2="689.3199993769329" y2="5" style="visibility: inherit;" fill="rgb(0, 0, 0)" stroke="rgb(204, 204, 204)" stroke-width="1px"></line><line x1="827.1839992523194" y1="0" x2="827.1839992523194" y2="5" style="visibility: inherit;" fill="rgb(0, 0, 0)" stroke="rgb(204, 204, 204)" stroke-width="1px"></line><line x1="965.047999127706" y1="0" x2="965.047999127706" y2="5" style="visibility: inherit;" fill="rgb(0, 0, 0)" stroke="rgb(204, 204, 204)" stroke-width="1px"></line><line x1="1102.9119990030924" y1="0" x2="1102.9119990030924" y2="5" style="visibility: inherit;" fill="rgb(0, 0, 0)" stroke="rgb(204, 204, 204)" stroke-width="1px"></line><line x1="1240.7759988784792" y1="0" x2="1240.7759988784792" y2="5" style="visibility: inherit;" fill="rgb(0, 0, 0)" stroke="rgb(204, 204, 204)" stroke-width="1px"></line><line x1="1378.6399987538657" y1="0" x2="1378.6399987538657" y2="5" style="visibility: inherit;" fill="rgb(0, 0, 0)" stroke="rgb(204, 204, 204)" stroke-width="1px"></line><line x1="1516.5039986292522" y1="0" x2="1516.5039986292522" y2="5" style="visibility: inherit;" fill="rgb(0, 0, 0)" stroke="rgb(204, 204, 204)" stroke-width="1px"></line><line x1="1654.3679985046388" y1="0" x2="1654.3679985046388" y2="5" style="visibility: inherit;" fill="rgb(0, 0, 0)" stroke="rgb(204, 204, 204)" stroke-width="1px"></line></g><g transform="translate(0, 8)"><text style="text-anchor: middle; visibility: hidden; font-family: Roboto, sans-serif; font-size: 12px; font-weight: 200;" x="0" y="0" dx="0em" dy="0.95em" fill="rgb(255, 255, 255)" stroke="none" stroke-width="1px">-100</text><text style="text-anchor: middle; visibility: inherit; font-family: Roboto, sans-serif; font-size: 12px; font-weight: 200;" x="137.86399987538655" y="0" dx="0em" dy="0.95em" fill="rgb(255, 255, 255)" stroke="none" stroke-width="1px">0</text><text style="text-anchor: middle; visibility: inherit; font-family: Roboto, sans-serif; font-size: 12px; font-weight: 200;" x="275.7279997507731" y="0" dx="0em" dy="0.95em" fill="rgb(255, 255, 255)" stroke="none" stroke-width="1px">100</text><text style="text-anchor: middle; visibility: inherit; font-family: Roboto, sans-serif; font-size: 12px; font-weight: 200;" x="413.5919996261597" y="0" dx="0em" dy="0.95em" fill="rgb(255, 255, 255)" stroke="none" stroke-width="1px">200</text><text style="text-anchor: middle; visibility: inherit; font-family: Roboto, sans-serif; font-size: 12px; font-weight: 200;" x="551.4559995015462" y="0" dx="0em" dy="0.95em" fill="rgb(255, 255, 255)" stroke="none" stroke-width="1px">300</text><text style="text-anchor: middle; visibility: inherit; font-family: Roboto, sans-serif; font-size: 12px; font-weight: 200;" x="689.3199993769329" y="0" dx="0em" dy="0.95em" fill="rgb(255, 255, 255)" stroke="none" stroke-width="1px">400</text><text style="text-anchor: middle; visibility: inherit; font-family: Roboto, sans-serif; font-size: 12px; font-weight: 200;" x="827.1839992523194" y="0" dx="0em" dy="0.95em" fill="rgb(255, 255, 255)" stroke="none" stroke-width="1px">500</text><text style="text-anchor: middle; visibility: inherit; font-family: Roboto, sans-serif; font-size: 12px; font-weight: 200;" x="965.047999127706" y="0" dx="0em" dy="0.95em" fill="rgb(255, 255, 255)" stroke="none" stroke-width="1px">600</text><text style="text-anchor: middle; visibility: inherit; font-family: Roboto, sans-serif; font-size: 12px; font-weight: 200;" x="1102.9119990030924" y="0" dx="0em" dy="0.95em" fill="rgb(255, 255, 255)" stroke="none" stroke-width="1px">700</text><text style="text-anchor: middle; visibility: inherit; font-family: Roboto, sans-serif; font-size: 12px; font-weight: 200;" x="1240.7759988784792" y="0" dx="0em" dy="0.95em" fill="rgb(255, 255, 255)" stroke="none" stroke-width="1px">800</text><text style="text-anchor: middle; visibility: inherit; font-family: Roboto, sans-serif; font-size: 12px; font-weight: 200;" x="1378.6399987538657" y="0" dx="0em" dy="0.95em" fill="rgb(255, 255, 255)" stroke="none" stroke-width="1px">900</text><text style="text-anchor: middle; visibility: inherit; font-family: Roboto, sans-serif; font-size: 12px; font-weight: 200;" x="1516.5039986292522" y="0" dx="0em" dy="0.95em" fill="rgb(255, 255, 255)" stroke="none" stroke-width="1px">1k</text><text style="text-anchor: middle; visibility: hidden; font-family: Roboto, sans-serif; font-size: 12px; font-weight: 200;" x="1654.3679985046388" y="0" dx="0em" dy="0.95em" fill="rgb(255, 255, 255)" stroke="none" stroke-width="1px">1.1k</text></g><line x1="0" y1="0" x2="1654.3679985046388" y2="0" fill="rgb(0, 0, 0)" stroke="rgb(204, 204, 204)" stroke-width="1px"></line></g></g></g></g></svg>