<svg viewBox="0 0 1705.9000244140625 400" xmlns="http://www.w3.org/2000/svg"><g><g><g><g><g><line x1="69.97600173950195" y1="377.6019992828369" x2="64.97600173950195" y2="377.6019992828369" style="visibility: inherit;" fill="rgb(0, 0, 0)" stroke="rgb(204, 204, 204)" stroke-width="1px"></line><line x1="69.97600173950195" y1="348.5556916456956" x2="64.97600173950195" y2="348.5556916456956" style="visibility: inherit;" fill="rgb(0, 0, 0)" stroke="rgb(204, 204, 204)" stroke-width="1px"></line><line x1="69.97600173950195" y1="319.5093840085544" x2="64.97600173950195" y2="319.5093840085544" style="visibility: inherit;" fill="rgb(0, 0, 0)" stroke="rgb(204, 204, 204)" stroke-width="1px"></line><line x1="69.97600173950195" y1="290.463076371413" x2="64.97600173950195" y2="290.463076371413" style="visibility: inherit;" fill="rgb(0, 0, 0)" stroke="rgb(204, 204, 204)" stroke-width="1px"></line><line x1="69.97600173950195" y1="261.4167687342717" x2="64.97600173950195" y2="261.4167687342717" style="visibility: inherit;" fill="rgb(0, 0, 0)" stroke="rgb(204, 204, 204)" stroke-width="1px"></line><line x1="69.97600173950195" y1="232.37046109713043" x2="64.97600173950195" y2="232.37046109713043" style="visibility: inherit;" fill="rgb(0, 0, 0)" stroke="rgb(204, 204, 204)" stroke-width="1px"></line><line x1="69.97600173950195" y1="203.32415345998913" x2="64.97600173950195" y2="203.32415345998913" style="visibility: inherit;" fill="rgb(0, 0, 0)" stroke="rgb(204, 204, 204)" stroke-width="1px"></line><line x1="69.97600173950195" y1="174.2778458228478" x2="64.97600173950195" y2="174.2778458228478" style="visibility: inherit;" fill="rgb(0, 0, 0)" stroke="rgb(204, 204, 204)" stroke-width="1px"></line><line x1="69.97600173950195" y1="145.23153818570654" x2="64.97600173950195" y2="145.23153818570654" style="visibility: inherit;" fill="rgb(0, 0, 0)" stroke="rgb(204, 204, 204)" stroke-width="1px"></line><line x1="69.97600173950195" y1="116.18523054856522" x2="64.97600173950195" y2="116.18523054856522" style="visibility: inherit;" fill="rgb(0, 0, 0)" stroke="rgb(204, 204, 204)" stroke-width="1px"></line><line x1="69.97600173950195" y1="87.13892291142393" x2="64.97600173950195" y2="87.13892291142393" style="visibility: inherit;" fill="rgb(0, 0, 0)" stroke="rgb(204, 204, 204)" stroke-width="1px"></line><line x1="69.97600173950195" y1="58.09261527428261" x2="64.97600173950195" y2="58.09261527428261" style="visibility: inherit;" fill="rgb(0, 0, 0)" stroke="rgb(204, 204, 204)" stroke-width="1px"></line><line x1="69.97600173950195" y1="29.046307637141325" x2="64.97600173950195" y2="29.046307637141325" style="visibility: inherit;" fill="rgb(0, 0, 0)" stroke="rgb(204, 204, 204)" stroke-width="1px"></line><line x1="69.97600173950195" y1="0" x2="64.97600173950195" y2="0" style="visibility: inherit;" fill="rgb(0, 0, 0)" stroke="rgb(204, 204, 204)" stroke-width="1px"></line></g><g transform="translate(59.97600173950195, 0)"><text style="text-anchor: end; visibility: hidden; font-family: Roboto, sans-serif; font-size: 12px; font-weight: 200;" x="0" y="377.6019992828369" dx="0em" dy="0.3em" fill="rgb(255, 255, 255)" stroke="none" stroke-width="1px">-0.06</text><text style="text-anchor: end; visibility: inherit; font-family: Roboto, sans-serif; font-size: 12px; font-weight: 200;" x="0" y="348.5556916456956" dx="0em" dy="0.3em" fill="rgb(255, 255, 255)" stroke="none" stroke-width="1px">-0.055</text><text style="text-anchor: end; visibility: inherit; font-family: Roboto, sans-serif; font-size: 12px; font-weight: 200;" x="0" y="319.5093840085544" dx="0em" dy="0.3em" fill="rgb(255, 255, 255)" stroke="none" stroke-width="1px">-0.05</text><text style="text-anchor: end; visibility: inherit; font-family: Roboto, sans-serif; font-size: 12px; font-weight: 200;" x="0" y="290.463076371413" dx="0em" dy="0.3em" fill="rgb(255, 255, 255)" stroke="none" stroke-width="1px">-0.045</text><text style="text-anchor: end; visibility: inherit; font-family: Roboto, sans-serif; font-size: 12px; font-weight: 200;" x="0" y="261.4167687342717" dx="0em" dy="0.3em" fill="rgb(255, 255, 255)" stroke="none" stroke-width="1px">-0.04</text><text style="text-anchor: end; visibility: inherit; font-family: Roboto, sans-serif; font-size: 12px; font-weight: 200;" x="0" y="232.37046109713043" dx="0em" dy="0.3em" fill="rgb(255, 255, 255)" stroke="none" stroke-width="1px">-0.035</text><text style="text-anchor: end; visibility: inherit; font-family: Roboto, sans-serif; font-size: 12px; font-weight: 200;" x="0" y="203.32415345998913" dx="0em" dy="0.3em" fill="rgb(255, 255, 255)" stroke="none" stroke-width="1px">-0.03</text><text style="text-anchor: end; visibility: inherit; font-family: Roboto, sans-serif; font-size: 12px; font-weight: 200;" x="0" y="174.2778458228478" dx="0em" dy="0.3em" fill="rgb(255, 255, 255)" stroke="none" stroke-width="1px">-0.025</text><text style="text-anchor: end; visibility: inherit; font-family: Roboto, sans-serif; font-size: 12px; font-weight: 200;" x="0" y="145.23153818570654" dx="0em" dy="0.3em" fill="rgb(255, 255, 255)" stroke="none" stroke-width="1px">-0.02</text><text style="text-anchor: end; visibility: inherit; font-family: Roboto, sans-serif; font-size: 12px; font-weight: 200;" x="0" y="116.18523054856522" dx="0em" dy="0.3em" fill="rgb(255, 255, 255)" stroke="none" stroke-width="1px">-0.015</text><text style="text-anchor: end; visibility: inherit; font-family: Roboto, sans-serif; font-size: 12px; font-weight: 200;" x="0" y="87.13892291142393" dx="0em" dy="0.3em" fill="rgb(255, 255, 255)" stroke="none" stroke-width="1px">-0.01</text><text style="text-anchor: end; visibility: inherit; font-family: Roboto, sans-serif; font-size: 12px; font-weight: 200;" x="0" y="58.09261527428261" dx="0em" dy="0.3em" fill="rgb(255, 255, 255)" stroke="none" stroke-width="1px">-5e-3</text><text style="text-anchor: end; visibility: inherit; font-family: Roboto, sans-serif; font-size: 12px; font-weight: 200;" x="0" y="29.046307637141325" dx="0em" dy="0.3em" fill="rgb(255, 255, 255)" stroke="none" stroke-width="1px">0</text><text style="text-anchor: end; visibility: hidden; font-family: Roboto, sans-serif; font-size: 12px; font-weight: 200;" x="0" y="0" dx="0em" dy="0.3em" fill="rgb(255, 255, 255)" stroke="none" stroke-width="1px">5e-3</text></g><line x1="69.97600173950195" y1="0" x2="69.97600173950195" y2="377.6019992828369" fill="rgb(0, 0, 0)" stroke="rgb(204, 204, 204)" stroke-width="1px"></line></g></g><g transform="translate(69, 0)" clip-path="url(#clip_0)"><clipPath id="clip_0"><rect width="1635" height="377"></rect></clipPath><g><g><g><line x1="0" y1="0" x2="0" y2="377.6019992828369" fill="rgb(0, 0, 0)" stroke="rgb(189, 189, 189)" stroke-width="1px" opacity="0.25"></line><line x1="136.3269998550415" y1="0" x2="136.3269998550415" y2="377.6019992828369" fill="rgb(0, 0, 0)" stroke="rgb(189, 189, 189)" stroke-width="1px" opacity="0.25"></line><line x1="272.653999710083" y1="0" x2="272.653999710083" y2="377.6019992828369" fill="rgb(0, 0, 0)" stroke="rgb(189, 189, 189)" stroke-width="1px" opacity="0.25"></line><line x1="408.98099956512453" y1="0" x2="408.98099956512453" y2="377.6019992828369" fill="rgb(0, 0, 0)" stroke="rgb(189, 189, 189)" stroke-width="1px" opacity="0.25"></line><line x1="545.307999420166" y1="0" x2="545.307999420166" y2="377.6019992828369" fill="rgb(0, 0, 0)" stroke="rgb(189, 189, 189)" stroke-width="1px" opacity="0.25"></line><line x1="681.6349992752076" y1="0" x2="681.6349992752076" y2="377.6019992828369" fill="rgb(0, 0, 0)" stroke="rgb(189, 189, 189)" stroke-width="1px" opacity="0.25"></line><line x1="817.9619991302491" y1="0" x2="817.9619991302491" y2="377.6019992828369" fill="rgb(0, 0, 0)" stroke="rgb(189, 189, 189)" stroke-width="1px" opacity="0.25"></line><line x1="954.2889989852906" y1="0" x2="954.2889989852906" y2="377.6019992828369" fill="rgb(0, 0, 0)" stroke="rgb(189, 189, 189)" stroke-width="1px" opacity="0.25"></line><line x1="1090.615998840332" y1="0" x2="1090.615998840332" y2="377.6019992828369" fill="rgb(0, 0, 0)" stroke="rgb(189, 189, 189)" stroke-width="1px" opacity="0.25"></line><line x1="1226.9429986953737" y1="0" x2="1226.9429986953737" y2="377.6019992828369" fill="rgb(0, 0, 0)" stroke="rgb(189, 189, 189)" stroke-width="1px" opacity="0.25"></line><line x1="1363.2699985504153" y1="0" x2="1363.2699985504153" y2="377.6019992828369" fill="rgb(0, 0, 0)" stroke="rgb(189, 189, 189)" stroke-width="1px" opacity="0.25"></line><line x1="1499.5969984054566" y1="0" x2="1499.5969984054566" y2="377.6019992828369" fill="rgb(0, 0, 0)" stroke="rgb(189, 189, 189)" stroke-width="1px" opacity="0.25"></line><line x1="1635.9239982604981" y1="0" x2="1635.9239982604981" y2="377.6019992828369" fill="rgb(0, 0, 0)" stroke="rgb(189, 189, 189)" stroke-width="1px" opacity="0.25"></line></g><g><line x1="0" y1="377.6019992828369" x2="1635.9239982604981" y2="377.6019992828369" fill="rgb(0, 0, 0)" stroke="rgb(189, 189, 189)" stroke-width="1px" opacity="0.25"></line><line x1="0" y1="348.5556916456956" x2="1635.9239982604981" y2="348.5556916456956" fill="rgb(0, 0, 0)" stroke="rgb(189, 189, 189)" stroke-width="1px" opacity="0.25"></line><line x1="0" y1="319.5093840085544" x2="1635.9239982604981" y2="319.5093840085544" fill="rgb(0, 0, 0)" stroke="rgb(189, 189, 189)" stroke-width="1px" opacity="0.25"></line><line x1="0" y1="290.463076371413" x2="1635.9239982604981" y2="290.463076371413" fill="rgb(0, 0, 0)" stroke="rgb(189, 189, 189)" stroke-width="1px" opacity="0.25"></line><line x1="0" y1="261.4167687342717" x2="1635.9239982604981" y2="261.4167687342717" fill="rgb(0, 0, 0)" stroke="rgb(189, 189, 189)" stroke-width="1px" opacity="0.25"></line><line x1="0" y1="232.37046109713043" x2="1635.9239982604981" y2="232.37046109713043" fill="rgb(0, 0, 0)" stroke="rgb(189, 189, 189)" stroke-width="1px" opacity="0.25"></line><line x1="0" y1="203.32415345998913" x2="1635.9239982604981" y2="203.32415345998913" fill="rgb(0, 0, 0)" stroke="rgb(189, 189, 189)" stroke-width="1px" opacity="0.25"></line><line x1="0" y1="174.2778458228478" x2="1635.9239982604981" y2="174.2778458228478" fill="rgb(0, 0, 0)" stroke="rgb(189, 189, 189)" stroke-width="1px" opacity="0.25"></line><line x1="0" y1="145.23153818570654" x2="1635.9239982604981" y2="145.23153818570654" fill="rgb(0, 0, 0)" stroke="rgb(189, 189, 189)" stroke-width="1px" opacity="0.25"></line><line x1="0" y1="116.18523054856522" x2="1635.9239982604981" y2="116.18523054856522" fill="rgb(0, 0, 0)" stroke="rgb(189, 189, 189)" stroke-width="1px" opacity="0.25"></line><line x1="0" y1="87.13892291142393" x2="1635.9239982604981" y2="87.13892291142393" fill="rgb(0, 0, 0)" stroke="rgb(189, 189, 189)" stroke-width="1px" opacity="0.25"></line><line x1="0" y1="58.09261527428261" x2="1635.9239982604981" y2="58.09261527428261" fill="rgb(0, 0, 0)" stroke="rgb(189, 189, 189)" stroke-width="1px" opacity="0.25"></line><line x1="0" y1="29.046307637141325" x2="1635.9239982604981" y2="29.046307637141325" fill="rgb(0, 0, 0)" stroke="rgb(189, 189, 189)" stroke-width="1px" opacity="0.25"></line><line x1="0" y1="0" x2="1635.9239982604981" y2="0" fill="rgb(0, 0, 0)" stroke="rgb(189, 189, 189)" stroke-width="1px" opacity="0.25"></line></g></g></g><g><g><line x1="0" y1="29.046307637141325" x2="1635.9239982604981" y2="29.046307637141325" fill="rgb(0, 0, 0)" stroke="rgb(153, 153, 153)" stroke-width="1.5px"></line></g></g><g><g><line x1="136.3269998550415" y1="0" x2="136.3269998550415" y2="377.6019992828369" fill="rgb(0, 0, 0)" stroke="rgb(153, 153, 153)" stroke-width="1.5px"></line></g></g><g><g><g><g><g><path style="fill: none;" stroke="rgb(51, 187, 238)" stroke-width="2px" d="M137.69026985359193,29.036189169646967L139.05353985214236,119.37123267071696L140.41680985069274,164.4450719556443L141.78007984924318,182.82597491780177L143.1433498477936,184.19306533114627L144.506619846344,171.4781311225648L145.86988984489443,180.81199180551764L147.23315984344484,187.9923079309308L148.59642984199525,197.50814752407493L149.95969984054565,205.0469265644028L151.3229698390961,219.5751560737021L152.6862398376465,235.7969134488312L154.0495098361969,245.8050865544015L155.4127798347473,262.0508129214525L156.77604983329775,265.9370661532042L158.13931983184816,273.1387913577833L159.50258983039856,285.77843378377094L160.86585982894897,290.0370927182715L162.2291298274994,296.678150718036L163.5923998260498,295.8126114368584L164.95566982460022,301.68471370624536L166.31893982315066,305.32441030148743L167.68220982170104,301.3864032016841L169.04547982025147,301.1684696015767L170.4087498188019,295.8346608704717L171.7720198173523,302.37566226733094L173.13528981590272,308.3888402688079L174.49855981445316,310.5755915685919L175.86182981300354,311.479445295658L177.22509981155397,316.11923971256033L178.58836981010438,316.2871288427747L179.9516398086548,315.5063042124563L181.31490980720523,315.9812959598643L182.67817980575563,308.42176783993557L184.04144980430604,307.0533944915102L185.40471980285645,308.0148510968469L186.76798980140688,302.6228436444234L188.1312597999573,305.29903294316244L189.4945297985077,302.7396666114414L190.8577997970581,311.727774507089L192.2210697956085,310.78422993239997L193.58433979415895,300.2690182360421L194.94760979270936,302.8187798050079L196.31087979125977,303.96049775370807L197.6741497898102,313.1348462497799L199.0374197883606,314.9630593917401L200.40068978691102,312.9660075654775L201.76395978546145,313.81980234576736L203.12722978401183,308.6684337798219L204.49049978256227,312.85684183192103L205.85376978111267,314.40989232599736L207.2170397796631,313.21048135067423L208.58030977821352,311.91647769940926L209.94357977676393,314.5774315837318L211.30684977531436,315.2971723252259L212.67011977386477,313.1716692101892L214.03338977241518,313.4605402981668L215.39665977096556,312.1232649130489L216.75992976951602,313.67147869812425L218.12319976806643,311.24824791359964L219.4864697666168,317.15789597595364L220.84973976516727,318.21172825987117L222.21300976371765,311.5189277816409L223.57627976226806,307.9311370165709L224.93954976081852,312.9076663939739L226.3028197593689,316.0338535290613L227.6660897579193,315.19095679149495L229.02935975646977,319.5060525376668L230.39262975502015,317.7743434007709L231.75589975357056,319.4010618490454L233.11916975212097,314.3075454066903L234.4824397506714,314.83654031874596L235.8457097492218,302.7458509626896L237.20897974777222,305.25225263796955L238.57224974632265,314.5911204199945L239.93551974487306,313.17210142730363L241.29878974342347,315.4818439830705L242.6620597419739,320.9492690613008L244.0253297405243,321.55210349516443L245.38859973907472,317.23176827479534L246.75186973762516,316.00337734672706L248.11513973617556,316.8247591915128L249.47840973472597,316.260944426296L250.84167973327635,317.89844387445476L252.20494973182682,319.6743007513148L253.56821973037722,314.64481733183436L254.9314897289276,318.37628592786797L256.29475972747804,318.1216350536811L257.6580297260285,308.3390969167796L259.02129972457885,311.3162916128361L260.3845697231293,318.68568805871416L261.7478397216797,315.0709495584747L263.1111097202301,310.3673955785465L264.4743797187805,314.6651786301709L265.837649717331,316.146527816586L267.20091971588135,311.8611376046197L268.56418971443173,311.5754464025926L269.9274597129822,318.1234466835967L271.2907297115326,319.8695688104849L272.653999710083,315.9496464335779L274.0172697086335,311.8100185419357L275.38053970718386,317.36219400747876L276.74380970573424,320.9836989293518L278.10707970428473,320.56822951885425L279.4703497028351,322.77393262455536L280.8336197013855,325.1185933804073L282.1968896999359,324.0436825459283L283.56015969848636,321.88050299705367L284.92342969703674,323.27844641556067L286.2866996955872,318.90689793230473L287.6499696941376,316.74345449520894L289.013239692688,312.6599860590682L290.3765096912384,320.4110405051798L291.73977968978886,320.1377494323666L293.10304968833924,321.71377805051634L294.4663196868897,320.72586782137535L295.8295896854401,318.64696087277656L297.1928596839905,320.66464834592364L298.5561296825409,321.72847299606076L299.9193996810913,321.6836248082496L301.28266967964174,320.0148943645977L302.6459396781922,323.62098660637037L304.00920967674256,323.2589251483887L305.372479675293,320.8894637082749L306.73574967384343,320.12434578969754L308.0990196723938,323.22827983727564L309.46228967094424,326.41845685007013L310.8255596694946,323.60108139617927L312.18882966804506,327.5363775442137L313.5520996665955,328.40981028713344L314.9153696651459,324.2139966032786L316.2786396636963,325.7545682972156L317.6419096622467,320.2829714408976L319.0051796607971,321.1050259476547L320.36844965934756,319.3367374425828L321.73171965789794,319.41871325983794L323.0949896564484,312.3063543259715L324.4582596549988,317.12161471878494L325.8215296535492,321.17956810686314L327.1847996520996,324.10797558345945L328.54806965065006,323.6186736596403L329.91133964920044,321.4265805436339L331.2746096477509,325.04035573431406L332.6378796463013,321.74878344428606L334.0011496448517,321.36134222535503L335.3644196434021,322.8799264169691L336.72768964195257,317.6802120690524L338.09095964050294,321.860760418443L339.4542296390533,321.5650583216215L340.8174996376038,323.2935156848249L342.1807696361542,323.67708689266414L343.5440396347046,319.16842457858985L344.90730963325507,318.0402290419733L346.27057963180545,321.44397367850377L347.6338496303558,320.9438745703544L348.9971196289063,325.51850082044666L350.3603896274567,327.62816836818706L351.7236596260071,318.4545293095793L353.0869296245575,321.0996199792679L354.45019962310795,323.9606303825842L355.8134696216583,323.330561678312L357.17673962020876,323.31942511656973L358.5400096187592,315.18203721192396L359.9032796173096,318.99148369253595L361.26654961586,311.7868337991578L362.62981961441045,320.05023712398565L363.99308961296083,321.89317761047766L365.35635961151127,324.5934384886475L366.71962961006165,318.6160759225181L368.0828996086121,320.23322952376475L369.4461696071625,323.11378913825064L370.8094396057129,322.97692305811717L372.17270960426333,326.2645697342186L373.53597960281377,327.8821643876177L374.89924960136415,329.8605338805364L376.2625195999146,331.9821171921164L377.62578959846496,324.6883605732294L378.9890595970154,322.76316131459015L380.35232959556583,322.83740826208015L381.7155995941162,314.85233211271793L383.07886959266665,311.69016652507145L384.442139591217,316.50822228828355L385.80540958976746,316.6562259126583L387.1686795883179,320.5074261137379L388.5319495868683,320.90751520872954L389.8952195854187,321.6963371939323L391.25848958396915,325.2859264869044L392.62175958251953,326.9796750213751L393.98502958106997,324.8947509007111L395.3482995796204,324.0797018453305L396.7115695781708,324.8890569839211L398.0748395767212,325.01447417379336L399.43810957527165,322.77663666152046L400.80137957382203,321.4411276842533L402.1646495723724,322.27235543199464L403.5279195709229,325.95564448190174L404.8911895694733,322.84624911496314L406.25445956802366,321.6962079946332L407.61772956657416,315.54785214451755L408.98099956512453,321.2343802241958L410.34426956367497,316.29845210447223L411.70753956222535,318.50951947814104L413.0708095607758,321.9609607572629L414.4340795593262,320.76711417197674L415.7973495578766,324.58937835385075L417.16061955642704,320.19356758176247L418.5238895549775,320.26668289845264L419.88715955352785,314.490994896832L421.2504295520783,316.5640375993773L422.6136995506287,314.57988994483554L423.9769695491791,325.8935572065574L425.34023954772954,326.85927448366124L426.70350954627986,323.91444642991405L428.06677954483035,327.4343960208149L429.4300495433808,329.4901506316166L430.7933195419311,326.9174901767118L432.1565895404816,326.97342855805346L433.51985953903204,323.46656287296173L434.88312953758236,321.6303526832762L436.24639953613286,319.7912161545375L437.6096695346833,320.618950358702L438.9729395332336,319.1177805034359L440.3362095317841,317.36123895122006L441.69947953033454,317.37714170225195L443.06274952888486,317.50770951927296L444.4260195274353,322.8894737808114L445.7892895259858,327.0953375478726L447.1525595245361,326.87922887002696L448.51582952308655,324.467647800875L449.87909952163704,329.2848961505485L451.24236952018737,326.4397336771503L452.6056395187378,327.2536958130135L453.9689095172883,326.30632758941283L455.3321795158386,321.7355944451322L456.69544951438905,317.35483889966736L458.05871951293955,322.21686736139594L459.42198951148987,324.5721580693748L460.7852595100403,320.64638275253986L462.1485295085907,320.0669663830276L463.5117995071411,320.5968233554084L464.87506950569156,321.2863426651723L466.23833950424194,326.64126497057555L467.60160950279237,322.10084809850184L468.9648795013428,327.1014797738371L470.3281494998932,321.4472283643096L471.6914194984436,324.91205075083593L473.05468949699406,326.28699969725056L474.41795949554444,324.067270661719L475.7812294940949,322.6701114857568L477.1444994926453,323.85279108302063L478.5077694911957,322.24414310005915L479.8710394897461,324.71756557412414L481.23430948829656,329.7088415372609L482.59757948684694,326.432718669388L483.9608494853974,316.5162551417457L485.3241194839478,322.8406602060645L486.6873894824982,323.3804948984314L488.0506594810486,328.75403742977363L489.41392947959906,330.85779011310825L490.77719947814944,329.75668575097944L492.1404694766999,318.99840174491277L493.5037394752503,321.6807727292553L494.8670094738007,322.17874730933545L496.2302794723511,321.7297684992605L497.59354947090145,325.12419931098265L498.95681946945194,320.964588160242L500.3200894680024,313.1489592538828L501.6833594665527,314.66965862426014L503.0466294651032,321.6269201803147L504.40989946365363,319.9569624059755L505.77316946220395,323.1065895062997L507.13643946075445,319.59431898410946L508.4997094593049,317.07147187651833L509.8629794578552,320.5609200611969L511.22624945640564,320.3200071202605L512.5895194549561,317.35119806893533L513.9527894535065,324.5680406073348L515.316059452057,329.04505515476507L516.6793294506074,327.13645063701586L518.0425994491577,327.8796025614221L519.4058694477081,325.58855894147325L520.7691394462586,325.40747012528266L522.132409444809,329.1546095626389L523.4956794433594,325.70553948031676L524.8589494419099,327.45359391593973L526.2222194404602,318.39264284221167L527.5854894390106,315.8137474753192L528.948759437561,322.49908083290114L530.3120294361115,320.7755830728269L531.675299434662,318.55957270591296L533.0385694332123,322.13805753485303L534.4018394317627,319.2002402402259L535.7651094303131,318.9597216074179L537.1283794288635,319.7875238288312L538.491649427414,322.7491535155333L539.8549194259645,316.98604794113044L541.2181894245148,322.99571853802456L542.5814594230652,326.7890980365487L543.9447294216156,323.2518012054839L545.307999420166,325.77269529586886L546.6712694187164,330.08957448962843L548.034539417267,328.2556896529801L549.3978094158173,331.22704394570064L550.7610794143677,333.3781375615587L552.1243494129181,325.720639587688L553.4876194114685,322.0834083511356L554.8508894100189,322.367281808298L556.2141594085695,327.24662399350046L557.5774294071198,331.0251520663076L558.9406994056702,321.7923852584587L560.3039694042207,326.34432165646507L561.667239402771,323.9774867142212L563.0305094013214,321.8353665451528L564.3937793998718,316.4047599661365L565.7570493984223,323.4322091575751L567.1203193969727,325.90516953853177L568.483589395523,319.34929725207525L569.8468593940735,320.43215742207906L571.2101293926239,321.51149434079827L572.5733993911743,325.54972491913855L573.9366693897248,323.7626562694925L575.2999393882752,329.9676705951404L576.6632093868255,330.4486478002885L578.026479385376,334.1790742521121L579.3897493839264,331.8687078235635L580.7530193824769,333.37718698411913L582.1162893810273,325.02685878378537L583.4795593795777,325.80954845807497L584.842829378128,325.0276438423854L586.2060993766785,328.2589274003155L587.5693693752289,325.5077323239789L588.9326393737794,325.0108367301255L590.2959093723298,321.7999948897017L591.6591793708802,323.9171626295041L593.0224493694305,323.9754097191995L594.385719367981,322.82604841878174L595.7489893665314,319.34845829179744L597.1122593650819,319.19538833326646L598.4755293636323,327.07260132572065L599.8387993621826,324.3967433694719L601.202069360733,322.478357647131L602.5653393592835,321.54443058775956L603.9286093578338,326.92714211828127L605.2918793563844,327.802805339019L606.6551493549348,331.5057525850608L608.0184193534851,332.693582992539L609.3816893520356,325.6206656151523L610.744959350586,322.9834183047711L612.1082293491363,330.26032207144453L613.4714993476869,324.3534021791614L614.8347693462373,325.51214822740616L616.1980393447876,320.49578489853775L617.561309343338,326.88691524286963L618.9245793418885,327.9932545538002L620.2878493404388,325.29722079213474L621.6511193389892,328.02344528006824L623.0143893375398,329.04930539293395L624.3776593360901,321.4021302302586L625.7409293346406,318.772915101126L627.104199333191,321.6573310466866L628.4674693317413,324.5617292696805L629.8307393302917,328.9245704228926L631.1940093288422,325.763879458214L632.5572793273926,325.9852799596128L633.920549325943,325.2930717002809L635.2838193244934,318.742747631605L636.6470893230438,320.58630897681064L638.0103593215943,320.60644780768524L639.3736293201447,315.9586038607412L640.7368993186951,315.5226492837559L642.1001693172456,314.8715784789675L643.4634393157959,315.89880588189976L644.8267093143463,319.7327364871098L646.1899793128968,323.9278499021289L647.5532493114472,323.7164145824612L648.9165193099976,324.08045338854896L650.2797893085481,320.65552247954673L651.6430593070984,319.1295697316548L653.0063293056488,325.6415992430205L654.3695993041993,330.81044613201993L655.7328693027497,323.4285908267625L657.0961393013001,324.98521317129996L658.4594092998506,328.81788488680775L659.8226792984009,329.20286625583L661.1859492969513,327.2842014847689L662.5492192955018,329.3948227124942L663.9124892940522,324.3792440292908L665.2757592926026,319.5556210085198L666.639029291153,318.0370302051818L668.0022992897034,318.01421176654617L669.3655692882538,319.19848151748204L670.7288392868041,318.46520405950696L672.0921092853547,314.3577231724528L673.4553792839051,321.0812769978484L674.8186492824555,323.7726516342934L676.1819192810059,324.71244455463335L677.5451892795563,312.3016331383977L678.9084592781066,313.32438965098095L680.2717292766572,306.17014773943424L681.6349992752076,313.93022809392517L682.998269273758,320.51777809167754L684.3615392723084,322.3776314113269L685.7248092708588,321.3147088359665L687.0880792694091,324.16293478165386L688.4513492679596,322.4509875444756L689.8146192665101,325.0129405836865L691.1778892650605,321.4013280917774L692.5411592636109,321.85534189872953L693.9044292621613,315.8926302887209L695.2676992607117,311.00170364577485L696.6309692592621,317.3466196985977L697.9942392578126,313.13658346483106L699.357509256363,314.86077804408353L700.7207792549134,317.55449852288166L702.0840492534637,311.15319093034856L703.4473192520142,318.82664246065804L704.8105892505646,328.2652330533346L706.173859249115,321.56069221447206L707.5371292476655,318.07569923470163L708.9003992462159,314.21416880034394L710.2636692447662,319.2014103771145L711.6269392433167,320.32490909869523L712.9902092418671,321.27460450214164L714.3534792404175,327.52786453483577L715.716749238968,319.1726073264522L717.0800192375184,323.7886639124083L718.4432892360687,318.2794103702771L719.8065592346192,312.71098662589014L721.1698292331696,316.0752200155125L722.53309923172,318.696873922796L723.8963692302705,316.23665044399576L725.2596392288209,317.4953302951185L726.6229092273712,316.14661676674746L727.9861792259217,320.97104805697523L729.3494492244721,327.3187657504666L730.7127192230225,322.69605104847585L732.075989221573,313.70548958548756L733.4392592201233,313.21193769252125L734.8025292186737,315.63553226053756L736.1657992172242,317.7058135556457L737.5290692157745,321.9564447349066L738.892339214325,309.3405420638382L740.2556092128755,303.52388455670956L741.6188792114258,306.7656924692956L742.9821492099762,308.59603565074633L744.3454192085267,315.83808758937073L745.708689207077,312.7769172978673L747.0719592056275,321.90353587497435L748.435229204178,314.80239440186557L749.7984992027283,312.13092565498624L751.1617692012787,315.7627701985862L752.5250391998292,317.568895419006L753.8883091983795,320.1257033686353L755.2515791969299,319.01765906973776L756.6148491954805,317.1227388438892L757.9781191940308,309.280767422827L759.3413891925812,304.6397896396556L760.7046591911317,308.6834558226396L762.067929189682,314.3549157875637L763.4311991882324,313.4164141167448L764.794469186783,315.7545737394151L766.1577391853333,313.1904410919145L767.5210091838837,319.0344710891795L768.884279182434,321.44346456528797L770.2475491809845,319.5624286368359L771.6108191795349,319.7393159298861L772.9740891780854,322.97871975355866L774.3373591766358,317.8091553757197L775.7006291751862,319.55095646966925L777.0638991737366,325.498648626931L778.427169172287,322.7363255137042L779.7904391708374,317.4406934293913L781.1537091693879,319.81537765983245L782.5169791679383,313.7636606455706L783.8802491664887,310.15245376303164L785.2435191650391,309.7694567467512L786.6067891635895,310.2406338518184L787.9700591621399,313.7401551956275L789.3333291606904,317.1639882716585L790.6965991592408,316.37905978654624L792.0598691577912,306.5587642532671L793.4231391563416,307.0901323023431L794.786409154892,305.81924357577077L796.1496791534424,308.32723018680423L797.5129491519929,308.1978616021649L798.8762191505433,313.790066608022L800.2394891490937,312.18204428735015L801.6027591476441,314.148590081054L802.9660291461945,314.6589479309971L804.3292991447448,320.7609231849017L805.6925691432954,323.9056284579658L807.0558391418458,320.75917064220283L808.4191091403961,321.4099022459393L809.7823791389466,321.84470563868035L811.145649137497,311.07467717142066L812.5089191360473,315.84183848004784L813.8721891345979,316.38315238006794L815.2354591331483,313.7701238041871L816.5987291316986,317.9923452731222L817.9619991302491,313.0573396265914L819.3252691287995,315.865582002003L820.6885391273499,314.03077037384725L822.0518091259003,316.51209691202513L823.4150791244507,307.94062413250424L824.7783491230011,306.2462114527972L826.1416191215516,309.7915603973223L827.504889120102,307.8906785736193L828.8681591186524,309.08937985780994L830.2314291172028,310.8472736598825L831.5946991157532,318.9273880254914L832.9579691143036,320.8080692129472L834.3212391128541,319.11473567266216L835.6845091114045,316.53319486856185L837.047779109955,310.91904292117795L838.4110491085053,315.01910669249565L839.7743191070557,311.41339763615946L841.1375891056061,312.1449568836926L842.5008591041566,315.9793511719493L843.864129102707,315.0691542878371L845.2273991012574,307.0916001791787L846.5906690998078,307.1969105609167L847.9539390983582,319.0378878906139L849.3172090969086,313.73972902975083L850.6804790954591,314.293263025856L852.0437490940095,315.0686901260154L853.4070190925597,314.82953445100065L854.7702890911103,306.41397485399114L856.1335590896607,312.85720802658267L857.4968290882111,317.2758551541263L858.8600990867616,309.95066462012096L860.223369085312,314.15018269146316L861.5866390838622,309.8749767636941L862.9499090824128,299.8363987028627L864.3131790809632,300.6259144091378L865.6764490795136,311.44784149457433L867.0397190780641,305.84151474933594L868.4029890766145,305.69864560822737L869.7662590751647,313.7468243301586L871.1295290737152,310.2393131417886L872.4927990722657,311.8100251031127L873.8560690708161,312.6343000629543L875.2193390693666,315.15865243248055L876.582609067917,316.3657166372646L877.9458790664672,315.9381939490566L879.3091490650177,314.54361366730694L880.6724190635682,309.4426776293153L882.0356890621186,311.0530802566499L883.3989590606691,313.6123554751781L884.7622290592195,314.84515176314585L886.1254990577697,315.5068866418359L887.4887690563202,305.47747269316346L888.8520390548706,308.28503922013584L890.2153090534212,307.33154457996153L891.5785790519716,307.2640077101019L892.9418490505218,308.92475112778317L894.3051190490722,312.6136463318459L895.6683890476227,310.4722228953294L897.0316590461731,305.50101793319595L898.3949290447237,306.4855484453489L899.7581990432741,305.1072564646848L901.1214690418243,307.39300225427394L902.4847390403747,313.4413609759625L903.8480090389252,314.3817705300858L905.2112790374756,313.6622091933673L906.5745490360262,312.54920786835373L907.9378190345766,316.9936350980499L909.3010890331268,315.5995913069733L910.6643590316772,315.0912280932168L912.0276290302277,307.4574226583543L913.3908990287781,312.19845683252146L914.7541690273285,316.93556439266314L916.1174390258791,313.9747103817022L917.4807090244293,310.4315587420399L918.8439790229797,311.4391815873637L920.2072490215302,306.45302334308224L921.5705190200806,309.4854727004248L922.933789018631,310.16722190497524L924.2970590171814,308.48880594619817L925.6603290157318,304.2985197537547L927.0235990142822,310.1642479299437L928.3868690128327,305.29944805040594L929.7501390113831,306.30007250018775L931.1134090099335,308.7779238993595L932.4766790084839,305.43757694516984L933.8399490070343,307.47314620330303L935.2032190055847,304.4496730785986L936.5664890041352,306.2268227650093L937.9297590026856,298.30219545070605L939.293029001236,301.66243949839486L940.6562989997864,304.8015297353292L942.0195689983368,303.3405637098941L943.3828389968872,305.7919742741141L944.7461089954377,304.07587036801834L946.1093789939881,310.0289356601274L947.4726489925386,311.70109424965494L948.8359189910889,308.5996191641025L950.1991889896393,308.3998249554027L951.5624589881897,309.702925635792L952.9257289867402,305.32866103843116L954.2889989852906,302.33630600234653L955.6522689838409,298.86092236773845L957.0155389823914,305.31530402842566L958.3788089809418,311.5679094275156L959.7420789794922,306.80821943513996L961.1053489780427,315.3088080306578L962.4686189765931,315.91052137060916L963.8318889751434,314.1571276322776L965.1951589736939,307.4686965361672L966.5584289722443,312.0429555495103L967.9216989707948,314.06283421620134L969.2849689693452,314.1563536003986L970.6482389678956,307.2550231564165L972.011508966446,306.7716371968539L973.3747789649964,305.9721461424494L974.7380489635468,311.2196700906834L976.1013189620973,304.300557754089L977.4645889606477,306.55761673836304L978.8278589591981,303.3547637974742L980.1911289577484,297.91101832681215L981.5543989562989,300.6191579343733L982.9176689548493,310.55863714887016L984.2809389533998,311.8198854870885L985.6442089519502,304.5401629010365L987.0074789505006,305.2141023302398L988.370748949051,307.6783779117513L989.7340189476014,308.08044143665484L991.0972889461518,302.8662136666539L992.4605589447023,310.19655037658265L993.8238289432527,299.7318804461581L995.1870989418029,296.9179534946008L996.5503689403535,298.50570059653046L997.9136389389039,298.14439128870487L999.2769089374543,301.78995138208256L1000.6401789360048,308.0809323357266L1002.0034489345552,306.34430732884033L1003.3667189331054,305.60694499687156L1004.7299889316558,306.7360672142706L1006.0932589302064,304.95429680738243L1007.4565289287568,309.43845801182715L1008.8197989273073,307.97388172339447L1010.1830689258577,310.69249829533277L1011.5463389244079,305.63532997881043L1012.9096089229583,306.6958875651571L1014.2728789215089,305.5962787415476L1015.6361489200593,302.249111018412L1016.9994189186098,310.2685307438018L1018.3626889171602,298.33703785217057L1019.7259589157104,295.850404838458L1021.0892289142608,297.8659418290525L1022.4524989128113,300.2880620343803L1023.8157689113618,292.40524877743235L1025.1790389099122,290.1058226848231L1026.5423089084625,296.32622246924234L1027.905578907013,303.7759938603433L1029.2688489055633,304.0657145344946L1030.632118904114,307.1374228827176L1031.9953889026642,300.5525391938406L1033.3586589012148,300.6145859669028L1034.721928899765,301.2085724846749L1036.0851988983154,294.7835690375327L1037.448468896866,297.268161851075L1038.8117388954163,297.88768668893886L1040.1750088939668,293.8301001329902L1041.5382788925172,291.4316283840689L1042.9015488910675,294.5526028368349L1044.264818889618,291.3063459374679L1045.6280888881683,294.0802310482002L1046.991358886719,302.0537900848201L1048.3546288852692,292.1931101366102L1049.7178988838198,293.33990904449473L1051.08116888237,296.0910339568912L1052.4444388809204,301.9189857718638L1053.807708879471,303.3862464744019L1055.1709788780213,303.0838255376309L1056.5342488765718,297.14021686464383L1057.897518875122,294.4043027620432L1059.2607888736725,290.8833471774238L1060.624058872223,296.24146691553847L1061.9873288707734,300.43939394294944L1063.350598869324,300.26637621093295L1064.7138688678742,298.43706190424365L1066.0771388664245,297.6454710282721L1067.440408864975,301.4547787354023L1068.8036788635254,299.7567058515555L1070.166948862076,298.40604215053634L1071.5302188606263,309.40590546546747L1072.8934888591768,297.8946787898738L1074.256758857727,293.25769630064974L1075.6200288562775,298.9280691435723L1076.983298854828,297.45826467193683L1078.3465688533784,298.64627482774813L1079.709838851929,301.55618930551344L1081.0731088504792,303.57111195987414L1082.4363788490296,305.3845038665599L1083.7996488475799,298.27328242343475L1085.1629188461304,292.7477856683543L1086.526188844681,289.70684590998724L1087.8894588432313,292.75216342674355L1089.2527288417818,298.75023366986585L1090.615998840332,301.2256126189636L1091.9792688388825,296.5970665501912L1093.3425388374328,289.84516294337686L1094.7058088359834,289.2116660625118L1096.069078834534,289.3365173895788L1097.432348833084,296.28743015063435L1098.7956188316346,297.9197697118887L1100.1588888301849,296.61247921241426L1101.5221588287354,297.3490301244067L1102.885428827286,297.5098243575881L1104.2486988258363,292.7051263713293L1105.6119688243866,285.71447294842267L1106.975238822937,288.8620954939317L1108.3385088214875,287.7152417017718L1109.7017788200378,291.6665667974097L1111.0650488185884,292.6742961074242L1112.428318817139,292.56715509874124L1113.791588815689,285.23375206388494L1115.1548588142396,293.31617297296316L1116.5181288127899,289.78263526545004L1117.8813988113404,291.9964543793401L1119.2446688098908,285.6720936701844L1120.6079388084413,282.9990792995042L1121.9712088069916,287.4380004312088L1123.334478805542,277.7859257072469L1124.6977488040925,285.8313537770785L1126.0610188026428,287.2028768490815L1127.4242888011934,290.24326776045746L1128.7875587997437,291.4295807508388L1130.150828798294,293.74408012539965L1131.5140987968446,302.1994145907472L1132.877368795395,302.4223927511868L1134.2406387939454,294.19023399227643L1135.6039087924958,295.4975544289058L1136.967178791046,284.83117987420917L1138.3304487895966,278.2713748408926L1139.693718788147,285.09004438357533L1141.0569887866975,282.54102053334645L1142.4202587852478,284.38555362445027L1143.7835287837984,288.28221184549955L1145.1467987823487,285.16653278335457L1146.510068780899,288.46968899625085L1147.8733387794496,284.2862166992648L1149.236608778,289.20561293608495L1150.5998787765504,289.46271531443034L1151.9631487751008,286.2921202056327L1153.326418773651,288.7467657261373L1154.6896887722016,284.7979685936872L1156.052958770752,281.6031137091171L1157.4162287693025,283.5982519315557L1158.7794987678528,284.4113856064119L1160.1427687664032,282.06837366529146L1161.5060387649537,292.9365380484506L1162.869308763504,291.36920802985975L1164.2325787620546,283.1059521969536L1165.595848760605,280.2847627995353L1166.9591187591554,274.5140187707542L1168.3223887577058,273.10211797234325L1169.685658756256,275.61502259690235L1171.0489287548066,277.826000026251L1172.412198753357,278.98857226636403L1173.7754687519075,273.89064073014316L1175.1387387504578,278.5400219858027L1176.5020087490082,287.8134538254526L1177.8652787475587,297.80076351241314L1179.228548746109,296.32616120667956L1180.5918187446596,290.2400101138245L1181.95508874321,288.7604798836195L1183.3183587417604,289.0839150263613L1184.6816287403108,288.30944649124524L1186.044898738861,275.368743057021L1187.4081687374116,272.49487402875695L1188.771438735962,280.1298979382362L1190.1347087345125,281.7559468925539L1191.4979787330628,277.18043902685974L1192.8612487316132,275.11280639361456L1194.2245187301637,284.94661878669814L1195.587788728714,283.0710464471473L1196.9510587272646,280.8499059383242L1198.314328725815,279.0751354934023L1199.6775987243652,283.76700172802293L1201.0408687229158,280.48882059215066L1202.404138721466,295.99063365212857L1203.7674087200166,281.95084581747426L1205.130678718567,277.81236934752064L1206.4939487171175,287.77237655067995L1207.8572187156676,273.8614037992907L1209.2204887142182,276.2941042580443L1210.5837587127687,284.2760835558322L1211.947028711319,283.87091913865027L1213.3102987098696,274.1822739913843L1214.67356870842,266.90344193586816L1216.0368387069702,273.6318728845999L1217.4001087055206,258.7193553199347L1218.763378704071,267.37758985344124L1220.1266487026217,276.9603848335331L1221.489918701172,265.3915818470612L1222.8531886997225,260.9822581761531L1224.2164586982726,270.8106347023671L1225.5797286968232,266.09072868294976L1226.9429986953737,269.232929579979L1228.306268693924,259.46281828097733L1229.6695386924746,264.0202725415936L1231.0328086910247,266.7917601818296L1232.3960786895752,277.16324764113546L1233.7593486881256,278.89961070682654L1235.122618686676,277.78756790728437L1236.4858886852267,271.6651187238949L1237.849158683777,271.240146990362L1239.2124286823273,282.44554810980134L1240.5756986808776,274.71904705836573L1241.9389686794282,267.9911795793903L1243.3022386779785,269.8414588744729L1244.665508676529,270.3047973830815L1246.0287786750796,272.82669711581264L1247.3920486736297,267.6131158889693L1248.7553186721802,270.52244242711004L1250.1185886707306,276.9920754437124L1251.481858669281,276.64838779402425L1252.8451286678314,273.7983927489557L1254.208398666382,277.34683159659573L1255.5716686649323,274.0063882190134L1256.9349386634826,272.4591147807397L1258.2982086620332,268.4429430726612L1259.6614786605835,275.0951662321852L1261.024748659134,261.02329501770913L1262.3880186576844,259.8961309008029L1263.7512886562347,265.81893975383997L1265.1145586547852,263.7063307505128L1266.4778286533356,264.5038451876295L1267.841098651886,273.19820489816146L1269.2043686504364,268.78283108526216L1270.5676386489868,273.97427759558644L1271.9309086475373,272.4313996878216L1273.2941786460876,269.3745961444154L1274.6574486446382,266.60822039879486L1276.0207186431885,274.02461297477L1277.383988641739,275.43129962586426L1278.7472586402894,267.15226206751476L1280.1105286388397,259.9695352393662L1281.4737986373902,263.42093037749845L1282.8370686359406,277.28830848424406L1284.2003386344911,268.7211140662983L1285.5636086330414,267.6192330926701L1286.9268786315918,278.1688013249657L1288.2901486301423,271.4955311121779L1289.6534186286926,266.3666947824278L1291.0166886272432,260.96718123452865L1292.3799586257935,257.6070442361102L1293.743228624344,252.97462060515613L1295.1064986228944,260.7389684673183L1296.4697686214447,252.246029590902L1297.8330386199952,255.83928885195127L1299.1963086185456,262.7107115927975L1300.5595786170961,250.90092619388176L1301.9228486156464,242.23617464779338L1303.2861186141968,253.60887981454601L1304.6493886127473,250.75841684113178L1306.0126586112976,259.7661872678701L1307.3759286098482,252.42381031513543L1308.7391986083985,249.3411626597325L1310.1024686069488,249.03327481635276L1311.4657386054994,255.07189785600758L1312.8290086040497,258.4533915753894L1314.1922786026003,259.53834257310956L1315.5555486011506,257.68222510126895L1316.9188185997011,256.80503218155513L1318.2820885982514,252.68392505757942L1319.6453585968018,246.49100247335758L1321.0086285953523,248.1648217258242L1322.3718985939026,263.0400917889409L1323.7351685924532,260.61952466861027L1325.0984385910035,263.96814292025977L1326.4617085895538,255.9949188111185L1327.8249785881044,258.02322272116976L1329.1882485866547,255.6076108720306L1330.5515185852053,258.1556304388226L1331.9147885837556,255.53875278587847L1333.278058582306,244.60484875286167L1334.6413285808565,260.26462828335536L1336.0045985794068,268.5580074419686L1337.3678685779573,266.64853682007566L1338.7311385765076,251.16545644657612L1340.0944085750582,262.57690848434424L1341.4576785736083,270.393400043521L1342.8209485721588,268.9543813673437L1344.1842185707094,267.2991191801909L1345.5474885692597,261.7400872150887L1346.9107585678103,264.5474926018205L1348.2740285663606,252.63593888304953L1349.637298564911,255.15107753900244L1351.0005685634612,257.6477692225685L1352.3638385620118,266.1283387389898L1353.7271085605623,266.63138066782903L1355.0903785591127,261.1668859500968L1356.4536485576632,260.1473124852182L1357.8169185562133,264.4580724849953L1359.1801885547638,261.51768996977887L1360.5434585533144,258.0324754727248L1361.9067285518647,255.73241411214542L1363.2699985504153,256.7856516103941L1364.6332685489654,253.86390367690512L1365.996538547516,249.91222299306628L1367.3598085460662,252.96784575200007L1368.7230785446168,253.0584806996616L1370.0863485431673,250.19897990364962L1371.4496185417177,238.79327409644236L1372.812888540268,236.92782537777614L1374.1761585388183,251.54888295820095L1375.5394285373688,251.82462536539657L1376.9026985359192,247.4929805012442L1378.2659685344697,245.28862493057653L1379.6292385330203,241.08291224597775L1380.9925085315704,242.6378266586214L1382.355778530121,242.5774881691094L1383.7190485286712,245.25528019324884L1385.0823185272218,246.7862631969452L1386.445588525772,244.59523969542886L1387.8088585243227,247.45546133631694L1389.172128522873,251.42705599800547L1390.5353985214233,255.30034602671827L1391.8986685199739,244.5859558509693L1393.2619385185242,245.73351994248893L1394.6252085170747,257.8346155367631L1395.9884785156253,257.33344526267575L1397.3517485141754,241.87597518479225L1398.715018512726,234.93705317139515L1400.0782885112762,241.97558448904925L1401.4415585098268,236.0541291745543L1402.804828508377,234.4718763780226L1404.1680985069274,239.70625110669837L1405.531368505478,242.82756334986607L1406.8946385040283,246.77513444250684L1408.2579085025789,251.54127808232923L1409.6211785011292,247.01616937125706L1410.9844484996797,228.42277149235838L1412.34771849823,235.01988460898434L1413.7109884967804,240.13979938362473L1415.074258495331,254.20348820536026L1416.4375284938812,241.06685045117484L1417.8007984924318,247.65465791611126L1419.1640684909821,246.18895218931607L1420.5273384895324,234.4041544398175L1421.890608488083,239.66116851601402L1423.2538784866333,239.11817949928098L1424.6171484851839,234.93280182645188L1425.9804184837342,238.4837474180186L1427.3436884822847,238.02612419529623L1428.706958480835,239.0286918456877L1430.0702284793854,243.3467598053597L1431.433498477936,235.04192151889447L1432.7967684764862,238.8293427400116L1434.1600384750368,237.70380038599168L1435.5233084735871,248.20699567528825L1436.8865784721374,239.65969215236677L1438.249848470688,252.44263730819785L1439.6131184692383,250.511915672251L1440.9763884677889,250.27232414928494L1442.3396584663392,240.4666108824551L1443.7029284648895,237.92501480415396L1445.06619846344,234.80562982269257L1446.4294684619904,228.07421956748163L1447.792738460541,215.723517738493L1449.1560084590913,228.86730176438095L1450.5192784576418,236.54843970975975L1451.8825484561921,224.6803504473133L1453.2458184547424,221.81848654600384L1454.609088453293,223.73591010709293L1455.9723584518433,223.02730849163447L1457.3356284503939,216.25609923898304L1458.6988984489442,214.99993681256436L1460.0621684474945,214.88499193468468L1461.425438446045,215.01827487218765L1462.7887084445954,209.8128395145019L1464.151978443146,215.90025300942884L1465.5152484416963,221.3344199176033L1466.8785184402466,223.7807613469355L1468.2417884387971,222.72965339024515L1469.6050584373475,223.15293166835508L1470.968328435898,229.92937884839623L1472.3315984344483,229.7951345098312L1473.6948684329989,233.43359102776313L1475.058138431549,224.28175204488926L1476.4214084300995,225.0164065724502L1477.78467842865,221.42215694975096L1479.1479484272004,230.8544014746222L1480.511218425751,231.02240987533588L1481.8744884243013,222.74760863533393L1483.2377584228516,230.60195343882904L1484.601028421402,225.15241357312388L1485.9642984199525,228.5396741636753L1487.327568418503,223.7015340708097L1488.6908384170533,218.98047879083165L1490.0541084156039,222.8071846938136L1491.417378414154,214.15278563021684L1492.7806484127045,214.67020764098447L1494.143918411255,201.17068883804103L1495.5071884098054,193.00182098354173L1496.870458408356,203.34512706961007L1498.2337284069063,204.80286146907343L1499.5969984054566,204.17336180063296" fill="none"></path></g></g></g></g><g opacity="0.2"><g><g><g><path style="fill: none;" stroke="rgb(51, 187, 238)" stroke-width="2px" d="M137.69026985359193,29.036189169646967L139.05353985214236,173.57225877135892L140.41680985069274,207.71595766917451L141.78007984924318,204.441916801299L143.1433498477936,185.9779385748089L144.506619846344,153.8887997357816L145.86988984489443,194.159561923911L147.23315984344484,198.46127777281808L148.59642984199525,211.54216256727995L149.95969984054565,216.24113483982515L151.3229698390961,241.23573036527952L152.6862398376465,260.0412714242421L154.0495098361969,260.78466779110914L155.4127798347473,286.3875754028569L156.77604983329775,271.7618778560423L158.13931983184816,283.9362999500707L159.50258983039856,304.7325487496811L160.86585982894897,296.4239998469801L162.2291298274994,306.63872601933883L163.5923998260498,294.5143816288105L164.95566982460022,310.49254507028184L166.31893982315066,310.78383542858376L167.68220982170104,295.47947030105973L169.04547982025147,300.84157178304685L170.4087498188019,287.8339856842438L171.7720198173523,312.1871364682369L173.13528981590272,317.40859188494875L174.49855981445316,313.8557151610895L175.86182981300354,312.8352250536803L177.22509981155397,323.07892877356994L178.58836981010438,316.5389624824224L179.9516398086548,314.33506742233675L181.31490980720523,316.69378352427174L182.67817980575563,297.082476201516L184.04144980430604,305.0008345276803L185.40471980285645,309.45703598005974L186.76798980140688,294.53483254921133L188.1312597999573,309.313316866428L189.4945297985077,298.9006171281149L190.8577997970581,325.20993632052324L192.2210697956085,309.3689130722584L193.58433979415895,284.4962007041559L194.94760979270936,306.64342215661605L196.31087979125977,305.67307467626375L197.6741497898102,326.8963689915036L199.0374197883606,317.7053791043955L200.40068978691102,309.9704298262705L201.76395978546145,315.1004945161541L203.12722978401183,300.94138093107716L204.49049978256227,319.1394539099851L205.85376978111267,316.7394680670931L207.2170397796631,311.41136488769826L208.58030977821352,309.97547222251745L209.94357977676393,318.5688624102088L211.30684977531436,316.37678343746586L212.67011977386477,309.9834145376361L214.03338977241518,313.8938469301332L215.39665977096556,310.1173518353724L216.75992976951602,315.99379937573707L218.12319976806643,307.61340173681305L219.4864697666168,326.0223680694841L220.84973976516727,319.79247668574743L222.21300976371765,301.47972706429556L223.57627976226806,302.54945086896606L224.93954976081852,320.3724604600782L226.3028197593689,320.7231342316922L227.6660897579193,313.92661168514576L229.02935975646977,325.97869615692446L230.39262975502015,315.17677969542706L231.75589975357056,321.8411395214572L233.11916975212097,306.6672707431576L234.4824397506714,315.6300326868294L235.8457097492218,284.6098169286051L237.20897974777222,309.01185515088963L238.57224974632265,328.59942209303193L239.93551974487306,311.04357293826723L241.29878974342347,318.94645781672085L242.6620597419739,329.1504066786461L244.0253297405243,322.45635514595995L245.38859973907472,310.75126544424165L246.75186973762516,314.1607909546246L248.11513973617556,318.0568319586914L249.47840973472597,315.415222278471L250.84167973327635,320.35469304669294L252.20494973182682,322.33808606660483L253.56821973037722,307.1005922026137L254.9314897289276,323.9734888219183L256.29475972747804,317.7396587424007L257.6580297260285,293.66528971142736L259.02129972457885,315.7820836569208L260.3845697231293,329.73978272753135L261.7478397216797,309.64884180811544L263.1111097202301,303.31206460865417L264.4743797187805,321.11185320760745L265.837649717331,318.3685515962086L267.20091971588135,305.4330522866704L268.56418971443173,311.1469095995519L269.9274597129822,327.94544710510274L271.2907297115326,322.48875200081716L272.653999710083,310.0697628682174L274.0172697086335,305.60057670447236L275.38053970718386,325.6904572057934L276.74380970573424,326.4159563121615L278.10707970428473,319.94502540310776L279.4703497028351,326.0824872831069L280.8336197013855,328.63558451418515L282.1968896999359,322.4313162942099L283.56015969848636,318.63573367374175L284.92342969703674,325.37536154332116L286.2866996955872,312.34957520742074L287.6499696941376,313.49828933956536L289.013239692688,306.5347834048571L290.3765096912384,332.03762217434723L291.73977968978886,319.72781282314673L293.10304968833924,324.07782097774106L294.4663196868897,319.2440024776639L295.8295896854401,315.5286004498784L297.1928596839905,323.6911795556442L298.5561296825409,323.3242099712664L299.9193996810913,321.6163525265328L301.28266967964174,317.5117986991198L302.6459396781922,329.0301249690293L304.00920967674256,322.71583296141614L305.372479675293,317.3352715481043L306.73574967384343,318.9766689118315L308.0990196723938,327.8841809086427L309.46228967094424,331.20372236926187L310.8255596694946,319.375018215343L312.18882966804506,333.43932176626527L313.5520996665955,329.71995940151317L314.9153696651459,317.9202760774964L316.2786396636963,328.06542583812103L317.6419096622467,312.07557615642065L319.0051796607971,322.33810770779047L320.36844965934756,316.68430468497485L321.73171965789794,319.5416769857206L323.0949896564484,301.6378159251719L324.4582596549988,324.3445053080051L325.8215296535492,327.2664981889804L327.1847996520996,328.500586798354L328.54806965065006,322.88472077391157L329.91133964920044,318.13844086962433L331.2746096477509,330.4610185203344L332.6378796463013,316.8114250092442L334.0011496448517,320.7801803969585L335.3644196434021,325.15780270439035L336.72768964195257,309.8806405471773L338.09095964050294,328.1315829425289L339.4542296390533,321.12150517638923L340.8174996376038,325.88620172963005L342.1807696361542,324.2524437044229L343.5440396347046,312.4054311074785L344.90730963325507,316.3479357370486L346.27057963180545,326.54959063329926L347.6338496303558,320.1937259081305L348.9971196289063,332.38044019558504L350.3603896274567,330.7926696897978L351.7236596260071,304.6940707216677L353.0869296245575,325.0672559838008L354.45019962310795,328.25214598755855L355.8134696216583,322.3854586219037L357.17673962020876,323.3027202739563L358.5400096187592,302.97595535495526L359.9032796173096,324.70565341345406L361.26654961586,300.9798589590906L362.62981961441045,332.4453421112275L363.99308961296083,324.6575883402157L365.35635961151127,328.6438298059023L366.71962961006165,309.650032073324L368.0828996086121,322.65895992563475L369.4461696071625,327.4346285599795L370.8094396057129,322.77162393791707L372.17270960426333,331.19603974837054L373.53597960281377,330.3085563677165L374.89924960136415,332.8280881199146L376.2625195999146,335.1644921594863L377.62578959846496,313.7477256448988L378.9890595970154,319.8753624266313L380.35232959556583,322.94877868331525L381.7155995941162,302.87471788867464L383.07886959266665,306.9469181436017L384.442139591217,323.7353059331017L385.80540958976746,316.8782313492203L387.1686795883179,326.28422641535735L388.5319495868683,321.50764885121697L389.8952195854187,322.87957017173653L391.25848958396915,330.67031042636245L392.62175958251953,329.52029782308125L393.98502958106997,321.76736471971486L395.3482995796204,322.8571282622596L396.7115695781708,326.10308969180704L398.0748395767212,325.20259995860175L399.43810957527165,319.41988039311116L400.80137957382203,319.4378642183525L402.1646495723724,323.51919705360666L403.5279195709229,331.4805780567624L404.8911895694733,318.1821560645553L406.25445956802366,319.9711463141383L407.61772956657416,306.32531836934413L408.98099956512453,329.76417234371314L410.34426956367497,308.89455992488695L411.70753956222535,321.82612053864426L413.0708095607758,327.13812267594574L414.4340795593262,318.9763442940474L415.7973495578766,330.3227746266618L417.16061955642704,313.59985142363007L418.5238895549775,320.3763558734879L419.88715955352785,305.82746289440087L421.2504295520783,319.67360165319525L422.6136995506287,311.60366846302304L423.9769695491791,342.86405809914004L425.34023954772954,328.30785039931703L426.70350954627986,319.4972043492934L428.06677954483035,332.7143204071662L429.4300495433808,332.573782547819L430.7933195419311,323.0584994943547L432.1565895404816,327.057336130066L433.51985953903204,318.20626434532403L434.88312953758236,318.876037398748L436.24639953613286,317.0325113614294L437.6096695346833,321.8605516649488L438.9729395332336,316.8660257205366L440.3362095317841,314.7264266228963L441.69947953033454,317.40099582879986L443.06274952888486,317.7035612448043L444.4260195274353,330.962120173119L445.7892895259858,333.4041331984644L447.1525595245361,326.55506585325844L448.51582952308655,320.8502761971472L449.87909952163704,336.5107686750588L451.24236952018737,322.17198996705304L452.6056395187378,328.47463901680834L453.9689095172883,324.8852752540117L455.3321795158386,314.87949472871134L456.69544951438905,310.7837055814701L458.05871951293955,329.5099100539888L459.42198951148987,328.105094131343L460.7852595100403,314.7577197772875L462.1485295085907,319.1978418287592L463.5117995071411,321.39160881397964L464.87506950569156,322.32062162981805L466.23833950424194,334.6736484286805L467.60160950279237,315.2902227903913L468.9648795013428,334.6024272868401L470.3281494998932,312.9658512500184L471.6914194984436,330.1092843306255L473.05468949699406,328.34942311687263L474.41795949554444,320.7376771084217L475.7812294940949,320.57437272181346L477.1444994926453,325.6268104789163L478.5077694911957,319.83117112561695L479.8710394897461,328.42769928522165L481.23430948829656,337.1957554819661L482.59757948684694,321.51853436757847L483.9608494853974,301.6415598502823L485.3241194839478,332.32726780254285L486.6873894824982,324.1902469369816L488.0506594810486,336.8143512267868L489.41392947959906,334.01341913811024L490.77719947814944,328.1050292077862L492.1404694766999,302.86097573581276L493.5037394752503,325.704329205769L494.8670094738007,322.9257091794557L496.2302794723511,321.0563002841482L497.59354947090145,330.215845528566L498.95681946945194,314.725171434131L500.3200894680024,301.42551589434413L501.6833594665527,316.950707679826L503.0466294651032,332.0628125143965L504.40989946365363,317.45202574446677L505.77316946220395,327.8310301567861L507.13643946075445,314.32591320082395L508.4997094593049,313.28720121513174L509.8629794578552,325.7950923382147L511.22624945640564,319.9586377088561L512.5895194549561,312.8979844919474L513.9527894535065,335.39330441493405L515.316059452057,335.7605769759104L516.6793294506074,324.273543860392L518.0425994491577,328.99433044803146L519.4058694477081,322.15199351154996L520.7691394462586,325.1358369009968L522.132409444809,334.77531871867325L523.4956794433594,320.5319343568336L524.8589494419099,330.0756755693742L526.2222194404602,304.8012162316196L527.5854894390106,311.9454044249804L528.948759437561,332.527080869274L530.3120294361115,318.1903364327155L531.675299434662,315.23555715554204L533.0385694332123,327.5057847782631L534.4018394317627,314.79351429828534L535.7651094303131,318.5989436582058L537.1283794288635,321.02922716095094L538.491649427414,327.19159804558643L539.8549194259645,308.3413895795262L541.2181894245148,332.01022443336575L542.5814594230652,332.4791672843349L543.9447294216156,317.9458559588866L545.307999420166,329.5540364314462L546.6712694187164,336.56489328026777L548.034539417267,325.50486239800756L549.3978094158173,335.68407538478135L550.7610794143677,336.60477798534583L552.1243494129181,314.234392626882L553.4876194114685,316.6275614963071L554.8508894100189,322.79309199404156L556.2141594085695,334.5656372713042L557.5774294071198,336.69294417551833L558.9406994056702,307.9432350466853L560.3039694042207,333.17222625347455L561.667239402771,320.42723430085545L563.0305094013214,318.62218629155024L564.3937793998718,308.2588500976121L565.7570493984223,333.9733829447329L567.1203193969727,329.6146101099668L568.483589395523,309.5154888223906L569.8468593940735,322.05644767708463L571.2101293926239,323.13049971887705L572.5733993911743,331.60707078664905L573.9366693897248,321.0820532950234L575.2999393882752,339.27519208361235L576.6632093868255,331.1701136080105L578.026479385376,339.77471392984756L579.3897493839264,328.40315818074066L580.7530193824769,335.63990572495265L582.1162893810273,312.50136648328476L583.4795593795777,326.9835829695093L584.842829378128,323.854786918851L586.2060993766785,333.1058527372107L587.5693693752289,321.38093970947426L588.9326393737794,324.2654933393453L590.2959093723298,316.9837321290659L591.6591793708802,327.09291423920774L593.0224493694305,324.0627803537425L594.385719367981,321.1020064681552L595.7489893665314,314.13207310132094L597.1122593650819,318.96578339547L598.4755293636323,338.88842081440197L599.8387993621826,320.3829564350987L601.202069360733,319.60077906361977L602.5653393592835,320.1435399987024L603.9286093578338,335.00120941406374L605.2918793563844,329.1163001701258L606.6551493549348,337.0601734541235L608.0184193534851,334.47532860375634L609.3816893520356,315.01128954907233L610.744959350586,319.02754733919915L612.1082293491363,341.17567772145486L613.4714993476869,315.49302234073656L614.8347693462373,327.2502672997734L616.1980393447876,312.9712399052351L617.561309343338,336.4736107593675L618.9245793418885,329.6527635201962L620.2878493404388,321.25317014963656L621.6511193389892,332.1127820119685L623.0143893375398,330.5880955622325L624.3776593360901,309.9313674862456L625.7409293346406,314.82909240742714L627.104199333191,325.9839549650275L628.4674693317413,328.9183266041714L629.8307393302917,335.46883215271066L631.1940093288422,321.0228430111962L632.5572793273926,326.3173807117109L633.920549325943,324.2547593112831L635.2838193244934,308.91726152859115L636.6470893230438,323.35165099461904L638.0103593215943,320.6366560539972L639.3736293201447,308.98683794032524L640.7368993186951,314.86871741827787L642.1001693172456,313.89497227178487L643.4634393157959,317.4396469862982L644.8267093143463,325.4836323949248L646.1899793128968,330.22052002465756L647.5532493114472,323.3992616029596L648.9165193099976,324.62651159768063L650.2797893085481,315.51812611604345L651.6430593070984,316.84064060981683L653.0063293056488,335.4096435100691L654.3695993041993,338.5637164655192L655.7328693027497,312.3558078688762L657.0961393013001,327.32014668810604L658.4594092998506,334.56689246006954L659.8226792984009,329.7803383093633L661.1859492969513,324.4062043281774L662.5492192955018,332.56075455408217L663.9124892940522,316.8558760044858L665.2757592926026,312.3201864773632L666.639029291153,315.75914400017484L668.0022992897034,317.9799841085926L669.3655692882538,320.97488614388584L670.7288392868041,317.36528787254446L672.0921092853547,308.19650184187157L673.4553792839051,331.16660773594185L674.8186492824555,327.8097135889609L676.1819192810059,326.12213393514327L677.5451892795563,293.6854160140441L678.9084592781066,314.8585244198559L680.2717292766572,295.4387848721142L681.6349992752076,325.5703486256615L682.998269273758,330.399103088306L684.3615392723084,325.1674113908009L685.7248092708588,319.7203249729258L687.0880792694091,328.43527370018495L688.4513492679596,319.8830666887082L689.8146192665101,328.8558701425028L691.1778892650605,315.9839093539136L692.5411592636109,322.5363626091578L693.9044292621613,306.948562873708L695.2676992607117,303.6653136813557L696.6309692592621,326.863993777832L697.9942392578126,306.8215291141811L699.357509256363,317.4470699129622L700.7207792549134,321.5950792410788L702.0840492534637,301.5512295415489L703.4473192520142,330.3368197561223L704.8105892505646,342.4231189423494L706.173859249115,311.5038809561783L707.5371292476655,312.8482097650459L708.9003992462159,308.4218731488074L710.2636692447662,326.68227274227024L711.6269392433167,322.01015718106623L712.9902092418671,322.6991476073113L714.3534792404175,336.9077545838768L715.716749238968,306.63972151387685L717.0800192375184,330.7127487913424L718.4432892360687,310.0155300570804L719.8065592346192,304.35835100930973L721.1698292331696,321.12157009994604L722.53309923172,322.62935478372117L723.8963692302705,312.54631522579535L725.2596392288209,319.38335007180257L726.6229092273712,314.1235464741909L727.9861792259217,328.20769499231693L729.3494492244721,336.84034229070363L730.7127192230225,315.76197899548964L732.075989221573,300.21964739100514L733.4392592201233,312.4716098530719L734.8025292186737,319.270924112562L736.1657992172242,320.81123549830795L737.5290692157745,328.3323915037981L738.892339214325,290.41668805723566L740.2556092128755,294.7988982960167L741.6188792114258,311.6284043381745L742.9821492099762,311.3415504229225L744.3454192085267,326.7011654973072L745.708689207077,308.18516186061225L747.0719592056275,335.59346374063495L748.435229204178,304.15068219220234L749.7984992027283,308.12372253466725L751.1617692012787,321.21053701398614L752.5250391998292,320.2780832496358L753.8883091983795,323.96091529307927L755.2515791969299,317.3555926213915L756.6148491954805,314.2803585051163L757.9781191940308,297.5178102912338L759.3413891925812,297.6783229648984L760.7046591911317,314.7489550971157L762.067929189682,322.8621057349498L763.4311991882324,312.0086616105165L764.794469186783,319.2618131734204L766.1577391853333,309.34424212066375L767.5210091838837,327.80051608507694L768.884279182434,325.05695477945073L770.2475491809845,316.74087474415774L771.6108191795349,320.0046468694616L772.9740891780854,327.8378254890674L774.3373591766358,310.05480880896135L775.7006291751862,322.1636581105934L777.0638991737366,334.4201868628237L778.427169172287,318.592840843864L779.7904391708374,309.4972453029219L781.1537091693879,323.37740400549416L782.5169791679383,304.6860851241778L783.8802491664887,304.7356434392232L785.2435191650391,309.19496122233045L786.6067891635895,310.9473995094193L787.9700591621399,318.98943721134106L789.3333291606904,322.29973788570504L790.6965991592408,315.20166705887783L792.0598691577912,291.8283209533484L793.4231391563416,307.887184375957L794.786409154892,303.91291048591233L796.1496791534424,312.08921010335456L797.5129491519929,308.00380872520583L798.8762191505433,322.1783741168078L800.2394891490937,309.77001080634227L801.6027591476441,317.09840877160985L802.9660291461945,315.42448470591177L804.3292991447448,329.9138860657586L805.6925691432954,328.622686367562L807.0558391418458,316.03948391855846L808.4191091403961,322.38599965154395L809.7823791389466,322.4969107277919L811.145649137497,294.9196344705313L812.5089191360473,322.9925804429886L813.8721891345979,317.1951232300981L815.2354591331483,309.8505809403659L816.5987291316986,324.325677476525L817.9619991302491,305.65483115679507L819.3252691287995,320.07794556512044L820.6885391273499,311.27855293161366L822.0518091259003,320.23408671929195L823.4150791244507,295.0834149632229L824.7783491230011,303.70459243323666L826.1416191215516,315.10958381411L827.504889120102,305.039355838065L828.8681591186524,310.8874317840957L830.2314291172028,313.48411436299125L831.5946991157532,331.0475595739048L832.9579691143036,323.62909099413105L834.3212391128541,316.57473536223466L835.6845091114045,312.6608836624113L837.047779109955,302.4978150001021L838.4110491085053,321.16920234947224L839.7743191070557,306.0048340516552L841.1375891056061,313.24229575499226L842.5008591041566,321.7309426043343L843.864129102707,313.7038589616687L845.2273991012574,295.1252690161914L846.5906690998078,307.35487613352365L847.9539390983582,336.7993538851595L849.3172090969086,305.7924907384562L850.6804790954591,315.12356402001365L852.0437490940095,316.2318307762544L853.4070190925597,314.4708009384786L854.7702890911103,293.7906354584768L856.1335590896607,322.52205778546994L857.4968290882111,323.90382584544176L858.8600990867616,298.962878819113L860.223369085312,320.44945979847625L861.5866390838622,303.46216787204065L862.9499090824128,284.7785316116156L864.3131790809632,301.81018796855045L865.6764490795136,327.6807321227291L867.0397190780641,297.4320246314783L868.4029890766145,305.48434189656456L869.7662590751647,325.81909241305544L871.1295290737152,304.97804635923364L872.4927990722657,314.16609304509893L873.8560690708161,313.87071250271674L875.2193390693666,318.9451809867699L876.582609067917,318.1763129444407L877.9458790664672,315.2969099167446L879.3091490650177,312.45174324468246L880.6724190635682,301.7912735723279L882.0356890621186,313.4686841976517L883.3989590606691,317.4512683029704L884.7622290592195,316.6943461950976L886.1254990577697,316.499488959871L887.4887690563202,290.43335177015484L888.8520390548706,312.49638901059456L890.2153090534212,305.90130261970006L891.5785790519716,307.1627024053126L892.9418490505218,311.415866254305L894.3051190490722,318.14698913794007L895.6683890476227,307.2600877405547L897.0316590461731,298.0442104899958L898.3949290447237,307.9623442135783L899.7581990432741,303.0398184936885L901.1214690418243,310.8216209386577L902.4847390403747,322.5138990584952L903.8480090389252,315.7923848612708L905.2112790374756,312.5828671882896L906.5745490360262,310.8797058808332L907.9378190345766,323.66027594259407L909.3010890331268,313.50852562035857L910.6643590316772,314.328683272582L912.0276290302277,296.0067145060605L913.3908990287781,319.31000809377247L914.7541690273285,324.0412257328756L916.1174390258791,309.53342936526076L917.4807090244293,305.11683128254646L918.8439790229797,312.9506158553494L920.2072490215302,298.9737859766601L921.5705190200806,314.0341467364387L922.933789018631,311.18984571180096L924.2970590171814,305.9711820080326L925.6603290157318,298.01309046508953L927.0235990142822,318.96284019422717L928.3868690128327,298.0022482310993L929.7501390113831,307.80100917486055L931.1134090099335,312.494700998117L932.4766790084839,300.42705651388525L933.8399490070343,310.5265000905029L935.2032190055847,299.91446339154203L936.5664890041352,308.8925472946253L937.9297590026856,286.41525447925125L939.293029001236,306.70280556992816L940.6562989997864,309.5101650907307L942.0195689983368,301.1491146717414L943.3828389968872,309.46909012044415L944.7461089954377,301.50171450887467L946.1093789939881,318.9585335982909L947.4726489925386,314.20933213394636L948.8359189910889,303.94740653577367L950.1991889896393,308.10013364235306L951.5624589881897,311.6575766563759L952.9257289867402,298.76726414239005L954.2889989852906,297.8477734482197L955.6522689838409,293.6478469158262L957.0155389823914,314.9968765194565L958.3788089809418,320.94681752615054L959.7420789794922,299.66868444657655L961.1053489780427,328.05969092393457L962.4686189765931,316.8130913805361L963.8318889751434,311.52703702478027L965.1951589736939,297.4360498920017L966.5584289722443,318.9043440695251L967.9216989707948,317.09265221623775L969.2849689693452,314.29663267669457L970.6482389678956,296.9030274904432L972.011508966446,306.04655825751L973.3747789649964,304.77290956084255L974.7380489635468,319.09095601303454L976.1013189620973,293.92188924919753L977.4645889606477,309.9432052147739L978.8278589591981,298.5504843861411L980.1911289577484,289.74540012081906L981.5543989562989,304.681367345715L982.9176689548493,325.4678559706156L984.2809389533998,313.711757994416L985.6442089519502,293.62057902195846L987.0074789505006,306.2250114740448L988.370748949051,311.37479128401844L989.7340189476014,308.6835367240101L991.0972889461518,295.0448720116526L992.4605589447023,321.19205544147576L993.8238289432527,284.0348755505213L995.1870989418029,292.69706306726476L996.5503689403535,300.88732124942504L997.9136389389039,297.6024273269664L999.2769089374543,307.2582915221491L1000.6401789360048,317.5174037661926L1002.0034489345552,303.7393698185109L1003.3667189331054,304.50090149891855L1004.7299889316558,308.4297505403692L1006.0932589302064,302.2816411970503L1007.4565289287568,316.1646998184942L1008.8197989273073,305.7770172907455L1010.1830689258577,314.77042315324013L1011.5463389244079,298.04957750402696L1012.9096089229583,308.28672394467696L1014.2728789215089,303.94686550613346L1015.6361489200593,297.2283594337087L1016.9994189186098,322.29766033188656L1018.3626889171602,280.43979851472375L1019.7259589157104,292.1204553178891L1021.0892289142608,300.88924731494427L1022.4524989128113,303.92124234237195L1023.8157689113618,280.5810288920104L1025.1790389099122,286.65668354590923L1026.5423089084625,305.65682214587116L1027.905578907013,314.95065094699487L1029.2688489055633,304.5002955457215L1030.632118904114,311.74498540505215L1031.9953889026642,290.67521366052506L1033.3586589012148,300.70765612649615L1034.721928899765,302.09955226133314L1036.0851988983154,285.14606386681936L1037.448468896866,300.9950510713884L1038.8117388954163,298.81697394573473L1040.1750088939668,287.7437202990672L1041.5382788925172,287.833920760687L1042.9015488910675,299.23406451598385L1044.264818889618,286.43696058841743L1045.6280888881683,298.2410587142985L1046.991358886719,314.01412863974997L1048.3546288852692,277.40209021429524L1049.7178988838198,295.06010740632166L1051.08116888237,300.2177213254859L1052.4444388809204,310.66091349432264L1053.807708879471,305.587137528209L1055.1709788780213,302.63019413247457L1056.5342488765718,288.2248038551632L1057.897518875122,290.30043160814216L1059.2607888736725,285.6019138004948L1060.624058872223,304.27864652271046L1061.9873288707734,306.73628448406583L1063.350598869324,300.00684961290835L1064.7138688678742,295.6930904442097L1066.0771388664245,296.45808471431485L1067.440408864975,307.16874029609755L1068.8036788635254,297.20959652578534L1070.166948862076,296.3800465990075L1071.5302188606263,325.9057004378641L1072.8934888591768,280.62783877648343L1074.256758857727,286.30222256681355L1075.6200288562775,307.4336284079561L1076.983298854828,295.25355796448366L1078.3465688533784,300.42829006146496L1079.709838851929,305.9210610221614L1081.0731088504792,306.59349594141526L1082.4363788490296,308.1045917265886L1083.7996488475799,287.60645025874703L1085.1629188461304,284.4595405357337L1086.526188844681,285.14543627243665L1087.8894588432313,297.32013970187796L1089.2527288417818,307.7473390345493L1090.615998840332,304.9386810426102L1091.9792688388825,289.65424744703245L1093.3425388374328,279.7173075331554L1094.7058088359834,288.26142074121424L1096.069078834534,289.5237943801792L1097.432348833084,306.71379929221774L1098.7956188316346,300.36827905377027L1100.1588888301849,294.65154346320264L1101.5221588287354,298.45385649239535L1102.885428827286,297.7510157073603L1104.2486988258363,285.49807939194113L1105.6119688243866,275.2284928140627L1106.975238822937,293.58352931219525L1108.3385088214875,285.9949610135319L1109.7017788200378,297.59355444086657L1111.0650488185884,294.18589007244606L1112.428318817139,292.4064435857167L1113.791588815689,274.2336475116005L1115.1548588142396,305.4398043365805L1116.5181288127899,284.48232870418036L1117.8813988113404,295.31718305017523L1119.2446688098908,276.1855526064508L1120.6079388084413,278.98955774348394L1121.9712088069916,294.09638212876575L1123.334478805542,263.307813621304L1124.6977488040925,297.89949588182606L1126.0610188026428,289.26016145708604L1127.4242888011934,294.8038541275212L1128.7875587997437,293.2090502364109L1130.150828798294,297.21582918724084L1131.5140987968446,314.8824162887686L1132.877368795395,302.7568599918461L1134.2406387939454,281.8419958539108L1135.6039087924958,297.45853508384977L1136.967178791046,268.83161804216417L1138.3304487895966,268.43166729091763L1139.693718788147,295.3180486975995L1141.0569887866975,278.71748475800314L1142.4202587852478,287.15235326110593L1143.7835287837984,294.1271991770735L1145.1467987823487,280.49301419013716L1146.510068780899,293.4244233155953L1147.8733387794496,278.0110082537857L1149.236608778,296.58470729131517L1150.5998787765504,289.8483688819484L1151.9631487751008,281.53622754243617L1153.326418773651,292.42873400689433L1154.6896887722016,278.8747728950119L1156.052958770752,276.810831382262L1157.4162287693025,286.5909592652136L1158.7794987678528,285.63108611869626L1160.1427687664032,278.5538557536108L1161.5060387649537,309.2387846231894L1162.869308763504,289.01821300197344L1164.2325787620546,270.71106844759436L1165.595848760605,276.0529787034079L1166.9591187591554,265.8579027275825L1168.3223887577058,270.9842667747269L1169.685658756256,279.3843795337411L1171.0489287548066,281.14246617027396L1172.412198753357,280.73243062653347L1173.7754687519075,266.2437434258117L1175.1387387504578,285.514093869292L1176.5020087490082,301.7236015849274L1177.8652787475587,312.78172804285396L1179.228548746109,294.1142577480791L1180.5918187446596,281.11078347454185L1181.95508874321,286.5411845383121L1183.3183587417604,289.569067740474L1184.6816287403108,287.14774368857115L1186.044898738861,255.95768790568457L1187.4081687374116,268.18407048636107L1188.771438735962,291.5824338024549L1190.1347087345125,284.1950203240305L1191.4979787330628,270.3171772283184L1192.8612487316132,272.011357443747L1194.2245187301637,299.69733737632333L1195.587788728714,280.25768793782106L1196.9510587272646,277.5181951750894L1198.314328725815,276.4129798260196L1199.6775987243652,290.80480107995385L1201.0408687229158,275.5715488883422L1202.404138721466,319.2433532420957L1203.7674087200166,260.8911640654927L1205.130678718567,271.60465464259033L1206.4939487171175,302.71238735541885L1207.8572187156676,252.99494467220683L1209.2204887142182,279.9431549461747L1210.5837587127687,296.2490525025141L1211.947028711319,283.26317251287725L1213.3102987098696,259.64930627048545L1214.67356870842,255.98519385259408L1216.0368387069702,283.7245193076975L1217.4001087055206,236.35057897293706L1218.763378704071,280.364941653701L1220.1266487026217,291.3345773036709L1221.489918701172,248.03837736735346L1222.8531886997225,254.36827266979097L1224.2164586982726,285.55319949168813L1225.5797286968232,259.01086965382376L1226.9429986953737,273.9462309255227L1228.306268693924,244.80765133247505L1229.6695386924746,270.856453932518L1231.0328086910247,270.9489916421836L1232.3960786895752,292.72047883009407L1233.7593486881256,281.5041553053631L1235.122618686676,276.1195037079711L1236.4858886852267,262.4814449488107L1237.849158683777,270.60268939006266L1239.2124286823273,299.2536497889603L1240.5756986808776,263.12929548121235L1241.9389686794282,257.89937836092724L1243.3022386779785,272.61687781709674L1244.665508676529,270.9998051459944L1246.0287786750796,276.60954671490936L1247.3920486736297,259.79274404870426L1248.7553186721802,274.8864322343212L1250.1185886707306,286.696524968616L1251.481858669281,276.1328563194921L1252.8451286678314,269.5234001813529L1254.208398666382,282.66948986805573L1255.5716686649323,268.99572315264L1256.9349386634826,270.13820462332905L1258.2982086620332,262.4186855105435L1259.6614786605835,285.0735009714711L1261.024748659134,239.91548819599515L1262.3880186576844,258.2053847254436L1263.7512886562347,274.7031530333955L1265.1145586547852,260.5374172455222L1266.4778286533356,265.70011684330467L1267.841098651886,286.23974446395937L1269.2043686504364,262.15977036591323L1270.5676386489868,281.7614473610728L1271.9309086475373,270.11708282617434L1273.2941786460876,264.7893908293061L1274.6574486446382,262.45865678036404L1276.0207186431885,285.14920183873267L1277.383988641739,277.5413296025058L1278.7472586402894,254.7337057299906L1280.1105286388397,249.19544499714334L1281.4737986373902,268.5980230846968L1282.8370686359406,298.0893756443625L1284.2003386344911,255.87032243937958L1285.5636086330414,265.96641163222785L1286.9268786315918,293.99315367340915L1288.2901486301423,261.48562579299613L1289.6534186286926,258.6734402878027L1291.0166886272432,252.8679109126799L1292.3799586257935,252.5668387384825L1293.743228624344,246.025985158725L1295.1064986228944,272.3854902605615L1296.4697686214447,239.50662127627754L1297.8330386199952,261.2291777435253L1299.1963086185456,273.0178457040669L1300.5595786170961,233.18624809550815L1301.9228486156464,229.2390473286608L1303.2861186141968,270.6679375646749L1304.6493886127473,246.48272238101046L1306.0126586112976,273.2778429079777L1307.3759286098482,241.41024488603338L1308.7391986083985,244.71719117662795L1310.1024686069488,248.57144305128315L1311.4657386054994,264.1298324154898L1312.8290086040497,263.52563215446213L1314.1922786026003,261.1657690696899L1315.5555486011506,254.89804889350802L1316.9188185997011,255.48924280198443L1318.2820885982514,246.50226437161572L1319.6453585968018,237.201618597025L1321.0086285953523,250.67555060452406L1322.3718985939026,285.35299688361596L1323.7351685924532,256.98867398811433L1325.0984385910035,268.9910702977339L1326.4617085895538,244.03508264740665L1327.8249785881044,261.0656785862466L1329.1882485866547,251.98419309832178L1330.5515185852053,261.9776597890105L1331.9147885837556,251.61343630646232L1333.278058582306,228.20399270333647L1334.6413285808565,283.75429757909603L1336.0045985794068,280.9980761798883L1337.3678685779573,263.7843308872364L1338.7311385765076,227.94083588632674L1340.0944085750582,279.6940865409965L1341.4576785736083,282.1181373822862L1342.8209485721588,266.79585335307763L1344.1842185707094,264.8162258994617L1345.5474885692597,253.40153926743542L1346.9107585678103,268.7586006819182L1348.2740285663606,234.7686083048931L1349.637298564911,258.9237855229317L1351.0005685634612,261.39280674791763L1352.3638385620118,278.84919301362163L1353.7271085605623,267.3859435610879L1355.0903785591127,252.9701438734985L1356.4536485576632,258.6179522879003L1357.8169185562133,270.9242124846609L1359.1801885547638,257.10711619695434L1360.5434585533144,252.80465372714374L1361.9067285518647,252.28232207127633L1363.2699985504153,258.36550785776717L1364.6332685489654,249.48128177667172L1365.996538547516,243.984701967308L1367.3598085460662,257.5512798904008L1368.7230785446168,253.19443312115385L1370.0863485431673,245.90972870963157L1371.4496185417177,221.68471538563148L1372.812888540268,234.12965229977686L1374.1761585388183,273.48046932883807L1375.5394285373688,252.23823897619002L1376.9026985359192,240.99551320501564L1378.2659685344697,241.982091574575L1379.6292385330203,234.77434321907953L1380.9925085315704,244.97019827758695L1382.355778530121,242.48698043484129L1383.7190485286712,249.27196822945803L1385.0823185272218,249.08273770248977L1386.445588525772,241.30870444315428L1387.8088585243227,251.74579379764916L1389.172128522873,257.38444799053826L1390.5353985214233,261.1102810697875L1391.8986685199739,228.5143705873459L1393.2619385185242,247.45486607976838L1394.6252085170747,275.98625892817427L1395.9884785156253,256.58168985154475L1397.3517485141754,218.689770067967L1398.715018512726,224.52867015129942L1400.0782885112762,252.53338146553048L1401.4415585098268,227.1719462028119L1402.804828508377,232.09849718322505L1404.1680985069274,247.5578131997121L1405.531368505478,247.50953171461762L1406.8946385040283,252.69649108146817L1408.2579085025789,258.6904935420629L1409.6211785011292,240.22850630464887L1410.9844484996797,200.53267467401042L1412.34771849823,244.9155542839233L1413.7109884967804,247.8196715455853L1415.074258495331,275.2990214379635L1416.4375284938812,221.3618938198967L1417.8007984924318,257.53636911351595L1419.1640684909821,243.9903935991233L1420.5273384895324,216.72695781556956L1421.890608488083,247.54668963030883L1423.2538784866333,238.30369597418144L1424.6171484851839,228.65473531720812L1425.9804184837342,243.8101658053686L1427.3436884822847,237.33968936121272L1428.706958480835,240.5325433212747L1430.0702284793854,249.8238617448678L1431.433498477936,222.5846640891966L1432.7967684764862,244.51047457168735L1434.1600384750368,236.01548685496178L1435.5233084735871,263.96178860923317L1436.8865784721374,226.83873686798464L1438.249848470688,271.61705504194447L1439.6131184692383,247.61583321833075L1440.9763884677889,249.9129368648359L1442.3396584663392,225.75804098221016L1443.7029284648895,234.1126206867023L1445.06619846344,230.1265523505005L1446.4294684619904,217.9771041846653L1447.792738460541,197.19746499501002L1449.1560084590913,248.58297780321294L1450.5192784576418,248.070146627828L1451.8825484561921,206.87821655364348L1453.2458184547424,217.52569069403975L1454.609088453293,226.6120454487266L1455.9723584518433,221.96440606844678L1457.3356284503939,206.09928536000595L1458.6988984489442,213.11569317293626L1460.0621684474945,214.7125746178651L1461.425438446045,215.21819927844209L1462.7887084445954,202.00468647797325L1464.151978443146,225.0313732518192L1465.5152484416963,229.48567027986502L1466.8785184402466,227.4502734909338L1468.2417884387971,221.1529914552096L1469.6050584373475,223.78784908551995L1470.968328435898,240.09404961845792L1472.3315984344483,229.59376800198373L1473.6948684329989,238.89127580466112L1475.058138431549,210.5539935705783L1476.4214084300995,226.11838836379158L1477.78467842865,216.03078251570224L1479.1479484272004,245.00276826192902L1480.511218425751,231.2744224764064L1481.8744884243013,210.335406775331L1483.2377584228516,242.3834706440718L1484.601028421402,216.9781037745662L1485.9642984199525,233.62056504950235L1487.327568418503,216.44432393151138L1488.6908384170533,211.89889587086458L1490.0541084156039,228.5472435482865L1491.417378414154,201.17118703482166L1492.7806484127045,215.44634065713595L1494.143918411255,180.92141063362592L1495.5071884098054,180.7485192017928L1496.870458408356,218.86008619871265L1498.2337284069063,206.9894630682684L1499.5969984054566,203.22911229797222" fill="none"></path></g></g></g></g></g></g><g transform="translate(69, 377)" clip-path="url(#clip_1)"><clipPath id="clip_1"><rect width="1635" height="22"></rect></clipPath><g><g><line x1="0" y1="0" x2="0" y2="5" style="visibility: inherit;" fill="rgb(0, 0, 0)" stroke="rgb(204, 204, 204)" stroke-width="1px"></line><line x1="136.3269998550415" y1="0" x2="136.3269998550415" y2="5" style="visibility: inherit;" fill="rgb(0, 0, 0)" stroke="rgb(204, 204, 204)" stroke-width="1px"></line><line x1="272.653999710083" y1="0" x2="272.653999710083" y2="5" style="visibility: inherit;" fill="rgb(0, 0, 0)" stroke="rgb(204, 204, 204)" stroke-width="1px"></line><line x1="408.98099956512453" y1="0" x2="408.98099956512453" y2="5" style="visibility: inherit;" fill="rgb(0, 0, 0)" stroke="rgb(204, 204, 204)" stroke-width="1px"></line><line x1="545.307999420166" y1="0" x2="545.307999420166" y2="5" style="visibility: inherit;" fill="rgb(0, 0, 0)" stroke="rgb(204, 204, 204)" stroke-width="1px"></line><line x1="681.6349992752076" y1="0" x2="681.6349992752076" y2="5" style="visibility: inherit;" fill="rgb(0, 0, 0)" stroke="rgb(204, 204, 204)" stroke-width="1px"></line><line x1="817.9619991302491" y1="0" x2="817.9619991302491" y2="5" style="visibility: inherit;" fill="rgb(0, 0, 0)" stroke="rgb(204, 204, 204)" stroke-width="1px"></line><line x1="954.2889989852906" y1="0" x2="954.2889989852906" y2="5" style="visibility: inherit;" fill="rgb(0, 0, 0)" stroke="rgb(204, 204, 204)" stroke-width="1px"></line><line x1="1090.615998840332" y1="0" x2="1090.615998840332" y2="5" style="visibility: inherit;" fill="rgb(0, 0, 0)" stroke="rgb(204, 204, 204)" stroke-width="1px"></line><line x1="1226.9429986953737" y1="0" x2="1226.9429986953737" y2="5" style="visibility: inherit;" fill="rgb(0, 0, 0)" stroke="rgb(204, 204, 204)" stroke-width="1px"></line><line x1="1363.2699985504153" y1="0" x2="1363.2699985504153" y2="5" style="visibility: inherit;" fill="rgb(0, 0, 0)" stroke="rgb(204, 204, 204)" stroke-width="1px"></line><line x1="1499.5969984054566" y1="0" x2="1499.5969984054566" y2="5" style="visibility: inherit;" fill="rgb(0, 0, 0)" stroke="rgb(204, 204, 204)" stroke-width="1px"></line><line x1="1635.9239982604981" y1="0" x2="1635.9239982604981" y2="5" style="visibility: inherit;" fill="rgb(0, 0, 0)" stroke="rgb(204, 204, 204)" stroke-width="1px"></line></g><g transform="translate(0, 8)"><text style="text-anchor: middle; visibility: hidden; font-family: Roboto, sans-serif; font-size: 12px; font-weight: 200;" x="0" y="0" dx="0em" dy="0.95em" fill="rgb(255, 255, 255)" stroke="none" stroke-width="1px">-100</text><text style="text-anchor: middle; visibility: inherit; font-family: Roboto, sans-serif; font-size: 12px; font-weight: 200;" x="136.3269998550415" y="0" dx="0em" dy="0.95em" fill="rgb(255, 255, 255)" stroke="none" stroke-width="1px">0</text><text style="text-anchor: middle; visibility: inherit; font-family: Roboto, sans-serif; font-size: 12px; font-weight: 200;" x="272.653999710083" y="0" dx="0em" dy="0.95em" fill="rgb(255, 255, 255)" stroke="none" stroke-width="1px">100</text><text style="text-anchor: middle; visibility: inherit; font-family: Roboto, sans-serif; font-size: 12px; font-weight: 200;" x="408.98099956512453" y="0" dx="0em" dy="0.95em" fill="rgb(255, 255, 255)" stroke="none" stroke-width="1px">200</text><text style="text-anchor: middle; visibility: inherit; font-family: Roboto, sans-serif; font-size: 12px; font-weight: 200;" x="545.307999420166" y="0" dx="0em" dy="0.95em" fill="rgb(255, 255, 255)" stroke="none" stroke-width="1px">300</text><text style="text-anchor: middle; visibility: inherit; font-family: Roboto, sans-serif; font-size: 12px; font-weight: 200;" x="681.6349992752076" y="0" dx="0em" dy="0.95em" fill="rgb(255, 255, 255)" stroke="none" stroke-width="1px">400</text><text style="text-anchor: middle; visibility: inherit; font-family: Roboto, sans-serif; font-size: 12px; font-weight: 200;" x="817.9619991302491" y="0" dx="0em" dy="0.95em" fill="rgb(255, 255, 255)" stroke="none" stroke-width="1px">500</text><text style="text-anchor: middle; visibility: inherit; font-family: Roboto, sans-serif; font-size: 12px; font-weight: 200;" x="954.2889989852906" y="0" dx="0em" dy="0.95em" fill="rgb(255, 255, 255)" stroke="none" stroke-width="1px">600</text><text style="text-anchor: middle; visibility: inherit; font-family: Roboto, sans-serif; font-size: 12px; font-weight: 200;" x="1090.615998840332" y="0" dx="0em" dy="0.95em" fill="rgb(255, 255, 255)" stroke="none" stroke-width="1px">700</text><text style="text-anchor: middle; visibility: inherit; font-family: Roboto, sans-serif; font-size: 12px; font-weight: 200;" x="1226.9429986953737" y="0" dx="0em" dy="0.95em" fill="rgb(255, 255, 255)" stroke="none" stroke-width="1px">800</text><text style="text-anchor: middle; visibility: inherit; font-family: Roboto, sans-serif; font-size: 12px; font-weight: 200;" x="1363.2699985504153" y="0" dx="0em" dy="0.95em" fill="rgb(255, 255, 255)" stroke="none" stroke-width="1px">900</text><text style="text-anchor: middle; visibility: inherit; font-family: Roboto, sans-serif; font-size: 12px; font-weight: 200;" x="1499.5969984054566" y="0" dx="0em" dy="0.95em" fill="rgb(255, 255, 255)" stroke="none" stroke-width="1px">1k</text><text style="text-anchor: middle; visibility: hidden; font-family: Roboto, sans-serif; font-size: 12px; font-weight: 200;" x="1635.9239982604981" y="0" dx="0em" dy="0.95em" fill="rgb(255, 255, 255)" stroke="none" stroke-width="1px">1.1k</text></g><line x1="0" y1="0" x2="1635.9239982604981" y2="0" fill="rgb(0, 0, 0)" stroke="rgb(204, 204, 204)" stroke-width="1px"></line></g></g></g></g></svg>