<svg viewBox="0 0 1705.9000244140625 400" xmlns="http://www.w3.org/2000/svg"><g><g><g><g><g><line x1="41.149001121520996" y1="376.57899951934814" x2="36.149001121520996" y2="376.57899951934814" style="visibility: inherit;" fill="rgb(0, 0, 0)" stroke="rgb(204, 204, 204)" stroke-width="1px"></line><line x1="41.149001121520996" y1="349.68049955368036" x2="36.149001121520996" y2="349.68049955368036" style="visibility: inherit;" fill="rgb(0, 0, 0)" stroke="rgb(204, 204, 204)" stroke-width="1px"></line><line x1="41.149001121520996" y1="322.78199958801264" x2="36.149001121520996" y2="322.78199958801264" style="visibility: inherit;" fill="rgb(0, 0, 0)" stroke="rgb(204, 204, 204)" stroke-width="1px"></line><line x1="41.149001121520996" y1="295.883499622345" x2="36.149001121520996" y2="295.883499622345" style="visibility: inherit;" fill="rgb(0, 0, 0)" stroke="rgb(204, 204, 204)" stroke-width="1px"></line><line x1="41.149001121520996" y1="268.9849996566772" x2="36.149001121520996" y2="268.9849996566772" style="visibility: inherit;" fill="rgb(0, 0, 0)" stroke="rgb(204, 204, 204)" stroke-width="1px"></line><line x1="41.149001121520996" y1="242.08649969100958" x2="36.149001121520996" y2="242.08649969100958" style="visibility: inherit;" fill="rgb(0, 0, 0)" stroke="rgb(204, 204, 204)" stroke-width="1px"></line><line x1="41.149001121520996" y1="215.1879997253417" x2="36.149001121520996" y2="215.1879997253417" style="visibility: inherit;" fill="rgb(0, 0, 0)" stroke="rgb(204, 204, 204)" stroke-width="1px"></line><line x1="41.149001121520996" y1="188.28949975967407" x2="36.149001121520996" y2="188.28949975967407" style="visibility: inherit;" fill="rgb(0, 0, 0)" stroke="rgb(204, 204, 204)" stroke-width="1px"></line><line x1="41.149001121520996" y1="161.39099979400643" x2="36.149001121520996" y2="161.39099979400643" style="visibility: inherit;" fill="rgb(0, 0, 0)" stroke="rgb(204, 204, 204)" stroke-width="1px"></line><line x1="41.149001121520996" y1="134.4924998283386" x2="36.149001121520996" y2="134.4924998283386" style="visibility: inherit;" fill="rgb(0, 0, 0)" stroke="rgb(204, 204, 204)" stroke-width="1px"></line><line x1="41.149001121520996" y1="107.59399986267097" x2="36.149001121520996" y2="107.59399986267097" style="visibility: inherit;" fill="rgb(0, 0, 0)" stroke="rgb(204, 204, 204)" stroke-width="1px"></line><line x1="41.149001121520996" y1="80.6954998970031" x2="36.149001121520996" y2="80.6954998970031" style="visibility: inherit;" fill="rgb(0, 0, 0)" stroke="rgb(204, 204, 204)" stroke-width="1px"></line><line x1="41.149001121520996" y1="53.79699993133547" x2="36.149001121520996" y2="53.79699993133547" style="visibility: inherit;" fill="rgb(0, 0, 0)" stroke="rgb(204, 204, 204)" stroke-width="1px"></line><line x1="41.149001121520996" y1="26.89849996566788" x2="36.149001121520996" y2="26.89849996566788" style="visibility: inherit;" fill="rgb(0, 0, 0)" stroke="rgb(204, 204, 204)" stroke-width="1px"></line><line x1="41.149001121520996" y1="0" x2="36.149001121520996" y2="0" style="visibility: inherit;" fill="rgb(0, 0, 0)" stroke="rgb(204, 204, 204)" stroke-width="1px"></line></g><g transform="translate(31.149001121520996, 0)"><text style="text-anchor: end; visibility: hidden; font-family: Roboto, sans-serif; font-size: 12px; font-weight: 200;" x="0" y="376.57899951934814" dx="0em" dy="0.3em" fill="rgb(255, 255, 255)" stroke="none" stroke-width="1px">3.8</text><text style="text-anchor: end; visibility: inherit; font-family: Roboto, sans-serif; font-size: 12px; font-weight: 200;" x="0" y="349.68049955368036" dx="0em" dy="0.3em" fill="rgb(255, 255, 255)" stroke="none" stroke-width="1px">3.9</text><text style="text-anchor: end; visibility: inherit; font-family: Roboto, sans-serif; font-size: 12px; font-weight: 200;" x="0" y="322.78199958801264" dx="0em" dy="0.3em" fill="rgb(255, 255, 255)" stroke="none" stroke-width="1px">4</text><text style="text-anchor: end; visibility: inherit; font-family: Roboto, sans-serif; font-size: 12px; font-weight: 200;" x="0" y="295.883499622345" dx="0em" dy="0.3em" fill="rgb(255, 255, 255)" stroke="none" stroke-width="1px">4.1</text><text style="text-anchor: end; visibility: inherit; font-family: Roboto, sans-serif; font-size: 12px; font-weight: 200;" x="0" y="268.9849996566772" dx="0em" dy="0.3em" fill="rgb(255, 255, 255)" stroke="none" stroke-width="1px">4.2</text><text style="text-anchor: end; visibility: inherit; font-family: Roboto, sans-serif; font-size: 12px; font-weight: 200;" x="0" y="242.08649969100958" dx="0em" dy="0.3em" fill="rgb(255, 255, 255)" stroke="none" stroke-width="1px">4.3</text><text style="text-anchor: end; visibility: inherit; font-family: Roboto, sans-serif; font-size: 12px; font-weight: 200;" x="0" y="215.1879997253417" dx="0em" dy="0.3em" fill="rgb(255, 255, 255)" stroke="none" stroke-width="1px">4.4</text><text style="text-anchor: end; visibility: inherit; font-family: Roboto, sans-serif; font-size: 12px; font-weight: 200;" x="0" y="188.28949975967407" dx="0em" dy="0.3em" fill="rgb(255, 255, 255)" stroke="none" stroke-width="1px">4.5</text><text style="text-anchor: end; visibility: inherit; font-family: Roboto, sans-serif; font-size: 12px; font-weight: 200;" x="0" y="161.39099979400643" dx="0em" dy="0.3em" fill="rgb(255, 255, 255)" stroke="none" stroke-width="1px">4.6</text><text style="text-anchor: end; visibility: inherit; font-family: Roboto, sans-serif; font-size: 12px; font-weight: 200;" x="0" y="134.4924998283386" dx="0em" dy="0.3em" fill="rgb(255, 255, 255)" stroke="none" stroke-width="1px">4.7</text><text style="text-anchor: end; visibility: inherit; font-family: Roboto, sans-serif; font-size: 12px; font-weight: 200;" x="0" y="107.59399986267097" dx="0em" dy="0.3em" fill="rgb(255, 255, 255)" stroke="none" stroke-width="1px">4.8</text><text style="text-anchor: end; visibility: inherit; font-family: Roboto, sans-serif; font-size: 12px; font-weight: 200;" x="0" y="80.6954998970031" dx="0em" dy="0.3em" fill="rgb(255, 255, 255)" stroke="none" stroke-width="1px">4.9</text><text style="text-anchor: end; visibility: inherit; font-family: Roboto, sans-serif; font-size: 12px; font-weight: 200;" x="0" y="53.79699993133547" dx="0em" dy="0.3em" fill="rgb(255, 255, 255)" stroke="none" stroke-width="1px">5</text><text style="text-anchor: end; visibility: inherit; font-family: Roboto, sans-serif; font-size: 12px; font-weight: 200;" x="0" y="26.89849996566788" dx="0em" dy="0.3em" fill="rgb(255, 255, 255)" stroke="none" stroke-width="1px">5.1</text><text style="text-anchor: end; visibility: hidden; font-family: Roboto, sans-serif; font-size: 12px; font-weight: 200;" x="0" y="0" dx="0em" dy="0.3em" fill="rgb(255, 255, 255)" stroke="none" stroke-width="1px">5.2</text></g><line x1="41.149001121520996" y1="0" x2="41.149001121520996" y2="376.57899951934814" fill="rgb(0, 0, 0)" stroke="rgb(204, 204, 204)" stroke-width="1px"></line></g></g><g transform="translate(41, 0)" clip-path="url(#clip_0)"><clipPath id="clip_0"><rect width="1664" height="376"></rect></clipPath><g><g><g><line x1="0" y1="0" x2="0" y2="376.57899951934814" fill="rgb(0, 0, 0)" stroke="rgb(189, 189, 189)" stroke-width="1px" opacity="0.25"></line><line x1="138.7292499065399" y1="0" x2="138.7292499065399" y2="376.57899951934814" fill="rgb(0, 0, 0)" stroke="rgb(189, 189, 189)" stroke-width="1px" opacity="0.25"></line><line x1="277.4584998130798" y1="0" x2="277.4584998130798" y2="376.57899951934814" fill="rgb(0, 0, 0)" stroke="rgb(189, 189, 189)" stroke-width="1px" opacity="0.25"></line><line x1="416.1877497196198" y1="0" x2="416.1877497196198" y2="376.57899951934814" fill="rgb(0, 0, 0)" stroke="rgb(189, 189, 189)" stroke-width="1px" opacity="0.25"></line><line x1="554.9169996261596" y1="0" x2="554.9169996261596" y2="376.57899951934814" fill="rgb(0, 0, 0)" stroke="rgb(189, 189, 189)" stroke-width="1px" opacity="0.25"></line><line x1="693.6462495326997" y1="0" x2="693.6462495326997" y2="376.57899951934814" fill="rgb(0, 0, 0)" stroke="rgb(189, 189, 189)" stroke-width="1px" opacity="0.25"></line><line x1="832.3754994392395" y1="0" x2="832.3754994392395" y2="376.57899951934814" fill="rgb(0, 0, 0)" stroke="rgb(189, 189, 189)" stroke-width="1px" opacity="0.25"></line><line x1="971.1047493457795" y1="0" x2="971.1047493457795" y2="376.57899951934814" fill="rgb(0, 0, 0)" stroke="rgb(189, 189, 189)" stroke-width="1px" opacity="0.25"></line><line x1="1109.8339992523192" y1="0" x2="1109.8339992523192" y2="376.57899951934814" fill="rgb(0, 0, 0)" stroke="rgb(189, 189, 189)" stroke-width="1px" opacity="0.25"></line><line x1="1248.5632491588594" y1="0" x2="1248.5632491588594" y2="376.57899951934814" fill="rgb(0, 0, 0)" stroke="rgb(189, 189, 189)" stroke-width="1px" opacity="0.25"></line><line x1="1387.2924990653994" y1="0" x2="1387.2924990653994" y2="376.57899951934814" fill="rgb(0, 0, 0)" stroke="rgb(189, 189, 189)" stroke-width="1px" opacity="0.25"></line><line x1="1526.0217489719391" y1="0" x2="1526.0217489719391" y2="376.57899951934814" fill="rgb(0, 0, 0)" stroke="rgb(189, 189, 189)" stroke-width="1px" opacity="0.25"></line><line x1="1664.750998878479" y1="0" x2="1664.750998878479" y2="376.57899951934814" fill="rgb(0, 0, 0)" stroke="rgb(189, 189, 189)" stroke-width="1px" opacity="0.25"></line></g><g><line x1="0" y1="376.57899951934814" x2="1664.750998878479" y2="376.57899951934814" fill="rgb(0, 0, 0)" stroke="rgb(189, 189, 189)" stroke-width="1px" opacity="0.25"></line><line x1="0" y1="349.68049955368036" x2="1664.750998878479" y2="349.68049955368036" fill="rgb(0, 0, 0)" stroke="rgb(189, 189, 189)" stroke-width="1px" opacity="0.25"></line><line x1="0" y1="322.78199958801264" x2="1664.750998878479" y2="322.78199958801264" fill="rgb(0, 0, 0)" stroke="rgb(189, 189, 189)" stroke-width="1px" opacity="0.25"></line><line x1="0" y1="295.883499622345" x2="1664.750998878479" y2="295.883499622345" fill="rgb(0, 0, 0)" stroke="rgb(189, 189, 189)" stroke-width="1px" opacity="0.25"></line><line x1="0" y1="268.9849996566772" x2="1664.750998878479" y2="268.9849996566772" fill="rgb(0, 0, 0)" stroke="rgb(189, 189, 189)" stroke-width="1px" opacity="0.25"></line><line x1="0" y1="242.08649969100958" x2="1664.750998878479" y2="242.08649969100958" fill="rgb(0, 0, 0)" stroke="rgb(189, 189, 189)" stroke-width="1px" opacity="0.25"></line><line x1="0" y1="215.1879997253417" x2="1664.750998878479" y2="215.1879997253417" fill="rgb(0, 0, 0)" stroke="rgb(189, 189, 189)" stroke-width="1px" opacity="0.25"></line><line x1="0" y1="188.28949975967407" x2="1664.750998878479" y2="188.28949975967407" fill="rgb(0, 0, 0)" stroke="rgb(189, 189, 189)" stroke-width="1px" opacity="0.25"></line><line x1="0" y1="161.39099979400643" x2="1664.750998878479" y2="161.39099979400643" fill="rgb(0, 0, 0)" stroke="rgb(189, 189, 189)" stroke-width="1px" opacity="0.25"></line><line x1="0" y1="134.4924998283386" x2="1664.750998878479" y2="134.4924998283386" fill="rgb(0, 0, 0)" stroke="rgb(189, 189, 189)" stroke-width="1px" opacity="0.25"></line><line x1="0" y1="107.59399986267097" x2="1664.750998878479" y2="107.59399986267097" fill="rgb(0, 0, 0)" stroke="rgb(189, 189, 189)" stroke-width="1px" opacity="0.25"></line><line x1="0" y1="80.6954998970031" x2="1664.750998878479" y2="80.6954998970031" fill="rgb(0, 0, 0)" stroke="rgb(189, 189, 189)" stroke-width="1px" opacity="0.25"></line><line x1="0" y1="53.79699993133547" x2="1664.750998878479" y2="53.79699993133547" fill="rgb(0, 0, 0)" stroke="rgb(189, 189, 189)" stroke-width="1px" opacity="0.25"></line><line x1="0" y1="26.89849996566788" x2="1664.750998878479" y2="26.89849996566788" fill="rgb(0, 0, 0)" stroke="rgb(189, 189, 189)" stroke-width="1px" opacity="0.25"></line><line x1="0" y1="0" x2="1664.750998878479" y2="0" fill="rgb(0, 0, 0)" stroke="rgb(189, 189, 189)" stroke-width="1px" opacity="0.25"></line></g></g></g><g><g><line x1="0" y1="1398.7219982147215" x2="1664.750998878479" y2="1398.7219982147215" fill="rgb(0, 0, 0)" stroke="rgb(153, 153, 153)" stroke-width="1.5px"></line></g></g><g><g><line x1="138.7292499065399" y1="0" x2="138.7292499065399" y2="376.57899951934814" fill="rgb(0, 0, 0)" stroke="rgb(153, 153, 153)" stroke-width="1.5px"></line></g></g><g><g><g><g><g><path style="fill: none;" stroke="rgb(51, 187, 238)" stroke-width="2px" d="M140.11654240560532,356.71237626870976L141.50383490467073,358.30382764708037L142.8911274037361,358.1787844252816L144.27841990280152,357.1559648852372L145.6657124018669,355.9575439105818L147.0530049009323,352.68824809869454L148.44029739999772,348.12153038653133L149.8275898990631,343.7945486689194L151.2148823981285,338.4654175180619L152.60217489719392,332.20434247826023L153.9894673962593,325.25165140157094L155.3767598953247,317.27451196993695L156.76405239439012,310.717315852385L158.15134489345553,303.7093720397518L159.5386373925209,296.53843430139347L160.92592989158632,293.5329185825417L162.31322239065173,290.32667627709384L163.7005148897171,286.34405290243603L165.08780738878252,282.5172944086102L166.47509988784793,279.90569847565854L167.8623923869133,278.4171975073817L169.24968488597872,273.01934167325334L170.6369773850441,271.02723662992935L172.02426988410951,269.91001866924694L173.41156238317492,267.73086362414114L174.7988548822403,264.446032231986L176.18614738130572,262.76895997127565L177.57343988037113,262.2631452070258L178.9607323794365,260.1002153747526L180.34802487850192,259.78992201911916L181.7353173775673,258.32353677787864L183.1226098766327,258.9458596180436L184.50990237569812,257.37952067160745L185.8971948747635,255.0692630370606L187.2844873738289,254.8579888312659L188.6717798728943,253.7001513895322L190.0590723719597,251.1709938793308L191.4463648710251,250.28470255077346L192.8336573700905,250.5594907877096L194.2209498691559,249.0211464079806L195.60824236822128,249.08575751208537L196.9955348672867,250.3338300197675L198.3828273663521,249.87926773294467L199.77011986541748,250.16862593755508L201.1574123644829,251.298408737319L202.5447048635483,251.51535593993944L203.93199736261369,250.80935835181828L205.3192898616791,251.49984390305718L206.70658236074448,249.37393112780683L208.0938748598099,251.07739766959745L209.48116735887527,252.6658314710108L210.8684598579407,253.57800181259765L212.2557523570061,252.227692746201L213.64304485607147,254.39939458302618L215.0303373551369,251.34371233584486L216.4176298542023,252.3096477248326L217.80492235326767,249.0139509008081L219.19221485233305,249.71474687043477L220.5795073513985,251.40440301847727L221.96679985046387,249.4256380286804L223.35409234952925,247.86534170941943L224.7413848485947,247.08118009103146L226.12867734766007,246.72806854160177L227.51596984672545,243.69412884065872L228.9032623457909,244.74683477960963L230.29055484485627,243.5493390025108L231.67784734392166,241.96604753863716L233.0651398429871,242.7709026255718L234.45243234205248,241.1725331610488L235.83972484111786,241.00145086388216L237.22701734018324,238.97728216945416L238.61430983924868,237.98816301446791L240.00160233831406,236.72229058811496L241.38889483737944,236.2113389713189L242.77618733644488,236.41453266428664L244.16347983551026,237.80942400280162L245.55077233457564,235.5008604674114L246.93806483364108,232.1430521273665L248.32535733270646,232.2723441265615L249.71264983177184,230.73458715860752L251.09994233083728,231.45527757546142L252.48723482990266,230.22438965408233L253.87452732896804,232.05987088169593L255.26181982803345,231.73729702833793L256.64911232709886,229.74639105766008L258.03640482616424,230.65149711647138L259.4236973252296,230.4093405255187L260.81098982429506,230.53816820889543L262.19828232336044,232.21596989424071L263.5855748224258,232.25586293137044L264.97286732149126,231.40243507583597L266.36015982055665,230.64432045953964L267.747452319622,230.32843643937838L269.1347448186874,231.61453517769618L270.52203731775285,232.7143400310773L271.90932981681823,230.9050760088872L273.2966223158836,229.08175432518294L274.68391481494905,227.7015830449857L276.07120731401443,228.2236178445718L277.4584998130798,226.68688962809762L278.84579231214525,225.04053128991197L280.23308481121063,226.36374177481173L281.620377310276,224.083483423069L283.00766980934145,224.70128657847178L284.39496230840683,223.6019315463666L285.7822548074722,223.93039800029163L287.1695473065376,220.50176644577112L288.55683980560303,220.29761489831262L289.9441323046684,221.02816916432818L291.3314248037338,217.6727157161303L292.71871730279923,217.53422427493055L294.1060098018646,215.97196022741377L295.49330230093,219.02698875383757L296.88059479999544,219.65321396106063L298.2678872990608,218.55937390340182L299.6551797981262,219.4479092175351L301.04247229719164,218.46620437530981L302.429764796257,215.13565726159038L303.8170572953224,215.54762930232454L305.20434979438784,215.5663008712494L306.5916422934532,216.0978885727966L307.9789347925186,216.09592956255042L309.36622729158404,213.6931756663495L310.7535197906494,213.0749143388163L312.14081228971486,215.55588971715363L313.52810478878024,213.83582037576443L314.9153972878456,215.16672473368195L316.30268978691106,215.9333044473577L317.68998228597644,213.0163179069714L319.0772747850418,213.69782040045052L320.46456728410726,213.79442947464204L321.85185978317264,210.95526320040432L323.239152282238,209.12668229168833L324.62644478130346,206.08533770115747L326.01373728036884,205.8003937283056L327.4010297794342,206.48975782311828L328.78832227849966,205.21631997818122L330.17561477756504,205.53720023915648L331.5629072766304,206.96155705513428L332.95019977569586,205.13667446025195L334.33749227476125,206.4299841409205L335.7247847738266,209.059612992381L337.11207727289207,207.0420513281253L338.49936977195745,206.55450181262748L339.88666227102283,204.4974455276314L341.2739547700882,206.3422190521272L342.66124726915365,206.7113712012515L344.04853976821903,207.10817105087366L345.4358322672844,209.1391491002195L346.82312476634985,210.92998986014214L348.21041726541523,208.61386156132923L349.5977097644806,204.8798622679104L350.98500226354605,205.6664982075952L352.37229476261143,205.4435560233232L353.7595872616768,207.1518388671472L355.14687976074225,206.45902068615334L356.53417225980763,206.39466516529225L357.921464758873,205.47206985355297L359.3087572579384,204.13657594856687L360.69604975700383,207.1101854406769L362.0833422560692,203.0401123672082L363.4706347551346,201.49523586035298L364.85792725420004,202.3749577868045L366.2452197532654,198.60544815469578L367.6325122523308,197.8860164833023L369.01980475139624,200.1063547829514L370.4070972504616,199.23178366334656L371.794389749527,199.3050499401001L373.1816822485924,198.25909017095285L374.5689747476578,198.06396261308885L375.9562672467232,199.35838420736727L377.3435597457886,200.2231275349537L378.730852244854,199.5176353754143L380.1181447439194,199.2978149844451L381.5054372429848,198.09837211493465L382.8927297420502,200.02305927796064L384.2800222411156,196.03446104843607L385.667314740181,195.20933123679453L387.0546072392464,197.2303441917061L388.4418997383118,197.9945991677172L389.8291922373772,197.22886530204974L391.21648473644257,196.14401926178311L392.603777235508,195.5707871307644L393.9910697345734,190.42574306473244L395.37836223363877,188.36075988724417L396.7656547327042,192.45280222435125L398.1529472317696,191.7166114767811L399.54023973083497,192.26466956039243L400.9275322299004,188.98123484577297L402.3148247289658,189.67404794071876L403.70211722803117,191.86898685590128L405.0894097270966,190.3786532210603L406.476702226162,189.22520979917638L407.86399472522737,187.0969166951906L409.25128722429275,187.0425346251078L410.6385797233582,186.15532104405338L412.0258722224236,186.8595415979897L413.41316472148895,190.12210338763353L414.8004572205544,188.41688695657334L416.1877497196198,189.84402385945057L417.5750422186852,190.91173315258715L418.96233471775054,188.65861312764721L420.349627216816,184.65264031269578L421.7369197158814,184.7957251366337L423.12421221494674,185.15241416064762L424.5115047140122,185.25422393998366L425.8987972130776,186.2417208905779L427.28608971214294,183.03022339451738L428.6733822112084,183.49500155722725L430.0606747102738,180.39472797912458L431.44796720933914,180.77114603041235L432.8352597084046,182.02996804936578L434.2225522074699,179.3802118523563L435.60984470653534,177.81939666064878L436.9971372056008,179.85089121683885L438.3844297046661,181.71479211156438L439.77172220373154,177.91874682474682L441.159014702797,177.4783451542328L442.5463072018623,178.0307229262497L443.93359970092774,175.30935905552218L445.3208921999932,174.71941375097316L446.7081846990585,176.78862438631006L448.09547719812394,177.5089451302457L449.4827696971894,174.00436504344677L450.8700621962547,177.0131159224501L452.25735469532015,177.42215715636124L453.6446471943856,174.0303268859773L455.0319396934509,174.67041580357684L456.41923219251635,174.33240515778942L457.8065246915818,176.20882909431558L459.1938171906471,174.2734276274664L460.58110968971255,171.1462374595906L461.968402188778,170.56393345662445L463.3556946878433,167.910913460701L464.74298718690875,168.81154078434477L466.1302796859742,167.61658304378298L467.5175721850395,167.78902870928493L468.90486468410495,167.7545887601291L470.2921571831703,167.47406589185078L471.6794496822357,164.54750259211377L473.06674218130115,168.35685465090657L474.4540346803665,171.08435427615922L475.8413271794319,169.4165159989639L477.22861967849735,169.9909222234846L478.6159121775627,168.43857034465907L480.0032046766281,168.65028184793118L481.39049717569355,167.99496159341498L482.7777896747589,169.18000822538806L484.1650821738243,167.25991996266055L485.55237467288975,169.6552359761356L486.9396671719551,168.4584362725495L488.3269596710205,166.77228585589222L489.71425217008596,165.67830267921462L491.1015446691513,167.08457164127225L492.4888371682167,164.29241193302158L493.87612966728216,166.78855687480353L495.2634221663475,165.9283770540182L496.6507146654129,163.68416900601466L498.03800716447836,160.49713516733976L499.4252996635437,161.45408545754887L500.8125921626091,161.23462141542504L502.19988466167456,160.8249221861005L503.5871771607399,163.77816321609313L504.9744696598053,162.89631486300382L506.3617621588707,161.21674663173252L507.7490546579361,161.85060592681333L509.1363471570015,160.33551633965507L510.5236396560669,158.67987488842306L511.9109321551323,155.58170989475232L513.2982246541977,154.28675344848924L514.685517153263,156.54543430574623L516.0728096523285,156.4312215525592L517.4601021513939,155.8787355606198L518.8473946504593,159.19871041053293L520.2346871495247,160.74870432086965L521.6219796485901,159.25028975765747L523.0092721476555,159.3728225385066L524.3965646467209,155.47319455850769L525.7838571457863,155.08382169868312L527.1711496448517,154.35069428316953L528.5584421439171,155.4074306544837L529.9457346429825,155.25999750268377L531.3330271420479,152.02137053474524L532.7203196411133,151.9572845863403L534.1076121401787,153.30611527260666L535.494904639244,155.4137333867651L536.8821971383095,160.88237488569L538.2694896373748,159.44028440521686L539.6567821364403,165.04697888396385L541.0440746355057,165.0661780181465L542.431367134571,161.51981104003195L543.8186596336365,157.65516887871837L545.2059521327019,156.66738445284315L546.5932446317672,159.07635342857301L547.9805371308327,157.85475650492256L549.3678296298981,159.1140670096885L550.7551221289634,156.70491566762348L552.1424146280289,153.27515975490124L553.5297071270943,153.4272099005076L554.9169996261596,151.02866851716456L556.3042921252251,152.7153409758783L557.6915846242905,149.09477598797199L559.0788771233558,147.8341235957033L560.4661696224213,148.34455070502042L561.8534621214867,147.9920531186071L563.240754620552,150.98715694246528L564.6280471196175,148.51340103925875L566.0153396186829,145.7984475439193L567.4026321177482,146.89930215679334L568.7899246168137,148.12955491879327L570.1772171158791,146.932437568873L571.5645096149444,147.11733715975203L572.9518021140099,148.45476987269015L574.3390946130752,149.21505694076862L575.7263871121406,148.98902902818213L577.1136796112061,152.02687174446763L578.5009721102714,151.2160498059217L579.8882646093368,150.45353672661216L581.2755571084023,149.04037405026747L582.6628496074676,149.20035957706241L584.050142106533,148.74231017290674L585.4374346055985,148.00989286639324L586.8247271046638,147.42088894053887L588.2120196037292,152.2591749452897L589.5993121027947,149.19893634781224L590.98660460186,150.46899203790016L592.3738971009254,149.7096837094718L593.7611895999909,147.57104418632667L595.1484820990562,142.6225930315535L596.5357745981216,141.77928613182908L597.9230670971871,142.1611318525022L599.3103595962524,137.16422800197975L600.6976520953178,136.5032766362159L602.0849445943833,140.66862754669827L603.4722370934486,140.13890429901753L604.859529592514,138.7937426921134L606.2468220915795,137.83878524499L607.6341145906448,138.43961368792984L609.0214070897102,138.45913893901985L610.4086995887757,139.41455489604087L611.795992087841,138.683892542787L613.1832845869064,138.73371177068412L614.5705770859719,137.3124465547808L615.9578695850372,136.1901832208327L617.3451620841026,134.15811974829822L618.7324545831681,136.3174064827003L620.1197470822334,136.99501200095983L621.5070395812988,139.64492974592665L622.8943320803643,141.10359136586038L624.2816245794297,142.30606176631963L625.668917078495,138.93572831605525L627.0562095775605,134.82465261627675L628.4435020766259,131.9868681492608L629.8307945756912,131.95175794036479L631.2180870747567,131.88533835668062L632.6053795738221,132.31938920233884L633.9926720728874,136.71729668752332L635.3799645719529,133.69799203062033L636.7672570710183,130.90258806311274L638.1545495700836,128.46593177938743L639.5418420691491,127.0720195014894L640.9291345682145,133.70339609753947L642.3164270672798,129.8552104579897L643.7037195663453,128.55561874174137L645.0910120654107,126.27052907245711L646.478304564476,124.81343709255236L647.8655970635415,123.22317187668428L649.2528895626069,128.48038434796956L650.6401820616722,124.52119632544634L652.0274745607377,127.0203594071235L653.4147670598031,128.43623040420124L654.8020595588685,126.19084121364281L656.1893520579339,125.79023288025138L657.5766445569993,123.99876934379753L658.9639370560647,125.48795206784229L660.3512295551301,127.99976954913404L661.7385220541955,127.45589866815119L663.1258145532609,129.84806448505262L664.5131070523263,128.44964501041906L665.9003995513917,126.98334063135579L667.287692050457,124.24422012615659L668.6749845495225,123.1785939784196L670.0622770485879,119.21553832137113L671.4495695476533,117.03353541414336L672.8368620467187,118.12319300455165L674.2241545457841,120.86781277146764L675.6114470448495,119.43906606368901L676.9987395439149,119.81718673079673L678.3860320429802,120.73436544560246L679.7733245420457,119.72752016964513L681.1606170411111,118.98955873616748L682.5479095401764,120.8913094094805L683.9352020392419,122.02050840071047L685.3224945383073,124.77520592676154L686.7097870373726,124.73045065305519L688.0970795364381,121.97407860765637L689.4843720355035,122.5105093286942L690.8716645345688,121.86999200151305L692.2589570336343,122.45313654190451L693.6462495326997,122.71318853133717L695.033542031765,122.33667572314356L696.4208345308305,118.34884232186057L697.8081270298959,116.22918651787914L699.1954195289612,119.43014699325188L700.5827120280267,122.46742392821903L701.9700045270921,122.58000575338421L703.3572970261574,124.63643738950857L704.7445895252229,119.73629243461554L706.1318820242883,119.14945481399229L707.5191745233536,120.16016209915473L708.9064670224191,116.12729707607281L710.2937595214845,115.2958725910649L711.6810520205498,117.45440220834456L713.0683445196153,119.01722851451865L714.4556370186806,114.69310225293712L715.842929517746,112.7663586909902L717.2302220168115,115.344328449668L718.6175145158768,117.20802016031278L720.0048070149422,117.45010282449854L721.3920995140077,113.29985660844713L722.779392013073,116.69534619563697L724.1666845121384,116.06832948935364L725.5539770112039,119.246619806277L726.9412695102692,121.70553121916103L728.3285620093346,123.42421681455902L729.7158545084001,126.89871747818081L731.1031470074654,129.46804317900379L732.4904395065308,127.98783617510911L733.8777320055963,128.97408216195404L735.2650245046616,128.88660528002094L736.652317003727,123.57286145856358L738.0396095027925,120.47008899103474L739.4269020018578,121.80640867694497L740.8141945009232,119.1042353926751L742.2014869999887,115.02255761162438L743.588779499054,111.02122109096382L744.9760719981194,110.08337603914991L746.3633644971848,112.36824027346216L747.7506569962502,114.64043053664655L749.1379494953156,111.20730864549566L750.525241994381,110.20800869060372L751.9125344934464,111.98799744117102L753.2998269925118,112.66904976068507L754.6871194915772,114.98693861722663L756.0744119906426,110.18748921982196L757.461704489708,111.68201698542579L758.8489969887734,115.01684116464054L760.2362894878388,110.30526992241344L761.6235819869042,111.98314664554748L763.0108744859696,111.24550889686445L764.398166985035,112.68801914361744L765.7854594841004,112.57981116727868L767.1727519831658,112.15821529275843L768.5600444822312,106.38988731648286L769.9473369812966,108.12842852800242L771.334629480362,108.16295185487265L772.7219219794274,107.31297179940968L774.1092144784928,107.22029714870195L775.4965069775582,102.44172480735197L776.8837994766236,101.779303309251L778.271091975689,102.26198454832793L779.6583844747544,106.4919571621339L781.0456769738198,106.28087471391429L782.4329694728851,106.53813919159805L783.8202619719506,108.5884673954034L785.207554471016,107.25927221012883L786.5948469700813,102.6216408412845L787.9821394691468,101.20849019892472L789.3694319682122,98.35535103581756L790.7567244672775,95.28132464303988L792.144016966343,94.88221681086162L793.5313094654084,95.1007502141116L794.9186019644737,90.23698717432507L796.3058944635392,88.44861533820007L797.6931869626046,87.3032011395488L799.0804794616699,91.82985596644069L800.4677719607354,90.85734033952784L801.8550644598008,93.23837721184695L803.2423569588661,93.12354521657251L804.6296494579316,93.42280938716308L806.016941956997,98.63075301684239L807.4042344560623,97.88636641047266L808.7915269551278,97.31039500265553L810.1788194541932,98.44182653844236L811.5661119532585,102.27670128592634L812.953404452324,100.58872790704777L814.3406969513894,102.25872407248636L815.7279894504547,104.20611563708192L817.1152819495202,100.2022554364526L818.5025744485855,106.73893151982206L819.889866947651,104.69321214560804L821.2771594467164,102.60191001017357L822.6644519457817,107.3508184299596L824.0517444448471,105.72864083968099L825.4390369439126,105.22810817540571L826.8263294429779,108.30574904177473L828.2136219420433,101.34103904769613L829.6009144411088,98.85922248759773L830.9882069401741,96.98216552436976L832.3754994392395,98.21831295619532L833.762791938305,97.5093064060033L835.1500844373704,97.1209445538593L836.5373769364356,98.47909504117352L837.9246694355011,94.41828334202846L839.3119619345665,94.2970288053573L840.699254433632,90.94492347695211L842.0865469326974,91.39613758790033L843.4738394317628,94.24595921180678L844.861131930828,94.11016138974706L846.2484244298935,99.45724539748333L847.6357169289589,98.53602237580863L849.0230094280244,99.40633027565568L850.4103019270898,101.04542088457603L851.7975944261552,100.95860545969117L853.1848869252204,105.43185760008431L854.5721794242859,104.77837922492185L855.9594719233513,108.02431678281212L857.3467644224168,105.34649352881041L858.7340569214822,104.43554420156678L860.1213494205476,102.5498675732001L861.5086419196128,102.90814826648925L862.8959344186783,104.91488611605844L864.2832269177437,100.84489623403603L865.6705194168092,101.07885895690949L867.0578119158746,101.71935594805797L868.4451044149398,102.37336356642165L869.8323969140052,105.27000756657851L871.2196894130707,102.50953629552677L872.6069819121361,104.7793033592751L873.9942744112016,103.41477431019415L875.381566910267,99.48241883368698L876.7688594093322,102.78326080293274L878.1561519083976,103.66358548585416L879.5434444074631,104.48662907967717L880.9307369065285,100.43649019202711L882.318029405594,99.52641467667273L883.7053219046594,101.81126656729221L885.0926144037246,98.64765274407267L886.47990690279,100.91476863881724L887.8671994018555,105.06196714721217L889.2544919009209,103.48550820033869L890.6417843999864,101.77242059678963L892.0290768990518,98.22119190873042L893.416369398117,94.94020069574569L894.8036618971825,99.11197170184712L896.1909543962479,98.00394475151582L897.5782468953133,95.977293515306L898.9655393943788,95.2597290720392L900.3528318934442,96.63994262201444L901.7401243925094,96.87632099117343L903.1274168915749,94.82194270560426L904.5147093906403,96.8128486996231L905.9020018897057,100.15778240139812L907.2892943887712,99.72996991572447L908.6765868878364,101.1229888192711L910.0638793869018,99.4827270768671L911.4511718859673,95.53130462764979L912.8384643850327,94.18326399250728L914.2257568840981,93.18317525314549L915.6130493831636,92.58127503611163L917.0003418822288,89.08356360557339L918.3876343812942,88.30901146785044L919.7749268803597,89.95901344267224L921.1622193794251,89.50350140480877L922.5495118784905,90.4326764860825L923.936804377556,90.960835179446L925.3240968766212,94.87912333901784L926.7113893756866,90.93622648800296L928.0986818747521,92.7490092088909L929.4859743738175,92.14700599392525L930.8732668728829,94.25920929898679L932.2605593719484,97.23646953229019L933.6478518710136,94.14384017244193L935.035144370079,93.47991954410949L936.4224368691445,96.64643108086442L937.8097293682099,100.28362172071645L939.1970218672753,99.52006480959763L940.5843143663405,101.94854489416623L941.971606865406,99.12450247914217L943.3588993644714,97.1376395724626L944.7461918635369,99.47277931125002L946.1334843626023,97.42228027700051L947.5207768616677,95.69524761695693L948.908069360733,97.01997309581367L950.2953618597984,95.5808940354693L951.6826543588638,96.68267761958906L953.0699468579293,93.41626140880189L954.4572393569947,99.68996265048118L955.8445318560601,98.17004375474951L957.2318243551254,103.30775123450965L958.6191168541908,106.52674392630848L960.0064093532562,97.55453197511976L961.3937018523217,100.17398670508832L962.7809943513871,94.5169134184916L964.1682868504525,93.88589559256579L965.5555793495178,92.49529737903778L966.9428718485832,94.75892852875401L968.3301643476486,95.10445273798827L969.7174568467141,93.4326257263535L971.1047493457795,92.23513556725145L972.4920418448448,93.32888152742218L973.8793343439102,96.04891667756586L975.2666268429756,94.7861147656705L976.653919342041,97.8332501620246L978.0412118411065,99.33795191817151L979.4285043401719,93.89441839717328L980.8157968392372,96.59720331960419L982.2030893383026,97.48203448938119L983.590381837368,93.38918915665958L984.9776743364334,90.94707773356721L986.3649668354989,92.75315993464118L987.7522593345643,93.62902474589218L989.1395518336296,93.80469608460449L990.526844332695,92.43703497827384L991.9141368317604,89.649975978538L993.3014293308258,84.04225066596439L994.6887218298913,82.17971791447616L996.0760143289567,83.77617178516621L997.463306828022,86.10762797671511L998.8505993270874,87.81043142834744L1000.2378918261528,83.31089429861015L1001.6251843252182,82.55485501789803L1003.0124768242837,79.69477900178995L1004.3997693233491,78.1166920453991L1005.7870618224144,77.11874027369878L1007.1743543214798,73.06207584064916L1008.5616468205452,73.13216269550655L1009.9489393196106,72.34282024676075L1011.3362318186761,73.35100050598406L1012.7235243177414,77.19919398147506L1014.1108168168068,76.33675410043483L1015.4981093158722,81.86392111693047L1016.8854018149376,88.08489485369923L1018.272694314003,88.52704464885713L1019.6599868130685,84.76075069072714L1021.0472793121338,84.95791070359019L1022.4345718111992,85.75101897107453L1023.8218643102646,90.75017313420376L1025.2091568093301,87.8311419274773L1026.5964493083954,85.92514178941605L1027.983741807461,85.78834743802142L1029.371034306526,81.73886931819517L1030.7583268055917,81.33597924718688L1032.145619304657,77.0449099026291L1033.5329118037225,81.94014706100307L1034.9202043027879,80.71533998046479L1036.3074968018534,82.43128684664372L1037.6947893009185,80.36578926309495L1039.082081799984,78.60020589880283L1040.4693742990494,74.75951913374702L1041.856666798115,78.50143107879877L1043.2439592971803,76.96813237834576L1044.6312517962456,81.48220547447946L1046.018544295311,82.21023208596138L1047.4058367943765,78.22754849527449L1048.7931292934418,73.16059645871266L1050.1804217925073,71.43588074809719L1051.5677142915727,72.81602036905286L1052.955006790638,71.78450973977942L1054.3422992897033,72.7448169384238L1055.7295917887689,69.45400327575246L1057.1168842878342,71.21768666418347L1058.5041767868997,68.54747302646386L1059.891469285965,72.53505597542284L1061.2787617850304,71.18281583735425L1062.6660542840957,72.80557749862903L1064.0533467831613,71.25031744921394L1065.4406392822266,72.37315066140157L1066.8279317812921,70.95874453135123L1068.2152242803575,73.18669682240915L1069.6025167794228,73.1502947664463L1070.989809278488,77.76368984649437L1072.3771017775537,86.04155642583588L1073.764394276619,84.57988539615702L1075.1516867756845,89.26996848558416L1076.5389792747496,90.59715343387366L1077.9262717738152,88.05377733149508L1079.3135642728805,86.85138245655041L1080.700856771946,89.13512519522087L1082.0881492710114,92.05939374941865L1083.475441770077,89.48357179172326L1084.862734269142,93.65959182391474L1086.2500267682076,92.8543500791067L1087.637319267273,88.52960293484533L1089.0246117663385,88.801616524932L1090.4119042654038,86.31636740888104L1091.7991967644693,86.58245923091464L1093.1864892635344,97.58702917960123L1094.5737817626,96.47306490847184L1095.9610742616653,95.10837736764852L1097.3483667607309,97.66388266607257L1098.7356592597962,98.04667532089196L1100.1229517588617,105.37596281363453L1101.5102442579268,99.96944127901564L1102.8975367569924,100.81806231622407L1104.2848292560577,103.66524676017293L1105.6721217551233,103.54156501631338L1107.0594142541886,102.278366832912L1108.4467067532541,99.75125260881455L1109.8339992523192,100.13074837228284L1111.2212917513848,102.17756073149208L1112.6085842504501,99.25549887939604L1113.9958767495157,98.45432525969818L1115.383169248581,97.93950338448518L1116.7704617476463,97.20647333610866L1118.1577542467116,92.11017879916362L1119.5450467457772,91.56721029846464L1120.9323392448425,93.8099535630532L1122.319631743908,95.65433364916802L1123.7069242429734,94.8584251670484L1125.0942167420387,94.86653147676934L1126.481509241104,100.90089128666719L1127.8688017401696,104.51227230552185L1129.256094239235,103.94819680559691L1130.6433867383005,103.3254202090841L1132.0306792373658,97.83440657094062L1133.4179717364311,96.2364486906831L1134.8052642354965,91.16913290160284L1136.192556734562,92.12107907827153L1137.5798492336273,91.40331586340947L1138.9671417326929,93.15439528312511L1140.3544342317582,93.46717705493029L1141.7417267308235,93.2871957984295L1143.1290192298889,87.62484493194388L1144.5163117289544,82.7066057177425L1145.9036042280197,79.22660691493367L1147.2908967270853,76.43214030130996L1148.6781892261504,76.83628110646555L1150.065481725216,76.00541751029391L1151.4527742242813,77.37552340225365L1152.8400667233468,78.49043483363157L1154.2273592224121,77.83669220192098L1155.6146517214777,80.8484699349332L1157.0019442205428,77.11235891229057L1158.3892367196083,76.00160438279458L1159.7765292186737,75.10858959263224L1161.1638217177392,74.22149663561687L1162.5511142168045,75.31898968249338L1163.93840671587,77.63298934990658L1165.3256992149352,83.603524978246L1166.7129917140007,82.70570450382083L1168.100284213066,79.4903372996391L1169.4875767121316,75.27964306398808L1170.874869211197,74.0469800962712L1172.2621617102625,72.4942522688809L1173.6494542093276,70.28774217147823L1175.0367467083931,67.96354609337072L1176.4240392074585,72.28181983440207L1177.811331706524,71.27682944608325L1179.1986242055893,71.86174694901759L1180.5859167046547,76.05486390114318L1181.97320920372,77.31453562488687L1183.3605017027855,75.5216692583566L1184.7477942018509,73.26332209867735L1186.1350867009164,72.98761324092247L1187.5223791999817,73.22200636619625L1188.909671699047,74.37032015469401L1190.2969641981124,76.06832026637134L1191.684256697178,75.872068349188L1193.0715491962433,78.5136441788079L1194.4588416953088,79.52423224876222L1195.8461341943741,71.39322081832518L1197.2334266934395,74.53453166966766L1198.6207191925048,72.26137058064704L1200.0080116915703,73.24708063753073L1201.3953041906357,70.9624612327506L1202.7825966897012,72.0662748347177L1204.1698891887665,66.64237514889933L1205.5571816878319,63.970498926333086L1206.9444741868972,63.771688647391365L1208.3317666859627,64.34630013176667L1209.719059185028,64.83790140902985L1211.1063516840936,64.58595282473709L1212.493644183159,65.89471355053273L1213.8809366822243,63.80305236520867L1215.2682291812896,63.20029379424172L1216.6555216803552,62.92400986737277L1218.0428141794205,63.00101390593051L1219.430106678486,59.126604813302L1220.8173991775514,55.870007354481785L1222.2046916766167,64.48699601115919L1223.591984175682,62.780086297225985L1224.9792766747476,66.54791299883661L1226.3665691738129,70.92087964603614L1227.7538616728784,64.95038449693345L1229.1411541719438,60.39858027808653L1230.528446671009,57.08924115285867L1231.9157391700744,50.341370636872L1233.30303166914,54.14356796924434L1234.6903241682053,50.210231259565106L1236.0776166672708,54.729435639199984L1237.4649091663362,53.04680328906906L1238.8522016654015,49.71963137458622L1240.2394941644668,52.21583453825481L1241.6267866635324,47.661640207302845L1243.0140791625977,50.86621965713826L1244.4013716616632,47.99540434773754L1245.7886641607286,49.66457401320621L1247.1759566597939,46.38740797794489L1248.5632491588594,43.73444468426359L1249.9505416579248,42.293041127075064L1251.33783415699,43.42980512843659L1252.7251266560554,43.55664279822687L1254.112419155121,40.957404405819894L1255.4997116541863,42.28396255344426L1256.8870041532518,39.57234100900364L1258.2742966523172,35.73782441068762L1259.6615891513825,35.288961826157845L1261.0488816504478,35.88690090427688L1262.4361741495134,37.122668895241006L1263.8234666485787,39.36823301374334L1265.2107591476442,42.704351416235646L1266.5980516467096,39.26263266460713L1267.985344145775,38.193992267193835L1269.3726366448402,36.96023739084566L1270.7599291439058,38.14242726787296L1272.147221642971,36.48694825792176L1273.5345141420366,39.20145998624131L1274.921806641102,37.1564855923369L1276.3090991401673,36.33388552464638L1277.6963916392326,36.30684018623346L1279.0836841382982,40.12821330482551L1280.4709766373635,43.172857966266L1281.858269136429,44.36223371505438L1283.2455616354944,49.70334845056599L1284.6328541345597,49.206426040455824L1286.020146633625,58.37036871363738L1287.4074391326906,61.45581746290671L1288.794731631756,60.83732412044405L1290.1820241308214,61.774398342254834L1291.5693166298868,65.26938013718471L1292.956609128952,64.6275128562493L1294.3439016280174,60.96278335719998L1295.731194127083,63.84425126003546L1297.1184866261483,62.06983386854338L1298.5057791252138,62.93737415174005L1299.8930716242792,64.95394678929217L1301.2803641233445,67.03525138603102L1302.6676566224098,67.33807592575364L1304.0549491214754,69.25377085908953L1305.4422416205407,65.09242097825924L1306.8295341196063,65.42460997135942L1308.2168266186716,61.27235138752867L1309.604119117737,63.21470722915265L1310.9914116168022,58.778301665692815L1312.3787041158678,64.09204867521731L1313.765996614933,62.50833322964375L1315.1532891139987,60.73266075942726L1316.540581613064,58.39854045438505L1317.9278741121293,58.801996946616015L1319.3151666111946,55.2366890576069L1320.7024591102602,50.69926064726192L1322.0897516093255,51.05037258593224L1323.477044108391,55.712502207785356L1324.8643366074562,56.39479019935584L1326.2516291065217,57.02118237077608L1327.638921605587,54.572174442218014L1329.0262141046526,53.94765741364942L1330.413506603718,55.001837658513516L1331.8007991027835,53.303003610035546L1333.1880916018486,57.88552224938334L1334.575384100914,54.23383400878934L1335.9626765999794,54.853965909668425L1337.349969099045,61.86283619467892L1338.7372615981103,64.71817471243257L1340.1245540971759,64.10054867585947L1341.511846596241,67.10003257701159L1342.8991390953065,66.22140624402796L1344.2864315943718,67.13153489625297L1345.6737240934374,71.62300383002687L1347.0610165925027,65.38817915844531L1348.4483090915683,62.67291895482654L1349.8356015906334,64.4263920359489L1351.222894089699,63.370822691931416L1352.6101865887642,63.57631484566554L1353.9974790878298,63.71669464201161L1355.384771586895,64.4312535031302L1356.7720640859604,63.65540301830714L1358.1593565850258,62.90699796573519L1359.5466490840913,66.6920901874622L1360.9339415831566,69.44715516534274L1362.3212340822222,70.17645091956942L1363.7085265812875,76.39490125233834L1365.0958190803528,74.14393238378354L1366.4831115794182,68.37887937715342L1367.8704040784837,69.12201992537113L1369.257696577549,71.25054834185282L1370.6449890766146,67.85225740630015L1372.03228157568,74.10839959368101L1373.4195740747452,71.97875630605968L1374.8068665738106,72.81334356935413L1376.1941590728761,71.13133248235545L1377.5814515719414,71.36513893968413L1378.968744071007,72.90214515574344L1380.3560365700723,74.27839651701686L1381.7433290691376,73.39805694479954L1383.130621568203,70.47945916155129L1384.5179140672685,74.33519873693317L1385.9052065663338,72.93848332628382L1387.2924990653994,66.58205664411994L1388.6797915644645,66.13995321688293L1390.06708406353,64.4959255048756L1391.4543765625954,66.02411187987074L1392.841669061661,66.21152051003632L1394.2289615607262,67.30080940637144L1395.6162540597918,62.68491628113342L1397.003546558857,66.53375312112256L1398.3908390579224,65.30168891760913L1399.7781315569878,64.07808161693686L1401.1654240560533,65.33921287970065L1402.5527165551186,66.18926640454322L1403.9400090541842,66.33272560102472L1405.3273015532493,65.00268555637464L1406.7145940523149,61.00221484406642L1408.1018865513802,59.427529534005465L1409.4891790504457,51.16552271865166L1410.876471549511,52.330368543614924L1412.2637640485766,52.35215506205535L1413.6510565476417,52.33567539845028L1415.0383490467073,51.71546549565854L1416.4256415457726,51.796771527815736L1417.8129340448381,49.969184070060315L1419.2002265439035,54.77150555504867L1420.587519042969,55.10397252117898L1421.974811542034,58.88827418847678L1423.3621040410997,60.77622386266829L1424.749396540165,62.60545655978039L1426.1366890392305,57.545751159318044L1427.5239815382959,52.644997816211756L1428.9112740373612,53.039102399986874L1430.2985665364265,53.96192099387357L1431.685859035492,56.57349967027641L1433.0731515345574,61.27758252942429L1434.460444033623,60.27048677956328L1435.8477365326883,57.6383551275993L1437.2350290317536,60.21861418557796L1438.622321530819,58.395478781658404L1440.0096140298845,54.99046944186109L1441.3969065289498,57.81803534780326L1442.7841990280153,58.6346972775166L1444.1714915270807,59.061640815086584L1445.558784026146,59.166765555985386L1446.9460765252113,59.20152014146679L1448.3333690242769,54.990495051439325L1449.7206615233422,56.149720669979715L1451.1079540224077,55.62486835593201L1452.495246521473,57.54058780686517L1453.8825390205384,56.30244720244975L1455.2698315196037,55.762832525286214L1456.6571240186693,52.39797068335697L1458.0444165177346,50.979627767572715L1459.4317090168001,49.47864128982871L1460.8190015158652,48.770904210789745L1462.2062940149308,48.29654759556344L1463.5935865139961,49.20543758742092L1464.9808790130617,43.63410867415911L1466.368171512127,39.551188034223685L1467.7554640111925,38.95276997655104L1469.1427565102576,43.521444218055166L1470.5300490093232,38.68184898320476L1471.9173415083885,37.72408355619564L1473.304634007454,36.34255344092031L1474.6919265065194,32.149937645984L1476.079219005585,29.60148178123921L1477.46651150465,31.6257798971086L1478.8538040037156,32.896588846209355L1480.241096502781,30.83453881316231L1481.6283890018465,26.53425729596938L1483.0156815009118,32.81484074327127L1484.4029739999773,31.16252905251885L1485.7902664990424,29.93755120565514L1487.177558998108,28.024195457598267L1488.5648514971733,25.45898904506541L1489.9521439962389,25.92383135480845L1491.3394364953042,24.804321340026938L1492.7267289943695,30.750680217386897L1494.1140214934348,28.39684224535357L1495.5013139925004,29.42341655424345L1496.8886064915657,33.789076309466246L1498.2758989906313,31.294869734014707L1499.6631914896966,31.276848008918044L1501.050483988762,31.53625744570573L1502.4377764878273,30.645079618971852L1503.8250689868928,30.20041287700207L1505.2123614859581,34.287801357184556L1506.5996539850237,34.23963765817196L1507.986946484089,28.80480216214856L1509.3742389831543,23.16828261195112L1510.7615314822197,22.43298117851898L1512.1488239812852,26.000502205242345L1513.5361164803505,25.203865345158974L1514.923408979416,27.50178166497315L1516.3107014784814,29.01669444153597L1517.6979939775467,28.243870201813934L1519.085286476612,29.23507766227286L1520.4725789756776,28.060452910040357L1521.859871474743,28.1370504236551L1523.2471639738085,24.744047039316946L1524.6344564728738,25.636929190003986L1526.0217489719391,25.14276558126378" fill="none"></path></g></g></g></g><g opacity="0.2"><g><g><g><path style="fill: none;" stroke="rgb(51, 187, 238)" stroke-width="2px" d="M140.11654240560532,356.71237626870993L141.50383490467073,359.2586984741028L142.8911274037361,358.05874293235473L144.27841990280152,355.9531291061448L145.6657124018669,354.39288548607163L147.0530049009323,348.16563504436243L148.44029739999772,341.5910509906546L149.8275898990631,337.4857677856168L151.2148823981285,330.6059842009817L152.60217489719392,322.90737573488445L153.9894673962593,314.88567518288437L155.3767598953247,305.352214063003L156.76405239439012,300.90293205908023L158.15134489345553,293.2111856122746L159.5386373925209,285.7904568619806L160.92592989158632,289.02676472680736L162.31322239065173,285.51866959321205L163.7005148897171,280.3711290280926L165.08780738878252,276.7777396360116L166.47509988784793,275.9885432864444L167.8623923869133,276.1845276878971L169.24968488597872,264.92273554080657L170.6369773850441,268.03911839558214L172.02426988410951,268.234204962735L173.41156238317492,264.4621465449841L174.7988548822403,259.5187991520588L176.18614738130572,260.25335587137806L177.57343988037113,261.50442383719604L178.9607323794365,256.85582261870695L180.34802487850192,259.3244821571629L181.7353173775673,256.12395940228726L183.1226098766327,259.8793437544695L184.50990237569812,255.03001243894278L185.8971948747635,251.60387675071934L187.2844873738289,254.5410775316536L188.6717798728943,251.96339525678738L190.0590723719597,247.37725765315915L191.4463648710251,248.95526556616505L192.8336573700905,250.97167314158287L194.2209498691559,246.713629843528L195.60824236822128,249.1826741681125L196.9955348672867,252.20593877978942L198.3828273663521,249.1974243030386L199.77011986541748,250.60266324434497L201.1574123644829,252.99308293667127L202.5447048635483,251.8407767438366L203.93199736261369,249.75036196970265L205.3192898616791,252.53557222987683L206.70658236074448,246.18506196500263L208.0938748598099,253.63259748224934L209.48116735887527,255.04848217311107L210.8684598579407,254.94625732497116L212.2557523570061,250.20222914661235L213.64304485607147,257.6569473382578L215.0303373551369,246.76018896507728L216.4176298542023,253.75855080831383L217.80492235326767,244.0704056647728L219.19221485233305,250.76594082487463L220.5795073513985,253.93888724054068L221.96679985046387,246.4574905439854L223.35409234952925,245.52489723052804L224.7413848485947,245.90493766344977L226.12867734766007,246.19840121745753L227.51596984672545,239.1432192892448L228.9032623457909,246.32589368803607L230.29055484485627,241.75309533686277L231.67784734392166,239.5911103428266L233.0651398429871,243.978185255974L234.45243234205248,238.77497896426394L235.83972484111786,240.74482741813245L237.22701734018324,235.94102912781227L238.61430983924868,236.50448428198885L240.00160233831406,234.82348194858602L241.38889483737944,235.44491154612433L242.77618733644488,236.71932320373844L244.16347983551026,239.90176101057432L245.55077233457564,232.03801516432623L246.93806483364108,227.106339617299L248.32535733270646,232.46628212535416L249.71264983177184,228.4279517066766L251.09994233083728,232.53631320074237L252.48723482990266,228.37805777201356L253.87452732896804,234.81309272311634L255.26181982803345,231.2534362483011L256.64911232709886,226.76003210164296L258.03640482616424,232.0091562046882L259.4236973252296,230.04610563908997L260.81098982429506,230.73140973396036L262.19828232336044,234.73267242225847L263.5855748224258,232.3157024870652L264.97286732149126,230.12229329253432L266.36015982055665,229.50714853509498L267.747452319622,229.8546104091365L269.1347448186874,233.54368328517285L270.52203731775285,234.36404731114905L271.90932981681823,228.19117997560213L273.2966223158836,226.34677179962682L274.68391481494905,225.63132612469008L276.07120731401443,229.0066700439506L277.4584998130798,224.38179730338607L278.84579231214525,222.57099378263362L280.23308481121063,228.34855750216136L281.620377310276,220.6630958954547L283.00766980934145,225.62799131157635L284.39496230840683,221.9528989982091L285.7822548074722,224.42309768117912L287.1695473065376,215.35881911399022L288.55683980560303,219.9913875771249L289.9441323046684,222.1240005633517L291.3314248037338,212.63953554383352L292.71871730279923,217.32648711313047L294.1060098018646,213.62856415613848L295.49330230093,223.60953154347314L296.88059479999544,220.59255177189516L298.2678872990608,216.91861381691342L299.6551797981262,220.7807121887349L301.04247229719164,216.9936471119722L302.429764796257,210.13983659101132L303.8170572953224,216.16558736342583L305.20434979438784,215.59430822463628L306.5916422934532,216.89527012511735L307.9789347925186,216.09299104718093L309.36622729158404,210.0890448220484L310.7535197906494,212.14752234751631L312.14081228971486,219.27735278465934L313.52810478878024,211.2557163636807L314.9153972878456,217.16308127055797L316.30268978691106,217.0831740178714L317.68998228597644,208.64083809639212L319.0772747850418,214.72007414066908L320.46456728410726,213.9393430859291L321.85185978317264,206.69651378904794L323.239152282238,206.38381092861482L324.62644478130346,201.52332081536133L326.01373728036884,205.37297776902776L327.4010297794342,207.52380396533727L328.78832227849966,203.30616321077557L330.17561477756504,206.01852063061912L331.5629072766304,209.09809227910088L332.95019977569586,202.39935056792817L334.33749227476125,208.36994866192342L335.7247847738266,213.00405626957217L337.11207727289207,204.0157088317419L338.49936977195745,205.8231775393806L339.88666227102283,201.41186110013726L341.2739547700882,209.10937933887044L342.66124726915365,207.26509942493794L344.04853976821903,207.70337082530705L345.4358322672844,212.18561617423848L346.82312476634985,213.6162510000263L348.21041726541523,205.13966911310993L349.5977097644806,199.2788633277819L350.98500226354605,206.8464521171227L352.37229476261143,205.10914274691507L353.7595872616768,209.71426313288293L355.14687976074225,205.4197934146628L356.53417225980763,206.29813188400067L357.921464758873,204.08817688594397L359.3087572579384,202.13333509108725L360.69604975700383,211.57059967884197L362.0833422560692,196.9350027570049L363.4706347551346,199.17792110007028L364.85792725420004,203.69454067648167L366.2452197532654,192.95118370653245L367.6325122523308,196.8068689762122L369.01980475139624,203.43686223242503L370.4070972504616,197.91992698393915L371.794389749527,199.4149493552304L373.1816822485924,196.69015051723184L374.5689747476578,197.77127127629274L375.9562672467232,201.30001659878462L377.3435597457886,201.52024252633328L378.730852244854,198.4593971361055L380.1181447439194,198.96808439799133L381.5054372429848,196.29920781066903L382.8927297420502,202.9100900224994L384.2800222411156,190.051563704149L385.667314740181,193.97163651933215L387.0546072392464,200.2618636240736L388.4418997383118,199.14098163173367L389.8291922373772,196.08026450354873L391.21648473644257,194.51675020138327L392.603777235508,194.7109389342363L393.9910697345734,182.70817696568471L395.37836223363877,185.26328512101193L396.7656547327042,198.59086573001198L398.1529472317696,190.61232535542604L399.54023973083497,193.08675668580963L400.9275322299004,184.05608277384363L402.3148247289658,190.71326758313765L403.70211722803117,195.1613952286748L405.0894097270966,188.1431527687987L406.476702226162,187.49504466635062L407.86399472522737,183.904477039212L409.25128722429275,186.96096151998336L410.6385797233582,184.82450067247146L412.0258722224236,187.9158724288941L413.41316472148895,195.01594607209927L414.8004572205544,185.85906230998307L416.1877497196198,191.9847292137665L417.5750422186852,192.51329709229182L418.96233471775054,185.27893309023784L420.349627216816,178.6436810902687L421.7369197158814,185.01035237254018L423.12421221494674,185.6874476966691L424.5115047140122,185.40693860898776L425.8987972130776,187.7229663164694L427.28608971214294,178.21297715042692L428.6733822112084,184.19216880129218L430.0606747102738,175.74431761197093L431.44796720933914,181.33577310734427L432.8352597084046,183.9182010777954L434.2225522074699,175.40557755684222L435.60984470653534,175.47817387308714L436.9971372056008,182.8981330511242L438.3844297046661,184.51064345365285L439.77172220373154,172.22467889452037L441.159014702797,176.81774264846172L442.5463072018623,178.8592895842753L443.93359970092774,171.22731324943106L445.3208921999932,173.83449579414946L446.7081846990585,179.89244033931575L448.09547719812394,178.5894262461493L449.4827696971894,168.74749491324837L450.8700621962547,181.52624224095507L452.25735469532015,178.0357190072282L453.6446471943856,168.9425814804013L455.0319396934509,175.63054917997582L456.41923219251635,173.82538918910814L457.8065246915818,179.0234649991048L459.1938171906471,171.37032542719274L460.58110968971255,166.45545220777697L461.968402188778,169.69047745217543L463.3556946878433,163.931383466816L464.74298718690875,170.16248176981026L466.1302796859742,165.82414643294032L467.5175721850395,168.04769720753757L468.90486468410495,167.70292883639559L470.2921571831703,167.05328158943348L471.6794496822357,160.15765764250818L473.06674218130115,174.07088273909542L474.4540346803665,175.17560371403806L475.8413271794319,166.91475858317108L477.22861967849735,170.85253156026556L478.6159121775627,166.11004252642078L480.0032046766281,168.96784910283986L481.39049717569355,167.01198121164043L482.7777896747589,170.95757817334788L484.1650821738243,164.37978756856913L485.55237467288975,173.24820999634812L486.9396671719551,166.66323671717055L488.3269596710205,164.2430602309064L489.71425217008596,164.03732791419816L491.1015446691513,169.19397508435898L492.4888371682167,160.10417237064578L493.87612966728216,170.5327742874765L495.2634221663475,164.63810732283991L496.6507146654129,160.31785693400982L498.03800716447836,155.716584409327L499.4252996635437,162.88951089286275L500.8125921626091,160.9054253522395L502.19988466167456,160.2103733421136L503.5871771607399,168.20802476108204L504.9744696598053,161.57354233336991L506.3617621588707,158.69739428482538L507.7490546579361,162.80139486943474L509.1363471570015,158.06288195891784L510.5236396560669,156.1964127115748L511.9109321551323,150.934462404246L513.2982246541977,152.3443187790945L514.685517153263,159.93345559163163L516.0728096523285,156.2599024227784L517.4601021513939,155.05000657271057L518.8473946504593,164.17867268540297L520.2346871495247,163.0736951863746L521.6219796485901,157.00266791283912L523.0092721476555,159.55662170978079L524.3965646467209,149.62375258850946L525.7838571457863,154.49976240894603L527.1711496448517,153.25100315989906L528.5584421439171,156.9925352114551L529.9457346429825,155.03884777498388L531.3330271420479,147.16343008283775L532.7203196411133,151.86115566373294L534.1076121401787,155.32936130200642L535.494904639244,158.5751605580031L536.8821971383095,169.08533713407726L538.2694896373748,157.2771486845072L539.6567821364403,173.4570206020844L541.0440746355057,165.09497671942017L542.431367134571,156.20026057285986L543.8186596336365,151.8582056367477L545.2059521327019,155.1857078140306L546.5932446317672,162.68980689216778L547.9805371308327,156.02236111944694L549.3678296298981,161.00303276683738L550.7551221289634,153.09118865452595L552.1424146280289,148.13052588581786L553.5297071270943,153.6552851189167L554.9169996261596,147.4308564421499L556.3042921252251,155.24534966394913L557.6915846242905,143.6639285061124L559.0788771233558,145.94314500730025L560.4661696224213,149.11019136899588L561.8534621214867,147.46330673898728L563.240754620552,155.47981267825253L564.6280471196175,144.8027671844493L566.0153396186829,141.72601730090992L567.4026321177482,148.55058407610431L568.7899246168137,149.97493406179322L570.1772171158791,145.1367615439931L571.5645096149444,147.3946865460703L572.9518021140099,150.46091894209712L574.3390946130752,150.35548754288632L575.7263871121406,148.64998715930187L577.1136796112061,156.58363581889535L578.5009721102714,149.9998168981033L579.8882646093368,149.309767107648L581.2755571084023,146.92063003575007L582.6628496074676,149.44033786725458L584.050142106533,148.05523606667342L585.4374346055985,146.91126690662304L586.8247271046638,146.5373830517574L588.2120196037292,159.51660395241606L589.5993121027947,144.6085784515963L590.98660460186,152.37407557303234L592.3738971009254,148.57072121682953L593.7611895999909,144.363084901609L595.1484820990562,135.19991629939386L596.5357745981216,140.51432578224242L597.9230670971871,142.73390043351176L599.3103595962524,129.66887222619607L600.6976520953178,135.51184958756997L602.0849445943833,146.91665391242213L603.4722370934486,139.34431942749643L604.859529592514,136.77600028175723L606.2468220915795,136.40634907430513L607.6341145906448,139.3408563523399L609.0214070897102,138.48842681565475L610.4086995887757,140.84767883157204L611.795992087841,137.5878990129063L613.1832845869064,138.8084406125295L614.5705770859719,135.18054873092572L615.9578695850372,134.5067882199105L617.3451620841026,131.1100245394964L618.7324545831681,139.55633658430364L620.1197470822334,138.01142027834933L621.5070395812988,143.61980636337694L622.8943320803643,143.29158379576077L624.2816245794297,144.10976736700877L625.668917078495,133.88022814065883L627.0562095775605,128.65803906660904L628.4435020766259,127.73019144873663L629.8307945756912,131.89909262702076L631.2180870747567,131.78570898115416L632.6053795738221,132.97046547082618L633.9926720728874,143.3141579152998L635.3799645719529,129.1690350452659L636.7672570710183,126.70948211185126L638.1545495700836,124.81094735379929L639.5418420691491,124.98115108464211L640.9291345682145,143.65046099161466L642.3164270672798,124.08293199866468L643.7037195663453,126.60623116736863L645.0910120654107,122.84289456853048L646.478304564476,122.62779912269528L647.8655970635415,120.83777405288224L649.2528895626069,136.3662030548976L650.6401820616722,118.58241429166178L652.0274745607377,130.7691040296395L653.4147670598031,130.56003689981756L654.8020595588685,122.82275742780533L656.1893520579339,125.18932038016422L657.5766445569993,121.31157403911678L658.9639370560647,127.72172615390946L660.3512295551301,131.76749577107148L661.7385220541955,126.6400923466772L663.1258145532609,133.43631321040493L664.5131070523263,126.35201579846856L665.9003995513917,124.78388406276099L667.287692050457,120.13553936835754L668.6749845495225,121.58015475681444L670.0622770485879,113.27095483579842L671.4495695476533,113.76053105330176L672.8368620467187,119.757679390164L674.2241545457841,124.9847424218415L675.6114470448495,117.29594600202108L676.9987395439149,120.38436773145854L678.3860320429802,122.11013351781094L679.7733245420457,118.2172522557089L681.1606170411111,117.88261658595094L682.5479095401764,123.74393541945031L683.9352020392419,123.7143068875553L685.3224945383073,128.90725221583855L686.7097870373726,124.6633177424956L688.0970795364381,117.8395205395582L689.4843720355035,123.31515541025101L690.8716645345688,120.90921601074162L692.2589570336343,123.32785335249174L693.6462495326997,123.10326651548667L695.033542031765,121.77190651085358L696.4208345308305,112.36709221993625L697.8081270298959,113.04970281190711L699.1954195289612,124.23158770631112L700.5827120280267,127.02333933066986L701.9700045270921,122.74887849113203L703.3572970261574,127.7210848436953L704.7445895252229,112.38607500227592L706.1318820242883,118.2691983830573L707.5191745233536,121.67622302689827L708.9064670224191,110.07799954145005L710.2937595214845,114.04873586355326L711.6810520205498,120.69219663426387L713.0683445196153,121.36146797377978L714.4556370186806,108.20691286056493L715.842929517746,109.87624334806969L717.2302220168115,119.21128308768449L718.6175145158768,120.00355772627975L720.0048070149422,117.81322682077689L721.3920995140077,107.07448728436977L722.779392013073,121.78858057642223L724.1666845121384,115.1278044299288L725.5539770112039,124.014055281662L726.9412695102692,125.39389833848692L728.3285620093346,126.00224520765596L729.7158545084001,132.11046847361376L731.1031470074654,133.32203173023848L732.4904395065308,125.76752566926692L733.8777320055963,130.4534511422212L735.2650245046616,128.75538995712125L736.652317003727,115.60224572637756L738.0396095027925,115.8159302897416L739.4269020018578,123.81088820581046L740.8141945009232,115.05097546627033L742.2014869999887,108.90004094004829L743.588779499054,105.01921630997278L744.9760719981194,108.67660846142876L746.3633644971848,115.79553662493076L747.7506569962502,118.04871593142299L749.1379494953156,106.05762580876949L750.525241994381,108.70905875826611L751.9125344934464,114.6579805670222L753.2998269925118,113.69062823995638L754.6871194915772,118.46377190203887L756.0744119906426,102.98831512371454L757.461704489708,113.92380863383141L758.8489969887734,120.01907743346283L760.2362894878388,103.23791305907254L761.6235819869042,114.49996173024878L763.0108744859696,110.13905227383978L764.398166985035,114.85178451374671L765.7854594841004,112.41749920277063L767.1727519831658,111.52582148097783L768.5600444822312,97.73739535206964L769.9473369812966,110.73624034528216L771.334629480362,108.21473684517788L772.7219219794274,106.0380017162156L774.1092144784928,107.08128517264004L775.4965069775582,95.27386629532707L776.8837994766236,100.78567106209952L778.271091975689,102.98600640694352L779.6583844747544,112.83691608284292L781.0456769738198,105.9642510415852L782.4329694728851,106.92403590812368L783.8202619719506,111.66395970111171L785.207554471016,105.26547943221706L786.5948469700813,95.66519378801836L787.9821394691468,99.08876423538509L789.3694319682122,94.07564229115725L790.7567244672775,90.67028505387319L792.144016966343,94.28355506259372L793.5313094654084,95.42855031898672L794.9186019644737,82.94134261464524L796.3058944635392,85.76605758401276L797.6931869626046,85.5850798415718L799.0804794616699,98.61983820677827L800.4677719607354,89.3985668991586L801.8550644598008,96.80993252032572L803.2423569588661,92.95129722366073L804.6296494579316,93.87170564304871L806.016941956997,106.44266846136182L807.4042344560623,96.76978650091814L808.7915269551278,96.44643789092974L810.1788194541932,100.13897384212262L811.5661119532585,108.02901340715201L812.953404452324,98.05676783873017L814.3406969513894,104.76371832064436L815.7279894504547,107.12720298397517L817.1152819495202,94.19646513550838L818.5025744485855,116.54394564487622L819.889866947651,101.62463308428688L821.2771594467164,99.46495680702178L822.6644519457817,114.4741810596388L824.0517444448471,103.29537445426287L825.4390369439126,104.47730917899256L826.8263294429779,112.92221034132857L828.2136219420433,90.8939740565784L829.6009144411088,95.13649764745018L830.9882069401741,94.16658007952768L832.3754994392395,100.0725341039338L833.762791938305,96.44579658071554L835.1500844373704,96.53840177564281L836.5373769364356,100.51632077214485L837.9246694355011,88.32706579331037L839.3119619345665,94.1151470003506L840.699254433632,85.91676548434452L842.0865469326974,92.07295875432287L843.4738394317628,98.52069164766637L844.861131930828,93.90646465665718L846.2484244298935,107.47787140908761L847.6357169289589,97.15418784329633L849.0230094280244,100.71179212542623L850.4103019270898,103.50405679795634L851.7975944261552,100.82838232236375L853.1848869252204,112.14173581067418L854.5721794242859,103.79816166217826L855.9594719233513,112.89322311964771L857.3467644224168,101.32975864780796L858.7340569214822,103.06912021070094L860.1213494205476,99.72135263065005L861.5086419196128,103.44556930642332L862.8959344186783,107.92499289041237L864.2832269177437,94.73991141100261L865.6705194168092,101.42980304121967L867.0578119158746,102.68010143478072L868.4451044149398,103.35437499396726L869.8323969140052,109.61497356681366L871.2196894130707,98.36882938894905L872.6069819121361,108.18395395489733L873.9942744112016,101.36798073657295L875.381566910267,93.58388561892573L876.7688594093322,107.73452375680156L878.1561519083976,104.98407251023582L879.5434444074631,105.72119447041177L880.9307369065285,94.36128186055205L882.318029405594,98.16130140364116L883.7053219046594,105.2385444032216L885.0926144037246,93.90223200924358L886.47990690279,104.31544248093407L887.8671994018555,111.28276490980446L889.2544919009209,101.12081978002881L890.6417843999864,99.2027891914659L892.0290768990518,92.89434887664177L893.416369398117,90.01871387626856L894.8036618971825,105.36962821099954L896.1909543962479,96.34190432601875L897.5782468953133,92.93731666099168L898.9655393943788,94.18338240713912L900.3528318934442,98.71026294697732L901.7401243925094,97.230888544912L903.1274168915749,91.74037527725024L904.5147093906403,99.79920769065122L905.9020018897057,105.17518295406084L907.2892943887712,99.08825118721371L908.6765868878364,103.21251717459113L910.0638793869018,97.02233446326137L911.4511718859673,89.604170953824L912.8384643850327,92.16120303979369L914.2257568840981,91.68304214410276L915.6130493831636,91.67842471056066L917.0003418822288,83.83699645976597L918.3876343812942,87.14718326126606L919.7749268803597,92.43401640490497L921.1622193794251,88.8202333480131L922.5495118784905,91.8264391079929L923.936804377556,91.75307321949097L925.3240968766212,100.75655557837584L926.7113893756866,85.02188121148085L928.0986818747521,95.46818329022291L929.4859743738175,91.24400117147664L930.8732668728829,97.42751425657892L932.2605593719484,101.70235988224526L933.6478518710136,89.5048961326693L935.035144370079,92.48403860161082L936.4224368691445,101.39619838599678L937.8097293682099,105.73940768049444L939.1970218672753,98.37472944291952L940.5843143663405,105.59126502101937L941.971606865406,94.8884388566062L943.3588993644714,94.1573452124435L944.7461918635369,102.97548891943102L946.1334843626023,94.34653172562594L947.5207768616677,93.1046986268921L948.908069360733,99.00706131409883L950.2953618597984,93.42227544495293L951.6826543588638,98.33535299576901L953.0699468579293,88.51663709262134L954.4572393569947,109.10051451300023L955.8445318560601,95.8901654111519L957.2318243551254,111.01431245414963L958.6191168541908,111.35523296400653L960.0064093532562,84.09621404833662L961.3937018523217,104.10316880004125L962.7809943513871,86.0313034885967L964.1682868504525,92.93936885367707L965.5555793495178,90.40940005874567L966.9428718485832,98.15437525332801L968.3301643476486,95.62273905183977L969.7174568467141,90.92488520890174L971.1047493457795,90.43890032859785L972.4920418448448,94.96950046767829L973.8793343439102,100.12896940278145L975.2666268429756,92.89191189782791L976.653919342041,102.40395325655574L978.0412118411065,101.59500455239187L979.4285043401719,85.7291181156761L980.8157968392372,100.65138070325067L982.2030893383026,98.80928124404639L983.590381837368,87.24992115757736L984.9776743364334,87.28391059892878L986.3649668354989,95.4622832362525L987.7522593345643,94.94282196276846L989.1395518336296,94.06820309267277L990.526844332695,90.38554331877823L991.9141368317604,85.46938747893414L993.3014293308258,75.6306626971041L994.6887218298913,79.3859187872436L996.0760143289567,86.17085259120176L997.463306828022,89.60481226403822L998.8505993270874,90.36463660579602L1000.2378918261528,76.56158860400457L1001.6251843252182,81.42079609682972L1003.0124768242837,75.40466497762786L1004.3997693233491,75.74956161081268L1005.7870618224144,75.62181261614845L1007.1743543214798,66.97707919107462L1008.5616468205452,73.23729297779259L1009.9489393196106,71.15880657364237L1011.3362318186761,74.86327089481897L1012.7235243177414,82.97148419471162L1014.1108168168068,75.04309427887442L1015.4981093158722,90.15467164167423L1016.8854018149376,97.41635545885221L1018.272694314003,89.19026934159365L1019.6599868130685,79.11130975353264L1021.0472793121338,85.25365072288471L1022.4345718111992,86.94068137230082L1023.8218643102646,98.24890437889783L1025.2091568093301,83.4525951173878L1026.5964493083954,83.06614158232424L1027.983741807461,85.58315591092926L1029.371034306526,75.66465213845551L1030.7583268055917,80.73164414067428L1032.145619304657,70.60830588579213L1033.5329118037225,89.28300279856377L1034.9202043027879,78.8781293596576L1036.3074968018534,85.00520714591225L1037.6947893009185,77.2675428877715L1039.082081799984,75.95183085236432L1040.4693742990494,68.99848898616304L1041.856666798115,84.11429899637645L1043.2439592971803,74.66818432766607L1044.6312517962456,88.25331511867992L1046.018544295311,83.3022720031845L1047.4058367943765,72.25352310924386L1048.7931292934418,65.56016840387024L1050.1804217925073,68.84880718217396L1051.5677142915727,74.8862298004865L1052.955006790638,70.23724379586885L1054.3422992897033,74.18527773639019L1055.7295917887689,64.51778278174565L1057.1168842878342,73.86321174683012L1058.5041767868997,64.54215256988438L1059.891469285965,78.51643039886133L1061.2787617850304,69.15445563025106L1062.6660542840957,75.23971999054133L1064.0533467831613,68.91742737509095L1065.4406392822266,74.05740047968312L1066.8279317812921,68.83713533627592L1068.2152242803575,76.52862525899585L1069.6025167794228,73.09569168250214L1070.989809278488,84.68378246656634L1072.3771017775537,98.45835629484831L1073.764394276619,82.38737885163846L1075.1516867756845,96.30509311972494L1076.5389792747496,92.58793085630761L1077.9262717738152,84.23871317792691L1079.3135642728805,85.04779014413363L1080.700856771946,92.56073930322646L1082.0881492710114,96.44579658071554L1083.475441770077,85.61983885518022L1084.862734269142,99.92362187220174L1086.2500267682076,91.64648746189464L1087.637319267273,82.04248221845369L1089.0246117663385,89.20963691006185L1090.4119042654038,82.58849373480462L1091.7991967644693,86.98159696396533L1093.1864892635344,114.09388410263139L1094.5737817626,94.80211850177787L1095.9610742616653,93.06134605641367L1097.3483667607309,101.49714061370834L1098.7356592597962,98.62086430312097L1100.1229517588617,116.36989405274838L1101.5102442579268,91.8596589770873L1102.8975367569924,102.090993872037L1104.2848292560577,107.9360234260962L1105.6721217551233,103.35604240052412L1107.0594142541886,100.38356955781L1108.4467067532541,95.96058127266865L1109.8339992523192,100.69999201748536L1111.2212917513848,105.24777927030577L1112.6085842504501,94.87240610125177L1113.9958767495157,97.25256483015123L1115.383169248581,97.16727057166558L1116.7704617476463,96.10692826354402L1118.1577542467116,84.46573699374589L1119.5450467457772,90.75275754741644L1120.9323392448425,97.17406845993584L1122.319631743908,98.42090377834029L1123.7069242429734,93.6645624438693L1125.0942167420387,94.87869094135071L1126.481509241104,109.95243100151406L1127.8688017401696,109.92934383380361L1129.256094239235,103.10208355570971L1130.6433867383005,102.39125531431502L1132.0306792373658,89.59788611372505L1133.4179717364311,93.83951187029699L1134.8052642354965,83.56815921798263L1136.192556734562,93.54899834327448L1137.5798492336273,90.32667104111674L1138.9671417326929,95.78101441269887L1140.3544342317582,93.93634971263783L1141.7417267308235,93.01722391367824L1143.1290192298889,79.131318632215L1144.5163117289544,75.32924689644055L1145.9036042280197,74.00660871072026L1147.2908967270853,72.24044038087462L1148.6781892261504,77.4424923141992L1150.065481725216,74.7591221160365L1151.4527742242813,79.4306822401932L1152.8400667233468,80.16280198069855L1154.2273592224121,76.85607825435501L1155.6146517214777,85.36613653445151L1157.0019442205428,71.50819237832643L1158.3892367196083,74.33547258855064L1159.7765292186737,73.76906740738882L1161.1638217177392,72.89085720009375L1162.5511142168045,76.9652292528081L1163.93840671587,81.10398885102589L1165.3256992149352,92.55932842075529L1166.7129917140007,81.35897379218298L1168.100284213066,74.66728649336622L1169.4875767121316,68.96360171051178L1170.874869211197,72.19798564469603L1172.2621617102625,70.1651605277953L1173.6494542093276,66.97797702537447L1175.0367467083931,64.47725197620962L1176.4240392074585,78.75923044594906L1177.811331706524,69.76934386360473L1179.1986242055893,72.73912320341928L1180.5859167046547,82.3445393293314L1181.97320920372,79.20404321050276L1183.3605017027855,72.83236970856073L1184.7477942018509,69.87580135915827L1186.1350867009164,72.57404995428992L1187.5223791999817,73.5735960541074L1188.909671699047,76.0927908374406L1190.2969641981124,78.61532043388756L1191.684256697178,75.57769047341301L1193.0715491962433,82.47600792323787L1194.4588416953088,81.04011435369378L1195.8461341943741,59.19670367266965L1197.2334266934395,79.24649794668134L1198.6207191925048,68.85162894711634L1200.0080116915703,74.7256457228564L1201.3953041906357,67.53553212558064L1202.7825966897012,73.72199523766815L1204.1698891887665,58.50652562017152L1205.5571816878319,59.96268459248361L1206.9444741868972,63.473473228978534L1208.3317666859627,65.20821735832946L1209.719059185028,65.57530332492483L1211.1063516840936,64.20802994829778L1212.493644183159,67.8578546392264L1213.8809366822243,60.665560587222465L1215.2682291812896,62.29615593779093L1216.6555216803552,62.50958397706929L1218.0428141794205,63.11651996376715L1219.430106678486,53.31499117435944L1220.8173991775514,50.98511116625152L1222.2046916766167,77.4124789961757L1223.591984175682,60.219721726326085L1224.9792766747476,72.19965305125292L1226.3665691738129,77.48032961683569L1227.7538616728784,55.99464177327996L1229.1411541719438,53.57087394981638L1230.528446671009,52.1252324650168L1231.9157391700744,40.21956486289177L1233.30303166914,59.8468639678031L1234.6903241682053,44.31022619504625L1236.0776166672708,61.50824220865211L1237.4649091663362,50.522854763872175L1238.8522016654015,44.72887350286148L1240.2394941644668,55.96013928375717L1241.6267866635324,40.830348710874716L1243.0140791625977,55.67308883189121L1244.4013716616632,43.689181383636445L1245.7886641607286,52.16832851140955L1247.1759566597939,41.47165892505247L1248.5632491588594,39.75499974374136L1249.9505416579248,40.130935791292416L1251.33783415699,45.13495113047887L1252.7251266560554,43.74689930291245L1254.112419155121,37.05854681720945L1255.4997116541863,44.27379977488092L1256.8870041532518,35.504908692342305L1258.2742966523172,29.9860495132139L1259.6615891513825,34.6156679493634L1261.0488816504478,36.78380952145568L1262.4361741495134,38.97632088168672L1263.8234666485787,42.73657919149675L1265.2107591476442,47.70852901997437L1266.5980516467096,34.100054537164446L1267.985344145775,36.5910316710738L1269.3726366448402,35.1096050763231L1270.7599291439058,39.91571208341431L1272.147221642971,34.00372974299493L1273.5345141420366,43.27322757872076L1274.921806641102,34.089024001480574L1276.3090991401673,35.09998542311045L1277.6963916392326,36.26627217861418L1279.0836841382982,45.860272982713944L1280.4709766373635,47.73982495842624L1281.858269136429,46.14629733823727L1283.2455616354944,57.71502055383331L1284.6328541345597,48.4610424252906L1286.020146633625,72.11628272340978L1287.4074391326906,66.08399058681064L1288.794731631756,59.90958410674968L1290.1820241308214,63.18000967497078L1291.5693166298868,70.51185282957978L1292.956609128952,63.66471193484635L1294.3439016280174,55.46568910862611L1295.731194127083,68.16645311428879L1297.1184866261483,59.408207781305514L1298.5057791252138,64.23868457653545L1299.8930716242792,67.97880574562036L1301.2803641233445,70.15720828113946L1302.6676566224098,67.79231273533743L1304.0549491214754,72.12731325909365L1305.4422416205407,58.850396157013655L1306.8295341196063,65.9228934610092L1308.2168266186716,55.043963511782806L1309.604119117737,66.12824099158892L1310.9914116168022,52.12369332050278L1312.3787041158678,72.06266918950453L1313.765996614933,60.132760061283584L1315.1532891139987,58.06915205410226L1316.540581613064,54.89735999682175L1317.9278741121293,59.40718168496282L1319.3151666111946,49.88872722409317L1320.7024591102602,43.89311803174498L1322.0897516093255,51.57704049393764L1323.477044108391,62.705696640564874L1324.8643366074562,57.4182221867118L1326.2516291065217,57.96077062790623L1327.638921605587,50.89866254938039L1329.0262141046526,53.01088187079635L1330.413506603718,56.58310802580947L1331.8007991027835,50.75475253731888L1333.1880916018486,64.75930020840501L1334.575384100914,48.75630164789805L1335.9626765999794,55.784163760986786L1337.349969099045,72.37614162219464L1338.7372615981103,69.00118248906259L1340.1245540971759,63.17410962100032L1341.511846596241,71.59925842873965L1342.8991390953065,64.90346674455216L1344.2864315943718,68.49672787459035L1345.6737240934374,78.36020723068762L1347.0610165925027,56.03594215107301L1348.4483090915683,58.60002864939865L1349.8356015906334,67.0566016576327L1351.222894089699,61.787468675905124L1352.6101865887642,63.88455307626649L1353.9974790878298,63.92726433653072L1355.384771586895,65.5030917948084L1356.7720640859604,62.49162729107231L1358.1593565850258,61.78439038687705L1359.5466490840913,72.36972852005286L1360.9339415831566,73.5797526321635L1362.3212340822222,71.2703945509093L1363.7085265812875,85.72257675149153L1365.0958190803528,70.76747908095108L1366.4831115794182,59.73129986720828L1367.8704040784837,70.23673074769754L1369.257696577549,74.44334096657535L1370.6449890766146,62.75482100297088L1372.03228157568,83.49261287475247L1373.4195740747452,68.78429137462767L1374.8068665738106,74.06522446429612L1376.1941590728761,68.60831585185728L1377.5814515719414,71.71584862567717L1378.968744071007,75.20765447983241L1380.3560365700723,76.34277355892712L1381.7433290691376,72.07754758647347L1383.130621568203,66.10156248667913L1384.5179140672685,80.11880810000595L1385.9052065663338,70.84341021030971L1387.2924990653994,57.0474166208742L1388.6797915644645,65.4767980760271L1390.06708406353,62.02988393686433L1391.4543765625954,68.31639144236355L1392.841669061661,66.49263345528473L1394.2289615607262,68.93474275087377L1395.6162540597918,55.7610765932764L1397.003546558857,72.30700838110627L1398.3908390579224,63.453592612339015L1399.7781315569878,62.24267066592852L1401.1654240560533,67.23090977384622L1402.5527165551186,67.46434669180694L1403.9400090541842,66.54791439574684L1405.3273015532493,63.00762548939979L1406.7145940523149,55.00150877560422L1408.1018865513802,57.06550156891402L1409.4891790504457,38.772512495621015L1410.876471549511,54.077637281059694L1412.2637640485766,52.38483483971597L1413.6510565476417,52.310955903042725L1415.0383490467073,50.7851506414709L1416.4256415457726,51.91873057605155L1417.8129340448381,47.227802883426676L1419.2002265439035,61.974987782530704L1420.587519042969,55.60267297037446L1421.974811542034,64.56472668942344L1423.3621040410997,63.60814837395587L1424.749396540165,65.34930560544855L1426.1366890392305,49.95619305862467L1427.5239815382959,45.293867801552125L1428.9112740373612,53.63025927564925L1430.2985665364265,55.34614888470336L1431.685859035492,60.490867684880456L1433.0731515345574,68.33370681814633L1434.460444033623,58.75984315477176L1435.8477365326883,53.69015764965345L1437.2350290317536,64.08900277254637L1438.622321530819,55.66077567577901L1440.0096140298845,49.88295543216559L1441.3969065289498,62.0593842067165L1442.7841990280153,59.85969017208667L1444.1714915270807,59.70205612144175L1445.558784026146,59.32445266733388L1446.9460765252113,59.25365201968866L1448.3333690242769,48.67395741639759L1449.7206615233422,57.88855909778979L1451.1079540224077,54.83758988486036L1452.495246521473,60.41416698326477L1453.8825390205384,54.44523629582638L1455.2698315196037,54.953410509540866L1456.6571240186693,47.350677920463134L1458.0444165177346,48.8521133938962L1459.4317090168001,47.22716157321251L1460.8190015158652,47.70929859223138L1462.2062940149308,47.5850126727237L1463.5935865139961,50.56877257520731L1464.9808790130617,35.27711530426637L1466.368171512127,33.42680707432061L1467.7554640111925,38.055142890041736L1469.1427565102576,50.37445558031143L1470.5300490093232,31.422456130929312L1471.9173415083885,36.28743541568203L1473.304634007454,34.27025826800721L1474.6919265065194,25.861013953579484L1476.079219005585,25.77879798412191L1477.46651150465,34.66222707091271L1478.8538040037156,34.80280226986046L1480.241096502781,27.741463763591625L1481.6283890018465,20.083835020180274L1483.0156815009118,42.235715914223896L1484.4029739999773,28.684061516390138L1485.7902664990424,28.100084435359864L1487.177558998108,25.15416183551275L1488.5648514971733,21.61117942626611L1489.9521439962389,26.621094819423025L1491.3394364953042,23.125056317854213L1492.7267289943695,39.67021853342708L1494.1140214934348,24.86608528730409L1495.5013139925004,30.963278017578038L1496.8886064915657,40.337565942300465L1498.2758989906313,27.553559870837518L1499.6631914896966,31.24981542127264L1501.050483988762,31.925371600887544L1502.4377764878273,29.30831287887081L1503.8250689868928,29.533412764047206L1505.2123614859581,40.41888407745823L1506.5996539850237,34.167392109653115L1507.986946484089,20.65254891811316L1509.3742389831543,14.713503286655419L1510.7615314822197,21.33002902837056L1512.1488239812852,31.35178374532693L1513.5361164803505,24.008910055034022L1514.923408979416,30.94865614469477L1516.3107014784814,31.28906360638035L1517.6979939775467,27.084633842230748L1519.085286476612,30.72188885296148L1520.4725789756776,26.298515781691584L1521.859871474743,28.25194669407713L1523.2471639738085,19.654541962809652L1524.6344564728738,26.97625241603467L1526.0217489719391,24.40152016815368" fill="none"></path></g></g></g></g></g></g><g transform="translate(41, 376)" clip-path="url(#clip_1)"><clipPath id="clip_1"><rect width="1664" height="23"></rect></clipPath><g><g><line x1="0" y1="0" x2="0" y2="5" style="visibility: inherit;" fill="rgb(0, 0, 0)" stroke="rgb(204, 204, 204)" stroke-width="1px"></line><line x1="138.7292499065399" y1="0" x2="138.7292499065399" y2="5" style="visibility: inherit;" fill="rgb(0, 0, 0)" stroke="rgb(204, 204, 204)" stroke-width="1px"></line><line x1="277.4584998130798" y1="0" x2="277.4584998130798" y2="5" style="visibility: inherit;" fill="rgb(0, 0, 0)" stroke="rgb(204, 204, 204)" stroke-width="1px"></line><line x1="416.1877497196198" y1="0" x2="416.1877497196198" y2="5" style="visibility: inherit;" fill="rgb(0, 0, 0)" stroke="rgb(204, 204, 204)" stroke-width="1px"></line><line x1="554.9169996261596" y1="0" x2="554.9169996261596" y2="5" style="visibility: inherit;" fill="rgb(0, 0, 0)" stroke="rgb(204, 204, 204)" stroke-width="1px"></line><line x1="693.6462495326997" y1="0" x2="693.6462495326997" y2="5" style="visibility: inherit;" fill="rgb(0, 0, 0)" stroke="rgb(204, 204, 204)" stroke-width="1px"></line><line x1="832.3754994392395" y1="0" x2="832.3754994392395" y2="5" style="visibility: inherit;" fill="rgb(0, 0, 0)" stroke="rgb(204, 204, 204)" stroke-width="1px"></line><line x1="971.1047493457795" y1="0" x2="971.1047493457795" y2="5" style="visibility: inherit;" fill="rgb(0, 0, 0)" stroke="rgb(204, 204, 204)" stroke-width="1px"></line><line x1="1109.8339992523192" y1="0" x2="1109.8339992523192" y2="5" style="visibility: inherit;" fill="rgb(0, 0, 0)" stroke="rgb(204, 204, 204)" stroke-width="1px"></line><line x1="1248.5632491588594" y1="0" x2="1248.5632491588594" y2="5" style="visibility: inherit;" fill="rgb(0, 0, 0)" stroke="rgb(204, 204, 204)" stroke-width="1px"></line><line x1="1387.2924990653994" y1="0" x2="1387.2924990653994" y2="5" style="visibility: inherit;" fill="rgb(0, 0, 0)" stroke="rgb(204, 204, 204)" stroke-width="1px"></line><line x1="1526.0217489719391" y1="0" x2="1526.0217489719391" y2="5" style="visibility: inherit;" fill="rgb(0, 0, 0)" stroke="rgb(204, 204, 204)" stroke-width="1px"></line><line x1="1664.750998878479" y1="0" x2="1664.750998878479" y2="5" style="visibility: inherit;" fill="rgb(0, 0, 0)" stroke="rgb(204, 204, 204)" stroke-width="1px"></line></g><g transform="translate(0, 8)"><text style="text-anchor: middle; visibility: hidden; font-family: Roboto, sans-serif; font-size: 12px; font-weight: 200;" x="0" y="0" dx="0em" dy="0.95em" fill="rgb(255, 255, 255)" stroke="none" stroke-width="1px">-100</text><text style="text-anchor: middle; visibility: inherit; font-family: Roboto, sans-serif; font-size: 12px; font-weight: 200;" x="138.7292499065399" y="0" dx="0em" dy="0.95em" fill="rgb(255, 255, 255)" stroke="none" stroke-width="1px">0</text><text style="text-anchor: middle; visibility: inherit; font-family: Roboto, sans-serif; font-size: 12px; font-weight: 200;" x="277.4584998130798" y="0" dx="0em" dy="0.95em" fill="rgb(255, 255, 255)" stroke="none" stroke-width="1px">100</text><text style="text-anchor: middle; visibility: inherit; font-family: Roboto, sans-serif; font-size: 12px; font-weight: 200;" x="416.1877497196198" y="0" dx="0em" dy="0.95em" fill="rgb(255, 255, 255)" stroke="none" stroke-width="1px">200</text><text style="text-anchor: middle; visibility: inherit; font-family: Roboto, sans-serif; font-size: 12px; font-weight: 200;" x="554.9169996261596" y="0" dx="0em" dy="0.95em" fill="rgb(255, 255, 255)" stroke="none" stroke-width="1px">300</text><text style="text-anchor: middle; visibility: inherit; font-family: Roboto, sans-serif; font-size: 12px; font-weight: 200;" x="693.6462495326997" y="0" dx="0em" dy="0.95em" fill="rgb(255, 255, 255)" stroke="none" stroke-width="1px">400</text><text style="text-anchor: middle; visibility: inherit; font-family: Roboto, sans-serif; font-size: 12px; font-weight: 200;" x="832.3754994392395" y="0" dx="0em" dy="0.95em" fill="rgb(255, 255, 255)" stroke="none" stroke-width="1px">500</text><text style="text-anchor: middle; visibility: inherit; font-family: Roboto, sans-serif; font-size: 12px; font-weight: 200;" x="971.1047493457795" y="0" dx="0em" dy="0.95em" fill="rgb(255, 255, 255)" stroke="none" stroke-width="1px">600</text><text style="text-anchor: middle; visibility: inherit; font-family: Roboto, sans-serif; font-size: 12px; font-weight: 200;" x="1109.8339992523192" y="0" dx="0em" dy="0.95em" fill="rgb(255, 255, 255)" stroke="none" stroke-width="1px">700</text><text style="text-anchor: middle; visibility: inherit; font-family: Roboto, sans-serif; font-size: 12px; font-weight: 200;" x="1248.5632491588594" y="0" dx="0em" dy="0.95em" fill="rgb(255, 255, 255)" stroke="none" stroke-width="1px">800</text><text style="text-anchor: middle; visibility: inherit; font-family: Roboto, sans-serif; font-size: 12px; font-weight: 200;" x="1387.2924990653994" y="0" dx="0em" dy="0.95em" fill="rgb(255, 255, 255)" stroke="none" stroke-width="1px">900</text><text style="text-anchor: middle; visibility: inherit; font-family: Roboto, sans-serif; font-size: 12px; font-weight: 200;" x="1526.0217489719391" y="0" dx="0em" dy="0.95em" fill="rgb(255, 255, 255)" stroke="none" stroke-width="1px">1k</text><text style="text-anchor: middle; visibility: hidden; font-family: Roboto, sans-serif; font-size: 12px; font-weight: 200;" x="1664.750998878479" y="0" dx="0em" dy="0.95em" fill="rgb(255, 255, 255)" stroke="none" stroke-width="1px">1.1k</text></g><line x1="0" y1="0" x2="1664.750998878479" y2="0" fill="rgb(0, 0, 0)" stroke="rgb(204, 204, 204)" stroke-width="1px"></line></g></g></g></g></svg>